<?xml version="1.0" standalone="no"?>
<!DOCTYPE svg PUBLIC "-//W3C//DTD SVG 1.1//EN" "http://www.w3.org/Graphics/SVG/1.1/DTD/svg11.dtd" >
<svg xmlns="http://www.w3.org/2000/svg" xmlns:xlink="http://www.w3.org/1999/xlink" version="1.1">
<metadata>
Created by FontForge 20170731 at Tue Jul 27 00:08:30 2021
 By Aleksey,,,
Copyright (C) 2000, 2007 Hoefler &#38; Co. http://www.typography.com
</metadata>
<defs>
<font id="Archer-MediumItalic" horiz-adv-x="0" >
  <font-face 
    font-family="Archer Medium"
    font-weight="350"
    font-style="italic"
    font-stretch="normal"
    units-per-em="2048"
    panose-1="0 0 0 0 0 0 0 0 0 0"
    ascent="1638"
    descent="-410"
    x-height="872"
    cap-height="1348"
    bbox="-227 -569 2171 2189"
    underline-thickness="102"
    underline-position="-307"
    slope="-12"
    unicode-range="U+0020-FB04"
  />
<missing-glyph horiz-adv-x="1024" 
d="M0 -410v2048h1024v-2048h-1024zM145 1536l367 -799l367 799h-734zM102 -156l353 770l-353 770v-1540zM922 1384l-353 -770l353 -770v1540zM512 492l-367 -799h734z" />
    <glyph glyph-name="f_f" unicode="ff" horiz-adv-x="1198" 
d="M754 1251q-40 0 -68 23t-31 61q-32 -6 -67 -37q-59 -59 -90 -200l-52 -226h414l68 291q42 171 131 260q90 86 221 86q75 0 119.5 -33.5t44.5 -86.5q0 -43 -30.5 -72t-70.5 -29q-41 0 -68 26t-30 68q-51 -7 -90 -43q-59 -56 -90 -194l-64 -273h230l-31 -124h-227
l-172 -748h-142l172 748h-413l-172 -748h-142l172 748h-155l31 124h153l57 248q39 169 130 260q86 86 204 86q71 0 112.5 -32t41.5 -84q0 -42 -28.5 -70.5t-67.5 -28.5z" />
    <glyph glyph-name="fi" unicode="fi" horiz-adv-x="1142" 
d="M831 748h-413l-172 -748h-142l172 748h-155l31 124h153l60 256q36 143 100 226q108 155 295 155q95 0 151 -42t56 -101q0 -47 -28.5 -76.5t-72.5 -29.5t-70 28.5t-26 67.5q0 16 2 24q-5 0 -15.5 1t-15.5 1q-101 0 -166 -96q-53 -72 -75 -184l-54 -230h564l-172 -634
q-15 -50 -15 -86q0 -30 16 -47t44 -17q32 0 60 31.5t58 105.5l72 -24q-69 -215 -223 -215q-78 0 -124 45t-46 119q0 40 14 94z" />
    <glyph glyph-name="fl" unicode="fl" horiz-adv-x="1140" 
d="M152 872h153l76 324q22 102 80 172q109 141 295 141q149 0 223 -112l61 102h88l-294 -1259q-15 -83 -15 -86q0 -31 16.5 -48.5t43.5 -17.5q33 0 60.5 31t57.5 106l72 -24q-69 -215 -221 -215q-79 0 -125.5 45t-46.5 119q0 18 14 90l121 508h-393l-172 -748h-142l172 748
h-155zM516 1174l-70 -302h396l61 258q0 7 2 9q-30 10 -48.5 36.5t-18.5 57.5q0 54 41 84q-44 65 -134 65q-104 0 -167 -75q-47 -53 -62 -133z" />
    <glyph glyph-name="f_f_i" unicode="ffi" horiz-adv-x="1697" 
d="M659 0l175 748h-416l-172 -748h-142l172 748h-155l31 124h153l64 275q20 99 80 178q111 139 294 139q70 0 123.5 -30.5t53.5 -90.5q0 -43 -29 -71.5t-68 -28.5q-43 0 -69 27.5t-31 70.5q-93 -6 -154 -77q-46 -49 -63 -134l-60 -258h416l60 256q37 147 98 226
q111 155 297 155q95 0 151 -42t56 -101q0 -47 -29 -76.5t-72 -29.5q-44 0 -71 28.5t-27 67.5q0 16 4 24q-5 0 -15.5 1t-15.5 1q-100 0 -165 -96q-53 -72 -78 -184l-54 -230h564l-172 -634q-15 -62 -15 -86q0 -30 16.5 -47t43.5 -17q33 0 62 31.5t59 105.5l71 -24
q-72 -215 -223 -215q-79 0 -125.5 45t-46.5 119q0 32 16 94l138 504h-416l-172 -748h-142z" />
    <glyph glyph-name="f_f_l" unicode="ffl" horiz-adv-x="1697" 
d="M121 748l31 124h153l64 275q20 99 80 178q111 139 294 139q70 0 123.5 -30.5t53.5 -90.5q0 -43 -29 -71.5t-68 -28.5q-43 0 -69 27.5t-31 70.5q-93 -6 -154 -77q-46 -49 -63 -134l-60 -258h414l76 324q25 102 80 172q112 141 295 141q148 0 225 -112l61 102h86
l-292 -1259q-15 -82 -15 -86q0 -32 16 -49t44 -17q32 0 60 31.5t58 105.5l72 -24q-69 -215 -223 -215q-78 0 -124 45t-46 119q0 18 14 90l119 508h-393l-172 -748h-142l172 748h-413l-172 -748h-142l172 748h-155zM1071 1174l-70 -302h396l61 258q0 1 1 5t1 6
q-29 10 -47 35.5t-18 56.5q0 57 41 84q-49 65 -136 65q-102 0 -165 -75q-46 -51 -64 -133z" />
    <glyph glyph-name="f_b" unicode="fb" horiz-adv-x="1662" 
d="M104 0l172 748h-155l31 124h153l76 324q22 102 80 172q109 141 295 141q149 0 223 -112l61 102h90l-186 -794q58 82 135 133t168 51q147 0 237.5 -99.5t90.5 -261.5q0 -111 -38.5 -212.5t-101.5 -174.5t-148.5 -116t-176.5 -43q-105 0 -182 58.5t-99 152.5l-51 -193h-139
l174 748h-395l-172 -748h-142zM1098 111q91 0 166.5 57.5t117 148.5t41.5 193q0 115 -57.5 183.5t-157.5 68.5q-92 0 -172.5 -62.5t-126 -158.5t-45.5 -195q0 -106 62.5 -170.5t171.5 -64.5zM838 1233q0 54 41 84q-44 65 -134 65q-104 0 -167 -75q-47 -53 -62 -133l-70 -302
h396l61 258q0 7 2 9q-30 10 -48.5 36.5t-18.5 57.5z" />
    <glyph glyph-name="f_h" unicode="fh" horiz-adv-x="1660" 
d="M639 0l174 748h-395l-172 -748h-142l172 748h-155l31 124h153l76 324q22 102 80 172q109 141 295 141q149 0 223 -112l61 102h88l-188 -811q53 86 128.5 142.5t164.5 56.5q104 0 174.5 -66.5t71.5 -171.5q0 -55 -21 -137l-78 -283q-12 -43 -12 -75q0 -30 16 -48t43 -18
q32 0 59.5 31.5t57.5 105.5l72 -24q-66 -215 -217 -215q-79 0 -126.5 45t-47.5 116q0 39 14 97l78 286q14 55 14 103q-1 58 -41.5 94.5t-103.5 36.5q-94 0 -179.5 -85.5t-119.5 -234.5l-103 -444h-145zM838 1233q0 54 41 84q-44 65 -134 65q-104 0 -167 -75
q-47 -53 -62 -133l-70 -302h396l61 258q0 7 2 9q-30 10 -48.5 36.5t-18.5 57.5z" />
    <glyph glyph-name="f_j" unicode="fj" horiz-adv-x="1064" 
d="M1001 872l-202 -884q-29 -121 -62.5 -193.5t-81.5 -120.5q-38 -37 -93 -59.5t-116 -22.5q-65 0 -108 32.5t-43 80.5q0 43 28 69.5t68 26.5q36 0 63 -25.5t27 -58.5q50 10 84 52q55 64 94 235l172 744h-413l-172 -748h-142l172 748h-155l31 124h153l60 256q36 143 100 226
q108 155 295 155q95 0 151 -42t56 -101q0 -47 -28.5 -76.5t-72.5 -29.5t-70 28.5t-26 67.5q0 16 2 24q-5 0 -15.5 1t-15.5 1q-101 0 -166 -96q-53 -72 -75 -184l-54 -230h555z" />
    <glyph glyph-name="f_k" unicode="fk" horiz-adv-x="1544" 
d="M639 0l174 748h-395l-172 -748h-142l172 748h-155l31 124h153l76 324q22 102 80 172q109 141 295 141q149 0 223 -112l61 102h88l-245 -1055q181 74 290 140.5t136 111.5q-23 12 -37.5 36t-14.5 48q0 46 30.5 77.5t76.5 31.5q44 0 75 -32.5t31 -84.5q0 -89 -98.5 -178
t-263.5 -170l92 -219q31 -76 49 -94q16 -21 47 -21q55 0 97 160l73 -23q-29 -135 -78 -188t-118 -53t-115 41q-48 44 -74 116l-100 238q-8 -4 -53.5 -23.5t-67.5 -27.5l-76 -330h-145zM838 1233q0 54 41 84q-44 65 -134 65q-104 0 -167 -75q-47 -53 -62 -133l-70 -302h396
l61 258q0 7 2 9q-30 10 -48.5 36.5t-18.5 57.5z" />
    <glyph glyph-name="f_f_b" unicode="ffb" horiz-adv-x="2220" 
d="M152 872h153l64 275q20 99 80 178q111 139 294 139q70 0 123.5 -30.5t53.5 -90.5q0 -43 -29 -71.5t-68 -28.5q-43 0 -69 27.5t-31 70.5q-93 -6 -154 -77q-46 -49 -63 -134l-60 -258h414l76 324q25 102 80 172q112 141 295 141q148 0 225 -112l61 102h89l-185 -794
q57 82 134 133t167 51q148 0 239 -99.5t91 -261.5q0 -111 -38.5 -212.5t-101.5 -174.5t-148.5 -116t-176.5 -43q-106 0 -183.5 59t-99.5 154l-51 -195h-137l172 748h-395l-172 -748h-142l172 748h-413l-172 -748h-142l172 748h-155zM1655 111q90 0 165.5 57.5t117.5 149
t42 192.5q0 115 -57.5 183.5t-159.5 68.5q-91 0 -171 -62.5t-125.5 -158.5t-45.5 -195q0 -106 62 -170.5t172 -64.5zM1468 1206q-6 12 -2 23q-7 72 -53.5 112.5t-112.5 40.5q-102 0 -165 -75q-46 -51 -64 -133l-70 -302h396l61 258q9 49 10 66v6v2v2zM1493 1219
q-2 0 -5.5 -1t-4.5 -1q-2 -4 -2 -11q3 8 12 13zM1468 1202v-6v6z" />
    <glyph glyph-name="f_f_h" unicode="ffh" horiz-adv-x="2215" 
d="M1196 0l172 748h-395l-172 -748h-142l172 748h-413l-172 -748h-142l172 748h-155l31 124h153l64 275q20 99 80 178q111 139 294 139q70 0 123.5 -30.5t53.5 -90.5q0 -43 -29 -71.5t-68 -28.5q-43 0 -69 27.5t-31 70.5q-93 -6 -154 -77q-46 -49 -63 -134l-60 -258h414
l76 324q25 102 80 172q112 141 295 141q148 0 225 -112l61 102h89l-189 -807q56 85 130.5 140t160.5 55q105 0 176 -66.5t72 -171.5q0 -60 -23 -137l-76 -283q-12 -43 -12 -75q0 -30 16.5 -48t43.5 -18q62 0 114 137l72 -24q-66 -215 -215 -215q-79 0 -126.5 45t-47.5 116
q0 39 14 97l78 286q14 55 14 103q-1 58 -41.5 94.5t-103.5 36.5q-95 0 -180.5 -85t-120.5 -235l-103 -444h-143zM1395 1233q0 57 41 84q-49 65 -136 65q-102 0 -165 -75q-46 -51 -64 -133l-70 -302h396l61 258q0 1 1 5t1 6q-29 10 -47 35.5t-18 56.5z" />
    <glyph glyph-name="f_f_j" unicode="ffj" horiz-adv-x="1622" 
d="M104 0l172 748h-155l31 124h153l64 275q20 99 80 178q111 139 294 139q70 0 123.5 -30.5t53.5 -90.5q0 -43 -29 -71.5t-68 -28.5q-43 0 -69 27.5t-31 70.5q-93 -6 -154 -77q-46 -49 -63 -134l-60 -258h416l60 256q37 147 98 226q111 155 297 155q95 0 151 -42t56 -101
q0 -47 -29 -76.5t-72 -29.5q-44 0 -71 28.5t-27 67.5q0 16 4 24q-5 0 -15.5 1t-15.5 1q-100 0 -165 -96q-53 -72 -78 -184l-54 -230h558l-205 -884q-27 -120 -61 -192.5t-83 -121.5q-37 -37 -91.5 -59.5t-114.5 -22.5q-65 0 -108.5 32.5t-43.5 80.5q0 43 27.5 69.5
t66.5 26.5q38 0 65 -25.5t27 -58.5q47 9 84 52q57 66 95 235l172 744h-416l-172 -748h-142l175 748h-416l-172 -748h-142z" />
    <glyph glyph-name="f_f_k" unicode="ffk" horiz-adv-x="2101" 
d="M1196 0l172 748h-395l-172 -748h-142l172 748h-413l-172 -748h-142l172 748h-155l31 124h153l64 275q20 99 80 178q111 139 294 139q70 0 123.5 -30.5t53.5 -90.5q0 -43 -29 -71.5t-68 -28.5q-43 0 -69 27.5t-31 70.5q-93 -6 -154 -77q-46 -49 -63 -134l-60 -258h414
l76 324q25 102 80 172q112 141 295 141q148 0 225 -112l61 102h89l-246 -1055q180 73 288.5 140t137.5 112q-23 12 -37 36t-14 48q0 46 30.5 77.5t75.5 31.5q44 0 74 -32t30 -85q0 -89 -98 -179.5t-262 -168.5l92 -219q26 -69 47 -94q19 -21 47 -21q58 0 97 160l75 -23
q-30 -135 -79 -188t-117 -53q-69 0 -115 41q-43 37 -76 116l-98 238l-121 -51l-78 -330h-143zM1395 1233q0 57 41 84q-49 65 -136 65q-102 0 -165 -75q-46 -51 -64 -133l-70 -302h396l61 258q0 1 1 5t1 6q-29 10 -47 35.5t-18 56.5z" />
    <glyph glyph-name=".notdef" horiz-adv-x="1024" 
d="M0 -410v2048h1024v-2048h-1024zM145 1536l367 -799l367 799h-734zM102 -156l353 770l-353 770v-1540zM922 1384l-353 -770l353 -770v1540zM512 492l-367 -799h734z" />
    <glyph glyph-name=".null" 
 />
    <glyph glyph-name="nonmarkingreturn" horiz-adv-x="682" 
 />
    <glyph glyph-name="space" unicode=" " horiz-adv-x="428" 
 />
    <glyph glyph-name="exclam" unicode="!" horiz-adv-x="501" 
d="M215 358l158 988h182l-270 -988h-70zM201 -16q-50 0 -84.5 34.5t-34.5 83.5q0 50 35 85.5t84 35.5t82.5 -35.5t33.5 -85.5t-33.5 -84t-82.5 -34z" />
    <glyph glyph-name="quotedbl" unicode="&#x22;" horiz-adv-x="673" 
d="M508 860l43 397q6 56 35.5 85.5t68.5 29.5q42 0 70.5 -28t28.5 -68q0 -23 -15 -57l-174 -359h-57zM190 860l43 397q6 56 36 85.5t69 29.5q43 0 70.5 -27.5t27.5 -68.5q0 -26 -14 -57l-174 -359h-58z" />
    <glyph glyph-name="numbersign" unicode="#" horiz-adv-x="1120" 
d="M152 668l28 120h211l70 252h127l-70 -252h262l70 252h129l-70 -252h191l-31 -120h-195l-77 -285h207l-29 -121h-213l-72 -262h-129l72 262h-260l-72 -262h-129l72 262h-189l31 121h193l77 285h-204zM481 672l-80 -291h269l80 291h-269z" />
    <glyph glyph-name="dollar" unicode="$" horiz-adv-x="989" 
d="M356 -217l-104 29q5 23 29 98t32 106q-111 33 -182.5 97.5t-71.5 136.5q0 48 29 82.5t74 34.5q41 0 67.5 -27.5t26.5 -63.5q0 -45 -39 -79q35 -47 137 -74q71 239 109 360q-57 26 -93.5 47t-76.5 54.5t-60 77.5t-20 98q0 119 106.5 203t270.5 84q6 0 20 -1.5t21 -1.5
l41 142l106 -29l-41 -131q98 -28 159.5 -86t61.5 -125q0 -52 -28.5 -83.5t-71.5 -31.5q-40 0 -66 26.5t-26 66.5q0 41 33 77q-25 31 -105 48l-102 -338q48 -23 79.5 -40t71.5 -45t63 -55t39.5 -66t16.5 -83q0 -133 -107.5 -216t-271.5 -83q-23 0 -63 4zM713 272
q0 55 -42 93.5t-120 76.5l-100 -333h24q102 0 170 43.5t68 119.5zM362 776q0 -48 36.5 -84t105.5 -71q15 50 94 309h-12q-99 0 -161.5 -41.5t-62.5 -112.5z" />
    <glyph glyph-name="percent" unicode="%" horiz-adv-x="1288" 
d="M918 76q61 0 111 60t50 140q0 54 -29 87.5t-79 33.5q-61 0 -111.5 -60t-50.5 -140q0 -53 29.5 -87t79.5 -34zM143 -12l-63 73q266 232 555 494q121 110 325 297.5t232 212.5l63 -74q-167 -141 -561 -499q-351 -315 -551 -504zM350 645q63 0 113.5 60.5t50.5 140.5
q0 53 -29.5 87t-78.5 34q-62 0 -112 -60t-50 -141q0 -53 28.5 -87t77.5 -34zM346 553q-95 0 -152 61t-57 154q0 114 79.5 202.5t193.5 88.5q95 0 153 -60.5t58 -154.5q0 -114 -80 -202.5t-195 -88.5zM913 -16q-96 0 -153.5 60.5t-57.5 154.5q0 114 79.5 202t193.5 88
q96 0 153.5 -60.5t57.5 -154.5q0 -114 -79.5 -202t-193.5 -88z" />
    <glyph glyph-name="ampersand" unicode="&#x26;" horiz-adv-x="1249" 
d="M23 283q0 79 29.5 146t84.5 117.5t115.5 87.5t138.5 71q-74 123 -74 241q0 147 99 245.5t248 98.5q125 0 204.5 -76t79.5 -178q0 -67 -28 -124t-83 -103t-116.5 -81t-149.5 -73q3 -5 68 -84l154 -184q93 132 162 190t155 58q60 0 96.5 -34t36.5 -79q0 -42 -30 -72
t-70 -30q-70 0 -92 67q-8 -2 -16.5 -6.5t-17.5 -12.5t-17 -15.5t-19.5 -20t-19 -22t-20.5 -26.5t-21 -27.5t-23 -30.5t-23 -31l203 -238l-96 -84l-188 228q-199 -228 -428 -228q-156 0 -249 88.5t-93 221.5zM379 100q98 0 176.5 51t155.5 142l-172 211q-35 42 -84 106
q-143 -68 -212 -139.5t-69 -175.5q0 -86 54.5 -140.5t150.5 -54.5zM455 950q0 -60 11.5 -104.5t43.5 -97.5q151 66 224 131t73 151q0 58 -42.5 101t-111.5 43q-87 0 -142.5 -67.5t-55.5 -156.5z" />
    <glyph glyph-name="quotesingle" unicode="'" horiz-adv-x="358" 
d="M190 860l43 397q6 56 36 85.5t69 29.5q43 0 70.5 -27.5t27.5 -68.5q0 -26 -14 -57l-174 -359h-58z" />
    <glyph glyph-name="parenleft" unicode="(" horiz-adv-x="747" 
d="M569 -453q-191 153 -303 366t-112 468q0 190 56.5 369t158 325.5t239.5 264.5t303 198l58 -106q-310 -163 -487 -443.5t-177 -609.5q0 -216 91 -406t253 -333z" />
    <glyph glyph-name="parenright" unicode=")" horiz-adv-x="765" 
d="M-70 -453l-59 105q311 162 487.5 443t176.5 610q0 217 -90.5 406t-251.5 333l77 94q192 -154 305 -367t113 -469q0 -253 -99 -481t-268 -397.5t-391 -276.5z" />
    <glyph glyph-name="asterisk" unicode="*" horiz-adv-x="829" 
d="M662 758q-29 0 -51.5 23t-28.5 59l-41 209l-117 -177q-36 -47 -80 -47q-32 0 -52 21t-20 51q0 49 56 80l184 104l-203 62q-35 9 -55.5 30.5t-20.5 49.5q0 31 22 52t54 21q34 0 70 -32l156 -142l-5 211q-1 44 20.5 72.5t53.5 28.5q45 0 66 -34.5t-4 -94.5l-88 -191l200 66
q19 8 45 8q33 0 54.5 -21t21.5 -51q0 -40 -30.5 -60.5t-77.5 -13.5l-207 25l127 -170q24 -35 24 -72q0 -27 -23 -47t-50 -20z" />
    <glyph glyph-name="plus" unicode="+" horiz-adv-x="858" 
d="M602 887l-63 -271h276l-29 -124h-276l-70 -299h-129l70 299h-277l31 124h275l63 271h129z" />
    <glyph glyph-name="comma" unicode="," horiz-adv-x="421" 
d="M-88 -293l-31 60q116 57 179.5 124.5t68.5 112.5q-40 11 -64 45.5t-24 67.5q0 52 36 88.5t89 36.5q55 0 92 -40t37 -104q0 -109 -101 -218.5t-282 -172.5z" />
    <glyph glyph-name="hyphen" unicode="-" horiz-adv-x="598" 
d="M84 498l35 143h436l-31 -143h-440z" />
    <glyph glyph-name="period" unicode="." horiz-adv-x="421" 
d="M168 -16q-54 0 -90.5 37.5t-36.5 91.5t36.5 91.5t90.5 37.5q52 0 88.5 -37.5t36.5 -91.5t-36.5 -91.5t-88.5 -37.5z" />
    <glyph glyph-name="slash" unicode="/" horiz-adv-x="772" 
d="M-82 -428l-117 66l1059 1880l117 -66z" />
    <glyph glyph-name="zero" unicode="0" horiz-adv-x="1163" 
d="M551 -16q-134 0 -235 63.5t-152 168.5t-51 233q0 156 69 294t196 225t281 87q199 0 319 -135t120 -332q0 -115 -41 -224.5t-112 -193.5t-174.5 -135t-219.5 -51zM553 111q111 0 202.5 66.5t141 175t49.5 233.5q0 148 -82.5 245t-208.5 97q-84 0 -158 -39t-125 -104.5
t-80.5 -152.5t-29.5 -181q0 -146 82.5 -243t208.5 -97z" />
    <glyph glyph-name="one" unicode="1" horiz-adv-x="800" 
d="M12 0l27 123h246l176 766l-232 -58l-4 130l353 90l59 -27l-209 -901h244l-29 -123h-631z" />
    <glyph glyph-name="two" unicode="2" horiz-adv-x="1021" 
d="M18 0l-18 82q32 74 86 139t126.5 117.5t141 91.5t158.5 82q76 36 122 61.5t92 59t67.5 69t21.5 76.5q0 65 -62 109.5t-173 44.5q-147 0 -222 -82q41 -23 41 -76q0 -41 -28.5 -70.5t-69.5 -29.5q-44 0 -75 31t-31 79q0 105 114.5 189t280.5 84q171 0 273 -79t102 -192
q0 -54 -23.5 -102.5t-57.5 -84.5t-92.5 -73.5t-106 -62t-120.5 -57.5q-172 -81 -255.5 -141t-133.5 -144h541l41 176h127l-70 -297h-797z" />
    <glyph glyph-name="three" unicode="3" horiz-adv-x="1001" 
d="M391 -258q-105 0 -199 37t-152 102t-58 142q0 53 31 87.5t77 34.5q41 0 67.5 -26.5t26.5 -63.5q0 -25 -16.5 -50t-40.5 -34q17 -39 89 -71.5t181 -32.5q133 0 217 73t84 179q0 108 -89 178t-232 70h-45l28 120h48q177 0 287 70t110 182q0 88 -67.5 140.5t-182.5 52.5
q-141 0 -211 -62q47 -26 47 -73q0 -39 -29 -67t-69 -28q-42 0 -72.5 31t-30.5 80q0 64 51.5 120.5t137 90t180.5 33.5q180 0 286.5 -86.5t106.5 -218.5q0 -130 -95.5 -217t-260.5 -115q123 -42 186.5 -121.5t63.5 -179.5q0 -158 -131.5 -267.5t-323.5 -109.5z" />
    <glyph glyph-name="four" unicode="4" horiz-adv-x="1110" 
d="M860 586l-80 -346h228l-29 -121h-225l-84 -365h-144l84 365h-587l-15 61l850 883l94 -84l-710 -739h395l68 290z" />
    <glyph glyph-name="five" unicode="5" horiz-adv-x="1001" 
d="M367 -252q-153 0 -260 69.5t-107 159.5q0 49 31 83t75 34q42 0 71.5 -27.5t29.5 -68.5q0 -42 -31 -64q52 -59 197 -59q151 0 248.5 93.5t97.5 228.5q0 112 -74.5 172.5t-200.5 60.5q-118 0 -229 -57l-74 49l205 618h635l-31 -135h-522l-125 -383q79 35 186 35
q163 0 270 -95t107 -253q0 -121 -64 -226.5t-179.5 -170t-255.5 -64.5z" />
    <glyph glyph-name="six" unicode="6" horiz-adv-x="1095" 
d="M231 98q-116 116 -116 342q0 198 77 394.5t220 328.5q165 148 368 148q129 0 219.5 -60.5t90.5 -144.5q0 -49 -28.5 -82t-76.5 -33q-41 0 -69.5 26.5t-28.5 67.5q0 40 28 62q-43 43 -145 43q-151 0 -278 -121q-78 -73 -142 -198t-88 -255q54 82 150.5 141.5t222.5 59.5
q166 0 267.5 -102t101.5 -258q0 -125 -63.5 -233.5t-175.5 -174t-245 -65.5q-175 0 -289 114zM260 367q0 -111 68 -179q71 -77 198 -77q135 0 231.5 100.5t96.5 232.5q0 112 -65.5 180t-182.5 68q-147 0 -246.5 -97.5t-99.5 -227.5z" />
    <glyph glyph-name="seven" unicode="7" horiz-adv-x="999" 
d="M190 -252l-114 74l764 1100h-529l-51 -205h-133l76 323h803l32 -63z" />
    <glyph glyph-name="eight" unicode="8" horiz-adv-x="1044" 
d="M483 -16q-173 0 -286 99t-113 239q0 135 87 229.5t232 132.5q-80 46 -120.5 116.5t-40.5 151.5q0 141 121 249t296 108q167 0 272 -94.5t105 -233.5q0 -124 -75.5 -211.5t-208.5 -124.5q89 -44 139.5 -117.5t50.5 -167.5q0 -152 -132.5 -264t-326.5 -112zM614 721
q118 0 198.5 72t80.5 178q0 93 -65.5 154t-172.5 61q-118 0 -194 -71.5t-76 -178.5q0 -90 64 -152.5t165 -62.5zM489 109q134 0 220 76.5t86 187.5q0 102 -77 168.5t-186 66.5q-132 0 -218.5 -81t-86.5 -191q0 -99 76 -163t186 -64z" />
    <glyph glyph-name="nine" unicode="9" horiz-adv-x="1095" 
d="M356 -258q-129 0 -219 60.5t-90 144.5q0 49 28.5 81.5t76.5 32.5q41 0 69.5 -26.5t28.5 -67.5q0 -38 -29 -61q49 -43 150 -43q141 0 270 117q81 74 144 198.5t85 249.5q-52 -83 -148 -143t-224 -60q-166 0 -267.5 101.5t-101.5 257.5q0 126 64 234.5t176 173.5t245 65
q175 0 287 -115q117 -117 117 -340q0 -199 -71.5 -383t-192.5 -305q-86 -86 -181.5 -129t-216.5 -43zM872 674q0 109 -65 180q-76 76 -199 76q-136 0 -232.5 -100.5t-96.5 -233.5q0 -111 65 -178.5t182 -67.5q147 0 246.5 97t99.5 227z" />
    <glyph glyph-name="colon" unicode=":" horiz-adv-x="473" 
d="M315 522q-52 0 -88.5 37t-36.5 90q0 54 36 90.5t89 36.5t89 -36.5t36 -90.5q0 -53 -36.5 -90t-88.5 -37zM193 -16q-52 0 -88.5 37t-36.5 90t36.5 90t88.5 37t88 -37t36 -90t-36 -90t-88 -37z" />
    <glyph glyph-name="semicolon" unicode=";" horiz-adv-x="473" 
d="M315 522q-52 0 -88.5 37t-36.5 90q0 54 36 90.5t89 36.5t89 -36.5t36 -90.5q0 -53 -36.5 -90t-88.5 -37zM-61 -291l-31 60q116 57 179.5 124t68.5 111q-40 11 -64 45t-24 68q0 50 35 85.5t87 35.5q54 0 91.5 -40t37.5 -102q0 -106 -100 -215t-280 -172z" />
    <glyph glyph-name="less" unicode="&#x3c;" horiz-adv-x="872" 
d="M549 162l-436 348l16 68l586 342l61 -99l-493 -289l346 -276z" />
    <glyph glyph-name="equal" unicode="=" horiz-adv-x="858" 
d="M182 641l29 127h612l-28 -127h-613zM104 313l29 127h612l-28 -127h-613z" />
    <glyph glyph-name="greater" unicode="&#x3e;" horiz-adv-x="837" 
d="M178 168l-63 96l493 289l-346 278l80 95l436 -348l-16 -68z" />
    <glyph glyph-name="question" unicode="?" horiz-adv-x="925" 
d="M270 360l58 324q131 5 232 36.5t160.5 80.5t89.5 107t30 122q0 99 -67.5 154t-174.5 55q-79 0 -137.5 -27t-73.5 -61q21 -12 36 -34.5t15 -49.5q0 -41 -30 -69.5t-72 -28.5q-45 0 -76 33t-31 85q0 77 55.5 143.5t143.5 104t184 37.5q165 0 273 -91.5t108 -242.5
q0 -174 -145.5 -305.5t-403.5 -159.5l-77 -213h-97zM264 -16q-50 0 -84.5 34.5t-34.5 83.5q0 50 35 85.5t84 35.5t83 -35.5t34 -85.5t-34 -84t-83 -34z" />
    <glyph glyph-name="at" unicode="@" horiz-adv-x="1648" 
d="M690 -360q-176 0 -313 81t-211 223t-74 320q0 161 45 311.5t127 270.5t190 210.5t240.5 139.5t272.5 49q272 0 434 -162.5t162 -425.5q0 -160 -52.5 -294t-144 -211.5t-201.5 -77.5q-93 0 -142 50t-46 122q-45 -79 -116.5 -125.5t-153.5 -46.5q-110 0 -181 77.5
t-71 206.5q0 117 51 219.5t137.5 163t185.5 60.5q88 0 145 -47t77 -121l45 160h131l-115 -459q-22 -78 -2.5 -120t76.5 -42q76 0 141.5 68t103 179.5t37.5 237.5q0 143 -59.5 256.5t-174.5 179.5t-267 66q-211 0 -390.5 -119.5t-285 -326t-105.5 -451.5q0 -149 62 -271
t178.5 -193.5t265.5 -71.5q175 0 328 81l39 -73q-171 -94 -369 -94zM758 195q106 0 183 94.5t77 212.5q0 83 -45 128.5t-125 45.5q-103 0 -174.5 -91.5t-71.5 -213.5q0 -80 40.5 -128t115.5 -48z" />
    <glyph glyph-name="A" unicode="A" horiz-adv-x="1443" 
d="M-55 0l32 135h123l643 1079h-159l30 134h619l-31 -134h-153l143 -1079h143l-32 -135h-441l31 133h149l-41 332h-548l-197 -332h178l-33 -133h-456zM530 596h453l-80 629z" />
    <glyph glyph-name="B" unicode="B" horiz-adv-x="1228" 
d="M6 0l33 135h162l250 1077h-183l31 136h475q168 0 275 -58q73 -40 114 -108t41 -152q0 -134 -96 -228t-244 -116q107 -29 177.5 -107t70.5 -182q0 -160 -119 -266q-94 -85 -243 -115q-88 -16 -181 -16h-563zM496 756h157q181 0 288.5 69t107.5 193q0 111 -105 162
q-69 34 -192 34h-150zM352 133h238q71 0 141 17q102 24 158 83q65 62 65 168q0 100 -88.5 165t-249.5 65h-149z" />
    <glyph glyph-name="C" unicode="C" horiz-adv-x="1404" 
d="M725 -25q-119 0 -223.5 40t-183.5 114t-125 188t-46 252q0 212 103 397t279 295.5t380 110.5q91 0 171 -21.5t136 -56.5t97 -78.5t60.5 -88t19.5 -85.5q0 -66 -36 -107.5t-87 -41.5q-49 0 -79 29t-30 73q0 29 16.5 55.5t43.5 41.5q-20 54 -105 98.5t-213 44.5
q-126 0 -239.5 -57t-191 -149t-122.5 -209t-45 -236q0 -219 118.5 -344t315.5 -125q231 0 422 188l90 -94q-228 -234 -526 -234z" />
    <glyph glyph-name="D" unicode="D" horiz-adv-x="1449" 
d="M6 0l33 135h162l250 1077h-183l31 136h428q191 0 319 -46.5t224 -142.5q66 -68 103.5 -166t37.5 -207q0 -319 -211 -530q-253 -256 -711 -256h-483zM352 135h162q363 0 561 201q176 173 176 444q0 86 -28.5 161.5t-79.5 125.5q-70 72 -171 108.5t-259 36.5h-111z" />
    <glyph glyph-name="E" unicode="E" horiz-adv-x="1193" 
d="M6 0l33 135h162l250 1077h-183l31 136h981l-80 -330h-145l45 196h-498l-106 -462h432l-29 -131h-434l-113 -488h500l47 197h145l-75 -330h-963z" />
    <glyph glyph-name="F" unicode="F" horiz-adv-x="1150" 
d="M6 0l33 135h162l250 1077h-183l31 136h963l-78 -330h-148l47 196h-481l-113 -487h422l-30 -131h-422l-107 -461h199l-33 -135h-512z" />
    <glyph glyph-name="G" unicode="G" horiz-adv-x="1470" 
d="M1063 0l22 131q-189 -151 -419 -151q-109 0 -204.5 39t-165.5 109.5t-110.5 174.5t-40.5 227q0 164 62 318t168 269t255.5 184t315.5 69q127 0 233.5 -38t170.5 -99q77 -77 77 -164q0 -62 -36 -99.5t-84 -37.5q-49 0 -79 28.5t-30 73.5q0 52 53 90q-8 12 -26 31
q-43 34 -118 56t-167 22q-137 0 -257.5 -59t-202 -156t-128.5 -223t-47 -258q0 -190 107.5 -306t287.5 -116q226 0 404 137l67 274h-376l30 129h527l-156 -655h-133z" />
    <glyph glyph-name="H" unicode="H" horiz-adv-x="1570" 
d="M6 0l33 135h162l250 1077h-183l31 136h500l-31 -136h-166l-104 -454h731l102 454h-186l33 136h499l-30 -136h-162l-250 -1077h182l-33 -135h-499l30 135h166l117 488h-733l-113 -488h187l-31 -135h-502z" />
    <glyph glyph-name="I" unicode="I" horiz-adv-x="722" 
d="M6 0l33 135h180l248 1077h-186l30 136h518l-30 -136h-181l-247 -1077h186l-33 -135h-518z" />
    <glyph glyph-name="J" unicode="J" horiz-adv-x="1146" 
d="M418 -23q-152 0 -260.5 88.5t-108.5 231.5q0 76 43 125t105 49q42 0 71 -27.5t29 -66.5q0 -42 -27 -70t-75 -28q-3 -71 62 -118.5t171 -47.5q146 0 229 106q67 84 105 248l170 745h-227l32 136h539l-33 -136h-160l-178 -768q-49 -209 -141 -321q-127 -146 -346 -146z" />
    <glyph glyph-name="K" unicode="K" horiz-adv-x="1345" 
d="M1313 1212l-539 -454l297 -623h184l-30 -135h-262l-308 666l-223 -189l-80 -342h187l-33 -135h-500l33 135h162l250 1077h-183l31 136h492l-31 -134h-158l-131 -567l655 567h-174l29 134h510l-31 -136h-147z" />
    <glyph glyph-name="L" unicode="L" horiz-adv-x="1124" 
d="M6 0l33 135h162l250 1077h-183l31 136h512l-31 -136h-178l-250 -1079h459l49 207h146l-78 -340h-922z" />
    <glyph glyph-name="M" unicode="M" horiz-adv-x="1771" 
d="M0 0l33 135h162l299 1077h-187l31 136h319l226 -922l641 922h323l-30 -136h-168l-201 -1077h186l-32 -135h-496l31 135h161l185 942l-635 -901h-27l-229 901l-248 -942h182l-30 -135h-496z" />
    <glyph glyph-name="N" unicode="N" horiz-adv-x="1540" 
d="M1122 -6l-553 1100l-221 -959h187l-31 -135h-498l33 135h162l250 1077h-183l31 136h309l518 -1031l207 895h-188l33 136h489l-31 -136h-157l-281 -1218h-76z" />
    <glyph glyph-name="O" unicode="O" horiz-adv-x="1499" 
d="M715 -25q-176 0 -306.5 77t-197 207.5t-66.5 295.5q0 149 57.5 296t155 262.5t239 187t298.5 71.5q132 0 240 -44.5t179.5 -122t110.5 -183.5t39 -229q0 -149 -57 -296t-154.5 -262.5t-239 -187.5t-298.5 -72zM727 115q121 0 230 58.5t185 153.5t120.5 217t44.5 247
q0 92 -26.5 171t-77.5 140t-133 96t-187 35q-121 0 -230 -58.5t-185 -153.5t-120.5 -217t-44.5 -247q0 -92 26.5 -171t77.5 -140t133 -96t187 -35z" />
    <glyph glyph-name="P" unicode="P" horiz-adv-x="1153" 
d="M6 0l33 135h162l250 1077h-183l31 136h442q97 0 170 -21q141 -36 214 -130t73 -224q0 -99 -38 -187t-108 -155t-177.5 -106.5t-237.5 -39.5q-119 0 -201 4l-84 -354h187l-31 -135h-502zM657 618q94 0 169.5 29t122 78t71 110t24.5 128q0 88 -47 148.5t-141 86.5
q-55 14 -131 14h-123l-135 -587q82 -7 190 -7z" />
    <glyph glyph-name="Q" unicode="Q" horiz-adv-x="1499" 
d="M1464 793q0 -180 -78.5 -351.5t-223.5 -295.5t-324 -158q43 -75 119 -118.5t167 -43.5q75 0 142 37l47 -121q-98 -49 -195 -49q-144 0 -262.5 78t-187.5 206q-243 15 -383 176t-140 402q0 149 57.5 296t155 262.5t239 187t298.5 71.5q132 0 240 -44.5t179.5 -122
t110.5 -183.5t39 -229zM727 115q121 0 230 58.5t185 153.5t120.5 217t44.5 247q0 92 -26.5 171t-77.5 140t-133 96t-187 35q-121 0 -230 -58.5t-185 -153.5t-120.5 -217t-44.5 -247q0 -92 26.5 -171t77.5 -140t133 -96t187 -35z" />
    <glyph glyph-name="R" unicode="R" horiz-adv-x="1234" 
d="M6 0l33 135h162l250 1077h-183l31 136h414q267 0 393 -123q92 -92 92 -238q0 -153 -102.5 -266t-282.5 -154l205 -432h158l-31 -135h-236l-245 549q-23 -2 -68 -2q-59 0 -145 4l-99 -416h185l-33 -135h-498zM649 678q182 0 288.5 83.5t106.5 217.5q0 93 -61 154
q-79 79 -274 79h-107l-123 -528q71 -6 170 -6z" />
    <glyph glyph-name="S" unicode="S" horiz-adv-x="1128" 
d="M549 -23q-194 0 -330.5 97.5t-136.5 210.5q0 62 35 101.5t88 39.5q44 0 74 -31t30 -69q0 -64 -57 -103q36 -47 115.5 -79.5t191.5 -32.5q120 0 203.5 66t83.5 169q0 80 -57 137.5t-175 126.5q-75 43 -122.5 77t-97 83t-73.5 107.5t-24 128.5q0 149 123 256.5t313 107.5
q169 0 290.5 -83.5t121.5 -188.5q0 -62 -35 -101t-84 -39q-45 0 -74.5 30.5t-29.5 74.5q0 54 51 90q-28 34 -93 59t-151 25q-122 0 -198 -63.5t-76 -157.5q0 -44 16 -80.5t53 -70.5t75.5 -60.5t105.5 -65.5q68 -41 113.5 -74t92 -80t70 -104.5t23.5 -124.5q0 -163 -129 -271
t-326 -108z" />
    <glyph glyph-name="T" unicode="T" horiz-adv-x="1284" 
d="M295 0l31 135h174l248 1079h-334l-49 -213h-146l80 347h1112l-80 -347h-145l49 213h-334l-250 -1079h195l-33 -135h-518z" />
    <glyph glyph-name="U" unicode="U" horiz-adv-x="1462" 
d="M684 -23q-207 0 -320.5 107.5t-113.5 288.5q0 67 20 162l158 677h-180l31 136h497l-31 -136h-165l-158 -686q-19 -97 -19 -143q0 -127 73 -198.5t224 -71.5t244.5 90.5t128.5 247.5l174 761h-186l31 136h497l-30 -136h-162l-178 -780q-105 -455 -535 -455z" />
    <glyph glyph-name="V" unicode="V" horiz-adv-x="1404" 
d="M553 -20l-205 1232h-143l33 136h446l-31 -136h-143l145 -981l590 981h-158l31 136h453l-33 -136h-123l-774 -1232h-88z" />
    <glyph glyph-name="W" unicode="W" horiz-adv-x="1937" 
d="M438 -18l-67 1230h-144l31 136h457l-31 -136h-168l33 -948l528 922h70l133 -926l481 952h-164l33 136h455l-31 -136h-133l-643 -1230h-82l-141 905l-535 -905h-82z" />
    <glyph glyph-name="X" unicode="X" horiz-adv-x="1454" 
d="M-29 0l31 135h150l555 565l-269 512h-168l31 136h502l-31 -136h-162l199 -428l401 428h-163l32 136h506l-33 -136h-155l-523 -532l289 -545h164l-33 -135h-495l30 135h168l-223 465l-438 -465h174l-33 -135h-506z" />
    <glyph glyph-name="Y" unicode="Y" horiz-adv-x="1292" 
d="M254 0l33 135h182l100 408l-233 669h-141l32 136h451l-29 -136h-155l180 -555l450 555h-151l33 136h462l-30 -136h-135l-590 -698l-90 -379h190l-29 -135h-530z" />
    <glyph glyph-name="Z" unicode="Z" horiz-adv-x="1255" 
d="M29 0l-9 74l1084 1147h-649l-49 -213h-144l78 340h993l8 -74l-1083 -1147h682l49 213h144l-80 -340h-1024z" />
    <glyph glyph-name="bracketleft" unicode="[" horiz-adv-x="698" 
d="M12 -410l445 1909h469l-29 -127h-324l-387 -1655h324l-29 -127h-469z" />
    <glyph glyph-name="backslash" unicode="\" horiz-adv-x="636" 
d="M358 -412l-133 1905l131 10l136 -1902z" />
    <glyph glyph-name="bracketright" unicode="]" horiz-adv-x="698" 
d="M-180 -410l30 127h324l387 1655h-325l30 127h467l-442 -1909h-471z" />
    <glyph glyph-name="asciicircum" unicode="^" horiz-adv-x="907" 
d="M270 735l-59 78l385 301l233 -313l-71 -64l-193 181z" />
    <glyph glyph-name="underscore" unicode="_" horiz-adv-x="1056" 
d="M-115 -303l35 137h1108l-31 -137h-1112z" />
    <glyph glyph-name="grave" unicode="`" horiz-adv-x="1130" 
d="M813 1020l-240 178q-53 42 -53 92q0 35 26 60.5t60 25.5q29 0 49.5 -14.5t44.5 -50.5l160 -252z" />
    <glyph glyph-name="a" unicode="a" horiz-adv-x="1146" 
d="M395 -16q-138 0 -223.5 96.5t-85.5 257.5q0 146 62.5 273t169.5 202.5t231 75.5q105 0 178 -60.5t94 -156.5l56 207h137l-158 -641q-14 -61 -14 -86q0 -30 15 -47t42 -17q62 0 117 137l71 -24q-69 -215 -219 -215q-73 0 -117 44t-44 115v21q-136 -182 -312 -182zM442 109
q96 0 176 63.5t122 158t42 193.5q0 108 -57 173t-162 65q-92 0 -167.5 -59.5t-116.5 -154t-41 -200.5q0 -110 52.5 -174.5t151.5 -64.5z" />
    <glyph glyph-name="b" unicode="b" horiz-adv-x="1081" 
d="M59 0l320 1376h-166l31 123h305l-187 -794q57 82 135.5 133t168.5 51q148 0 237.5 -99t89.5 -262q0 -111 -38 -212.5t-101 -174.5t-148 -116t-176 -43q-107 0 -183.5 58.5t-98.5 154.5l-51 -195h-138zM516 111q137 0 231.5 121t94.5 278q0 116 -57 184t-158 68
q-92 0 -172 -62.5t-125 -158.5t-45 -195q0 -106 61.5 -170.5t169.5 -64.5z" />
    <glyph glyph-name="c" unicode="c" horiz-adv-x="950" 
d="M477 -16q-170 0 -281.5 101.5t-111.5 274.5q0 136 67 258t183 196.5t250 74.5q144 0 229.5 -72t85.5 -162q0 -52 -30.5 -87.5t-77.5 -35.5q-35 0 -62 25t-27 68q0 19 11 40.5t30 32.5q-50 66 -163 66q-138 0 -244.5 -115.5t-106.5 -279.5q0 -118 72 -189t193 -71
q158 0 290 114l-4 -139q-137 -100 -303 -100z" />
    <glyph glyph-name="d" unicode="d" horiz-adv-x="1150" 
d="M88 338q0 149 63 276.5t168.5 201t225.5 73.5q103 0 178.5 -59.5t97.5 -151.5l164 698h-166l31 123h307l-295 -1261q-16 -59 -16 -86q0 -64 57 -64q32 0 60.5 31.5t58.5 105.5l72 -24q-34 -108 -91.5 -161.5t-130.5 -53.5t-116 45t-43 119v18q-60 -83 -139.5 -133.5
t-172.5 -50.5q-137 0 -225 97t-88 257zM451 109q95 0 173 61.5t120 156t42 195.5q0 109 -59 174.5t-166 65.5q-91 0 -165.5 -59t-115 -153t-40.5 -200q0 -109 55.5 -175t155.5 -66z" />
    <glyph glyph-name="e" unicode="e" horiz-adv-x="974" 
d="M866 393h-641q-2 -14 -2 -43q0 -112 80.5 -178t198.5 -66q74 0 139.5 18t149.5 62l-31 -139q-70 -34 -134.5 -48.5t-152.5 -14.5q-105 0 -192.5 41.5t-143 126.5t-55.5 200q0 145 66 269t177.5 196t239.5 72q153 0 243.5 -86.5t90.5 -233.5q0 -86 -33 -176zM559 764
q-102 0 -187 -72.5t-124 -187.5h502q14 38 14 86q0 75 -52 124.5t-153 49.5z" />
    <glyph glyph-name="f" unicode="f" horiz-adv-x="641" 
d="M104 0l172 748h-155l31 124h153l66 285q38 166 131 262q90 90 225 90q75 0 117.5 -33.5t42.5 -86.5q0 -43 -30 -72t-69 -29q-41 0 -69 26.5t-31 69.5q-51 -10 -86 -45q-59 -59 -94 -200l-62 -267h228l-31 -124h-225l-172 -748h-142z" />
    <glyph glyph-name="g" unicode="g" horiz-adv-x="1081" 
d="M371 -410q-86 0 -172.5 30t-126.5 69q-47 50 -47 102q0 47 28 78t72 31t71 -30.5t27 -70.5q0 -31 -16 -53q59 -39 164 -39q129 0 207 78q65 65 104 221l41 176q-55 -85 -134.5 -130.5t-170.5 -45.5q-148 0 -239 96.5t-91 257.5q0 143 62 265t169.5 193t235.5 71
q111 0 183 -60.5t96 -150.5l53 201h137l-209 -899q-46 -193 -133 -277q-110 -113 -311 -113zM465 131q95 0 172 58.5t117.5 149t40.5 189.5q0 107 -62 170.5t-168 63.5q-139 0 -232 -116t-93 -277q0 -108 61.5 -173t163.5 -65z" />
    <glyph glyph-name="h" unicode="h" horiz-adv-x="1079" 
d="M59 0l320 1376h-166l31 123h305l-189 -807q56 85 130.5 140t160.5 55q105 0 176 -66.5t72 -171.5q0 -63 -22 -137l-76 -283q-13 -47 -13 -75q0 -30 16.5 -48t43.5 -18q32 0 59.5 31.5t55.5 105.5l71 -24q-66 -215 -215 -215q-79 0 -126.5 45t-47.5 116q0 39 14 97l78 286
q15 59 15 103q-1 58 -42 94.5t-104 36.5q-95 0 -180.5 -85t-120.5 -235l-102 -444h-144z" />
    <glyph glyph-name="i" unicode="i" horiz-adv-x="604" 
d="M418 1040q-43 0 -74 31t-31 74t31 73.5t74 30.5q41 0 71.5 -30.5t30.5 -73.5t-30.5 -74t-71.5 -31zM305 -14q-79 0 -125.5 45t-46.5 119q0 28 17 94l137 504h-170l33 124h313l-172 -634q-15 -62 -15 -86q0 -30 16.5 -47t43.5 -17q34 0 62.5 31.5t56.5 105.5l71 -24
q-69 -215 -221 -215z" />
    <glyph glyph-name="j" unicode="j" horiz-adv-x="542" 
d="M-76 -408q-65 0 -108 32.5t-43 80.5q0 43 28 69.5t68 26.5q36 0 63 -25.5t27 -58.5q47 9 84 52q55 64 94 235l172 744h-176l33 124h313l-203 -884q-29 -122 -62 -194t-81 -120q-38 -37 -93 -59.5t-116 -22.5zM434 1040q-42 0 -72 31t-30 74t29.5 73.5t72.5 30.5t73 -30.5
t30 -73.5t-30 -74t-73 -31z" />
    <glyph glyph-name="k" unicode="k" horiz-adv-x="964" 
d="M203 0h-144l320 1376h-166l31 123h305l-246 -1055q180 73 288.5 140t137.5 112q-23 12 -37 36t-14 48q0 46 30.5 77.5t75.5 31.5q44 0 74.5 -32t30.5 -85q0 -89 -98.5 -179.5t-262.5 -168.5l93 -219q26 -69 47 -94q19 -21 47 -21q57 0 96 160l76 -23q-30 -135 -79.5 -188
t-117.5 -53q-69 0 -115 41q-41 36 -75 116l-99 238q-92 -40 -120 -51z" />
    <glyph glyph-name="l" unicode="l" horiz-adv-x="569" 
d="M276 -14q-78 0 -124 45t-46 119q0 28 15 90l264 1136h-164l31 123h305l-293 -1259q-14 -77 -14 -86q0 -32 15 -49t42 -17q33 0 62 31.5t59 105.5l72 -24q-69 -215 -224 -215z" />
    <glyph glyph-name="m" unicode="m" horiz-adv-x="1619" 
d="M90 0l189 748h-164l30 124h291l-51 -206q62 101 139 161t160 60q99 0 160 -59t65 -160q62 103 141.5 161t161.5 58q99 0 163.5 -66.5t64.5 -171.5q0 -60 -23 -137l-82 -283q-12 -54 -12 -75q0 -30 16 -48t43 -18q62 0 117 137l72 -24q-69 -215 -219 -215q-79 0 -125.5 45
t-46.5 116q0 49 16 99l80 280q16 66 16 107q0 60 -35 95.5t-92 35.5q-89 0 -171 -86.5t-122 -239.5l-112 -438h-144l136 524q16 69 16 111q0 56 -35.5 92.5t-93.5 36.5q-89 0 -174 -86.5t-121 -237.5l-111 -440h-143z" />
    <glyph glyph-name="n" unicode="n" horiz-adv-x="1114" 
d="M846 -14q-79 0 -125.5 45t-46.5 116q0 49 16 99l82 284q14 55 14 103q0 59 -39 95t-102 36q-93 0 -177.5 -85t-121.5 -235l-113 -444h-143l189 748h-164l30 124h291l-49 -206q60 101 139.5 161t167.5 60q105 0 172.5 -66.5t67.5 -171.5q0 -60 -23 -137l-80 -283
q-14 -47 -14 -75q0 -30 16.5 -48t43.5 -18q32 0 59 31t57 106l72 -24q-69 -215 -219 -215z" />
    <glyph glyph-name="o" unicode="o" horiz-adv-x="1040" 
d="M463 -16q-174 0 -276.5 109.5t-102.5 271.5q0 100 38 195.5t102.5 168t157.5 116.5t196 44q116 0 203.5 -53t131 -138.5t43.5 -189.5q0 -136 -63.5 -256t-178 -194t-251.5 -74zM469 109q144 0 243 117.5t99 281.5q0 117 -68 186.5t-172 69.5q-142 0 -242 -118.5
t-100 -283.5q0 -116 68 -184.5t172 -68.5z" />
    <glyph glyph-name="p" unicode="p" horiz-adv-x="1118" 
d="M-133 -401l31 122h131l245 1027h-165l30 124h293l-41 -182q60 89 140 144t176 55q145 0 234 -99t89 -262q0 -111 -38 -212.5t-101 -174.5t-148.5 -116t-177.5 -43q-100 0 -176 56.5t-108 145.5l-107 -463h178l-30 -122h-455zM553 111q137 0 231.5 121t94.5 278
q0 116 -57 184t-158 68q-92 0 -172.5 -62.5t-126.5 -158.5t-46 -195q0 -106 62.5 -170.5t171.5 -64.5z" />
    <glyph glyph-name="q" unicode="q" horiz-adv-x="1081" 
d="M406 -16q-145 0 -232.5 97.5t-87.5 260.5q0 146 64 272.5t172 200.5t233 74q103 0 177.5 -59t98.5 -148l52 190h137l-266 -1151h182l-31 -122h-323l131 559q-58 -78 -137 -126t-170 -48zM453 109q96 0 176 63t122 157t42 193q0 109 -58 174.5t-164 65.5q-139 0 -236 -124
t-97 -286q0 -109 57 -176t158 -67z" />
    <glyph glyph-name="r" unicode="r" horiz-adv-x="782" 
d="M90 0l189 748h-164l30 124h291l-57 -241q174 256 299 256q52 0 85.5 -31t33.5 -78q0 -46 -33.5 -79t-77.5 -33q-40 0 -68 23.5t-36 58.5q-63 -32 -140.5 -130.5t-109.5 -230.5l-99 -387h-143z" />
    <glyph glyph-name="s" unicode="s" horiz-adv-x="864" 
d="M412 -14q-93 0 -176 30.5t-134 81.5t-51 109q0 45 27.5 75.5t68.5 30.5q40 0 64.5 -25.5t24.5 -60.5q0 -31 -27 -65q12 -13 35 -25q70 -39 174 -39q75 0 125.5 32.5t50.5 88.5q0 23 -11 44t-24.5 35.5t-42 32t-47 27t-55.5 27.5q-47 22 -75 36.5t-64 38.5t-55.5 46.5
t-33.5 55.5t-14 71q0 108 85 179t230 71q85 0 156 -25.5t113 -69.5q49 -49 49 -106q0 -46 -27 -75t-65 -29q-37 0 -63.5 25t-26.5 61q0 26 22 65q-21 14 -31 19q-53 24 -131 24q-76 0 -123 -32t-47 -83q0 -24 13 -45t39.5 -39.5t54 -33t69.5 -34.5q7 -3 11 -5
q54 -25 90 -46.5t73 -52t55.5 -70t18.5 -87.5q0 -122 -91.5 -190t-233.5 -68z" />
    <glyph glyph-name="t" unicode="t" horiz-adv-x="692" 
d="M686 748h-266l-123 -500q-12 -44 -12 -76q0 -30 19 -50t50 -20q34 0 75 19t108 63l53 -75q-154 -125 -275 -125q-78 0 -129 45.5t-51 120.5q0 35 17 98l122 500h-155l31 124h155l51 205l158 51l-63 -256h266z" />
    <glyph glyph-name="u" unicode="u" horiz-adv-x="1114" 
d="M139 872h307l-141 -546q-12 -44 -12 -95q0 -56 36 -90.5t97 -34.5q95 0 180.5 86t122.5 234l111 446h143l-158 -634q-16 -56 -16 -86t16 -47t43 -17q62 0 117 137l72 -24q-69 -215 -221 -215q-72 0 -116 45t-44 121q0 9 4 41q-59 -94 -137 -150.5t-166 -56.5
q-100 0 -166 61t-66 160q0 53 19 131l106 410h-164z" />
    <glyph glyph-name="v" unicode="v" horiz-adv-x="964" 
d="M344 -29l-141 777h-158l33 124h254l106 -722q122 136 211 277t117 245q-35 10 -58.5 38t-23.5 68q0 46 31 78.5t78 32.5q51 0 84.5 -37.5t33.5 -103.5q0 -124 -140 -345.5t-347 -431.5h-80z" />
    <glyph glyph-name="w" unicode="w" horiz-adv-x="1368" 
d="M287 -29l-74 777h-160l33 124h252l45 -684l330 578h69l127 -598q231 341 252 508q-36 8 -61 35.5t-25 68.5q0 45 31 77t76 32q52 0 85 -36.5t33 -98.5q0 -236 -395 -783h-71l-123 568l-344 -568h-80z" />
    <glyph glyph-name="x" unicode="x" horiz-adv-x="1081" 
d="M139 -14q-58 0 -92.5 32.5t-34.5 77.5q0 41 29 71t68 30q68 0 90 -70q30 7 64.5 43.5t92.5 116.5l115 159l-119 302h-174l31 124h235l113 -319l90 133q133 203 264 203q61 0 97 -33t36 -80q0 -39 -29.5 -68.5t-68.5 -29.5q-70 0 -92 67q-49 -12 -139 -143l-105 -147
l103 -246q30 -74 48.5 -97.5t39.5 -23.5q49 0 92 137l72 -20q-56 -219 -191 -219q-62 0 -102 37.5t-74 126.5l-74 200l-110 -164q-70 -106 -135.5 -153t-139.5 -47z" />
    <glyph glyph-name="y" unicode="y" horiz-adv-x="987" 
d="M-31 -410q-57 0 -97 34t-40 83q0 42 28.5 72.5t69.5 30.5q38 0 65 -25.5t32 -65.5h4q87 0 334 299l-150 730h-156l31 124h252l127 -729q289 375 326 531q-35 11 -59.5 40.5t-24.5 69.5q0 42 30.5 73.5t75.5 31.5q54 0 86.5 -37.5t32.5 -103.5q0 -105 -94 -271t-328 -459
q-106 -131 -187.5 -216.5t-145.5 -131.5t-112 -63t-100 -17z" />
    <glyph glyph-name="z" unicode="z" horiz-adv-x="966" 
d="M66 -14l-54 71l721 699h-416l-41 -168h-126l69 284h680l41 -75l-696 -674q59 22 129 22q48 0 132.5 -19.5t121.5 -19.5q63 0 93 35.5t66 137.5l70 -17q-13 -56 -25 -93.5t-31 -75.5t-42.5 -60t-58.5 -35.5t-81 -13.5q-49 0 -165 27.5t-170 27.5q-116 0 -217 -53z" />
    <glyph glyph-name="braceleft" unicode="{" horiz-adv-x="690" 
d="M426 -438q-176 22 -268 110.5t-92 214.5q0 87 48 157.5t126 135.5q63 53 96 92t33 78q0 49 -45.5 88t-139.5 39h-69l32 139h72q112 0 174 49.5t62 120.5q0 63 -60 170q-69 127 -69 222q0 147 135 246.5t393 105.5l-16 -105q-189 -11 -282 -81t-93 -160q0 -70 65 -193
q66 -128 66 -200q0 -101 -67 -166t-187 -82q85 -19 128.5 -72t43.5 -121q0 -62 -42.5 -118.5t-115.5 -116.5q-70 -59 -109.5 -112t-39.5 -109q0 -175 248 -232z" />
    <glyph glyph-name="bar" unicode="|" horiz-adv-x="552" 
d="M213 -410v1909h127v-1909h-127z" />
    <glyph glyph-name="braceright" unicode="}" horiz-adv-x="690" 
d="M-115 -436l17 104q98 6 172.5 29.5t117 58t63.5 73.5t21 81q0 71 -65 194q-66 124 -66 201q0 100 67 164.5t187 81.5q-85 19 -128.5 71.5t-43.5 120.5q0 62 42 119t116 119q71 60 110.5 112t39.5 109q0 173 -248 230l26 100q176 -21 268.5 -110.5t92.5 -215.5
q0 -87 -47.5 -156t-126.5 -137q-129 -104 -129 -170q0 -49 45 -88t139 -39h70l-33 -139h-72q-112 0 -173.5 -49.5t-61.5 -120.5q0 -65 59 -170q70 -125 70 -221q0 -147 -135.5 -246.5t-393.5 -105.5z" />
    <glyph glyph-name="asciitilde" unicode="~" horiz-adv-x="954" 
d="M631 385q-53 0 -91 21.5t-77 60.5q-33 33 -53.5 46t-42.5 13q-71 0 -125 -131l-97 35q24 104 89 172t137 68q53 0 92.5 -23t79.5 -63q35 -33 53.5 -45.5t40.5 -12.5q36 0 65 30.5t58 100.5l98 -34q-30 -111 -92.5 -174.5t-134.5 -63.5z" />
    <glyph glyph-name="uni00A0" unicode="&#xa0;" horiz-adv-x="428" 
 />
    <glyph glyph-name="exclamdown" unicode="&#xa1;" horiz-adv-x="501" 
d="M412 1122q-49 0 -83 35.5t-34 85.5t34 84.5t83 34.5t83.5 -34.5t34.5 -84.5t-34.5 -85.5t-83.5 -35.5zM57 0l271 987h69l-157 -987h-183z" />
    <glyph glyph-name="cent" unicode="&#xa2;" horiz-adv-x="970" 
d="M506 70q-44 0 -64 4l-86 -289l-104 27l88 286q-108 41 -172 132t-64 216q0 133 66.5 252t182 193.5t249.5 81.5l64 213l104 -29l-59 -192q106 -21 171.5 -85.5t65.5 -138.5q0 -48 -31 -83t-77 -35q-36 0 -62 24t-26 68q0 19 12 40t31 31q-41 52 -125 64l-197 -657
q24 -3 49 -3q83 0 166 30.5t146 86.5l-5 -137q-137 -100 -323 -100zM250 455q0 -80 35 -140.5t96 -91.5l186 625q-131 -22 -224 -134t-93 -259z" />
    <glyph glyph-name="sterling" unicode="&#xa3;" horiz-adv-x="1017" 
d="M995 827q0 -53 -30 -87.5t-72 -34.5q-37 0 -63.5 26.5t-26.5 65.5q0 47 35 75q-11 23 -59.5 42.5t-98.5 19.5q-131 0 -200.5 -91t-69.5 -247q0 -45 8 -127t10 -104h356l-28 -117h-330q-17 -192 -164 -311q24 0 51 -5.5t44.5 -11t62.5 -20.5q122 -41 188 -41q61 0 111 20
t112 70l66 -80q-120 -133 -297 -133q-62 0 -110 12t-128 43q-70 27 -109.5 38t-80.5 11q-43 -50 -93 -75t-93 -25q-38 0 -64 23t-26 57q0 58 71 93.5t174 29.5q132 124 154 305h-217l26 117h193q-2 24 -11.5 104.5t-9.5 128.5q0 200 110 329.5t294 129.5q135 0 225 -70.5
t90 -159.5z" />
    <glyph glyph-name="yen" unicode="&#xa5;" horiz-adv-x="1013" 
d="M162 471l26 113h213l-147 340h-119l27 116h379l-25 -114h-137l153 -369l322 369h-139l28 114h385l-24 -116h-113l-305 -340h203l-27 -113h-291l-24 -109h291l-27 -112h-289l-28 -135h163l-26 -115h-451l27 115h162l30 135h-286l24 112h287l27 109h-289z" />
    <glyph glyph-name="section" unicode="&#xa7;" horiz-adv-x="860" 
d="M547 952q-61 0 -104.5 -21.5t-43.5 -58.5q0 -14 5 -26t19 -24.5t25.5 -20.5t38.5 -21t42.5 -20t52.5 -23q103 -45 157 -90.5t54 -114.5q0 -146 -232 -194q86 -60 86 -148q0 -87 -78.5 -147.5t-212.5 -60.5q-130 0 -204 54t-74 122q0 37 24.5 62.5t59.5 25.5t57.5 -22.5
t22.5 -55.5q0 -28 -17 -45q19 -13 55.5 -23t75.5 -10q61 0 103.5 21.5t42.5 58.5q0 36 -40.5 63.5t-135.5 69.5q-107 45 -162 91.5t-55 117.5t63.5 120t171.5 68q-86 61 -86 150q0 86 77.5 146.5t211.5 60.5q126 0 201 -55t75 -121q0 -36 -24 -61t-58 -25q-35 0 -57 23
t-22 56q0 30 16 46q-15 12 -53 22t-78 10zM424 408l41 -19q94 21 138 48.5t44 70.5q0 34 -41 62t-125 63l-45 18q-87 -19 -133.5 -50t-46.5 -71q0 -34 41.5 -61t126.5 -61z" />
    <glyph glyph-name="dieresis" unicode="&#xa8;" horiz-adv-x="1024" 
d="M866 1067q-47 0 -80.5 34t-33.5 83q0 50 33.5 84.5t82.5 34.5q47 0 81 -35t34 -84q0 -50 -33.5 -83.5t-83.5 -33.5zM510 1067q-49 0 -82 33.5t-33 83.5t34 84.5t83 34.5q47 0 81 -35t34 -84t-34.5 -83t-82.5 -34z" />
    <glyph glyph-name="copyright" unicode="&#xa9;" horiz-adv-x="1239" 
d="M618 -16q-148 0 -268.5 71.5t-188 194t-67.5 270.5q0 147 67.5 270t188 195t268.5 72q149 0 270 -72t189 -195t68 -270t-68.5 -270t-189.5 -194.5t-269 -71.5zM618 57q188 0 315.5 135t127.5 328q0 195 -127 330t-316 135q-124 0 -225 -62t-158 -168.5t-57 -234.5
q0 -194 126.5 -328.5t313.5 -134.5zM641 256q-121 0 -197.5 76t-76.5 194q0 120 79.5 197.5t188.5 77.5q88 0 145.5 -40t57.5 -87q0 -25 -15 -42.5t-37 -17.5t-36.5 15t-14.5 37q0 16 8 28q-27 35 -108 35q-78 0 -131 -57.5t-53 -141.5t53 -142t139 -58t156 67l47 -53
q-36 -42 -90.5 -65t-114.5 -23z" />
    <glyph glyph-name="ordfeminine" unicode="&#xaa;" horiz-adv-x="718" 
d="M317 827q-84 0 -137 58.5t-53 156.5q0 134 85 233t198 99q61 0 104 -32.5t59 -84.5l29 109h92l-92 -379q-6 -30 -6 -51q0 -33 29 -33q36 0 71 82l49 -22q-21 -67 -57.5 -100.5t-81.5 -33.5q-49 0 -75.5 27t-28.5 74q-74 -103 -185 -103zM348 915q81 0 137 73t56 161
q0 62 -32.5 98.5t-92.5 36.5q-77 0 -132 -70.5t-55 -162.5q0 -61 31.5 -98.5t87.5 -37.5zM68 610l22 90h563l-22 -90h-563z" />
    <glyph glyph-name="guillemotleft" unicode="&#xab;" horiz-adv-x="989" 
d="M766 219l-287 346l436 344l72 -84l-323 -280l188 -256zM373 219l-289 346l438 344l72 -84l-324 -280l187 -256z" />
    <glyph glyph-name="registered" unicode="&#xae;" horiz-adv-x="802" 
d="M547 688q-153 0 -259 106t-106 259q0 154 105.5 260t259.5 106t260 -106t106 -260q0 -152 -107 -258.5t-259 -106.5zM547 1354q-122 0 -206.5 -87t-84.5 -214q0 -126 84.5 -212.5t206.5 -86.5q121 0 207 87t86 212q0 127 -85 214t-208 87zM408 885v55h38v238h-38v55h139
q61 0 100 -27t39 -78q0 -66 -65 -94l49 -94h41v-55h-84l-70 131h-47v-76h43v-55h-145zM510 1071h35q73 0 73 53q0 54 -75 54h-33v-107z" />
    <glyph glyph-name="macron" unicode="&#xaf;" horiz-adv-x="1024" 
d="M358 1096l31 129h615l-27 -129h-619z" />
    <glyph glyph-name="degree" unicode="&#xb0;" horiz-adv-x="663" 
d="M403 848q-102 0 -161.5 64t-59.5 159q0 118 82 210.5t203 92.5q102 0 161.5 -64t59.5 -159q0 -118 -83 -210.5t-202 -92.5zM408 942q72 0 124 63t52 142q0 59 -35 96t-88 37q-70 0 -122 -63.5t-52 -141.5q0 -59 34.5 -96t86.5 -37z" />
    <glyph glyph-name="plusminus" unicode="&#xb1;" horiz-adv-x="858" 
d="M639 1004l-64 -277h277l-29 -127h-278l-64 -276h-129l64 276h-275l29 127h276l64 277h129zM12 33l29 127h678l-29 -127h-678z" />
    <glyph glyph-name="two.sup" unicode="&#xb2;" horiz-adv-x="722" 
d="M227 881l-20 49q47 114 134.5 191.5t217.5 146.5q90 47 131 86t41 88q0 44 -36 71t-95 27q-97 0 -135 -47q20 -27 20 -51q0 -30 -19 -50t-48 -20q-31 0 -50.5 22t-19.5 56q0 71 75.5 128.5t184.5 57.5q103 0 168.5 -52t65.5 -140q0 -42 -17.5 -78t-55 -68t-74 -55
t-95.5 -55q-102 -55 -163 -104.5t-95 -112.5h313l27 116h92l-47 -206h-500z" />
    <glyph glyph-name="three.sup" unicode="&#xb3;" horiz-adv-x="722" 
d="M498 870q-101 0 -177.5 47t-76.5 121q0 31 20 54.5t49 23.5t47.5 -18.5t18.5 -46.5q0 -12 -7 -25.5t-16 -19.5q13 -19 51 -32t93 -13q78 0 124 36t46 95q0 47 -49.5 84.5t-128.5 37.5h-41l22 97h41q94 0 150.5 36t56.5 91q0 49 -41.5 75.5t-104.5 26.5q-66 0 -96 -27
q15 -11 15 -32q0 -29 -19.5 -47.5t-46.5 -18.5q-30 0 -50 20.5t-20 53.5q0 56 63.5 100.5t170.5 44.5t174.5 -55t67.5 -131q0 -82 -59.5 -132t-156.5 -59q77 -20 118.5 -65t41.5 -107q0 -100 -83 -157.5t-197 -57.5z" />
    <glyph glyph-name="acute" unicode="&#xb4;" horiz-adv-x="1024" 
d="M473 1030l-35 49l312 258q45 39 88 39q32 0 56 -24t24 -56q0 -63 -76 -98z" />
    <glyph glyph-name="paragraph" unicode="&#xb6;" horiz-adv-x="1179" 
d="M266 0l31 121h164q67 266 69 266q-113 0 -181.5 17t-119.5 55q-66 21 -100.5 74t-34.5 124q0 117 69.5 202.5t184 127t258.5 41.5l608 -2l-30 -125h-160l-201 -776h162l-31 -125h-688zM586 121h112l203 784h-115z" />
    <glyph glyph-name="periodcentered" unicode="&#xb7;" horiz-adv-x="421" 
d="M240 426q-53 0 -89 37t-36 90q0 54 35.5 91.5t89.5 37.5t89.5 -37.5t35.5 -91.5q0 -53 -36 -90t-89 -37z" />
    <glyph glyph-name="cedilla" unicode="&#xb8;" horiz-adv-x="1024" 
d="M356 -408q-67 0 -132.5 25.5t-106.5 60.5l41 60q35 -24 88.5 -40.5t103.5 -16.5q39 0 62.5 18t23.5 45q0 31 -34 49t-97 8l-31 37l119 207l62 -16l-45 -133q78 -9 119.5 -50t41.5 -96q0 -73 -62 -115.5t-153 -42.5z" />
    <glyph glyph-name="one.sup" unicode="&#xb9;" horiz-adv-x="722" 
d="M229 881l23 96h203l125 539l-201 -43l-4 96l280 63l52 -24l-146 -631h199l-21 -96h-510z" />
    <glyph glyph-name="ordmasculine" unicode="&#xba;" horiz-adv-x="690" 
d="M399 831q-107 0 -168 65.5t-61 164.5q0 126 84.5 219.5t210.5 93.5q106 0 167.5 -65.5t61.5 -163.5q0 -128 -84.5 -221t-210.5 -93zM90 610l25 90h485l-22 -90h-488zM403 918q82 0 137.5 65t55.5 158q0 65 -38 105t-99 40q-81 0 -136 -64.5t-55 -158.5q0 -65 38 -105
t97 -40z" />
    <glyph glyph-name="guillemotright" unicode="&#xbb;" horiz-adv-x="989" 
d="M537 217l-72 84l323 281l-186 258l84 67l287 -346zM143 217l-71 84l323 281l-188 258l84 67l289 -346z" />
    <glyph glyph-name="onequarter" unicode="&#xbc;" horiz-adv-x="1628" 
d="M1225 84l32 133h-335l-15 49l488 500l65 -61l-403 -406h221l37 141l106 39l-41 -174h123l-22 -88h-121l-31 -133h96l-20 -84h-328l19 84h129zM137 573l23 97h202l125 538l-200 -43l-4 97l280 63l51 -25l-145 -630h199l-21 -97h-510zM375 -27l-64 54q12 15 227 266.5
t326 384.5q303 360 539 655l63 -53q-12 -15 -227 -266.5t-326 -384.5q-323 -387 -538 -656z" />
    <glyph glyph-name="onehalf" unicode="&#xbd;" horiz-adv-x="1628" 
d="M924 0l-21 49q47 114 134.5 191.5t217.5 146.5q90 47 131 86t41 88q0 44 -36 71t-95 27q-97 0 -135 -47q21 -28 21 -51q0 -29 -19.5 -49t-48.5 -20q-31 0 -50.5 21.5t-19.5 55.5q0 71 76.5 129t184.5 58q103 0 168 -52.5t65 -140.5q0 -42 -17.5 -78t-55 -68t-74 -55
t-95.5 -55q-102 -55 -163 -104.5t-95 -112.5h314l26 117h92l-47 -207h-499zM115 573l22 97h203l125 538l-201 -43l-4 97l281 63l51 -25l-146 -630h199l-20 -97h-510zM342 -27l-63 54q8 9 224 263t328 388q303 360 539 655l64 -53q-12 -15 -227 -266.5t-326 -384.5
q-348 -417 -539 -656z" />
    <glyph glyph-name="threequarters" unicode="&#xbe;" horiz-adv-x="1628" 
d="M422 563q-101 0 -177.5 47t-76.5 121q0 31 20.5 54.5t49.5 23.5t47 -19t18 -47q0 -30 -22 -45q13 -19 50.5 -32t92.5 -13q78 0 124 36t46 95q0 47 -49.5 85t-128.5 38h-41l22 97h41q94 0 150.5 35.5t56.5 90.5q0 49 -41 76t-104 27q-67 0 -97 -27q15 -11 15 -32
q0 -29 -19.5 -47.5t-46.5 -18.5q-30 0 -49.5 20.5t-19.5 53.5q0 56 63 100.5t170 44.5t174.5 -55t67.5 -131q0 -82 -59 -132t-156 -59q77 -20 118 -65t41 -107q0 -100 -83 -157.5t-197 -57.5zM1217 84l32 133h-336l-14 49l487 500l66 -61l-403 -406h221l37 141l106 39
l-41 -174h123l-22 -88h-121l-31 -133h96l-20 -84h-328l18 84h130zM365 -27l-64 54q12 15 227 266.5t326 384.5q303 360 539 655l63 -53q-12 -15 -227 -266.5t-326 -384.5q-323 -387 -538 -656z" />
    <glyph glyph-name="questiondown" unicode="&#xbf;" horiz-adv-x="925" 
d="M780 1130q-49 0 -83.5 35.5t-34.5 85.5t34.5 84.5t83.5 34.5t83 -34.5t34 -84.5t-34 -85.5t-83 -35.5zM430 -18q-163 0 -271 91t-108 242q0 174 145 305t404 158l78 217h98l-59 -327q-131 -4 -232 -35.5t-160.5 -80.5t-89.5 -107t-30 -121q0 -100 67 -155.5t172 -55.5
q81 0 139.5 27.5t73.5 62.5q-22 11 -37.5 33.5t-15.5 48.5q0 41 30.5 70.5t72.5 29.5q46 0 77 -34t31 -87q0 -77 -55.5 -142.5t-144 -102.5t-185.5 -37z" />
    <glyph glyph-name="Agrave" unicode="&#xc0;" horiz-adv-x="1443" 
d="M-55 0l32 135h123l643 1079h-159l30 134h619l-31 -134h-153l143 -1079h143l-32 -135h-441l31 133h149l-41 332h-548l-197 -332h178l-33 -133h-456zM530 596h453l-80 629zM1022 1458l-240 178q-53 42 -53 93q0 35 26 60.5t60 25.5q29 0 49.5 -15t44.5 -51l160 -252z" />
    <glyph glyph-name="Aacute" unicode="&#xc1;" horiz-adv-x="1443" 
d="M-55 0l32 135h123l643 1079h-159l30 134h619l-31 -134h-153l143 -1079h143l-32 -135h-441l31 133h149l-41 332h-548l-197 -332h178l-33 -133h-456zM530 596h453l-80 629zM903 1468l-35 50l312 258q45 39 88 39q32 0 56 -24t24 -56q0 -64 -76 -99z" />
    <glyph glyph-name="Acircumflex" unicode="&#xc2;" horiz-adv-x="1443" 
d="M-55 0l32 135h123l643 1079h-159l30 134h619l-31 -134h-153l143 -1079h143l-32 -135h-441l31 133h149l-41 332h-548l-197 -332h178l-33 -133h-456zM530 596h453l-80 629zM715 1464l-58 78l383 297l232 -311l-70 -62l-190 185z" />
    <glyph glyph-name="Atilde" unicode="&#xc3;" horiz-adv-x="1443" 
d="M-55 0l32 135h123l643 1079h-159l30 134h619l-31 -134h-153l143 -1079h143l-32 -135h-441l31 133h149l-41 332h-548l-197 -332h178l-33 -133h-456zM530 596h453l-80 629zM1116 1468q-53 0 -92 21.5t-78 60.5q-31 33 -52.5 46.5t-47.5 13.5q-38 0 -67.5 -30.5t-57.5 -98.5
l-92 32q26 105 91 172.5t136 67.5q53 0 90.5 -22t77.5 -62q31 -31 53 -44t47 -13q38 0 68.5 31t58.5 98l90 -33q-24 -104 -89.5 -172t-135.5 -68z" />
    <glyph glyph-name="Adieresis" unicode="&#xc4;" horiz-adv-x="1443" 
d="M-55 0l32 135h123l643 1079h-159l30 134h619l-31 -134h-153l143 -1079h143l-32 -135h-441l31 133h149l-41 332h-548l-197 -332h178l-33 -133h-456zM530 596h453l-80 629zM1176 1505q-48 0 -81.5 34t-33.5 83q0 50 34 84.5t83 34.5q47 0 80.5 -35t33.5 -84
q0 -50 -33.5 -83.5t-82.5 -33.5zM819 1505q-49 0 -81.5 33.5t-32.5 83.5t33.5 84.5t82.5 34.5q47 0 81 -35t34 -84t-34.5 -83t-82.5 -34z" />
    <glyph glyph-name="Aring" unicode="&#xc5;" horiz-adv-x="1443" 
d="M-55 0l32 135h123l643 1079h-159l30 134h189q-70 52 -70 147q0 89 71 162.5t173 73.5q87 0 137.5 -54t50.5 -133q0 -63 -32 -117t-84 -79h184l-31 -134h-153l143 -1079h143l-32 -135h-441l31 133h149l-41 332h-548l-197 -332h178l-33 -133h-456zM928 1376q55 0 92 45.5
t37 108.5q0 44 -25 73t-65 29q-55 0 -92 -45t-37 -108q0 -43 25.5 -73t64.5 -30zM530 596h453l-80 629z" />
    <glyph glyph-name="AE" unicode="&#xc6;" horiz-adv-x="1869" 
d="M-66 0l33 135h162l805 1077h-176l33 136h1163l-78 -330h-145l45 196h-484l-106 -462h418l-31 -131h-418l-113 -488h484l47 197h145l-76 -330h-948l31 135h164l78 330h-437l-245 -332h184l-31 -133h-504zM625 594h370l146 627h-51z" />
    <glyph glyph-name="Ccedilla" unicode="&#xc7;" horiz-adv-x="1404" 
d="M590 -408q-67 0 -133 26t-107 60l41 60q35 -24 89 -40.5t104 -16.5q39 0 62.5 18t23.5 45q0 31 -34 49t-97 8l-31 37l86 152q-199 40 -323 191.5t-124 387.5q0 212 103 397t279 295.5t380 110.5q91 0 171 -21.5t136 -56.5t97 -78.5t60.5 -88t19.5 -85.5q0 -66 -36 -107.5
t-87 -41.5q-49 0 -79 29t-30 73q0 29 16.5 55.5t43.5 41.5q-20 54 -105 98.5t-213 44.5q-126 0 -239.5 -57t-191 -149t-122.5 -209t-45 -236q0 -219 118.5 -344t315.5 -125q231 0 422 188l90 -94q-228 -234 -526 -234q-10 0 -55 5l-27 -84q78 -9 120 -50.5t42 -95.5
q0 -73 -62 -115.5t-153 -42.5z" />
    <glyph glyph-name="Egrave" unicode="&#xc8;" horiz-adv-x="1193" 
d="M6 0l33 135h162l250 1077h-183l31 136h981l-80 -330h-145l45 196h-498l-106 -462h432l-29 -131h-434l-113 -488h500l47 197h145l-75 -330h-963zM887 1458l-240 178q-53 42 -53 93q0 35 26 60.5t60 25.5q29 0 49.5 -15t44.5 -51l160 -252z" />
    <glyph glyph-name="Eacute" unicode="&#xc9;" horiz-adv-x="1193" 
d="M768 1468l-35 50l311 258q45 39 89 39q32 0 55.5 -24t23.5 -56q0 -64 -75 -99zM6 0l33 135h162l250 1077h-183l31 136h981l-80 -330h-145l45 196h-498l-106 -462h432l-29 -131h-434l-113 -488h500l47 197h145l-75 -330h-963z" />
    <glyph glyph-name="Ecircumflex" unicode="&#xca;" horiz-adv-x="1193" 
d="M580 1464l-58 78l383 297l232 -311l-70 -62l-190 185zM6 0l33 135h162l250 1077h-183l31 136h981l-80 -330h-145l45 196h-498l-106 -462h432l-29 -131h-434l-113 -488h500l47 197h145l-75 -330h-963z" />
    <glyph glyph-name="Edieresis" unicode="&#xcb;" horiz-adv-x="1193" 
d="M1040 1505q-47 0 -80.5 34t-33.5 83q0 50 33.5 84.5t82.5 34.5q47 0 81 -35t34 -84q0 -50 -33.5 -83.5t-83.5 -33.5zM684 1505q-49 0 -82 33.5t-33 83.5t34 84.5t83 34.5q47 0 81 -35t34 -84t-34.5 -83t-82.5 -34zM6 0l33 135h162l250 1077h-183l31 136h981l-80 -330
h-145l45 196h-498l-106 -462h432l-29 -131h-434l-113 -488h500l47 197h145l-75 -330h-963z" />
    <glyph glyph-name="Igrave" unicode="&#xcc;" horiz-adv-x="722" 
d="M6 0l33 135h180l248 1077h-186l30 136h518l-30 -136h-181l-247 -1077h186l-33 -135h-518zM662 1458l-240 178q-53 42 -53 93q0 35 26 60.5t60 25.5q29 0 49.5 -15t44.5 -51l160 -252z" />
    <glyph glyph-name="Iacute" unicode="&#xcd;" horiz-adv-x="722" 
d="M6 0l33 135h180l248 1077h-186l30 136h518l-30 -136h-181l-247 -1077h186l-33 -135h-518zM541 1468l-35 50l311 258q45 39 88 39q32 0 56 -24t24 -56q0 -64 -76 -99z" />
    <glyph glyph-name="Icircumflex" unicode="&#xce;" horiz-adv-x="722" 
d="M6 0l33 135h180l248 1077h-186l30 136h518l-30 -136h-181l-247 -1077h186l-33 -135h-518zM354 1464l-57 78l383 297l231 -311l-69 -62l-191 185z" />
    <glyph glyph-name="Idieresis" unicode="&#xcf;" horiz-adv-x="722" 
d="M6 0l33 135h180l248 1077h-186l30 136h518l-30 -136h-181l-247 -1077h186l-33 -135h-518zM815 1505q-48 0 -81.5 34t-33.5 83q0 50 34 84.5t83 34.5q47 0 81 -35t34 -84q0 -50 -34 -83.5t-83 -33.5zM459 1505q-49 0 -82 33.5t-33 83.5t34 84.5t83 34.5q47 0 80.5 -35
t33.5 -84t-34 -83t-82 -34z" />
    <glyph glyph-name="Eth" unicode="&#xd0;" horiz-adv-x="1449" 
d="M6 0l33 135h162l112 492h-174l31 127h174l107 458h-183l31 136h428q191 0 319 -46.5t224 -142.5q66 -68 103.5 -166t37.5 -207q0 -319 -211 -530q-253 -256 -711 -256h-483zM352 135h162q363 0 561 201q176 173 176 444q0 86 -28.5 161.5t-79.5 125.5q-70 72 -171 108.5
t-259 36.5h-111l-106 -458h278l-31 -127h-278z" />
    <glyph glyph-name="Ntilde" unicode="&#xd1;" horiz-adv-x="1540" 
d="M1122 -6l-553 1100l-221 -959h187l-31 -135h-498l33 135h162l250 1077h-183l31 136h309l518 -1031l207 895h-188l33 136h489l-31 -136h-157l-281 -1218h-76zM1161 1468q-53 0 -92 21.5t-78 60.5q-31 33 -52.5 46.5t-47.5 13.5q-38 0 -67.5 -30.5t-57.5 -98.5l-92 32
q26 105 91 172.5t136 67.5q53 0 90.5 -22t77.5 -62q31 -31 53 -44t47 -13q38 0 68.5 31t58.5 98l90 -33q-24 -104 -89.5 -172t-135.5 -68z" />
    <glyph glyph-name="Ograve" unicode="&#xd2;" horiz-adv-x="1499" 
d="M715 -25q-176 0 -306.5 77t-197 207.5t-66.5 295.5q0 149 57.5 296t155 262.5t239 187t298.5 71.5q132 0 240 -44.5t179.5 -122t110.5 -183.5t39 -229q0 -149 -57 -296t-154.5 -262.5t-239 -187.5t-298.5 -72zM727 115q121 0 230 58.5t185 153.5t120.5 217t44.5 247
q0 92 -26.5 171t-77.5 140t-133 96t-187 35q-121 0 -230 -58.5t-185 -153.5t-120.5 -217t-44.5 -247q0 -92 26.5 -171t77.5 -140t133 -96t187 -35zM1047 1458l-240 178q-53 42 -53 93q0 35 26 60.5t60 25.5q29 0 49.5 -15t44.5 -51l160 -252z" />
    <glyph glyph-name="Oacute" unicode="&#xd3;" horiz-adv-x="1499" 
d="M928 1468l-35 50l311 258q45 39 88 39q32 0 56 -24t24 -56q0 -64 -76 -99zM715 -25q-176 0 -306.5 77t-197 207.5t-66.5 295.5q0 149 57.5 296t155 262.5t239 187t298.5 71.5q132 0 240 -44.5t179.5 -122t110.5 -183.5t39 -229q0 -149 -57 -296t-154.5 -262.5
t-239 -187.5t-298.5 -72zM727 115q121 0 230 58.5t185 153.5t120.5 217t44.5 247q0 92 -26.5 171t-77.5 140t-133 96t-187 35q-121 0 -230 -58.5t-185 -153.5t-120.5 -217t-44.5 -247q0 -92 26.5 -171t77.5 -140t133 -96t187 -35z" />
    <glyph glyph-name="Ocircumflex" unicode="&#xd4;" horiz-adv-x="1499" 
d="M739 1464l-57 78l383 297l231 -311l-69 -62l-191 185zM715 -25q-176 0 -306.5 77t-197 207.5t-66.5 295.5q0 149 57.5 296t155 262.5t239 187t298.5 71.5q132 0 240 -44.5t179.5 -122t110.5 -183.5t39 -229q0 -149 -57 -296t-154.5 -262.5t-239 -187.5t-298.5 -72z
M727 115q121 0 230 58.5t185 153.5t120.5 217t44.5 247q0 92 -26.5 171t-77.5 140t-133 96t-187 35q-121 0 -230 -58.5t-185 -153.5t-120.5 -217t-44.5 -247q0 -92 26.5 -171t77.5 -140t133 -96t187 -35z" />
    <glyph glyph-name="Otilde" unicode="&#xd5;" horiz-adv-x="1499" 
d="M715 -25q-176 0 -306.5 77t-197 207.5t-66.5 295.5q0 149 57.5 296t155 262.5t239 187t298.5 71.5q132 0 240 -44.5t179.5 -122t110.5 -183.5t39 -229q0 -149 -57 -296t-154.5 -262.5t-239 -187.5t-298.5 -72zM727 115q121 0 230 58.5t185 153.5t120.5 217t44.5 247
q0 92 -26.5 171t-77.5 140t-133 96t-187 35q-121 0 -230 -58.5t-185 -153.5t-120.5 -217t-44.5 -247q0 -92 26.5 -171t77.5 -140t133 -96t187 -35zM1139 1468q-53 0 -92 21.5t-78 60.5q-31 33 -53 46.5t-48 13.5q-38 0 -67.5 -30.5t-57.5 -98.5l-92 32q26 105 91.5 172.5
t136.5 67.5q53 0 90.5 -22t77.5 -62q31 -31 53 -44t47 -13q38 0 68.5 31t58.5 98l90 -33q-24 -104 -89.5 -172t-135.5 -68z" />
    <glyph glyph-name="Odieresis" unicode="&#xd6;" horiz-adv-x="1499" 
d="M1200 1505q-48 0 -81.5 34t-33.5 83q0 50 34 84.5t83 34.5q47 0 81 -35t34 -84q0 -50 -33.5 -83.5t-83.5 -33.5zM844 1505q-49 0 -82 33.5t-33 83.5t34 84.5t83 34.5q47 0 81 -35t34 -84t-34.5 -83t-82.5 -34zM715 -25q-176 0 -306.5 77t-197 207.5t-66.5 295.5
q0 149 57.5 296t155 262.5t239 187t298.5 71.5q132 0 240 -44.5t179.5 -122t110.5 -183.5t39 -229q0 -149 -57 -296t-154.5 -262.5t-239 -187.5t-298.5 -72zM727 115q121 0 230 58.5t185 153.5t120.5 217t44.5 247q0 92 -26.5 171t-77.5 140t-133 96t-187 35
q-121 0 -230 -58.5t-185 -153.5t-120.5 -217t-44.5 -247q0 -92 26.5 -171t77.5 -140t133 -96t187 -35z" />
    <glyph glyph-name="multiply" unicode="&#xd7;" horiz-adv-x="858" 
d="M309 870l166 -221l256 211l80 -100l-258 -213l168 -223l-107 -86l-168 223l-256 -211l-79 100l258 213l-166 223z" />
    <glyph glyph-name="Oslash" unicode="&#xd8;" horiz-adv-x="1499" 
d="M719 -25q-268 0 -422 170l-193 -168l-84 99l201 174q-71 133 -71 307q0 148 56.5 294.5t153.5 262t238.5 187t298.5 71.5q134 0 242.5 -45.5t181.5 -128.5l201 174l84 -96l-211 -184q71 -136 71 -301q0 -149 -57 -295.5t-154 -262t-238 -187t-298 -71.5zM305 557
q0 -122 41 -211l862 752q-114 137 -323 137q-121 0 -230 -58.5t-185 -153.5t-120.5 -217.5t-44.5 -248.5zM731 113q121 0 230 58.5t185 153.5t120.5 217.5t44.5 248.5q0 110 -41 206l-862 -751q117 -133 323 -133z" />
    <glyph glyph-name="Ugrave" unicode="&#xd9;" horiz-adv-x="1462" 
d="M684 -23q-207 0 -320.5 107.5t-113.5 288.5q0 67 20 162l158 677h-180l31 136h497l-31 -136h-165l-158 -686q-19 -97 -19 -143q0 -127 73 -198.5t224 -71.5t244.5 90.5t128.5 247.5l174 761h-186l31 136h497l-30 -136h-162l-178 -780q-105 -455 -535 -455zM1016 1458
l-240 178q-53 42 -53 93q0 35 26 60.5t60 25.5q29 0 49.5 -15t44.5 -51l160 -252z" />
    <glyph glyph-name="Uacute" unicode="&#xda;" horiz-adv-x="1462" 
d="M897 1468l-35 50l312 258q45 39 88 39q32 0 55.5 -24t23.5 -56q0 -64 -75 -99zM684 -23q-207 0 -320.5 107.5t-113.5 288.5q0 67 20 162l158 677h-180l31 136h497l-31 -136h-165l-158 -686q-19 -97 -19 -143q0 -127 73 -198.5t224 -71.5t244.5 90.5t128.5 247.5l174 761
h-186l31 136h497l-30 -136h-162l-178 -780q-105 -455 -535 -455z" />
    <glyph glyph-name="Ucircumflex" unicode="&#xdb;" horiz-adv-x="1462" 
d="M711 1464l-58 78l383 297l232 -311l-70 -62l-190 185zM684 -23q-207 0 -320.5 107.5t-113.5 288.5q0 67 20 162l158 677h-180l31 136h497l-31 -136h-165l-158 -686q-19 -97 -19 -143q0 -127 73 -198.5t224 -71.5t244.5 90.5t128.5 247.5l174 761h-186l31 136h497
l-30 -136h-162l-178 -780q-105 -455 -535 -455z" />
    <glyph glyph-name="Udieresis" unicode="&#xdc;" horiz-adv-x="1462" 
d="M1169 1505q-47 0 -80.5 34t-33.5 83q0 50 33.5 84.5t82.5 34.5q47 0 81 -35t34 -84q0 -50 -34 -83.5t-83 -33.5zM813 1505q-49 0 -82 33.5t-33 83.5t34 84.5t83 34.5q47 0 81 -35t34 -84t-34.5 -83t-82.5 -34zM684 -23q-207 0 -320.5 107.5t-113.5 288.5q0 67 20 162
l158 677h-180l31 136h497l-31 -136h-165l-158 -686q-19 -97 -19 -143q0 -127 73 -198.5t224 -71.5t244.5 90.5t128.5 247.5l174 761h-186l31 136h497l-30 -136h-162l-178 -780q-105 -455 -535 -455z" />
    <glyph glyph-name="Yacute" unicode="&#xdd;" horiz-adv-x="1292" 
d="M254 0l33 135h182l100 408l-233 669h-141l32 136h451l-29 -136h-155l180 -555l450 555h-151l33 136h462l-30 -136h-135l-590 -698l-90 -379h190l-29 -135h-530zM799 1468l-35 50l311 258q45 39 88 39q32 0 56 -24t24 -56q0 -64 -76 -99z" />
    <glyph glyph-name="Thorn" unicode="&#xde;" horiz-adv-x="1171" 
d="M6 0l33 135h162l250 1077h-183l31 136h502l-33 -134h-166l-33 -147h129q244 0 357 -113q88 -85 88 -229q0 -193 -143.5 -311.5t-391.5 -118.5q-147 0 -217 6l-39 -168h187l-31 -133h-502zM623 424q180 0 273 80.5t93 212.5q0 95 -55 147q-77 74 -256 74h-139l-117 -508
q159 -6 201 -6z" />
    <glyph glyph-name="germandbls" unicode="&#xdf;" horiz-adv-x="1122" 
d="M702 -14q-100 0 -180 55.5t-80 134.5q0 42 28 73.5t69 31.5q39 0 65.5 -26.5t26.5 -59.5q0 -35 -25 -64q8 -11 38.5 -22t62.5 -11q82 0 131 51.5t49 129.5q0 53 -32.5 99t-96.5 105q-74 72 -110 127t-36 125q0 79 40.5 132.5t115.5 105.5q32 23 50.5 36.5t43.5 38
t38.5 47t23.5 54.5t10 68q0 68 -54 116.5t-126 48.5q-94 0 -160 -69t-92 -195l-256 -1118h-142l172 748h-155l31 124h153l60 263q39 178 140 276t255 98q137 0 225 -83t88 -212q0 -62 -16 -113t-48.5 -90t-62.5 -64.5t-76 -57.5q-61 -42 -90.5 -76t-29.5 -78q0 -34 29 -72.5
t93 -97.5q69 -65 110.5 -133.5t41.5 -155.5q0 -124 -83.5 -207t-238.5 -83z" />
    <glyph glyph-name="agrave" unicode="&#xe0;" horiz-adv-x="1146" 
d="M395 -16q-138 0 -223.5 96.5t-85.5 257.5q0 146 62.5 273t169.5 202.5t231 75.5q105 0 178 -60.5t94 -156.5l56 207h137l-158 -641q-14 -61 -14 -86q0 -30 15 -47t42 -17q62 0 117 137l71 -24q-69 -215 -219 -215q-73 0 -117 44t-44 115v21q-136 -182 -312 -182zM442 109
q96 0 176 63.5t122 158t42 193.5q0 108 -57 173t-162 65q-92 0 -167.5 -59.5t-116.5 -154t-41 -200.5q0 -110 52.5 -174.5t151.5 -64.5zM739 1020l-239 178q-54 43 -54 92q0 35 26 60.5t60 25.5q29 0 50.5 -14.5t44.5 -50.5l159 -252z" />
    <glyph glyph-name="aacute" unicode="&#xe1;" horiz-adv-x="1146" 
d="M395 -16q-138 0 -223.5 96.5t-85.5 257.5q0 146 62.5 273t169.5 202.5t231 75.5q105 0 178 -60.5t94 -156.5l56 207h137l-158 -641q-14 -61 -14 -86q0 -30 15 -47t42 -17q62 0 117 137l71 -24q-69 -215 -219 -215q-73 0 -117 44t-44 115v21q-136 -182 -312 -182zM442 109
q96 0 176 63.5t122 158t42 193.5q0 108 -57 173t-162 65q-92 0 -167.5 -59.5t-116.5 -154t-41 -200.5q0 -110 52.5 -174.5t151.5 -64.5zM618 1030l-34 49l311 258q45 39 88 39q32 0 56 -24t24 -56q0 -63 -76 -98z" />
    <glyph glyph-name="acircumflex" unicode="&#xe2;" horiz-adv-x="1146" 
d="M395 -16q-138 0 -223.5 96.5t-85.5 257.5q0 146 62.5 273t169.5 202.5t231 75.5q105 0 178 -60.5t94 -156.5l56 207h137l-158 -641q-14 -61 -14 -86q0 -30 15 -47t42 -17q62 0 117 137l71 -24q-69 -215 -219 -215q-73 0 -117 44t-44 115v21q-136 -182 -312 -182zM442 109
q96 0 176 63.5t122 158t42 193.5q0 108 -57 173t-162 65q-92 0 -167.5 -59.5t-116.5 -154t-41 -200.5q0 -110 52.5 -174.5t151.5 -64.5zM430 1026l-57 78l383 297l231 -311l-69 -62l-191 184z" />
    <glyph glyph-name="atilde" unicode="&#xe3;" horiz-adv-x="1146" 
d="M395 -16q-138 0 -223.5 96.5t-85.5 257.5q0 146 62.5 273t169.5 202.5t231 75.5q105 0 178 -60.5t94 -156.5l56 207h137l-158 -641q-14 -61 -14 -86q0 -30 15 -47t42 -17q62 0 117 137l71 -24q-69 -215 -219 -215q-73 0 -117 44t-44 115v21q-136 -182 -312 -182zM442 109
q96 0 176 63.5t122 158t42 193.5q0 108 -57 173t-162 65q-92 0 -167.5 -59.5t-116.5 -154t-41 -200.5q0 -110 52.5 -174.5t151.5 -64.5zM829 1030q-53 0 -92 21.5t-78 60.5q-31 33 -52 46t-48 13q-38 0 -67.5 -30.5t-57.5 -98.5l-92 33q26 105 91 172.5t136 67.5
q53 0 90.5 -22t77.5 -62q57 -57 101 -57q38 0 68.5 31t58.5 98l90 -33q-24 -104 -90 -172t-136 -68z" />
    <glyph glyph-name="adieresis" unicode="&#xe4;" horiz-adv-x="1146" 
d="M395 -16q-138 0 -223.5 96.5t-85.5 257.5q0 146 62.5 273t169.5 202.5t231 75.5q105 0 178 -60.5t94 -156.5l56 207h137l-158 -641q-14 -61 -14 -86q0 -30 15 -47t42 -17q62 0 117 137l71 -24q-69 -215 -219 -215q-73 0 -117 44t-44 115v21q-136 -182 -312 -182zM442 109
q96 0 176 63.5t122 158t42 193.5q0 108 -57 173t-162 65q-92 0 -167.5 -59.5t-116.5 -154t-41 -200.5q0 -110 52.5 -174.5t151.5 -64.5zM889 1067q-48 0 -81.5 34t-33.5 83q0 50 34 84.5t83 34.5q47 0 81 -35t34 -84q0 -50 -34 -83.5t-83 -33.5zM532 1067q-49 0 -81.5 33.5
t-32.5 83.5t34 84.5t83 34.5q47 0 80.5 -35t33.5 -84t-34.5 -83t-82.5 -34z" />
    <glyph glyph-name="aring" unicode="&#xe5;" horiz-adv-x="1146" 
d="M395 -16q-138 0 -223.5 96.5t-85.5 257.5q0 146 62.5 273t169.5 202.5t231 75.5q105 0 178 -60.5t94 -156.5l56 207h137l-158 -641q-14 -61 -14 -86q0 -30 15 -47t42 -17q62 0 117 137l71 -24q-69 -215 -219 -215q-73 0 -117 44t-44 115v21q-136 -182 -312 -182zM442 109
q96 0 176 63.5t122 158t42 193.5q0 108 -57 173t-162 65q-92 0 -167.5 -59.5t-116.5 -154t-41 -200.5q0 -110 52.5 -174.5t151.5 -64.5zM700 1022q-87 0 -137.5 54t-50.5 138q0 105 71 183t175 78q88 0 139 -54.5t51 -136.5q0 -106 -72 -184t-176 -78zM711 1120
q55 0 92 45.5t37 108.5q0 43 -25.5 72.5t-64.5 29.5q-56 0 -94 -45t-38 -108q0 -43 26 -73t67 -30z" />
    <glyph glyph-name="ae" unicode="&#xe6;" horiz-adv-x="1622" 
d="M1513 393h-639q-2 -14 -2 -43q0 -112 79.5 -178t199.5 -66q73 0 139 18t148 62l-31 -139q-68 -34 -131.5 -48.5t-147.5 -14.5q-138 0 -231 72t-125 190q-60 -119 -176.5 -190.5t-251.5 -71.5q-132 0 -205 66t-73 151q0 146 124.5 223.5t341.5 77.5h216q-5 118 -73 194
t-186 76q-46 0 -73 -8q-15 -6 -27 -14q14 -24 14 -48q0 -37 -27 -64.5t-65 -27.5q-41 0 -67.5 30t-26.5 73q0 40 28.5 78.5t78.5 64.5q68 33 159 33q143 0 229 -68t113 -192q61 119 167.5 189.5t224.5 70.5q151 0 241 -86.5t90 -233.5q0 -80 -35 -176zM352 106
q127 0 239.5 82t143.5 209h-164q-366 0 -366 -184q0 -46 39.5 -76.5t107.5 -30.5zM1208 764q-104 0 -189 -72.5t-122 -187.5h502q14 47 14 86q0 75 -52 124.5t-153 49.5z" />
    <glyph glyph-name="ccedilla" unicode="&#xe7;" horiz-adv-x="950" 
d="M348 -408q-67 0 -132.5 25.5t-106.5 60.5l41 60q35 -24 88.5 -40.5t103.5 -16.5q39 0 62.5 18t23.5 45q0 31 -34 49t-97 8l-31 37l92 160q-125 32 -199.5 126.5t-74.5 235.5q0 136 67 258t183 196.5t250 74.5q144 0 229.5 -72t85.5 -162q0 -52 -30.5 -87.5t-77.5 -35.5
q-35 0 -62 25t-27 68q0 19 11 40.5t30 32.5q-50 66 -163 66q-138 0 -244.5 -115.5t-106.5 -279.5q0 -118 72 -189t193 -71q158 0 290 114l-4 -139q-137 -100 -303 -100q-8 0 -23 1t-22 1l-31 -90q78 -9 120 -50.5t42 -95.5q0 -73 -62 -115.5t-153 -42.5z" />
    <glyph glyph-name="egrave" unicode="&#xe8;" horiz-adv-x="974" 
d="M866 393h-641q-2 -14 -2 -43q0 -112 80.5 -178t198.5 -66q74 0 139.5 18t149.5 62l-31 -139q-70 -34 -134.5 -48.5t-152.5 -14.5q-105 0 -192.5 41.5t-143 126.5t-55.5 200q0 145 66 269t177.5 196t239.5 72q153 0 243.5 -86.5t90.5 -233.5q0 -86 -33 -176zM559 764
q-102 0 -187 -72.5t-124 -187.5h502q14 38 14 86q0 75 -52 124.5t-153 49.5zM688 1020l-239 178q-54 43 -54 92q0 35 26 60.5t60 25.5q29 0 49.5 -14.5t44.5 -50.5l160 -252z" />
    <glyph glyph-name="eacute" unicode="&#xe9;" horiz-adv-x="974" 
d="M866 393h-641q-2 -14 -2 -43q0 -112 80.5 -178t198.5 -66q74 0 139.5 18t149.5 62l-31 -139q-70 -34 -134.5 -48.5t-152.5 -14.5q-105 0 -192.5 41.5t-143 126.5t-55.5 200q0 145 66 269t177.5 196t239.5 72q153 0 243.5 -86.5t90.5 -233.5q0 -86 -33 -176zM559 764
q-102 0 -187 -72.5t-124 -187.5h502q14 38 14 86q0 75 -52 124.5t-153 49.5zM567 1030l-35 49l312 258q45 39 88 39q32 0 56 -24t24 -56q0 -63 -76 -98z" />
    <glyph glyph-name="ecircumflex" unicode="&#xea;" horiz-adv-x="974" 
d="M866 393h-641q-2 -14 -2 -43q0 -112 80.5 -178t198.5 -66q74 0 139.5 18t149.5 62l-31 -139q-70 -34 -134.5 -48.5t-152.5 -14.5q-105 0 -192.5 41.5t-143 126.5t-55.5 200q0 145 66 269t177.5 196t239.5 72q153 0 243.5 -86.5t90.5 -233.5q0 -86 -33 -176zM559 764
q-102 0 -187 -72.5t-124 -187.5h502q14 38 14 86q0 75 -52 124.5t-153 49.5zM381 1026l-57 78l383 297l231 -311l-70 -62l-190 184z" />
    <glyph glyph-name="edieresis" unicode="&#xeb;" horiz-adv-x="974" 
d="M866 393h-641q-2 -14 -2 -43q0 -112 80.5 -178t198.5 -66q74 0 139.5 18t149.5 62l-31 -139q-70 -34 -134.5 -48.5t-152.5 -14.5q-105 0 -192.5 41.5t-143 126.5t-55.5 200q0 145 66 269t177.5 196t239.5 72q153 0 243.5 -86.5t90.5 -233.5q0 -86 -33 -176zM559 764
q-102 0 -187 -72.5t-124 -187.5h502q14 38 14 86q0 75 -52 124.5t-153 49.5zM483 1067q-49 0 -81.5 33.5t-32.5 83.5t33.5 84.5t82.5 34.5q47 0 81 -35t34 -84t-34.5 -83t-82.5 -34zM840 1067q-48 0 -81.5 34t-33.5 83q0 50 34 84.5t83 34.5q47 0 80.5 -35t33.5 -84
q0 -50 -33.5 -83.5t-82.5 -33.5z" />
    <glyph glyph-name="igrave" unicode="&#xec;" horiz-adv-x="604" 
d="M305 -14q-79 0 -125.5 45t-46.5 119q0 28 17 94l137 504h-170l33 124h313l-172 -634q-15 -62 -15 -86q0 -30 16.5 -47t43.5 -17q34 0 62.5 31.5t56.5 105.5l71 -24q-69 -215 -221 -215zM477 1020l-239 178q-54 43 -54 92q0 35 26 60.5t60 25.5q29 0 50.5 -14.5
t44.5 -50.5l159 -252z" />
    <glyph glyph-name="iacute" unicode="&#xed;" horiz-adv-x="604" 
d="M358 1030l-34 49l311 258q45 39 88 39q32 0 56 -24t24 -56q0 -63 -76 -98zM305 -14q-79 0 -125.5 45t-46.5 119q0 28 17 94l137 504h-170l33 124h313l-172 -634q-15 -62 -15 -86q0 -30 16.5 -47t43.5 -17q34 0 62.5 31.5t56.5 105.5l71 -24q-69 -215 -221 -215z" />
    <glyph glyph-name="icircumflex" unicode="&#xee;" horiz-adv-x="604" 
d="M170 1026l-57 78l383 297l231 -311l-70 -62l-190 184zM305 -14q-79 0 -125.5 45t-46.5 119q0 28 17 94l137 504h-170l33 124h313l-172 -634q-15 -62 -15 -86q0 -30 16.5 -47t43.5 -17q34 0 62.5 31.5t56.5 105.5l71 -24q-69 -215 -221 -215z" />
    <glyph glyph-name="idieresis" unicode="&#xef;" horiz-adv-x="604" 
d="M629 1067q-48 0 -81.5 34t-33.5 83q0 50 34 84.5t83 34.5q47 0 80.5 -35t33.5 -84q0 -50 -33.5 -83.5t-82.5 -33.5zM272 1067q-49 0 -81.5 33.5t-32.5 83.5t33.5 84.5t82.5 34.5q47 0 81 -35t34 -84t-34.5 -83t-82.5 -34zM305 -14q-79 0 -125.5 45t-46.5 119q0 28 17 94
l137 504h-170l33 124h313l-172 -634q-15 -62 -15 -86q0 -30 16.5 -47t43.5 -17q34 0 62.5 31.5t56.5 105.5l71 -24q-69 -215 -221 -215z" />
    <glyph glyph-name="eth" unicode="&#xf0;" horiz-adv-x="1046" 
d="M444 -14q-167 0 -267.5 104t-100.5 262q0 125 62 239.5t166.5 184.5t221.5 70q118 0 192.5 -54t106.5 -151q9 65 9 143q0 222 -103 390l-237 -216l-76 82l246 224q-78 83 -183 114q-24 -75 -94 -75q-41 0 -69.5 27.5t-28.5 72.5q0 40 34.5 72t98.5 32q80 0 169 -41
t165 -120l182 165l76 -81l-189 -170q62 -94 99 -222t37 -268q0 -452 -201 -653q-131 -131 -316 -131zM453 111q128 0 221 96q50 51 78 121.5t28 146.5q0 112 -65 178t-172 66q-134 0 -228 -110.5t-94 -254.5q0 -111 64.5 -177t167.5 -66z" />
    <glyph glyph-name="ntilde" unicode="&#xf1;" horiz-adv-x="1114" 
d="M846 -14q-79 0 -125.5 45t-46.5 116q0 49 16 99l82 284q14 55 14 103q0 59 -39 95t-102 36q-93 0 -177.5 -85t-121.5 -235l-113 -444h-143l189 748h-164l30 124h291l-49 -206q60 101 139.5 161t167.5 60q105 0 172.5 -66.5t67.5 -171.5q0 -60 -23 -137l-80 -283
q-14 -47 -14 -75q0 -30 16.5 -48t43.5 -18q32 0 59 31t57 106l72 -24q-69 -215 -219 -215zM844 1030q-53 0 -92 21.5t-78 60.5q-31 32 -52.5 45.5t-48.5 13.5q-38 0 -67 -30.5t-57 -98.5l-93 33q26 105 91.5 172.5t136.5 67.5q53 0 90.5 -22t77.5 -62q31 -31 53 -44t47 -13
q38 0 68.5 31t58.5 98l90 -33q-24 -104 -89.5 -172t-135.5 -68z" />
    <glyph glyph-name="ograve" unicode="&#xf2;" horiz-adv-x="1040" 
d="M463 -16q-174 0 -276.5 109.5t-102.5 271.5q0 100 38 195.5t102.5 168t157.5 116.5t196 44q116 0 203.5 -53t131 -138.5t43.5 -189.5q0 -136 -63.5 -256t-178 -194t-251.5 -74zM469 109q144 0 243 117.5t99 281.5q0 117 -68 186.5t-172 69.5q-142 0 -242 -118.5
t-100 -283.5q0 -116 68 -184.5t172 -68.5zM719 1020l-240 178q-53 42 -53 92q0 35 26 60.5t60 25.5q29 0 49.5 -14.5t44.5 -50.5l160 -252z" />
    <glyph glyph-name="oacute" unicode="&#xf3;" horiz-adv-x="1040" 
d="M598 1030l-35 49l311 258q45 39 89 39q32 0 55.5 -24t23.5 -56q0 -63 -75 -98zM463 -16q-174 0 -276.5 109.5t-102.5 271.5q0 100 38 195.5t102.5 168t157.5 116.5t196 44q116 0 203.5 -53t131 -138.5t43.5 -189.5q0 -136 -63.5 -256t-178 -194t-251.5 -74zM469 109
q144 0 243 117.5t99 281.5q0 117 -68 186.5t-172 69.5q-142 0 -242 -118.5t-100 -283.5q0 -116 68 -184.5t172 -68.5z" />
    <glyph glyph-name="ocircumflex" unicode="&#xf4;" horiz-adv-x="1040" 
d="M410 1026l-58 78l383 297l232 -311l-70 -62l-190 184zM463 -16q-174 0 -276.5 109.5t-102.5 271.5q0 100 38 195.5t102.5 168t157.5 116.5t196 44q116 0 203.5 -53t131 -138.5t43.5 -189.5q0 -136 -63.5 -256t-178 -194t-251.5 -74zM469 109q144 0 243 117.5t99 281.5
q0 117 -68 186.5t-172 69.5q-142 0 -242 -118.5t-100 -283.5q0 -116 68 -184.5t172 -68.5z" />
    <glyph glyph-name="otilde" unicode="&#xf5;" horiz-adv-x="1040" 
d="M463 -16q-174 0 -276.5 109.5t-102.5 271.5q0 100 38 195.5t102.5 168t157.5 116.5t196 44q116 0 203.5 -53t131 -138.5t43.5 -189.5q0 -136 -63.5 -256t-178 -194t-251.5 -74zM469 109q144 0 243 117.5t99 281.5q0 117 -68 186.5t-172 69.5q-142 0 -242 -118.5
t-100 -283.5q0 -116 68 -184.5t172 -68.5zM811 1030q-53 0 -92 21.5t-78 60.5q-31 33 -52 46t-48 13q-38 0 -67.5 -30.5t-57.5 -98.5l-92 33q26 105 91 172.5t136 67.5q53 0 90.5 -22t77.5 -62q31 -31 53 -44t47 -13q38 0 68.5 31t58.5 98l90 -33q-24 -104 -89.5 -172
t-135.5 -68z" />
    <glyph glyph-name="odieresis" unicode="&#xf6;" horiz-adv-x="1040" 
d="M868 1067q-47 0 -80.5 34t-33.5 83q0 50 33.5 84.5t82.5 34.5q47 0 81 -35t34 -84q0 -50 -33.5 -83.5t-83.5 -33.5zM512 1067q-49 0 -82 33.5t-33 83.5t34 84.5t83 34.5q47 0 81 -35t34 -84t-34.5 -83t-82.5 -34zM463 -16q-174 0 -276.5 109.5t-102.5 271.5
q0 100 38 195.5t102.5 168t157.5 116.5t196 44q116 0 203.5 -53t131 -138.5t43.5 -189.5q0 -136 -63.5 -256t-178 -194t-251.5 -74zM469 109q144 0 243 117.5t99 281.5q0 117 -68 186.5t-172 69.5q-142 0 -242 -118.5t-100 -283.5q0 -116 68 -184.5t172 -68.5z" />
    <glyph glyph-name="divide" unicode="&#xf7;" horiz-adv-x="858" 
d="M104 492l31 124h680l-29 -124h-682zM526 733q-41 0 -71.5 31t-30.5 72t31 71.5t71 30.5t70.5 -30.5t30.5 -71.5t-30.5 -72t-70.5 -31zM395 172q-41 0 -70.5 29.5t-29.5 70.5t30.5 72t71.5 31q40 0 69.5 -31t29.5 -72t-30.5 -70.5t-70.5 -29.5z" />
    <glyph glyph-name="oslash" unicode="&#xf8;" horiz-adv-x="1056" 
d="M481 -16q-159 0 -264 94l-131 -117l-74 86l135 117q-51 91 -51 203q0 136 62.5 255t177.5 193t254 74q160 0 268 -103l137 123l76 -84l-145 -129q47 -86 47 -190q0 -136 -63 -255.5t-177 -193t-252 -73.5zM242 365q0 -65 18 -115l502 446q-68 68 -176 68
q-143 0 -243.5 -116.5t-100.5 -282.5zM485 109q142 0 242 116.5t100 282.5q0 47 -14 98l-498 -436q67 -61 170 -61z" />
    <glyph glyph-name="ugrave" unicode="&#xf9;" horiz-adv-x="1114" 
d="M139 872h307l-141 -546q-12 -44 -12 -95q0 -56 36 -90.5t97 -34.5q95 0 180.5 86t122.5 234l111 446h143l-158 -634q-16 -56 -16 -86t16 -47t43 -17q62 0 117 137l72 -24q-69 -215 -221 -215q-72 0 -116 45t-44 121q0 9 4 41q-59 -94 -137 -150.5t-166 -56.5
q-100 0 -166 61t-66 160q0 53 19 131l106 410h-164zM739 1020l-239 178q-54 43 -54 92q0 35 26 60.5t60 25.5q29 0 50.5 -14.5t44.5 -50.5l159 -252z" />
    <glyph glyph-name="uacute" unicode="&#xfa;" horiz-adv-x="1114" 
d="M139 872h307l-141 -546q-12 -44 -12 -95q0 -56 36 -90.5t97 -34.5q95 0 180.5 86t122.5 234l111 446h143l-158 -634q-16 -56 -16 -86t16 -47t43 -17q62 0 117 137l72 -24q-69 -215 -221 -215q-72 0 -116 45t-44 121q0 9 4 41q-59 -94 -137 -150.5t-166 -56.5
q-100 0 -166 61t-66 160q0 53 19 131l106 410h-164zM618 1030l-34 49l311 258q45 39 88 39q32 0 56 -24t24 -56q0 -63 -76 -98z" />
    <glyph glyph-name="ucircumflex" unicode="&#xfb;" horiz-adv-x="1114" 
d="M139 872h307l-141 -546q-12 -44 -12 -95q0 -56 36 -90.5t97 -34.5q95 0 180.5 86t122.5 234l111 446h143l-158 -634q-16 -56 -16 -86t16 -47t43 -17q62 0 117 137l72 -24q-69 -215 -221 -215q-72 0 -116 45t-44 121q0 9 4 41q-59 -94 -137 -150.5t-166 -56.5
q-100 0 -166 61t-66 160q0 53 19 131l106 410h-164zM428 1026l-57 78l383 297l231 -311l-70 -62l-190 184z" />
    <glyph glyph-name="udieresis" unicode="&#xfc;" horiz-adv-x="1114" 
d="M139 872h307l-141 -546q-12 -44 -12 -95q0 -56 36 -90.5t97 -34.5q95 0 180.5 86t122.5 234l111 446h143l-158 -634q-16 -56 -16 -86t16 -47t43 -17q62 0 117 137l72 -24q-69 -215 -221 -215q-72 0 -116 45t-44 121q0 9 4 41q-59 -94 -137 -150.5t-166 -56.5
q-100 0 -166 61t-66 160q0 53 19 131l106 410h-164zM532 1067q-49 0 -81.5 33.5t-32.5 83.5t34 84.5t83 34.5q47 0 80.5 -35t33.5 -84t-34.5 -83t-82.5 -34zM889 1067q-48 0 -81.5 34t-33.5 83q0 50 34 84.5t83 34.5q47 0 81 -35t34 -84q0 -50 -34 -83.5t-83 -33.5z" />
    <glyph glyph-name="yacute" unicode="&#xfd;" horiz-adv-x="987" 
d="M-31 -410q-57 0 -97 34t-40 83q0 42 28.5 72.5t69.5 30.5q38 0 65 -25.5t32 -65.5h4q87 0 334 299l-150 730h-156l31 124h252l127 -729q289 375 326 531q-35 11 -59.5 40.5t-24.5 69.5q0 42 30.5 73.5t75.5 31.5q54 0 86.5 -37.5t32.5 -103.5q0 -105 -94 -271t-328 -459
q-106 -131 -187.5 -216.5t-145.5 -131.5t-112 -63t-100 -17zM559 1030l-35 49l312 258q45 39 88 39q32 0 56 -24t24 -56q0 -63 -76 -98z" />
    <glyph glyph-name="thorn" unicode="&#xfe;" horiz-adv-x="1081" 
d="M-170 -401l31 122h131l391 1655h-166l31 123h307l-186 -788q126 178 301 178q145 0 234 -99t89 -262q0 -111 -38 -212.5t-101 -174.5t-148.5 -116t-177.5 -43q-101 0 -179.5 56.5t-104.5 147.5l-107 -465h178l-30 -122h-455zM516 111q137 0 231.5 121t94.5 278
q0 116 -57 184t-158 68q-92 0 -172.5 -62.5t-126 -158.5t-45.5 -195q0 -106 62 -170.5t171 -64.5z" />
    <glyph glyph-name="ydieresis" unicode="&#xff;" horiz-adv-x="987" 
d="M-31 -410q-57 0 -97 34t-40 83q0 42 28.5 72.5t69.5 30.5q38 0 65 -25.5t32 -65.5h4q87 0 334 299l-150 730h-156l31 124h252l127 -729q289 375 326 531q-35 11 -59.5 40.5t-24.5 69.5q0 42 30.5 73.5t75.5 31.5q54 0 86.5 -37.5t32.5 -103.5q0 -105 -94 -271t-328 -459
q-106 -131 -187.5 -216.5t-145.5 -131.5t-112 -63t-100 -17zM475 1067q-49 0 -82 33.5t-33 83.5t34 84.5t83 34.5q47 0 81 -35t34 -84t-34.5 -83t-82.5 -34zM831 1067q-47 0 -80.5 34t-33.5 83q0 50 34 84.5t83 34.5q47 0 80.5 -35t33.5 -84q0 -50 -34 -83.5t-83 -33.5z" />
    <glyph glyph-name="Amacron" unicode="&#x100;" horiz-adv-x="1443" 
d="M-55 0l32 135h123l643 1079h-159l30 134h619l-31 -134h-153l143 -1079h143l-32 -135h-441l31 133h149l-41 332h-548l-197 -332h178l-33 -133h-456zM530 596h453l-80 629zM670 1534l30 129h615l-27 -129h-618z" />
    <glyph glyph-name="amacron" unicode="&#x101;" horiz-adv-x="1146" 
d="M395 -16q-138 0 -223.5 96.5t-85.5 257.5q0 146 62.5 273t169.5 202.5t231 75.5q105 0 178 -60.5t94 -156.5l56 207h137l-158 -641q-14 -61 -14 -86q0 -30 15 -47t42 -17q62 0 117 137l71 -24q-69 -215 -219 -215q-73 0 -117 44t-44 115v21q-136 -182 -312 -182zM442 109
q96 0 176 63.5t122 158t42 193.5q0 108 -57 173t-162 65q-92 0 -167.5 -59.5t-116.5 -154t-41 -200.5q0 -110 52.5 -174.5t151.5 -64.5zM383 1096l31 129h614l-27 -129h-618z" />
    <glyph glyph-name="Abreve" unicode="&#x102;" horiz-adv-x="1443" 
d="M-55 0l32 135h123l643 1079h-159l30 134h619l-31 -134h-153l143 -1079h143l-32 -135h-441l31 133h149l-41 332h-548l-197 -332h178l-33 -133h-456zM530 596h453l-80 629zM977 1477q-115 0 -185 78.5t-81 211.5l94 31q39 -182 194 -182q149 0 261 180l83 -45
q-61 -127 -160.5 -200.5t-205.5 -73.5z" />
    <glyph glyph-name="abreve" unicode="&#x103;" horiz-adv-x="1146" 
d="M395 -16q-138 0 -223.5 96.5t-85.5 257.5q0 146 62.5 273t169.5 202.5t231 75.5q105 0 178 -60.5t94 -156.5l56 207h137l-158 -641q-14 -61 -14 -86q0 -30 15 -47t42 -17q62 0 117 137l71 -24q-69 -215 -219 -215q-73 0 -117 44t-44 115v21q-136 -182 -312 -182zM442 109
q96 0 176 63.5t122 158t42 193.5q0 108 -57 173t-162 65q-92 0 -167.5 -59.5t-116.5 -154t-41 -200.5q0 -110 52.5 -174.5t151.5 -64.5zM690 1038q-115 0 -185 79t-81 212l94 31q39 -182 195 -182q148 0 260 180l84 -45q-61 -127 -161 -201t-206 -74z" />
    <glyph glyph-name="Aogonek" unicode="&#x104;" horiz-adv-x="1443" 
d="M-55 0l32 135h123l643 1079h-159l30 134h619l-31 -134h-153l143 -1079h143l-32 -135h-160q-158 -119 -158 -217q0 -37 23.5 -56.5t66.5 -19.5q54 0 105 19l-25 -103q-55 -35 -131 -35q-78 0 -124 41t-46 111q0 132 172 260h-164l31 133h149l-41 332h-548l-197 -332h178
l-33 -133h-456zM530 596h453l-80 629z" />
    <glyph glyph-name="aogonek" unicode="&#x105;" horiz-adv-x="1146" 
d="M707 152v14q-136 -182 -312 -182q-138 0 -223.5 96.5t-85.5 257.5q0 146 62.5 273t169.5 202.5t231 75.5q105 0 178 -60.5t94 -156.5l56 207h137l-158 -641q-14 -61 -14 -86q0 -29 14 -45.5t39 -16.5q67 0 121 135l71 -24q-28 -96 -92 -160q-22 -23 -65 -60t-70 -62
t-49.5 -62t-22.5 -74q0 -36 24 -56t67 -20q53 0 104 19l-22 -103q-55 -35 -134 -35q-77 0 -123.5 41t-46.5 111q0 132 168 252q-70 15 -100 76q-18 37 -18 84zM442 109q96 0 176 63.5t122 158t42 193.5q0 108 -57 173t-162 65q-92 0 -167.5 -59.5t-116.5 -154t-41 -200.5
q0 -110 52.5 -174.5t151.5 -64.5z" />
    <glyph glyph-name="Cacute" unicode="&#x106;" horiz-adv-x="1404" 
d="M893 1468l-35 50l311 258q45 39 88 39q32 0 56 -24t24 -56q0 -64 -75 -99zM725 -25q-119 0 -223.5 40t-183.5 114t-125 188t-46 252q0 212 103 397t279 295.5t380 110.5q91 0 171 -21.5t136 -56.5t97 -78.5t60.5 -88t19.5 -85.5q0 -66 -36 -107.5t-87 -41.5q-49 0 -79 29
t-30 73q0 29 16.5 55.5t43.5 41.5q-20 54 -105 98.5t-213 44.5q-126 0 -239.5 -57t-191 -149t-122.5 -209t-45 -236q0 -219 118.5 -344t315.5 -125q231 0 422 188l90 -94q-228 -234 -526 -234z" />
    <glyph glyph-name="cacute" unicode="&#x107;" horiz-adv-x="950" 
d="M588 1030l-35 49l311 258q45 39 88 39q32 0 56 -24t24 -56q0 -63 -76 -98zM477 -16q-170 0 -281.5 101.5t-111.5 274.5q0 136 67 258t183 196.5t250 74.5q144 0 229.5 -72t85.5 -162q0 -52 -30.5 -87.5t-77.5 -35.5q-35 0 -62 25t-27 68q0 19 11 40.5t30 32.5
q-50 66 -163 66q-138 0 -244.5 -115.5t-106.5 -279.5q0 -118 72 -189t193 -71q158 0 290 114l-4 -139q-137 -100 -303 -100z" />
    <glyph glyph-name="Cdotaccent" unicode="&#x10a;" horiz-adv-x="1404" 
d="M725 -25q-119 0 -223.5 40t-183.5 114t-125 188t-46 252q0 212 103 397t279 295.5t380 110.5q91 0 171 -21.5t136 -56.5t97 -78.5t60.5 -88t19.5 -85.5q0 -66 -36 -107.5t-87 -41.5q-49 0 -79 29t-30 73q0 29 16.5 55.5t43.5 41.5q-20 54 -105 98.5t-213 44.5
q-126 0 -239.5 -57t-191 -149t-122.5 -209t-45 -236q0 -219 118.5 -344t315.5 -125q231 0 422 188l90 -94q-228 -234 -526 -234zM987 1501q-49 0 -84 35.5t-35 85.5q0 51 34.5 86t84.5 35t84.5 -35t34.5 -86q0 -50 -35 -85.5t-84 -35.5z" />
    <glyph glyph-name="cdotaccent" unicode="&#x10b;" horiz-adv-x="950" 
d="M477 -16q-170 0 -281.5 101.5t-111.5 274.5q0 136 67 258t183 196.5t250 74.5q144 0 229.5 -72t85.5 -162q0 -52 -30.5 -87.5t-77.5 -35.5q-35 0 -62 25t-27 68q0 19 11 40.5t30 32.5q-50 66 -163 66q-138 0 -244.5 -115.5t-106.5 -279.5q0 -118 72 -189t193 -71
q158 0 290 114l-4 -139q-137 -100 -303 -100zM682 1063q-49 0 -84 35.5t-35 85.5q0 51 34.5 86t84.5 35t84.5 -35t34.5 -86q0 -50 -35 -85.5t-84 -35.5z" />
    <glyph glyph-name="Ccaron" unicode="&#x10c;" horiz-adv-x="1404" 
d="M954 1464l-231 312l72 61l188 -184l297 186l57 -76zM725 -25q-119 0 -223.5 40t-183.5 114t-125 188t-46 252q0 212 103 397t279 295.5t380 110.5q91 0 171 -21.5t136 -56.5t97 -78.5t60.5 -88t19.5 -85.5q0 -66 -36 -107.5t-87 -41.5q-49 0 -79 29t-30 73
q0 29 16.5 55.5t43.5 41.5q-20 54 -105 98.5t-213 44.5q-126 0 -239.5 -57t-191 -149t-122.5 -209t-45 -236q0 -219 118.5 -344t315.5 -125q231 0 422 188l90 -94q-228 -234 -526 -234z" />
    <glyph glyph-name="ccaron" unicode="&#x10d;" horiz-adv-x="950" 
d="M649 1026l-231 311l71 62l189 -185l297 187l57 -76zM477 -16q-170 0 -281.5 101.5t-111.5 274.5q0 136 67 258t183 196.5t250 74.5q144 0 229.5 -72t85.5 -162q0 -52 -30.5 -87.5t-77.5 -35.5q-35 0 -62 25t-27 68q0 19 11 40.5t30 32.5q-50 66 -163 66
q-138 0 -244.5 -115.5t-106.5 -279.5q0 -118 72 -189t193 -71q158 0 290 114l-4 -139q-137 -100 -303 -100z" />
    <glyph glyph-name="Dcaron" unicode="&#x10e;" horiz-adv-x="1449" 
d="M893 1464l-231 312l71 61l189 -184l297 186l57 -76zM6 0l33 135h162l250 1077h-183l31 136h428q191 0 319 -46.5t224 -142.5q66 -68 103.5 -166t37.5 -207q0 -319 -211 -530q-253 -256 -711 -256h-483zM352 135h162q363 0 561 201q176 173 176 444q0 86 -28.5 161.5
t-79.5 125.5q-70 72 -171 108.5t-259 36.5h-111z" />
    <glyph glyph-name="dcaron" unicode="&#x10f;" horiz-adv-x="1150" 
d="M88 338q0 149 63 276.5t168.5 201t225.5 73.5q103 0 178.5 -59.5t97.5 -151.5l164 698h-166l31 123h307l-295 -1261q-16 -59 -16 -86q0 -64 57 -64q32 0 60.5 31.5t58.5 105.5l72 -24q-34 -108 -91.5 -161.5t-130.5 -53.5t-116 45t-43 119v18q-60 -83 -139.5 -133.5
t-172.5 -50.5q-137 0 -225 97t-88 257zM451 109q95 0 173 61.5t120 156t42 195.5q0 109 -59 174.5t-166 65.5q-91 0 -165.5 -59t-115 -153t-40.5 -200q0 -109 55.5 -175t155.5 -66zM1169 1034l-41 39q54 59 81.5 105t41.5 100q6 27 8.5 80t8.5 80q17 82 92 82
q37 0 59.5 -23.5t22.5 -62.5q0 -87 -82 -203q-63 -90 -191 -197z" />
    <glyph glyph-name="Dcroat" unicode="&#x110;" horiz-adv-x="1449" 
d="M6 0l33 135h162l112 492h-174l31 127h174l107 458h-183l31 136h428q191 0 319 -46.5t224 -142.5q66 -68 103.5 -166t37.5 -207q0 -319 -211 -530q-253 -256 -711 -256h-483zM352 135h162q363 0 561 201q176 173 176 444q0 86 -28.5 161.5t-79.5 125.5q-70 72 -171 108.5
t-259 36.5h-111l-106 -458h278l-31 -127h-278z" />
    <glyph glyph-name="dcroat" unicode="&#x111;" horiz-adv-x="1150" 
d="M596 1063l27 125h317l45 188h-166l31 123h307l-74 -311h158l-27 -125h-159l-193 -825q-16 -59 -16 -86q0 -64 57 -64q32 0 60.5 31.5t58.5 105.5l72 -24q-34 -108 -91.5 -161.5t-130.5 -53.5t-116 45t-43 119v18q-60 -83 -139.5 -133.5t-172.5 -50.5q-137 0 -225 97
t-88 257q0 149 63 276.5t168.5 201t225.5 73.5q103 0 178.5 -59.5t97.5 -151.5l90 385h-315zM451 109q95 0 173 61.5t120 156t42 195.5q0 109 -59 174.5t-166 65.5q-91 0 -165.5 -59t-115 -153t-40.5 -200q0 -109 55.5 -175t155.5 -66z" />
    <glyph glyph-name="Emacron" unicode="&#x112;" horiz-adv-x="1193" 
d="M6 0l33 135h162l250 1077h-183l31 136h981l-80 -330h-145l45 196h-498l-106 -462h432l-29 -131h-434l-113 -488h500l47 197h145l-75 -330h-963zM532 1534l31 129h615l-27 -129h-619z" />
    <glyph glyph-name="emacron" unicode="&#x113;" horiz-adv-x="974" 
d="M866 393h-641q-2 -14 -2 -43q0 -112 80.5 -178t198.5 -66q74 0 139.5 18t149.5 62l-31 -139q-70 -34 -134.5 -48.5t-152.5 -14.5q-105 0 -192.5 41.5t-143 126.5t-55.5 200q0 145 66 269t177.5 196t239.5 72q153 0 243.5 -86.5t90.5 -233.5q0 -86 -33 -176zM559 764
q-102 0 -187 -72.5t-124 -187.5h502q14 38 14 86q0 75 -52 124.5t-153 49.5zM336 1096l31 129h614l-27 -129h-618z" />
    <glyph glyph-name="Ebreve" unicode="&#x114;" horiz-adv-x="1193" 
d="M6 0l33 135h162l250 1077h-183l31 136h981l-80 -330h-145l45 196h-498l-106 -462h432l-29 -131h-434l-113 -488h500l47 197h145l-75 -330h-963zM840 1477q-115 0 -185.5 78.5t-81.5 211.5l95 31q39 -182 194 -182q148 0 260 180l84 -45q-61 -127 -160.5 -200.5
t-205.5 -73.5z" />
    <glyph glyph-name="ebreve" unicode="&#x115;" horiz-adv-x="974" 
d="M866 393h-641q-2 -14 -2 -43q0 -112 80.5 -178t198.5 -66q74 0 139.5 18t149.5 62l-31 -139q-70 -34 -134.5 -48.5t-152.5 -14.5q-105 0 -192.5 41.5t-143 126.5t-55.5 200q0 145 66 269t177.5 196t239.5 72q153 0 243.5 -86.5t90.5 -233.5q0 -86 -33 -176zM559 764
q-102 0 -187 -72.5t-124 -187.5h502q14 38 14 86q0 75 -52 124.5t-153 49.5zM643 1038q-115 0 -185 79t-81 212l94 31q39 -182 195 -182q148 0 260 180l84 -45q-61 -127 -161 -201t-206 -74z" />
    <glyph glyph-name="Edotaccent" unicode="&#x116;" horiz-adv-x="1193" 
d="M6 0l33 135h162l250 1077h-183l31 136h981l-80 -330h-145l45 196h-498l-106 -462h432l-29 -131h-434l-113 -488h500l47 197h145l-75 -330h-963zM862 1501q-49 0 -84 35.5t-35 85.5q0 51 34.5 86t84.5 35t84.5 -35t34.5 -86q0 -50 -35 -85.5t-84 -35.5z" />
    <glyph glyph-name="edotaccent" unicode="&#x117;" horiz-adv-x="974" 
d="M866 393h-641q-2 -14 -2 -43q0 -112 80.5 -178t198.5 -66q74 0 139.5 18t149.5 62l-31 -139q-70 -34 -134.5 -48.5t-152.5 -14.5q-105 0 -192.5 41.5t-143 126.5t-55.5 200q0 145 66 269t177.5 196t239.5 72q153 0 243.5 -86.5t90.5 -233.5q0 -86 -33 -176zM559 764
q-102 0 -187 -72.5t-124 -187.5h502q14 38 14 86q0 75 -52 124.5t-153 49.5zM664 1063q-49 0 -84 35.5t-35 85.5q0 51 34.5 86t84.5 35t84 -35t34 -86q0 -50 -34.5 -85.5t-83.5 -35.5z" />
    <glyph glyph-name="Eogonek" unicode="&#x118;" horiz-adv-x="1193" 
d="M6 0l33 135h162l250 1077h-183l31 136h981l-80 -330h-145l45 196h-498l-106 -462h432l-29 -131h-434l-113 -488h500l47 197h145l-75 -330h-99q-157 -119 -157 -217q0 -37 23.5 -56.5t66.5 -19.5q53 0 104 19l-24 -103q-55 -35 -131 -35q-78 0 -124 41t-46 111
q0 132 172 260h-748z" />
    <glyph glyph-name="eogonek" unicode="&#x119;" horiz-adv-x="974" 
d="M535 -412q-77 0 -123.5 41t-46.5 111q0 67 43 131t118 115q-8 0 -26 -1t-27 -1q-105 0 -192.5 41.5t-143 126.5t-55.5 200q0 145 66 269t177.5 196t239.5 72q153 0 243.5 -86.5t90.5 -233.5q0 -86 -33 -176h-641q-2 -14 -2 -43q0 -112 80.5 -178t198.5 -66q74 0 139.5 18
t149.5 62l-31 -139q-104 -49 -184 -120.5t-80 -143.5q0 -36 24 -56t66 -20q53 0 104 19l-22 -103q-55 -35 -133 -35zM559 764q-102 0 -187 -72.5t-124 -187.5h502q14 38 14 86q0 75 -52 124.5t-153 49.5z" />
    <glyph glyph-name="Ecaron" unicode="&#x11a;" horiz-adv-x="1193" 
d="M829 1464l-231 312l72 61l188 -184l297 186l57 -76zM6 0l33 135h162l250 1077h-183l31 136h981l-80 -330h-145l45 196h-498l-106 -462h432l-29 -131h-434l-113 -488h500l47 197h145l-75 -330h-963z" />
    <glyph glyph-name="ecaron" unicode="&#x11b;" horiz-adv-x="974" 
d="M866 393h-641q-2 -14 -2 -43q0 -112 80.5 -178t198.5 -66q74 0 139.5 18t149.5 62l-31 -139q-70 -34 -134.5 -48.5t-152.5 -14.5q-105 0 -192.5 41.5t-143 126.5t-55.5 200q0 145 66 269t177.5 196t239.5 72q153 0 243.5 -86.5t90.5 -233.5q0 -86 -33 -176zM559 764
q-102 0 -187 -72.5t-124 -187.5h502q14 38 14 86q0 75 -52 124.5t-153 49.5zM631 1026l-232 311l72 62l188 -185l297 187l58 -76z" />
    <glyph glyph-name="Gbreve" unicode="&#x11e;" horiz-adv-x="1470" 
d="M1063 0l22 131q-189 -151 -419 -151q-109 0 -204.5 39t-165.5 109.5t-110.5 174.5t-40.5 227q0 164 62 318t168 269t255.5 184t315.5 69q127 0 233.5 -38t170.5 -99q77 -77 77 -164q0 -62 -36 -99.5t-84 -37.5q-49 0 -79 28.5t-30 73.5q0 52 53 90q-8 12 -26 31
q-43 34 -118 56t-167 22q-137 0 -257.5 -59t-202 -156t-128.5 -223t-47 -258q0 -190 107.5 -306t287.5 -116q226 0 404 137l67 274h-376l30 129h527l-156 -655h-133zM983 1477q-115 0 -185 78.5t-81 211.5l94 31q39 -182 195 -182q148 0 260 180l84 -45
q-61 -127 -161 -200.5t-206 -73.5z" />
    <glyph glyph-name="gbreve" unicode="&#x11f;" horiz-adv-x="1081" 
d="M371 -410q-86 0 -172.5 30t-126.5 69q-47 50 -47 102q0 47 28 78t72 31t71 -30.5t27 -70.5q0 -31 -16 -53q59 -39 164 -39q129 0 207 78q65 65 104 221l41 176q-55 -85 -134.5 -130.5t-170.5 -45.5q-148 0 -239 96.5t-91 257.5q0 143 62 265t169.5 193t235.5 71
q111 0 183 -60.5t96 -150.5l53 201h137l-209 -899q-46 -193 -133 -277q-110 -113 -311 -113zM465 131q95 0 172 58.5t117.5 149t40.5 189.5q0 107 -62 170.5t-168 63.5q-139 0 -232 -116t-93 -277q0 -108 61.5 -173t163.5 -65zM692 1038q-115 0 -185 79t-81 212l94 31
q39 -182 195 -182q148 0 260 180l84 -45q-61 -127 -161 -201t-206 -74z" />
    <glyph glyph-name="Gdotaccent" unicode="&#x120;" horiz-adv-x="1470" 
d="M1063 0l22 131q-189 -151 -419 -151q-109 0 -204.5 39t-165.5 109.5t-110.5 174.5t-40.5 227q0 164 62 318t168 269t255.5 184t315.5 69q127 0 233.5 -38t170.5 -99q77 -77 77 -164q0 -62 -36 -99.5t-84 -37.5q-49 0 -79 28.5t-30 73.5q0 52 53 90q-8 12 -26 31
q-43 34 -118 56t-167 22q-137 0 -257.5 -59t-202 -156t-128.5 -223t-47 -258q0 -190 107.5 -306t287.5 -116q226 0 404 137l67 274h-376l30 129h527l-156 -655h-133zM1006 1501q-49 0 -84 35.5t-35 85.5q0 51 34.5 86t84.5 35t84 -35t34 -86q0 -50 -34.5 -85.5t-83.5 -35.5z
" />
    <glyph glyph-name="gdotaccent" unicode="&#x121;" horiz-adv-x="1081" 
d="M371 -410q-86 0 -172.5 30t-126.5 69q-47 50 -47 102q0 47 28 78t72 31t71 -30.5t27 -70.5q0 -31 -16 -53q59 -39 164 -39q129 0 207 78q65 65 104 221l41 176q-55 -85 -134.5 -130.5t-170.5 -45.5q-148 0 -239 96.5t-91 257.5q0 143 62 265t169.5 193t235.5 71
q111 0 183 -60.5t96 -150.5l53 201h137l-209 -899q-46 -193 -133 -277q-110 -113 -311 -113zM465 131q95 0 172 58.5t117.5 149t40.5 189.5q0 107 -62 170.5t-168 63.5q-139 0 -232 -116t-93 -277q0 -108 61.5 -173t163.5 -65zM713 1063q-49 0 -84 35.5t-35 85.5
q0 51 34.5 86t84.5 35t84 -35t34 -86q0 -50 -34.5 -85.5t-83.5 -35.5z" />
    <glyph glyph-name="Gcommaaccent" unicode="&#x122;" horiz-adv-x="1470" 
d="M1063 0l22 131q-189 -151 -419 -151q-109 0 -204.5 39t-165.5 109.5t-110.5 174.5t-40.5 227q0 164 62 318t168 269t255.5 184t315.5 69q127 0 233.5 -38t170.5 -99q77 -77 77 -164q0 -62 -36 -99.5t-84 -37.5q-49 0 -79 28.5t-30 73.5q0 52 53 90q-8 12 -26 31
q-43 34 -118 56t-167 22q-137 0 -257.5 -59t-202 -156t-128.5 -223t-47 -258q0 -190 107.5 -306t287.5 -116q226 0 404 137l67 274h-376l30 129h527l-156 -655h-133zM383 -569l-27 51q100 49 156.5 108.5t60.5 96.5q-35 11 -55 40.5t-20 57.5q0 45 30.5 75.5t75.5 30.5
q46 0 79.5 -33.5t33.5 -88.5q0 -95 -88 -189.5t-246 -148.5z" />
    <glyph glyph-name="gcommaaccent" unicode="&#x123;" horiz-adv-x="1081" 
d="M371 -410q-86 0 -172.5 30t-126.5 69q-47 50 -47 102q0 47 28 78t72 31t71 -30.5t27 -70.5q0 -31 -16 -53q59 -39 164 -39q129 0 207 78q65 65 104 221l41 176q-55 -85 -134.5 -130.5t-170.5 -45.5q-148 0 -239 96.5t-91 257.5q0 143 62 265t169.5 193t235.5 71
q111 0 183 -60.5t96 -150.5l53 201h137l-209 -899q-46 -193 -133 -277q-110 -113 -311 -113zM465 131q95 0 172 58.5t117.5 149t40.5 189.5q0 107 -62 170.5t-168 63.5q-139 0 -232 -116t-93 -277q0 -108 61.5 -173t163.5 -65zM932 1530l26 -51q-100 -49 -156.5 -108.5
t-60.5 -96.5q35 -11 55.5 -40.5t20.5 -57.5q0 -45 -30.5 -76t-75.5 -31q-46 0 -79.5 34t-33.5 89q0 95 88 189.5t246 148.5z" />
    <glyph glyph-name="Hbar" unicode="&#x126;" horiz-adv-x="1570" 
d="M1583 1049l-27 -121h-139l-182 -793h182l-33 -135h-499l30 135h166l113 475h-731l-111 -475h187l-31 -135h-502l33 135h162l182 793h-133l26 121h136l39 168h-183l31 131h500l-31 -131h-166l-39 -168h731l39 168h-188l33 131h499l-30 -131h-162l-39 -168h137zM494 743
h731l41 185h-731z" />
    <glyph glyph-name="hbar" unicode="&#x127;" horiz-adv-x="1079" 
d="M59 0l246 1063h-160l27 125h162l45 188h-166l31 123h305l-74 -311h320l-29 -125h-320l-86 -371q56 85 130.5 140t160.5 55q105 0 176 -66.5t72 -171.5q0 -63 -22 -137l-76 -283q-13 -47 -13 -75q0 -30 16.5 -48t43.5 -18q32 0 59.5 31.5t55.5 105.5l71 -24
q-66 -215 -215 -215q-79 0 -126.5 45t-47.5 116q0 39 14 97l78 286q15 59 15 103q-1 58 -42 94.5t-104 36.5q-95 0 -180.5 -85t-120.5 -235l-102 -444h-144z" />
    <glyph glyph-name="Imacron" unicode="&#x12a;" horiz-adv-x="722" 
d="M6 0l33 135h180l248 1077h-186l30 136h518l-30 -136h-181l-247 -1077h186l-33 -135h-518zM309 1534l31 129h614l-26 -129h-619z" />
    <glyph glyph-name="imacron" unicode="&#x12b;" horiz-adv-x="604" 
d="M305 -14q-79 0 -125.5 45t-46.5 119q0 28 17 94l137 504h-170l33 124h313l-172 -634q-15 -62 -15 -86q0 -30 16.5 -47t43.5 -17q34 0 62.5 31.5t56.5 105.5l71 -24q-69 -215 -221 -215zM125 1096l31 129h614l-27 -129h-618z" />
    <glyph glyph-name="Ibreve" unicode="&#x12c;" horiz-adv-x="722" 
d="M6 0l33 135h180l248 1077h-186l30 136h518l-30 -136h-181l-247 -1077h186l-33 -135h-518zM616 1477q-115 0 -185 78.5t-81 211.5l94 31q39 -182 195 -182q148 0 260 180l84 -45q-61 -127 -161 -200.5t-206 -73.5z" />
    <glyph glyph-name="ibreve" unicode="&#x12d;" horiz-adv-x="604" 
d="M305 -14q-79 0 -125.5 45t-46.5 119q0 28 17 94l137 504h-170l33 124h313l-172 -634q-15 -62 -15 -86q0 -30 16.5 -47t43.5 -17q34 0 62.5 31.5t56.5 105.5l71 -24q-69 -215 -221 -215zM432 1038q-115 0 -185 79t-81 212l94 31q39 -182 195 -182q148 0 260 180l84 -45
q-61 -127 -161 -201t-206 -74z" />
    <glyph glyph-name="Iogonek" unicode="&#x12e;" horiz-adv-x="722" 
d="M6 0l33 135h180l248 1077h-186l30 136h518l-30 -136h-181l-247 -1077h186l-33 -135h-202q-158 -119 -158 -217q0 -37 23.5 -56.5t66.5 -19.5q53 0 104 19l-24 -103q-55 -35 -131 -35q-78 0 -124 41t-46 111q0 132 172 260h-199z" />
    <glyph glyph-name="iogonek" unicode="&#x12f;" horiz-adv-x="604" 
d="M455 225l71 -24q-30 -100 -92 -160q-22 -23 -65 -60t-70 -62t-49.5 -62t-22.5 -74t23.5 -56.5t66.5 -19.5q54 0 105 19l-23 -103q-55 -35 -133 -35q-77 0 -123.5 41t-46.5 111q0 128 164 250q-60 10 -93.5 53t-33.5 107q0 28 17 94l137 504h-170l33 124h313l-172 -634
q-15 -62 -15 -86q0 -30 15.5 -47t42.5 -17q69 0 121 137zM418 1040q-43 0 -74 31t-31 74t31 73.5t74 30.5q41 0 71.5 -30.5t30.5 -73.5t-30.5 -74t-71.5 -31z" />
    <glyph glyph-name="Idotaccent" unicode="&#x130;" horiz-adv-x="722" 
d="M6 0l33 135h180l248 1077h-186l30 136h518l-30 -136h-181l-247 -1077h186l-33 -135h-518zM639 1501q-49 0 -84 35.5t-35 85.5q0 51 34.5 86t84.5 35t84.5 -35t34.5 -86q0 -50 -35 -85.5t-84 -35.5z" />
    <glyph glyph-name="dotlessi" unicode="&#x131;" horiz-adv-x="604" 
d="M305 -14q-79 0 -125.5 45t-46.5 119q0 28 17 94l137 504h-170l33 124h313l-172 -634q-15 -62 -15 -86q0 -30 16.5 -47t43.5 -17q34 0 62.5 31.5t56.5 105.5l71 -24q-69 -215 -221 -215z" />
    <glyph glyph-name="Kcommaaccent" unicode="&#x136;" horiz-adv-x="1345" 
d="M1313 1212l-539 -454l297 -623h184l-30 -135h-262l-308 666l-223 -189l-80 -342h187l-33 -135h-500l33 135h162l250 1077h-183l31 136h492l-31 -134h-158l-131 -567l655 567h-174l29 134h510l-31 -136h-147zM334 -569l-27 51q100 49 156.5 108.5t60.5 96.5
q-35 11 -55 40.5t-20 57.5q0 45 30.5 75.5t75.5 30.5q46 0 79.5 -33.5t33.5 -88.5q0 -95 -88 -189.5t-246 -148.5z" />
    <glyph glyph-name="kcommaaccent" unicode="&#x137;" horiz-adv-x="964" 
d="M203 0h-144l320 1376h-166l31 123h305l-246 -1055q180 73 288.5 140t137.5 112q-23 12 -37 36t-14 48q0 46 30.5 77.5t75.5 31.5q44 0 74.5 -32t30.5 -85q0 -89 -98.5 -179.5t-262.5 -168.5l93 -219q26 -69 47 -94q19 -21 47 -21q57 0 96 160l76 -23q-30 -135 -79.5 -188
t-117.5 -53q-69 0 -115 41q-41 36 -75 116l-99 238q-92 -40 -120 -51zM94 -569l-26 51q100 49 156.5 108.5t60.5 96.5q-35 11 -55.5 40.5t-20.5 57.5q0 45 30.5 75.5t75.5 30.5q46 0 79.5 -33.5t33.5 -88.5q0 -95 -88 -189.5t-246 -148.5z" />
    <glyph glyph-name="Lacute" unicode="&#x139;" horiz-adv-x="1124" 
d="M559 1491l-35 49l312 258q45 39 88 39q32 0 56 -24t24 -56q0 -63 -76 -98zM6 0l33 135h162l250 1077h-183l31 136h512l-31 -136h-178l-250 -1079h459l49 207h146l-78 -340h-922z" />
    <glyph glyph-name="lacute" unicode="&#x13a;" horiz-adv-x="569" 
d="M473 1585l-35 49l312 258q45 39 88 39q32 0 56 -24t24 -56q0 -63 -76 -98zM276 -14q-78 0 -124 45t-46 119q0 28 15 90l264 1136h-164l31 123h305l-293 -1259q-14 -77 -14 -86q0 -32 15 -49t42 -17q33 0 62 31.5t59 105.5l72 -24q-69 -215 -224 -215z" />
    <glyph glyph-name="Lcommaaccent" unicode="&#x13b;" horiz-adv-x="1124" 
d="M197 -569l-27 51q100 49 156.5 108.5t60.5 96.5q-35 11 -55.5 40.5t-20.5 57.5q0 45 30.5 75.5t76.5 30.5t79 -33.5t33 -88.5q0 -95 -87.5 -189.5t-245.5 -148.5zM6 0l33 135h162l250 1077h-183l31 136h512l-31 -136h-178l-250 -1079h459l49 207h146l-78 -340h-922z" />
    <glyph glyph-name="lcommaaccent" unicode="&#x13c;" horiz-adv-x="569" 
d="M-20 -569l-27 51q100 49 156.5 108.5t60.5 96.5q-35 11 -55.5 40.5t-20.5 57.5q0 45 31 75.5t76 30.5q46 0 79 -33.5t33 -88.5q0 -95 -87.5 -189.5t-245.5 -148.5zM276 -14q-78 0 -124 45t-46 119q0 28 15 90l264 1136h-164l31 123h305l-293 -1259q-14 -77 -14 -86
q0 -32 15 -49t42 -17q33 0 62 31.5t59 105.5l72 -24q-69 -215 -224 -215z" />
    <glyph glyph-name="Lcaron" unicode="&#x13d;" horiz-adv-x="1124" 
d="M840 862l-41 39q54 59 81.5 105t41.5 100q6 27 8 80t8 80q17 82 92 82q37 0 59.5 -23.5t22.5 -62.5q0 -87 -82 -203q-64 -92 -190 -197zM6 0l33 135h162l250 1077h-183l31 136h512l-31 -136h-178l-250 -1079h459l49 207h146l-78 -340h-922z" />
    <glyph glyph-name="lcaron" unicode="&#x13e;" horiz-adv-x="569" 
d="M569 1034l-41 39q54 59 81.5 105t41.5 100q6 27 8.5 80t8.5 80q17 82 92 82q37 0 59.5 -23.5t22.5 -62.5q0 -87 -82 -203q-63 -90 -191 -197zM276 -14q-78 0 -124 45t-46 119q0 28 15 90l264 1136h-164l31 123h305l-293 -1259q-14 -77 -14 -86q0 -32 15 -49t42 -17
q33 0 62 31.5t59 105.5l72 -24q-69 -215 -224 -215z" />
    <glyph glyph-name="Ldot" unicode="&#x13f;" horiz-adv-x="1124" 
d="M6 0l33 135h162l250 1077h-183l31 136h512l-31 -136h-178l-250 -1079h459l49 207h146l-78 -340h-922zM989 606q-49 0 -84 35.5t-35 85.5q0 51 34.5 86t84.5 35t84.5 -35t34.5 -86q0 -50 -35 -85.5t-84 -35.5z" />
    <glyph glyph-name="ldot" unicode="&#x140;" horiz-adv-x="667" 
d="M276 -14q-78 0 -124 45t-46 119q0 28 15 90l264 1136h-164l31 123h305l-293 -1259q-14 -77 -14 -86q0 -32 15 -49t42 -17q33 0 62 31.5t59 105.5l72 -24q-69 -215 -224 -215zM635 573q-49 0 -84 35.5t-35 85.5q0 51 34.5 86t84.5 35t84.5 -35t34.5 -86q0 -50 -35 -85.5
t-84 -35.5z" />
    <glyph glyph-name="Lslash" unicode="&#x141;" horiz-adv-x="1142" 
d="M25 0l32 135h162l98 428l-190 -76l-45 109l268 106l119 510h-182l30 136h512l-30 -136h-178l-105 -446l256 100l43 -108l-332 -133l-112 -492h458l50 207h145l-78 -340h-921z" />
    <glyph glyph-name="lslash" unicode="&#x142;" horiz-adv-x="641" 
d="M311 -14q-78 0 -124 45t-46 119q0 28 15 90l114 499l-182 -77l-45 104l260 111l117 499h-164l31 123h305l-129 -555l219 96l45 -104l-297 -131l-131 -565q-14 -77 -14 -86q0 -32 15 -49t42 -17q33 0 62 31.5t59 105.5l72 -24q-69 -215 -224 -215z" />
    <glyph glyph-name="Nacute" unicode="&#x143;" horiz-adv-x="1540" 
d="M950 1468l-35 50l312 258q45 39 88 39q32 0 56 -24t24 -56q0 -64 -76 -99zM1122 -6l-553 1100l-221 -959h187l-31 -135h-498l33 135h162l250 1077h-183l31 136h309l518 -1031l207 895h-188l33 136h489l-31 -136h-157l-281 -1218h-76z" />
    <glyph glyph-name="nacute" unicode="&#x144;" horiz-adv-x="1114" 
d="M633 1030l-35 49l311 258q45 39 88 39q32 0 56 -24t24 -56q0 -63 -76 -98zM846 -14q-79 0 -125.5 45t-46.5 116q0 49 16 99l82 284q14 55 14 103q0 59 -39 95t-102 36q-93 0 -177.5 -85t-121.5 -235l-113 -444h-143l189 748h-164l30 124h291l-49 -206q60 101 139.5 161
t167.5 60q105 0 172.5 -66.5t67.5 -171.5q0 -60 -23 -137l-80 -283q-14 -47 -14 -75q0 -30 16.5 -48t43.5 -18q32 0 59 31t57 106l72 -24q-69 -215 -219 -215z" />
    <glyph glyph-name="Ncommaaccent" unicode="&#x145;" horiz-adv-x="1540" 
d="M426 -569l-27 51q100 49 156.5 108.5t60.5 96.5q-35 11 -55 40.5t-20 57.5q0 45 30.5 75.5t75.5 30.5q46 0 79.5 -33.5t33.5 -88.5q0 -95 -88 -189.5t-246 -148.5zM1122 -6l-553 1100l-221 -959h187l-31 -135h-498l33 135h162l250 1077h-183l31 136h309l518 -1031
l207 895h-188l33 136h489l-31 -136h-157l-281 -1218h-76z" />
    <glyph glyph-name="ncommaaccent" unicode="&#x146;" horiz-adv-x="1114" 
d="M197 -569l-27 51q100 49 156.5 108.5t60.5 96.5q-35 11 -55.5 40.5t-20.5 57.5q0 45 30.5 75.5t76.5 30.5t79 -33.5t33 -88.5q0 -95 -87.5 -189.5t-245.5 -148.5zM846 -14q-79 0 -125.5 45t-46.5 116q0 49 16 99l82 284q14 55 14 103q0 59 -39 95t-102 36
q-93 0 -177.5 -85t-121.5 -235l-113 -444h-143l189 748h-164l30 124h291l-49 -206q60 101 139.5 161t167.5 60q105 0 172.5 -66.5t67.5 -171.5q0 -60 -23 -137l-80 -283q-14 -47 -14 -75q0 -30 16.5 -48t43.5 -18q32 0 59 31t57 106l72 -24q-69 -215 -219 -215z" />
    <glyph glyph-name="Ncaron" unicode="&#x147;" horiz-adv-x="1540" 
d="M1014 1464l-232 312l72 61l188 -184l297 186l58 -76zM1122 -6l-553 1100l-221 -959h187l-31 -135h-498l33 135h162l250 1077h-183l31 136h309l518 -1031l207 895h-188l33 136h489l-31 -136h-157l-281 -1218h-76z" />
    <glyph glyph-name="ncaron" unicode="&#x148;" horiz-adv-x="1114" 
d="M694 1026l-231 311l72 62l188 -185l297 187l57 -76zM846 -14q-79 0 -125.5 45t-46.5 116q0 49 16 99l82 284q14 55 14 103q0 59 -39 95t-102 36q-93 0 -177.5 -85t-121.5 -235l-113 -444h-143l189 748h-164l30 124h291l-49 -206q60 101 139.5 161t167.5 60
q105 0 172.5 -66.5t67.5 -171.5q0 -60 -23 -137l-80 -283q-14 -47 -14 -75q0 -30 16.5 -48t43.5 -18q32 0 59 31t57 106l72 -24q-69 -215 -219 -215z" />
    <glyph glyph-name="Omacron" unicode="&#x14c;" horiz-adv-x="1499" 
d="M694 1534l31 129h614l-26 -129h-619zM715 -25q-176 0 -306.5 77t-197 207.5t-66.5 295.5q0 149 57.5 296t155 262.5t239 187t298.5 71.5q132 0 240 -44.5t179.5 -122t110.5 -183.5t39 -229q0 -149 -57 -296t-154.5 -262.5t-239 -187.5t-298.5 -72zM727 115
q121 0 230 58.5t185 153.5t120.5 217t44.5 247q0 92 -26.5 171t-77.5 140t-133 96t-187 35q-121 0 -230 -58.5t-185 -153.5t-120.5 -217t-44.5 -247q0 -92 26.5 -171t77.5 -140t133 -96t187 -35z" />
    <glyph glyph-name="omacron" unicode="&#x14d;" horiz-adv-x="1040" 
d="M362 1096l31 129h615l-27 -129h-619zM463 -16q-174 0 -276.5 109.5t-102.5 271.5q0 100 38 195.5t102.5 168t157.5 116.5t196 44q116 0 203.5 -53t131 -138.5t43.5 -189.5q0 -136 -63.5 -256t-178 -194t-251.5 -74zM469 109q144 0 243 117.5t99 281.5q0 117 -68 186.5
t-172 69.5q-142 0 -242 -118.5t-100 -283.5q0 -116 68 -184.5t172 -68.5z" />
    <glyph glyph-name="Obreve" unicode="&#x14e;" horiz-adv-x="1499" 
d="M715 -25q-176 0 -306.5 77t-197 207.5t-66.5 295.5q0 149 57.5 296t155 262.5t239 187t298.5 71.5q132 0 240 -44.5t179.5 -122t110.5 -183.5t39 -229q0 -149 -57 -296t-154.5 -262.5t-239 -187.5t-298.5 -72zM727 115q121 0 230 58.5t185 153.5t120.5 217t44.5 247
q0 92 -26.5 171t-77.5 140t-133 96t-187 35q-121 0 -230 -58.5t-185 -153.5t-120.5 -217t-44.5 -247q0 -92 26.5 -171t77.5 -140t133 -96t187 -35zM999 1477q-115 0 -185 78.5t-81 211.5l94 31q39 -182 195 -182q148 0 260 180l84 -45q-61 -127 -161 -200.5t-206 -73.5z" />
    <glyph glyph-name="obreve" unicode="&#x14f;" horiz-adv-x="1040" 
d="M463 -16q-174 0 -276.5 109.5t-102.5 271.5q0 100 38 195.5t102.5 168t157.5 116.5t196 44q116 0 203.5 -53t131 -138.5t43.5 -189.5q0 -136 -63.5 -256t-178 -194t-251.5 -74zM469 109q144 0 243 117.5t99 281.5q0 117 -68 186.5t-172 69.5q-142 0 -242 -118.5
t-100 -283.5q0 -116 68 -184.5t172 -68.5zM670 1038q-115 0 -185.5 79t-81.5 212l95 31q39 -182 194 -182q148 0 260 180l84 -45q-61 -127 -160.5 -201t-205.5 -74z" />
    <glyph glyph-name="Ohungarumlaut" unicode="&#x150;" horiz-adv-x="1499" 
d="M754 1470l-37 50l256 252q48 45 88 45q33 0 56.5 -22.5t23.5 -59.5q0 -23 -20 -48.5t-54 -44.5zM1141 1479l-35 51l268 237q44 41 86 41q35 0 56.5 -23.5t21.5 -58.5q0 -55 -78 -92zM715 -25q-176 0 -306.5 77t-197 207.5t-66.5 295.5q0 149 57.5 296t155 262.5t239 187
t298.5 71.5q132 0 240 -44.5t179.5 -122t110.5 -183.5t39 -229q0 -149 -57 -296t-154.5 -262.5t-239 -187.5t-298.5 -72zM727 115q121 0 230 58.5t185 153.5t120.5 217t44.5 247q0 92 -26.5 171t-77.5 140t-133 96t-187 35q-121 0 -230 -58.5t-185 -153.5t-120.5 -217
t-44.5 -247q0 -92 26.5 -171t77.5 -140t133 -96t187 -35z" />
    <glyph glyph-name="ohungarumlaut" unicode="&#x151;" horiz-adv-x="1040" 
d="M424 1032l-37 49l256 252q48 45 88 45q33 0 56.5 -22.5t23.5 -59.5q0 -23 -20 -48t-54 -44zM811 1040l-35 52l268 237q44 41 86 41q35 0 56.5 -23.5t21.5 -58.5q0 -55 -78 -92zM463 -16q-174 0 -276.5 109.5t-102.5 271.5q0 100 38 195.5t102.5 168t157.5 116.5t196 44
q116 0 203.5 -53t131 -138.5t43.5 -189.5q0 -136 -63.5 -256t-178 -194t-251.5 -74zM469 109q144 0 243 117.5t99 281.5q0 117 -68 186.5t-172 69.5q-142 0 -242 -118.5t-100 -283.5q0 -116 68 -184.5t172 -68.5z" />
    <glyph glyph-name="OE" unicode="&#x152;" horiz-adv-x="1908" 
d="M821 0q-191 0 -319 46.5t-223 141.5q-68 68 -105 165.5t-37 207.5q0 320 211 531q253 256 711 256h934l-78 -330h-146l46 196h-498l-107 -462h432l-30 -131h-432l-113 -488h498l47 197h145l-76 -330h-860zM836 135h79l248 1077h-129q-364 0 -561 -200
q-176 -173 -176 -445q0 -86 28 -161t78 -125q72 -72 173.5 -109t259.5 -37z" />
    <glyph glyph-name="oe" unicode="&#x153;" horiz-adv-x="1685" 
d="M1503 186l-30 -139q-70 -34 -132.5 -48.5t-146.5 -14.5q-124 0 -217 62t-129 165q-67 -105 -165 -166t-222 -61q-174 0 -275.5 109.5t-101.5 271.5q0 100 37.5 195.5t102 168t156 116.5t193.5 44q130 0 214.5 -63t119.5 -171q62 108 157.5 171t219.5 63q150 0 239 -86.5
t89 -233.5q0 -86 -33 -176h-641q-2 -14 -2 -43q0 -112 80 -178t198 -66q74 0 139.5 18t149.5 62zM471 109q144 0 244 117.5t100 281.5q0 117 -69 186.5t-175 69.5q-142 0 -242 -118.5t-100 -283.5q0 -116 68.5 -184.5t173.5 -68.5zM1274 764q-103 0 -188.5 -72.5
t-124.5 -187.5h501q15 41 15 86q0 75 -52 124.5t-151 49.5z" />
    <glyph glyph-name="Racute" unicode="&#x154;" horiz-adv-x="1234" 
d="M764 1468l-35 50l311 258q45 39 88 39q32 0 56 -24t24 -56q0 -64 -75 -99zM6 0l33 135h162l250 1077h-183l31 136h414q267 0 393 -123q92 -92 92 -238q0 -153 -102.5 -266t-282.5 -154l205 -432h158l-31 -135h-236l-245 549q-23 -2 -68 -2q-59 0 -145 4l-99 -416h185
l-33 -135h-498zM649 678q182 0 288.5 83.5t106.5 217.5q0 93 -61 154q-79 79 -274 79h-107l-123 -528q71 -6 170 -6z" />
    <glyph glyph-name="racute" unicode="&#x155;" horiz-adv-x="782" 
d="M90 0l189 748h-164l30 124h291l-57 -241q174 256 299 256q52 0 85.5 -31t33.5 -78q0 -46 -33.5 -79t-77.5 -33q-40 0 -68 23.5t-36 58.5q-63 -32 -140.5 -130.5t-109.5 -230.5l-99 -387h-143zM512 1030l-35 49l311 258q45 39 89 39q32 0 55.5 -24t23.5 -56q0 -63 -75 -98
z" />
    <glyph glyph-name="Rcommaaccent" unicode="&#x156;" horiz-adv-x="1234" 
d="M293 -569l-27 51q100 49 156.5 108.5t60.5 96.5q-35 11 -55 40.5t-20 57.5q0 45 30.5 75.5t75.5 30.5q46 0 79.5 -33.5t33.5 -88.5q0 -95 -88 -189.5t-246 -148.5zM6 0l33 135h162l250 1077h-183l31 136h414q267 0 393 -123q92 -92 92 -238q0 -153 -102.5 -266
t-282.5 -154l205 -432h158l-31 -135h-236l-245 549q-23 -2 -68 -2q-59 0 -145 4l-99 -416h185l-33 -135h-498zM649 678q182 0 288.5 83.5t106.5 217.5q0 93 -61 154q-79 79 -274 79h-107l-123 -528q71 -6 170 -6z" />
    <glyph glyph-name="rcommaaccent" unicode="&#x157;" horiz-adv-x="782" 
d="M90 0l189 748h-164l30 124h291l-57 -241q174 256 299 256q52 0 85.5 -31t33.5 -78q0 -46 -33.5 -79t-77.5 -33q-40 0 -68 23.5t-36 58.5q-63 -32 -140.5 -130.5t-109.5 -230.5l-99 -387h-143zM-96 -569l-27 51q100 49 156.5 108.5t60.5 96.5q-35 11 -55.5 40.5
t-20.5 57.5q0 45 31 75.5t76 30.5q46 0 79.5 -33.5t33.5 -88.5q0 -95 -88 -189.5t-246 -148.5z" />
    <glyph glyph-name="Rcaron" unicode="&#x158;" horiz-adv-x="1234" 
d="M827 1464l-231 312l72 61l188 -184l297 186l57 -76zM6 0l33 135h162l250 1077h-183l31 136h414q267 0 393 -123q92 -92 92 -238q0 -153 -102.5 -266t-282.5 -154l205 -432h158l-31 -135h-236l-245 549q-23 -2 -68 -2q-59 0 -145 4l-99 -416h185l-33 -135h-498zM649 678
q182 0 288.5 83.5t106.5 217.5q0 93 -61 154q-79 79 -274 79h-107l-123 -528q71 -6 170 -6z" />
    <glyph glyph-name="rcaron" unicode="&#x159;" horiz-adv-x="782" 
d="M90 0l189 748h-164l30 124h291l-57 -241q174 256 299 256q52 0 85.5 -31t33.5 -78q0 -46 -33.5 -79t-77.5 -33q-40 0 -68 23.5t-36 58.5q-63 -32 -140.5 -130.5t-109.5 -230.5l-99 -387h-143zM575 1026l-231 311l72 62l188 -185l297 187l57 -76z" />
    <glyph glyph-name="Sacute" unicode="&#x15a;" horiz-adv-x="1128" 
d="M762 1468l-35 50l311 258q45 39 88 39q32 0 56 -24t24 -56q0 -64 -76 -99zM549 -23q-194 0 -330.5 97.5t-136.5 210.5q0 62 35 101.5t88 39.5q44 0 74 -31t30 -69q0 -64 -57 -103q36 -47 115.5 -79.5t191.5 -32.5q120 0 203.5 66t83.5 169q0 80 -57 137.5t-175 126.5
q-75 43 -122.5 77t-97 83t-73.5 107.5t-24 128.5q0 149 123 256.5t313 107.5q169 0 290.5 -83.5t121.5 -188.5q0 -62 -35 -101t-84 -39q-45 0 -74.5 30.5t-29.5 74.5q0 54 51 90q-28 34 -93 59t-151 25q-122 0 -198 -63.5t-76 -157.5q0 -44 16 -80.5t53 -70.5t75.5 -60.5
t105.5 -65.5q68 -41 113.5 -74t92 -80t70 -104.5t23.5 -124.5q0 -163 -129 -271t-326 -108z" />
    <glyph glyph-name="sacute" unicode="&#x15b;" horiz-adv-x="864" 
d="M526 1030l-34 49l311 258q45 39 88 39q32 0 56 -24t24 -56q0 -63 -76 -98zM412 -14q-93 0 -176 30.5t-134 81.5t-51 109q0 45 27.5 75.5t68.5 30.5q40 0 64.5 -25.5t24.5 -60.5q0 -31 -27 -65q12 -13 35 -25q70 -39 174 -39q75 0 125.5 32.5t50.5 88.5q0 23 -11 44
t-24.5 35.5t-42 32t-47 27t-55.5 27.5q-47 22 -75 36.5t-64 38.5t-55.5 46.5t-33.5 55.5t-14 71q0 108 85 179t230 71q85 0 156 -25.5t113 -69.5q49 -49 49 -106q0 -46 -27 -75t-65 -29q-37 0 -63.5 25t-26.5 61q0 26 22 65q-21 14 -31 19q-53 24 -131 24q-76 0 -123 -32
t-47 -83q0 -24 13 -45t39.5 -39.5t54 -33t69.5 -34.5q7 -3 11 -5q54 -25 90 -46.5t73 -52t55.5 -70t18.5 -87.5q0 -122 -91.5 -190t-233.5 -68z" />
    <glyph glyph-name="Scedilla" unicode="&#x15e;" horiz-adv-x="1128" 
d="M481 -408q-67 0 -132.5 25.5t-106.5 60.5l41 60q35 -24 88.5 -40.5t103.5 -16.5q39 0 62.5 18t23.5 45q0 31 -34 49t-97 8l-31 37l82 144q-171 18 -285 109.5t-114 193.5q0 62 35 101.5t88 39.5q44 0 74 -31t30 -69q0 -64 -57 -103q36 -47 115.5 -79.5t191.5 -32.5
q120 0 203.5 66t83.5 169q0 80 -57 137.5t-175 126.5q-75 43 -122.5 77t-97 83t-73.5 107.5t-24 128.5q0 149 123 256.5t313 107.5q169 0 290.5 -83.5t121.5 -188.5q0 -62 -35 -101t-84 -39q-45 0 -74.5 30.5t-29.5 74.5q0 54 51 90q-28 34 -93 59t-151 25
q-122 0 -198 -63.5t-76 -157.5q0 -44 16 -80.5t53 -70.5t75.5 -60.5t105.5 -65.5q68 -41 113.5 -74t92 -80t70 -104.5t23.5 -124.5q0 -160 -125 -267.5t-318 -111.5l-26 -81q78 -9 119.5 -50t41.5 -96q0 -73 -62 -115.5t-153 -42.5z" />
    <glyph glyph-name="scedilla" unicode="&#x15f;" horiz-adv-x="864" 
d="M324 -408q-67 0 -133 26t-107 60l41 60q35 -24 88.5 -40.5t103.5 -16.5q39 0 62.5 18t23.5 45q0 31 -34 49t-97 8l-30 37l88 154q-143 21 -228 106q-51 51 -51 109q0 45 27.5 75.5t68.5 30.5q40 0 64.5 -25.5t24.5 -60.5q0 -31 -27 -65q12 -13 35 -25q70 -39 174 -39
q75 0 125.5 32.5t50.5 88.5q0 23 -11 44t-24.5 35.5t-42 32t-47 27t-55.5 27.5q-47 22 -75 36.5t-64 38.5t-55.5 46.5t-33.5 55.5t-14 71q0 108 85 179t230 71q85 0 156 -25.5t113 -69.5q49 -49 49 -106q0 -46 -27 -75t-65 -29q-37 0 -63.5 25t-26.5 61q0 26 22 65
q-21 14 -31 19q-53 24 -131 24q-76 0 -123 -32t-47 -83q0 -24 13 -45t39.5 -39.5t54 -33t69.5 -34.5q7 -3 11 -5q54 -25 90 -46.5t73 -52t55.5 -70t18.5 -87.5q0 -122 -91.5 -190t-233.5 -68h-4l-31 -90q78 -9 120 -50.5t42 -95.5q0 -73 -62 -115.5t-153 -42.5z" />
    <glyph glyph-name="Scaron" unicode="&#x160;" horiz-adv-x="1128" 
d="M823 1464l-231 312l72 61l188 -184l297 186l57 -76zM549 -23q-194 0 -330.5 97.5t-136.5 210.5q0 62 35 101.5t88 39.5q44 0 74 -31t30 -69q0 -64 -57 -103q36 -47 115.5 -79.5t191.5 -32.5q120 0 203.5 66t83.5 169q0 80 -57 137.5t-175 126.5q-75 43 -122.5 77t-97 83
t-73.5 107.5t-24 128.5q0 149 123 256.5t313 107.5q169 0 290.5 -83.5t121.5 -188.5q0 -62 -35 -101t-84 -39q-45 0 -74.5 30.5t-29.5 74.5q0 54 51 90q-28 34 -93 59t-151 25q-122 0 -198 -63.5t-76 -157.5q0 -44 16 -80.5t53 -70.5t75.5 -60.5t105.5 -65.5
q68 -41 113.5 -74t92 -80t70 -104.5t23.5 -124.5q0 -163 -129 -271t-326 -108z" />
    <glyph glyph-name="scaron" unicode="&#x161;" horiz-adv-x="864" 
d="M590 1026l-232 311l72 62l188 -185l297 187l58 -76zM412 -14q-93 0 -176 30.5t-134 81.5t-51 109q0 45 27.5 75.5t68.5 30.5q40 0 64.5 -25.5t24.5 -60.5q0 -31 -27 -65q12 -13 35 -25q70 -39 174 -39q75 0 125.5 32.5t50.5 88.5q0 23 -11 44t-24.5 35.5t-42 32t-47 27
t-55.5 27.5q-47 22 -75 36.5t-64 38.5t-55.5 46.5t-33.5 55.5t-14 71q0 108 85 179t230 71q85 0 156 -25.5t113 -69.5q49 -49 49 -106q0 -46 -27 -75t-65 -29q-37 0 -63.5 25t-26.5 61q0 26 22 65q-21 14 -31 19q-53 24 -131 24q-76 0 -123 -32t-47 -83q0 -24 13 -45
t39.5 -39.5t54 -33t69.5 -34.5q7 -3 11 -5q54 -25 90 -46.5t73 -52t55.5 -70t18.5 -87.5q0 -122 -91.5 -190t-233.5 -68z" />
    <glyph glyph-name="Tcommaaccent" unicode="&#x162;" horiz-adv-x="1284" 
d="M285 -569l-27 51q100 49 156.5 108.5t60.5 96.5q-35 11 -55.5 40.5t-20.5 57.5q0 45 30.5 75.5t76.5 30.5t79 -33.5t33 -88.5q0 -95 -87.5 -189.5t-245.5 -148.5zM295 0l31 135h174l248 1079h-334l-49 -213h-146l80 347h1112l-80 -347h-145l49 213h-334l-250 -1079h195
l-33 -135h-518z" />
    <glyph glyph-name="tcommaaccent" unicode="&#x163;" horiz-adv-x="692" 
d="M686 748h-266l-123 -500q-12 -44 -12 -76q0 -30 19 -50t50 -20q34 0 75 19t108 63l53 -75q-154 -125 -275 -125q-78 0 -129 45.5t-51 120.5q0 35 17 98l122 500h-155l31 124h155l51 205l158 51l-63 -256h266zM33 -569l-27 51q100 49 156.5 108.5t60.5 96.5
q-35 11 -55.5 40.5t-20.5 57.5q0 45 30.5 75.5t76.5 30.5t79.5 -33.5t33.5 -88.5q0 -95 -88 -189.5t-246 -148.5z" />
    <glyph glyph-name="Tcaron" unicode="&#x164;" horiz-adv-x="1284" 
d="M885 1464l-232 312l72 61l188 -184l297 186l58 -76zM295 0l31 135h174l248 1079h-334l-49 -213h-146l80 347h1112l-80 -347h-145l49 213h-334l-250 -1079h195l-33 -135h-518z" />
    <glyph glyph-name="tcaron" unicode="&#x165;" horiz-adv-x="692" 
d="M686 748h-266l-123 -500q-12 -44 -12 -76q0 -30 19 -50t50 -20q34 0 75 19t108 63l53 -75q-154 -125 -275 -125q-78 0 -129 45.5t-51 120.5q0 35 17 98l122 500h-155l31 124h155l51 205l158 51l-63 -256h266zM598 963l-41 38q54 59 81.5 105t41.5 100q6 27 8 80t8 80
q17 82 92 82q37 0 59.5 -23.5t22.5 -62.5q0 -87 -82 -203q-63 -90 -190 -196z" />
    <glyph glyph-name="Umacron" unicode="&#x16a;" horiz-adv-x="1462" 
d="M684 -23q-207 0 -320.5 107.5t-113.5 288.5q0 67 20 162l158 677h-180l31 136h497l-31 -136h-165l-158 -686q-19 -97 -19 -143q0 -127 73 -198.5t224 -71.5t244.5 90.5t128.5 247.5l174 761h-186l31 136h497l-30 -136h-162l-178 -780q-105 -455 -535 -455zM664 1534
l30 129h615l-27 -129h-618z" />
    <glyph glyph-name="umacron" unicode="&#x16b;" horiz-adv-x="1114" 
d="M139 872h307l-141 -546q-12 -44 -12 -95q0 -56 36 -90.5t97 -34.5q95 0 180.5 86t122.5 234l111 446h143l-158 -634q-16 -56 -16 -86t16 -47t43 -17q62 0 117 137l72 -24q-69 -215 -221 -215q-72 0 -116 45t-44 121q0 9 4 41q-59 -94 -137 -150.5t-166 -56.5
q-100 0 -166 61t-66 160q0 53 19 131l106 410h-164zM383 1096l31 129h614l-27 -129h-618z" />
    <glyph glyph-name="Ubreve" unicode="&#x16c;" horiz-adv-x="1462" 
d="M684 -23q-207 0 -320.5 107.5t-113.5 288.5q0 67 20 162l158 677h-180l31 136h497l-31 -136h-165l-158 -686q-19 -97 -19 -143q0 -127 73 -198.5t224 -71.5t244.5 90.5t128.5 247.5l174 761h-186l31 136h497l-30 -136h-162l-178 -780q-105 -455 -535 -455zM971 1477
q-115 0 -185 78.5t-81 211.5l94 31q39 -182 194 -182q148 0 260 180l84 -45q-61 -127 -160.5 -200.5t-205.5 -73.5z" />
    <glyph glyph-name="ubreve" unicode="&#x16d;" horiz-adv-x="1114" 
d="M139 872h307l-141 -546q-12 -44 -12 -95q0 -56 36 -90.5t97 -34.5q95 0 180.5 86t122.5 234l111 446h143l-158 -634q-16 -56 -16 -86t16 -47t43 -17q62 0 117 137l72 -24q-69 -215 -221 -215q-72 0 -116 45t-44 121q0 9 4 41q-59 -94 -137 -150.5t-166 -56.5
q-100 0 -166 61t-66 160q0 53 19 131l106 410h-164zM690 1038q-115 0 -185 79t-81 212l94 31q39 -182 195 -182q148 0 260 180l84 -45q-61 -127 -161 -201t-206 -74z" />
    <glyph glyph-name="Uring" unicode="&#x16e;" horiz-adv-x="1462" 
d="M979 1460q-87 0 -137.5 54.5t-50.5 138.5q0 105 70.5 182.5t174.5 77.5q88 0 139.5 -54.5t51.5 -136.5q0 -106 -72 -184t-176 -78zM989 1559q55 0 92 45t37 108q0 43 -25.5 73t-64.5 30q-56 0 -93.5 -45.5t-37.5 -108.5q0 -43 25.5 -72.5t66.5 -29.5zM684 -23
q-207 0 -320.5 107.5t-113.5 288.5q0 67 20 162l158 677h-180l31 136h497l-31 -136h-165l-158 -686q-19 -97 -19 -143q0 -127 73 -198.5t224 -71.5t244.5 90.5t128.5 247.5l174 761h-186l31 136h497l-30 -136h-162l-178 -780q-105 -455 -535 -455z" />
    <glyph glyph-name="uring" unicode="&#x16f;" horiz-adv-x="1114" 
d="M139 872h307l-141 -546q-12 -44 -12 -95q0 -56 36 -90.5t97 -34.5q95 0 180.5 86t122.5 234l111 446h143l-158 -634q-16 -56 -16 -86t16 -47t43 -17q62 0 117 137l72 -24q-69 -215 -221 -215q-72 0 -116 45t-44 121q0 9 4 41q-59 -94 -137 -150.5t-166 -56.5
q-100 0 -166 61t-66 160q0 53 19 131l106 410h-164zM698 1022q-87 0 -137.5 54t-50.5 138q0 105 71 183t175 78q88 0 139 -54.5t51 -136.5q0 -106 -72 -184t-176 -78zM709 1120q55 0 92 45.5t37 108.5q0 43 -25.5 72.5t-64.5 29.5q-56 0 -94 -45t-38 -108q0 -43 26 -73
t67 -30z" />
    <glyph glyph-name="Uhungarumlaut" unicode="&#x170;" horiz-adv-x="1462" 
d="M684 -23q-207 0 -320.5 107.5t-113.5 288.5q0 67 20 162l158 677h-180l31 136h497l-31 -136h-165l-158 -686q-19 -97 -19 -143q0 -127 73 -198.5t224 -71.5t244.5 90.5t128.5 247.5l174 761h-186l31 136h497l-30 -136h-162l-178 -780q-105 -455 -535 -455zM725 1470
l-37 50l256 252q48 45 88 45q33 0 56.5 -22.5t23.5 -59.5q0 -23 -20 -48.5t-54 -44.5zM1112 1479l-35 51l269 237q44 41 86 41q34 0 55.5 -23.5t21.5 -58.5q0 -56 -77 -92z" />
    <glyph glyph-name="uhungarumlaut" unicode="&#x171;" horiz-adv-x="1114" 
d="M139 872h307l-141 -546q-12 -44 -12 -95q0 -56 36 -90.5t97 -34.5q95 0 180.5 86t122.5 234l111 446h143l-158 -634q-16 -56 -16 -86t16 -47t43 -17q62 0 117 137l72 -24q-69 -215 -221 -215q-72 0 -116 45t-44 121q0 9 4 41q-59 -94 -137 -150.5t-166 -56.5
q-100 0 -166 61t-66 160q0 53 19 131l106 410h-164zM444 1032l-36 49l256 252q48 45 88 45q33 0 56 -22.5t23 -59.5q0 -23 -19.5 -48t-53.5 -44zM831 1040l-34 52l268 237q44 41 86 41q35 0 56.5 -23.5t21.5 -58.5q0 -55 -78 -92z" />
    <glyph glyph-name="Uogonek" unicode="&#x172;" horiz-adv-x="1462" 
d="M487 -260q0 119 144 240q-183 13 -282 118.5t-99 274.5q0 67 20 162l158 677h-180l31 136h497l-31 -136h-165l-158 -686q-19 -97 -19 -143q0 -127 73 -198.5t224 -71.5t244.5 90.5t128.5 247.5l174 761h-186l31 136h497l-30 -136h-162l-178 -780q-97 -418 -467 -450
q-134 -108 -134 -199q0 -36 24 -56t67 -20q53 0 104 19l-25 -103q-55 -35 -131 -35q-78 0 -124 41t-46 111z" />
    <glyph glyph-name="uogonek" unicode="&#x173;" horiz-adv-x="1114" 
d="M985 225l72 -24q-28 -96 -92 -160q-22 -22 -65.5 -59.5t-70 -62t-49 -62t-22.5 -74.5t23.5 -56.5t66.5 -19.5q53 0 104 19l-24 -103q-55 -35 -133 -35q-77 0 -122.5 41t-45.5 111q0 130 164 252q-53 12 -84 54.5t-31 105.5q0 9 4 41q-59 -94 -137 -150.5t-166 -56.5
q-100 0 -166 61t-66 160q0 53 19 131l106 410h-164l33 124h307l-141 -546q-12 -44 -12 -95q0 -56 36 -90.5t97 -34.5q95 0 180.5 86t122.5 234l111 446h143l-158 -634q-16 -56 -16 -86t15 -47t42 -17q64 0 119 137z" />
    <glyph glyph-name="Wcircumflex" unicode="&#x174;" horiz-adv-x="1937" 
d="M944 1464l-57 78l383 297l231 -311l-69 -62l-191 185zM438 -18l-67 1230h-144l31 136h457l-31 -136h-168l33 -948l528 922h70l133 -926l481 952h-164l33 136h455l-31 -136h-133l-643 -1230h-82l-141 905l-535 -905h-82z" />
    <glyph glyph-name="wcircumflex" unicode="&#x175;" horiz-adv-x="1368" 
d="M287 -29l-74 777h-160l33 124h252l45 -684l330 578h69l127 -598q231 341 252 508q-36 8 -61 35.5t-25 68.5q0 45 31 77t76 32q52 0 85 -36.5t33 -98.5q0 -236 -395 -783h-71l-123 568l-344 -568h-80zM573 1026l-57 78l383 297l231 -311l-69 -62l-191 184z" />
    <glyph glyph-name="Ycircumflex" unicode="&#x176;" horiz-adv-x="1292" 
d="M254 0l33 135h182l100 408l-233 669h-141l32 136h451l-29 -136h-155l180 -555l450 555h-151l33 136h462l-30 -136h-135l-590 -698l-90 -379h190l-29 -135h-530zM610 1464l-57 78l383 297l231 -311l-69 -62l-191 185z" />
    <glyph glyph-name="ycircumflex" unicode="&#x177;" horiz-adv-x="987" 
d="M-31 -410q-57 0 -97 34t-40 83q0 42 28.5 72.5t69.5 30.5q38 0 65 -25.5t32 -65.5h4q87 0 334 299l-150 730h-156l31 124h252l127 -729q289 375 326 531q-35 11 -59.5 40.5t-24.5 69.5q0 42 30.5 73.5t75.5 31.5q54 0 86.5 -37.5t32.5 -103.5q0 -105 -94 -271t-328 -459
q-106 -131 -187.5 -216.5t-145.5 -131.5t-112 -63t-100 -17zM371 1026l-58 78l383 297l232 -311l-70 -62l-190 184z" />
    <glyph glyph-name="Ydieresis" unicode="&#x178;" horiz-adv-x="1292" 
d="M254 0l33 135h182l100 408l-233 669h-141l32 136h451l-29 -136h-155l180 -555l450 555h-151l33 136h462l-30 -136h-135l-590 -698l-90 -379h190l-29 -135h-530zM1071 1505q-48 0 -81.5 34t-33.5 83q0 50 34 84.5t83 34.5q47 0 81 -35t34 -84q0 -50 -34 -83.5t-83 -33.5z
M715 1505q-49 0 -82 33.5t-33 83.5t34 84.5t83 34.5q47 0 80.5 -35t33.5 -84t-34 -83t-82 -34z" />
    <glyph glyph-name="Zacute" unicode="&#x179;" horiz-adv-x="1255" 
d="M803 1468l-35 50l311 258q45 39 88 39q32 0 56 -24t24 -56q0 -64 -76 -99zM29 0l-9 74l1084 1147h-649l-49 -213h-144l78 340h993l8 -74l-1083 -1147h682l49 213h144l-80 -340h-1024z" />
    <glyph glyph-name="zacute" unicode="&#x17a;" horiz-adv-x="966" 
d="M555 1030l-35 49l311 258q45 39 89 39q32 0 55.5 -24t23.5 -56q0 -63 -75 -98zM66 -14l-54 71l721 699h-416l-41 -168h-126l69 284h680l41 -75l-696 -674q59 22 129 22q48 0 132.5 -19.5t121.5 -19.5q63 0 93 35.5t66 137.5l70 -17q-13 -56 -25 -93.5t-31 -75.5
t-42.5 -60t-58.5 -35.5t-81 -13.5q-49 0 -165 27.5t-170 27.5q-116 0 -217 -53z" />
    <glyph glyph-name="Zdotaccent" unicode="&#x17b;" horiz-adv-x="1255" 
d="M29 0l-9 74l1084 1147h-649l-49 -213h-144l78 340h993l8 -74l-1083 -1147h682l49 213h144l-80 -340h-1024zM899 1501q-49 0 -84 35.5t-35 85.5q0 51 34.5 86t84.5 35t84.5 -35t34.5 -86q0 -50 -35 -85.5t-84 -35.5z" />
    <glyph glyph-name="zdotaccent" unicode="&#x17c;" horiz-adv-x="966" 
d="M66 -14l-54 71l721 699h-416l-41 -168h-126l69 284h680l41 -75l-696 -674q59 22 129 22q48 0 132.5 -19.5t121.5 -19.5q63 0 93 35.5t66 137.5l70 -17q-13 -56 -25 -93.5t-31 -75.5t-42.5 -60t-58.5 -35.5t-81 -13.5q-49 0 -165 27.5t-170 27.5q-116 0 -217 -53z
M651 1063q-49 0 -84 35.5t-35 85.5q0 51 34.5 86t84.5 35t84.5 -35t34.5 -86q0 -50 -35 -85.5t-84 -35.5z" />
    <glyph glyph-name="Zcaron" unicode="&#x17d;" horiz-adv-x="1255" 
d="M866 1464l-231 312l72 61l188 -184l297 186l57 -76zM29 0l-9 74l1084 1147h-649l-49 -213h-144l78 340h993l8 -74l-1083 -1147h682l49 213h144l-80 -340h-1024z" />
    <glyph glyph-name="zcaron" unicode="&#x17e;" horiz-adv-x="966" 
d="M618 1026l-231 311l72 62l188 -185l297 187l57 -76zM66 -14l-54 71l721 699h-416l-41 -168h-126l69 284h680l41 -75l-696 -674q59 22 129 22q48 0 132.5 -19.5t121.5 -19.5q63 0 93 35.5t66 137.5l70 -17q-13 -56 -25 -93.5t-31 -75.5t-42.5 -60t-58.5 -35.5t-81 -13.5
q-49 0 -165 27.5t-170 27.5q-116 0 -217 -53z" />
    <glyph glyph-name="Aringacute" unicode="&#x1fa;" horiz-adv-x="1443" 
d="M997 1843l-34 49l311 258q45 39 88 39q32 0 56 -24t24 -56q0 -63 -76 -98zM-55 0l32 135h123l643 1079h-159l30 134h189q-70 52 -70 147q0 89 71 162.5t173 73.5q87 0 137.5 -54t50.5 -133q0 -63 -32 -117t-84 -79h184l-31 -134h-153l143 -1079h143l-32 -135h-441l31 133
h149l-41 332h-548l-197 -332h178l-33 -133h-456zM928 1376q55 0 92 45.5t37 108.5q0 44 -25 73t-65 29q-55 0 -92 -45t-37 -108q0 -43 25.5 -73t64.5 -30zM530 596h453l-80 629z" />
    <glyph glyph-name="aringacute" unicode="&#x1fb;" horiz-adv-x="1146" 
d="M395 -16q-138 0 -223.5 96.5t-85.5 257.5q0 146 62.5 273t169.5 202.5t231 75.5q105 0 178 -60.5t94 -156.5l56 207h137l-158 -641q-14 -61 -14 -86q0 -30 15 -47t42 -17q62 0 117 137l71 -24q-69 -215 -219 -215q-73 0 -117 44t-44 115v21q-136 -182 -312 -182zM442 109
q96 0 176 63.5t122 158t42 193.5q0 108 -57 173t-162 65q-92 0 -167.5 -59.5t-116.5 -154t-41 -200.5q0 -110 52.5 -174.5t151.5 -64.5zM700 1022q-87 0 -137.5 54t-50.5 138q0 105 71 183t175 78q88 0 139 -54.5t51 -136.5q0 -106 -72 -184t-176 -78zM778 1602l-35 49
l312 258q45 39 88 39q32 0 56 -24t24 -56q0 -64 -76 -99zM711 1120q55 0 92 45.5t37 108.5q0 43 -25.5 72.5t-64.5 29.5q-56 0 -94 -45t-38 -108q0 -43 26 -73t67 -30z" />
    <glyph glyph-name="AEacute" unicode="&#x1fc;" horiz-adv-x="1869" 
d="M1264 1468l-35 50l311 258q45 39 88 39q32 0 56 -24t24 -56q0 -64 -76 -99zM-66 0l33 135h162l805 1077h-176l33 136h1163l-78 -330h-145l45 196h-484l-106 -462h418l-31 -131h-418l-113 -488h484l47 197h145l-76 -330h-948l31 135h164l78 330h-437l-245 -332h184
l-31 -133h-504zM625 594h370l146 627h-51z" />
    <glyph glyph-name="aeacute" unicode="&#x1fd;" horiz-adv-x="1622" 
d="M1513 393h-639q-2 -14 -2 -43q0 -112 79.5 -178t199.5 -66q73 0 139 18t148 62l-31 -139q-68 -34 -131.5 -48.5t-147.5 -14.5q-138 0 -231 72t-125 190q-60 -119 -176.5 -190.5t-251.5 -71.5q-132 0 -205 66t-73 151q0 146 124.5 223.5t341.5 77.5h216q-5 118 -73 194
t-186 76q-46 0 -73 -8q-15 -6 -27 -14q14 -24 14 -48q0 -37 -27 -64.5t-65 -27.5q-41 0 -67.5 30t-26.5 73q0 40 28.5 78.5t78.5 64.5q68 33 159 33q143 0 229 -68t113 -192q61 119 167.5 189.5t224.5 70.5q151 0 241 -86.5t90 -233.5q0 -80 -35 -176zM352 106
q127 0 239.5 82t143.5 209h-164q-366 0 -366 -184q0 -46 39.5 -76.5t107.5 -30.5zM1208 764q-104 0 -189 -72.5t-122 -187.5h502q14 47 14 86q0 75 -52 124.5t-153 49.5zM889 1030l-35 49l311 258q45 39 88 39q32 0 56 -24t24 -56q0 -63 -76 -98z" />
    <glyph glyph-name="Oslashacute" unicode="&#x1fe;" horiz-adv-x="1499" 
d="M719 -25q-268 0 -422 170l-193 -168l-84 99l201 174q-71 133 -71 307q0 148 56.5 294.5t153.5 262t238.5 187t298.5 71.5q134 0 242.5 -45.5t181.5 -128.5l201 174l84 -96l-211 -184q71 -136 71 -301q0 -149 -57 -295.5t-154 -262t-238 -187t-298 -71.5zM305 557
q0 -122 41 -211l862 752q-114 137 -323 137q-121 0 -230 -58.5t-185 -153.5t-120.5 -217.5t-44.5 -248.5zM731 113q121 0 230 58.5t185 153.5t120.5 217.5t44.5 248.5q0 110 -41 206l-862 -751q117 -133 323 -133zM938 1468l-35 50l311 258q45 39 89 39q32 0 55.5 -24
t23.5 -56q0 -64 -75 -99z" />
    <glyph glyph-name="oslashacute" unicode="&#x1ff;" horiz-adv-x="1056" 
d="M481 -16q-159 0 -264 94l-131 -117l-74 86l135 117q-51 91 -51 203q0 136 62.5 255t177.5 193t254 74q160 0 268 -103l137 123l76 -84l-145 -129q47 -86 47 -190q0 -136 -63 -255.5t-177 -193t-252 -73.5zM242 365q0 -65 18 -115l502 446q-68 68 -176 68
q-143 0 -243.5 -116.5t-100.5 -282.5zM485 109q142 0 242 116.5t100 282.5q0 47 -14 98l-498 -436q67 -61 170 -61zM618 1030l-34 49l311 258q45 39 88 39q32 0 56 -24t24 -56q0 -63 -76 -98z" />
    <glyph glyph-name="Scommaaccent" unicode="&#x218;" horiz-adv-x="1128" 
d="M217 -569l-27 51q100 49 157 108.5t61 96.5q-35 11 -55.5 40.5t-20.5 57.5q0 45 30.5 75.5t75.5 30.5q46 0 79.5 -33.5t33.5 -88.5q0 -95 -88 -189.5t-246 -148.5zM549 -23q-194 0 -330.5 97.5t-136.5 210.5q0 62 35 101.5t88 39.5q44 0 74 -31t30 -69q0 -64 -57 -103
q36 -47 115.5 -79.5t191.5 -32.5q120 0 203.5 66t83.5 169q0 80 -57 137.5t-175 126.5q-75 43 -122.5 77t-97 83t-73.5 107.5t-24 128.5q0 149 123 256.5t313 107.5q169 0 290.5 -83.5t121.5 -188.5q0 -62 -35 -101t-84 -39q-45 0 -74.5 30.5t-29.5 74.5q0 54 51 90
q-28 34 -93 59t-151 25q-122 0 -198 -63.5t-76 -157.5q0 -44 16 -80.5t53 -70.5t75.5 -60.5t105.5 -65.5q68 -41 113.5 -74t92 -80t70 -104.5t23.5 -124.5q0 -163 -129 -271t-326 -108z" />
    <glyph glyph-name="scommaaccent" unicode="&#x219;" horiz-adv-x="864" 
d="M90 -569l-27 51q100 49 157 108.5t61 96.5q-35 11 -55.5 40.5t-20.5 57.5q0 45 30.5 75.5t75.5 30.5q46 0 79.5 -33.5t33.5 -88.5q0 -95 -88 -189.5t-246 -148.5zM412 -14q-93 0 -176 30.5t-134 81.5t-51 109q0 45 27.5 75.5t68.5 30.5q40 0 64.5 -25.5t24.5 -60.5
q0 -31 -27 -65q12 -13 35 -25q70 -39 174 -39q75 0 125.5 32.5t50.5 88.5q0 23 -11 44t-24.5 35.5t-42 32t-47 27t-55.5 27.5q-47 22 -75 36.5t-64 38.5t-55.5 46.5t-33.5 55.5t-14 71q0 108 85 179t230 71q85 0 156 -25.5t113 -69.5q49 -49 49 -106q0 -46 -27 -75t-65 -29
q-37 0 -63.5 25t-26.5 61q0 26 22 65q-21 14 -31 19q-53 24 -131 24q-76 0 -123 -32t-47 -83q0 -24 13 -45t39.5 -39.5t54 -33t69.5 -34.5q7 -3 11 -5q54 -25 90 -46.5t73 -52t55.5 -70t18.5 -87.5q0 -122 -91.5 -190t-233.5 -68z" />
    <glyph glyph-name="schwa" unicode="&#x259;" horiz-adv-x="974" 
d="M76 301q0 78 35 178h639q0 7 1 21.5t1 21.5q0 112 -79.5 178t-199.5 66q-74 0 -139 -18t-148 -62l29 139q71 35 135.5 49.5t151.5 14.5q104 0 192 -42t143.5 -127.5t55.5 -199.5q0 -144 -66 -268t-177 -196t-238 -72q-154 0 -245 85.5t-91 231.5zM416 106q103 0 188.5 73
t122.5 190h-502q-14 -51 -14 -86q0 -76 52.5 -126.5t152.5 -50.5z" />
    <glyph glyph-name="circumflex" unicode="&#x2c6;" horiz-adv-x="1024" 
d="M410 1026l-58 78l383 297l232 -311l-70 -62l-190 184z" />
    <glyph glyph-name="caron" unicode="&#x2c7;" horiz-adv-x="1024" 
d="M647 1026l-231 311l71 62l189 -185l297 187l57 -76z" />
    <glyph glyph-name="breve" unicode="&#x2d8;" horiz-adv-x="1024" 
d="M653 1038q-115 0 -185 79t-81 212l94 31q39 -182 195 -182q148 0 260 180l84 -45q-61 -127 -161 -201t-206 -74z" />
    <glyph glyph-name="dotaccent" unicode="&#x2d9;" horiz-adv-x="1024" 
d="M682 1063q-49 0 -84 35.5t-35 85.5q0 51 34.5 86t84.5 35t84.5 -35t34.5 -86q0 -50 -35 -85.5t-84 -35.5z" />
    <glyph glyph-name="ring" unicode="&#x2da;" horiz-adv-x="1024" 
d="M670 1022q-87 0 -138 54t-51 138q0 105 71 183t175 78q88 0 139.5 -54.5t51.5 -136.5q0 -106 -72 -184t-176 -78zM680 1120q55 0 92 45.5t37 108.5q0 43 -25.5 72.5t-64.5 29.5q-56 0 -93.5 -45t-37.5 -108q0 -44 25.5 -73.5t66.5 -29.5z" />
    <glyph glyph-name="ogonek" unicode="&#x2db;" horiz-adv-x="1026" 
d="M557 98l57 -30q-258 -161 -258 -285q0 -37 23.5 -56.5t66.5 -19.5q54 0 105 19l-25 -103q-55 -35 -131 -35q-78 0 -124 41t-46 111q0 98 92 190.5t240 167.5z" />
    <glyph glyph-name="tilde" unicode="&#x2dc;" horiz-adv-x="1024" 
d="M819 1030q-53 0 -92 21.5t-78 60.5q-31 33 -52 46t-48 13q-38 0 -67.5 -30.5t-57.5 -98.5l-92 33q26 105 91 172.5t136 67.5q53 0 90.5 -22t77.5 -62q31 -31 53 -44t47 -13q38 0 68.5 31t58.5 98l90 -33q-24 -104 -89.5 -172t-135.5 -68z" />
    <glyph glyph-name="hungarumlaut" unicode="&#x2dd;" horiz-adv-x="1024" 
d="M303 1032l-37 49l256 252q48 45 88 45q33 0 56.5 -22.5t23.5 -59.5q0 -23 -20 -48t-54 -44zM690 1040l-35 52l269 237q44 41 86 41q34 0 55.5 -23.5t21.5 -58.5q0 -56 -77 -92z" />
    <glyph glyph-name="commaaccent" unicode="&#x326;" horiz-adv-x="428" 
d="M45 -569l-27 51q100 49 157 108.5t61 96.5q-35 11 -55.5 40.5t-20.5 57.5q0 45 30.5 75.5t75.5 30.5q46 0 79.5 -33.5t33.5 -88.5q0 -95 -88 -189.5t-246 -148.5z" />
    <glyph glyph-name="Wgrave" unicode="&#x1e80;" horiz-adv-x="1937" 
d="M438 -18l-67 1230h-144l31 136h457l-31 -136h-168l33 -948l528 922h70l133 -926l481 952h-164l33 136h455l-31 -136h-133l-643 -1230h-82l-141 905l-535 -905h-82zM1249 1458l-239 178q-54 43 -54 93q0 35 26 60.5t60 25.5q29 0 50 -15t45 -51l159 -252z" />
    <glyph glyph-name="wgrave" unicode="&#x1e81;" horiz-adv-x="1368" 
d="M287 -29l-74 777h-160l33 124h252l45 -684l330 578h69l127 -598q231 341 252 508q-36 8 -61 35.5t-25 68.5q0 45 31 77t76 32q52 0 85 -36.5t33 -98.5q0 -236 -395 -783h-71l-123 568l-344 -568h-80zM881 1020l-240 178q-53 42 -53 92q0 35 26 60.5t60 25.5
q29 0 49.5 -14.5t44.5 -50.5l160 -252z" />
    <glyph glyph-name="Wacute" unicode="&#x1e82;" horiz-adv-x="1937" 
d="M1130 1468l-34 50l311 258q45 39 88 39q32 0 56 -24t24 -56q0 -64 -76 -99zM438 -18l-67 1230h-144l31 136h457l-31 -136h-168l33 -948l528 922h70l133 -926l481 952h-164l33 136h455l-31 -136h-133l-643 -1230h-82l-141 905l-535 -905h-82z" />
    <glyph glyph-name="wacute" unicode="&#x1e83;" horiz-adv-x="1368" 
d="M287 -29l-74 777h-160l33 124h252l45 -684l330 578h69l127 -598q231 341 252 508q-36 8 -61 35.5t-25 68.5q0 45 31 77t76 32q52 0 85 -36.5t33 -98.5q0 -236 -395 -783h-71l-123 568l-344 -568h-80zM762 1030l-35 49l311 258q45 39 88 39q32 0 56 -24t24 -56
q0 -63 -76 -98z" />
    <glyph glyph-name="Wdieresis" unicode="&#x1e84;" horiz-adv-x="1937" 
d="M1403 1505q-48 0 -81.5 34t-33.5 83q0 50 34 84.5t83 34.5q47 0 81 -35t34 -84q0 -50 -34 -83.5t-83 -33.5zM1047 1505q-49 0 -82 33.5t-33 83.5t34 84.5t83 34.5q47 0 80.5 -35t33.5 -84t-34 -83t-82 -34zM438 -18l-67 1230h-144l31 136h457l-31 -136h-168l33 -948
l528 922h70l133 -926l481 952h-164l33 136h455l-31 -136h-133l-643 -1230h-82l-141 905l-535 -905h-82z" />
    <glyph glyph-name="wdieresis" unicode="&#x1e85;" horiz-adv-x="1368" 
d="M287 -29l-74 777h-160l33 124h252l45 -684l330 578h69l127 -598q231 341 252 508q-36 8 -61 35.5t-25 68.5q0 45 31 77t76 32q52 0 85 -36.5t33 -98.5q0 -236 -395 -783h-71l-123 568l-344 -568h-80zM678 1067q-49 0 -82 33.5t-33 83.5t34 84.5t83 34.5q47 0 81 -35
t34 -84t-34.5 -83t-82.5 -34zM1034 1067q-47 0 -80.5 34t-33.5 83q0 50 33.5 84.5t82.5 34.5q47 0 81 -35t34 -84q0 -50 -33.5 -83.5t-83.5 -33.5z" />
    <glyph glyph-name="Ygrave" unicode="&#x1ef2;" horiz-adv-x="1292" 
d="M254 0l33 135h182l100 408l-233 669h-141l32 136h451l-29 -136h-155l180 -555l450 555h-151l33 136h462l-30 -136h-135l-590 -698l-90 -379h190l-29 -135h-530zM918 1458l-240 178q-53 42 -53 93q0 35 26 60.5t60 25.5q29 0 49.5 -15t44.5 -51l160 -252z" />
    <glyph glyph-name="ygrave" unicode="&#x1ef3;" horiz-adv-x="987" 
d="M-31 -410q-57 0 -97 34t-40 83q0 42 28.5 72.5t69.5 30.5q38 0 65 -25.5t32 -65.5h4q87 0 334 299l-150 730h-156l31 124h252l127 -729q289 375 326 531q-35 11 -59.5 40.5t-24.5 69.5q0 42 30.5 73.5t75.5 31.5q54 0 86.5 -37.5t32.5 -103.5q0 -105 -94 -271t-328 -459
q-106 -131 -187.5 -216.5t-145.5 -131.5t-112 -63t-100 -17zM680 1020l-240 178q-53 42 -53 92q0 35 26 60.5t60 25.5q29 0 49.5 -14.5t44.5 -50.5l160 -252z" />
    <glyph glyph-name="enspace" unicode="&#x2002;" horiz-adv-x="1024" 
 />
    <glyph glyph-name="emspace" unicode="&#x2003;" horiz-adv-x="2048" 
 />
    <glyph glyph-name="threeperemspace" unicode="&#x2004;" horiz-adv-x="681" 
 />
    <glyph glyph-name="fourperemspace" unicode="&#x2005;" horiz-adv-x="512" 
 />
    <glyph glyph-name="figurespace" unicode="&#x2007;" horiz-adv-x="1085" 
 />
    <glyph glyph-name="thinspace" unicode="&#x2009;" horiz-adv-x="272" 
 />
    <glyph glyph-name="hairspace" unicode="&#x200a;" horiz-adv-x="153" 
 />
    <glyph glyph-name="endash" unicode="&#x2013;" horiz-adv-x="946" 
d="M63 500l33 139h828l-31 -139h-830z" />
    <glyph glyph-name="emdash" unicode="&#x2014;" horiz-adv-x="1441" 
d="M63 500l33 139h1323l-30 -139h-1326z" />
    <glyph glyph-name="quoteleft" unicode="&#x2018;" horiz-adv-x="452" 
d="M326 827q-56 0 -92.5 40t-36.5 104q0 109 110.5 226t282.5 185l31 -59q-117 -67 -177.5 -137t-70.5 -117q37 -15 59.5 -46.5t22.5 -66.5q0 -54 -37 -91.5t-92 -37.5z" />
    <glyph glyph-name="quoteright" unicode="&#x2019;" horiz-adv-x="452" 
d="M160 821l-31 62q115 66 175.5 135t72.5 117q-38 17 -61 48t-23 66q0 53 37 91t92 38q56 0 92.5 -40t36.5 -105q0 -109 -109.5 -225.5t-281.5 -186.5z" />
    <glyph glyph-name="quotesinglbase" unicode="&#x201a;" horiz-adv-x="442" 
d="M-78 -293l-31 60q116 57 179.5 124.5t68.5 112.5q-40 11 -64 45.5t-24 67.5q0 52 36 88.5t89 36.5q55 0 92 -40t37 -104q0 -109 -101 -218.5t-282 -172.5z" />
    <glyph glyph-name="quotedblleft" unicode="&#x201c;" horiz-adv-x="856" 
d="M733 831q-56 0 -92.5 39.5t-36.5 102.5q0 109 109 224.5t280 182.5l31 -59q-115 -66 -174.5 -134t-71.5 -116q38 -15 60 -46t22 -67q0 -53 -36.5 -90t-90.5 -37zM326 831q-56 0 -92.5 39.5t-36.5 102.5q0 109 109 224.5t280 182.5l30 -59q-116 -66 -175.5 -134.5
t-69.5 -115.5q36 -15 58 -46t22 -67q0 -53 -36 -90t-89 -37z" />
    <glyph glyph-name="quotedblright" unicode="&#x201d;" horiz-adv-x="856" 
d="M567 829l-30 60q114 66 173.5 134.5t71.5 115.5q-38 15 -60 45.5t-22 66.5q0 53 36 90t91 37t91 -39.5t36 -103.5q0 -108 -108.5 -224t-278.5 -182zM160 829l-31 60q114 66 174 134.5t72 115.5q-38 15 -60 45.5t-22 66.5q0 53 36 90t91 37t91 -39.5t36 -103.5
q0 -108 -108.5 -224t-278.5 -182z" />
    <glyph glyph-name="quotedblbase" unicode="&#x201e;" horiz-adv-x="837" 
d="M324 -289l-31 60q114 56 177 123t69 110q-40 11 -64 45t-24 66q0 50 35 85.5t87 35.5q54 0 90.5 -39t36.5 -101q0 -106 -99 -214t-277 -171zM-80 -289l-29 60q113 56 175.5 123t68.5 110q-40 11 -63 44.5t-23 66.5q0 50 34.5 85.5t86.5 35.5q54 0 90.5 -39t36.5 -101
q0 -106 -99 -214t-278 -171z" />
    <glyph glyph-name="dagger" unicode="&#x2020;" horiz-adv-x="954" 
d="M301 -4l162 803l-164 16q3 -51 -27 -85t-73 -34q-45 0 -74 30.5t-29 72.5q0 52 36.5 86.5t98.5 34.5q26 0 72 -11l213 -41l19 318q6 125 98 125q41 0 64 -23.5t22.5 -57t-14.5 -71.5l-121 -299l213 47q46 8 61 8q56 0 88.5 -31t32.5 -83q0 -43 -28 -74t-72 -31
q-43 0 -73.5 33.5t-27.5 83.5l-174 -25l-229 -792h-74z" />
    <glyph glyph-name="daggerdbl" unicode="&#x2021;" horiz-adv-x="995" 
d="M451 133l-17 -268q-3 -57 -27 -88t-67 -31q-57 0 -75.5 46t5.5 102l101 241l-164 -39q-40 -8 -62 -8q-56 0 -92.5 31.5t-36.5 77.5q0 41 28 69.5t73 28.5q41 0 70 -30.5t26 -78.5l145 19l109 327l33 322l-140 18q3 -49 -26 -79.5t-72 -30.5q-42 0 -70 28.5t-28 67.5
q0 48 36 80.5t95 32.5q20 0 70 -8l178 -39l16 268q3 57 27 88t67 31q57 0 75.5 -46.5t-5.5 -101.5l-100 -243l163 38q30 9 62 9q55 0 92 -30.5t37 -76.5q0 -41 -28.5 -69.5t-71.5 -28.5q-41 0 -70.5 30t-28.5 78l-145 -18l-107 -328l-34 -321l141 -19q-3 49 25.5 80t70.5 31
q43 0 71.5 -28.5t28.5 -67.5q0 -48 -37 -80.5t-96 -32.5q-17 0 -67 8z" />
    <glyph glyph-name="bullet" unicode="&#x2022;" horiz-adv-x="598" 
d="M334 352q-86 0 -142.5 58.5t-56.5 144.5q0 87 57 147t142 60q84 0 140 -60t56 -147q0 -85 -56 -144t-140 -59z" />
    <glyph glyph-name="ellipsis" unicode="&#x2026;" horiz-adv-x="1247" 
d="M969 -16q-52 0 -87.5 36t-35.5 89t35.5 88.5t87.5 35.5t86.5 -35.5t34.5 -88.5t-34.5 -89t-86.5 -36zM553 -16q-52 0 -87.5 36t-35.5 89t35.5 88.5t87.5 35.5t86.5 -35.5t34.5 -88.5t-34.5 -89t-86.5 -36zM137 -16q-52 0 -87.5 36t-35.5 89t35.5 88.5t87.5 35.5
t86.5 -35.5t34.5 -88.5t-34.5 -89t-86.5 -36z" />
    <glyph glyph-name="perthousand" unicode="&#x2030;" horiz-adv-x="1789" 
d="M143 -12l-63 73q266 232 555 494q121 110 325 297.5t232 212.5l63 -74q-167 -141 -561 -499q-351 -315 -551 -504zM350 645q63 0 113.5 60.5t50.5 140.5q0 53 -29.5 87t-78.5 34q-62 0 -112 -60t-50 -141q0 -53 28.5 -87t77.5 -34zM346 553q-95 0 -152 61t-57 154
q0 114 79.5 202.5t193.5 88.5q95 0 153 -60.5t58 -154.5q0 -114 -80 -202.5t-195 -88.5zM918 76q61 0 111 60t50 140q0 54 -29 87.5t-79 33.5q-61 0 -111.5 -60t-50.5 -140q0 -53 29.5 -87t79.5 -34zM913 -16q-96 0 -153.5 60.5t-57.5 154.5q0 114 79.5 202t193.5 88
q96 0 153.5 -60.5t57.5 -154.5q0 -114 -79.5 -202t-193.5 -88zM1464 76q63 0 112.5 60t49.5 140q0 53 -28.5 87t-77.5 34q-63 0 -112.5 -60t-49.5 -140q0 -53 28.5 -87t77.5 -34zM1460 -16q-95 0 -153 60.5t-58 154.5q0 114 80 202t195 88q95 0 152 -60.5t57 -154.5
q0 -114 -79 -202t-194 -88z" />
    <glyph glyph-name="guilsinglleft" unicode="&#x2039;" horiz-adv-x="595" 
d="M373 219l-289 346l438 344l72 -84l-324 -280l187 -256z" />
    <glyph glyph-name="guilsinglright" unicode="&#x203a;" horiz-adv-x="595" 
d="M143 217l-71 84l323 281l-188 258l84 67l289 -346z" />
    <glyph glyph-name="fraction" unicode="&#x2044;" horiz-adv-x="1024" 
d="M-8 -27l-64 54q12 15 227 266.5t326 384.5q303 360 539 655l63 -53q-12 -15 -227 -266.5t-326 -384.5q-323 -387 -538 -656z" />
    <glyph glyph-name="zero.sup" unicode="&#x2070;" horiz-adv-x="722" 
d="M496 866q-111 0 -173.5 78t-62.5 213q0 126 43.5 235t122 175.5t174.5 66.5q110 0 173 -78.5t63 -212.5q0 -126 -43.5 -235t-122 -175.5t-174.5 -66.5zM502 963q63 0 115.5 57t81 143.5t28.5 179.5q0 91 -33.5 143t-99.5 52q-64 0 -116.5 -57t-80.5 -144t-28 -180
q0 -91 33 -142.5t100 -51.5z" />
    <glyph glyph-name="four.sup" unicode="&#x2074;" horiz-adv-x="722" 
d="M543 965l32 133h-335l-15 49l488 500l65 -62l-403 -405h221l37 141l106 39l-41 -174h123l-22 -88h-121l-31 -133h96l-20 -84h-328l19 84h129z" />
    <glyph glyph-name="five.sup" unicode="&#x2075;" horiz-adv-x="722" 
d="M463 866q-94 0 -162 44t-68 100q0 32 19.5 53.5t50.5 21.5q30 0 49 -18t19 -47q0 -17 -13 -33q44 -29 113 -29q87 0 148 53t61 124q0 60 -37.5 93.5t-105.5 33.5q-77 0 -156 -33l-55 39l114 354h408l-23 -100h-321l-66 -199q68 27 137 27q88 0 148.5 -56.5t60.5 -148.5
q0 -114 -94.5 -196.5t-226.5 -82.5z" />
    <glyph glyph-name="six.sup" unicode="&#x2076;" horiz-adv-x="722" 
d="M338 934q-70 73 -70 205q0 113 44.5 221.5t121.5 179.5q103 96 228 96q81 0 136.5 -40t55.5 -95q0 -30 -21 -52t-49 -22q-26 0 -45.5 19.5t-19.5 46.5q0 21 14 35q-24 20 -69 20q-90 0 -166 -73q-42 -40 -75 -102.5t-46 -127.5q82 105 203 105q98 0 161.5 -59.5
t63.5 -147.5q0 -114 -86 -195.5t-205 -81.5q-108 0 -176 68zM514 961q77 0 129.5 51.5t52.5 122.5q0 55 -37.5 91t-99.5 36q-75 0 -129.5 -52.5t-54.5 -117.5q0 -56 37 -93q38 -38 102 -38z" />
    <glyph glyph-name="seven.sup" unicode="&#x2077;" horiz-adv-x="722" 
d="M328 881l446 651h-313l-31 -131h-98l53 221h498l26 -53l-460 -688h-121z" />
    <glyph glyph-name="eight.sup" unicode="&#x2078;" horiz-adv-x="722" 
d="M516 868q-116 0 -191 59.5t-75 143.5q0 81 54 136.5t140 70.5q-53 25 -78.5 66t-25.5 88q0 79 73 139.5t191 60.5q106 0 176 -55t70 -141q0 -68 -46 -116t-124 -67q53 -24 84 -65.5t31 -95.5q0 -93 -76.5 -158.5t-202.5 -65.5zM588 1305q66 0 109.5 35.5t43.5 89.5
q0 48 -39.5 80t-101.5 32q-65 0 -108 -34.5t-43 -86.5q0 -50 40 -83t99 -33zM516 961q72 0 121 38.5t49 96.5q0 53 -42 88t-112 35q-77 0 -124.5 -38.5t-47.5 -97.5q0 -52 43.5 -87t112.5 -35z" />
    <glyph glyph-name="nine.sup" unicode="&#x2079;" horiz-adv-x="722" 
d="M309 1360q0 114 85 195t204 81q109 0 176 -67q70 -73 70 -205q0 -113 -44.5 -221.5t-121.5 -179.5q-104 -97 -227 -97q-81 0 -137 40t-56 95q0 30 21 52t49 22q27 0 46 -19t19 -46q0 -24 -14 -35q25 -21 72 -21q89 0 163 74q88 82 121 229q-81 -104 -203 -104
q-97 0 -160 59t-63 148zM600 1542q-78 0 -130 -51t-52 -123q0 -55 36.5 -91t98.5 -36q75 0 129.5 52.5t54.5 117.5q0 55 -37 92q-36 39 -100 39z" />
    <glyph glyph-name="zero.inf" unicode="&#x2080;" horiz-adv-x="722" 
d="M227 -301q-111 0 -173 78t-62 213q0 126 43.5 235t122 175.5t174.5 66.5q110 0 172.5 -78.5t62.5 -212.5q0 -126 -43.5 -235t-122 -175.5t-174.5 -66.5zM233 -205q63 0 116 57t81.5 144t28.5 180q0 91 -33.5 143t-99.5 52q-64 0 -117 -57t-81 -144t-28 -180
q0 -91 33 -143t100 -52z" />
    <glyph glyph-name="one.inf" unicode="&#x2081;" horiz-adv-x="722" 
d="M-39 -287l23 97h202l125 538l-200 -43l-5 96l281 64l51 -25l-145 -630h199l-21 -97h-510z" />
    <glyph glyph-name="two.inf" unicode="&#x2082;" horiz-adv-x="722" 
d="M-41 -287l-20 49q47 114 134.5 191.5t217.5 146.5q90 47 131 86t41 88q0 44 -36 71.5t-95 27.5q-97 0 -135 -47q20 -27 20 -52q0 -29 -19 -49t-48 -20q-31 0 -50.5 22t-19.5 56q0 71 75.5 128.5t184.5 57.5q103 0 168 -52.5t65 -140.5q0 -42 -17.5 -78t-54.5 -68
t-73.5 -55t-95.5 -55q-102 -55 -163 -104.5t-95 -112.5h313l27 117h92l-47 -207h-500z" />
    <glyph glyph-name="three.inf" unicode="&#x2083;" horiz-adv-x="722" 
d="M229 -297q-101 0 -177.5 47t-76.5 121q0 31 20.5 54.5t49.5 23.5t47.5 -19t18.5 -47q0 -12 -7 -25.5t-16 -19.5q13 -19 50.5 -32t92.5 -13q78 0 124 36t46 95q0 47 -49.5 85t-128.5 38h-41l23 96h41q94 0 150.5 36t56.5 91q0 49 -41.5 76t-104.5 27q-66 0 -96 -27
q14 -11 14 -33q0 -29 -19 -47t-46 -18q-30 0 -50 20.5t-20 53.5q0 56 63.5 100.5t170.5 44.5t174 -55t67 -131q0 -82 -59 -132t-156 -59q77 -20 118.5 -65t41.5 -107q0 -100 -83.5 -157.5t-197.5 -57.5z" />
    <glyph glyph-name="four.inf" unicode="&#x2084;" horiz-adv-x="722" 
d="M274 -203l33 133h-336l-14 50l487 499l66 -61l-404 -406h222l37 142l106 39l-41 -175h123l-23 -88h-120l-31 -133h96l-20 -84h-328l18 84h129z" />
    <glyph glyph-name="five.inf" unicode="&#x2085;" horiz-adv-x="722" 
d="M195 -301q-95 0 -162.5 44t-67.5 99q0 33 19.5 54.5t50.5 21.5q29 0 48 -18t19 -47q0 -18 -12 -33q44 -29 113 -29q87 0 148 52.5t61 123.5q0 60 -38 93.5t-106 33.5q-76 0 -155 -33l-56 39l115 355h408l-23 -101h-321l-66 -198q65 26 137 26q88 0 148.5 -56.5
t60.5 -148.5q0 -114 -94.5 -196t-226.5 -82z" />
    <glyph glyph-name="six.inf" unicode="&#x2086;" horiz-adv-x="722" 
d="M70 -233q-70 73 -70 204q0 114 44.5 222.5t121.5 179.5q103 96 227 96q81 0 137 -40t56 -95q0 -30 -21 -52t-49 -22q-26 0 -45.5 19t-19.5 47q0 20 14 34q-25 21 -70 21q-89 0 -166 -74q-42 -40 -74.5 -101.5t-45.5 -127.5q81 104 202 104q98 0 162 -59.5t64 -147.5
q0 -114 -86 -195t-205 -81q-108 0 -176 68zM246 -207q77 0 129.5 51.5t52.5 122.5q0 55 -37.5 91t-99.5 36q-75 0 -130 -52.5t-55 -117.5q0 -55 37 -92q39 -39 103 -39z" />
    <glyph glyph-name="seven.inf" unicode="&#x2087;" horiz-adv-x="722" 
d="M59 -287l447 652h-313l-31 -132h-99l54 222h497l27 -54l-461 -688h-121z" />
    <glyph glyph-name="eight.inf" unicode="&#x2088;" horiz-adv-x="722" 
d="M248 -299q-116 0 -191 59.5t-75 143.5q0 81 54 136.5t140 70.5q-104 49 -104 153q0 79 73 140t191 61q106 0 176 -55.5t70 -141.5q0 -68 -46 -115.5t-124 -66.5q53 -24 83.5 -66t30.5 -96q0 -93 -76 -158t-202 -65zM319 137q66 0 110 35.5t44 89.5q0 48 -39.5 80.5
t-101.5 32.5q-65 0 -108.5 -34.5t-43.5 -86.5q0 -51 40 -84t99 -33zM248 -207q72 0 121 38.5t49 96.5q0 53 -42 88t-112 35q-77 0 -124.5 -38t-47.5 -97q0 -52 43.5 -87.5t112.5 -35.5z" />
    <glyph glyph-name="nine.inf" unicode="&#x2089;" horiz-adv-x="722" 
d="M41 193q0 114 85 195t204 81q108 0 176 -68q69 -72 69 -204q0 -114 -44 -222.5t-121 -179.5q-103 -96 -228 -96q-81 0 -136.5 40t-55.5 95q0 31 20.5 52.5t48.5 21.5q27 0 46.5 -19.5t19.5 -46.5q0 -24 -14 -35q24 -20 71 -20q90 0 164 74q89 86 121 229
q-81 -104 -203 -104q-97 0 -160 59t-63 148zM332 375q-78 0 -130 -51t-52 -123q0 -55 36.5 -91t98.5 -36q75 0 129.5 52.5t54.5 117.5q0 55 -37 92q-36 39 -100 39z" />
    <glyph glyph-name="Euro" unicode="&#x20ac;" horiz-adv-x="1204" 
d="M74 449h125q0 67 20 145h-131l27 113h143q75 157 220.5 252.5t320.5 95.5q88 0 161.5 -26t119 -67t70 -89t24.5 -95q0 -57 -33 -96t-84 -39q-40 0 -67 27t-27 71q0 22 15 47t36 37q-22 44 -78.5 72.5t-142.5 28.5q-120 0 -221.5 -59t-163.5 -162h372l-26 -111h-394
q-22 -74 -22 -145h401l-26 -111h-367q30 -114 117 -170.5t209 -56.5q175 0 325 118l72 -100q-189 -147 -414 -147q-108 0 -199.5 37.5t-160 119t-90.5 197.5h-158z" />
    <glyph glyph-name="published" unicode="&#x2117;" horiz-adv-x="1239" 
d="M618 -16q-148 0 -268.5 71.5t-188 194t-67.5 270.5q0 147 67.5 270t188 195t268.5 72q149 0 270 -72t189 -195t68 -270t-68.5 -270t-189.5 -194.5t-269 -71.5zM618 57q188 0 315.5 135t127.5 328q0 195 -127 330t-316 135q-124 0 -225 -62t-158 -168.5t-57 -234.5
q0 -194 126.5 -328.5t313.5 -134.5zM442 246v67h66v404h-66v67h213q88 0 144.5 -47t56.5 -125q0 -87 -55.5 -133.5t-151.5 -46.5h-63v-119h69v-67h-213zM655 500q57 0 90 30t33 82q0 47 -35.5 76t-91.5 29h-65v-215q3 0 25 -1t44 -1z" />
    <glyph glyph-name="servicemark" unicode="&#x2120;" horiz-adv-x="1308" 
d="M408 829q-75 0 -129 38t-54 89q0 30 18 50t44 20q53 0 53 -49q0 -29 -18 -43q24 -31 94 -31q42 0 69 18t27 50q0 16 -6 28.5t-18.5 22.5t-27.5 19t-36 20l-12 6q-52 29 -81.5 62t-29.5 81q0 61 51 104.5t133 43.5q73 0 121.5 -36t48.5 -79q0 -31 -16 -50t-43 -19
q-25 0 -39 13t-14 36t16 39q-6 8 -30 15t-50 7q-38 0 -63 -18t-25 -45q0 -8 2.5 -16t5.5 -13.5t10 -12.5t11.5 -11t15.5 -11t16 -10t18.5 -10.5t18.5 -10.5q55 -31 84 -63.5t29 -81.5q0 -66 -53 -109t-141 -43zM643 842l14 71h74l103 363h-76l16 72h170l68 -314l213 314h182
l-16 -72h-76l-70 -363h74l-16 -71h-213l14 71h63l62 318l-223 -322h-39l-74 322l-86 -318h65l-16 -71h-213z" />
    <glyph glyph-name="trademark" unicode="&#x2122;" horiz-adv-x="1320" 
d="M655 842l17 71h71l103 363h-76l16 72h170l68 -314l213 314h182l-16 -72h-76l-70 -363h76l-16 -71h-215l14 71h64l63 318l-223 -322h-39l-74 322l-88 -318h66l-17 -71h-213zM244 842l14 71h76l88 367h-119l-20 -84h-76l35 152h473l-35 -152h-80l23 84h-117l-88 -367h74
l-17 -71h-231z" />
    <glyph glyph-name="onethird" unicode="&#x2153;" horiz-adv-x="1628" 
d="M137 573l23 97h202l125 538l-200 -43l-4 97l280 63l51 -25l-145 -630h199l-21 -97h-510zM365 -27l-64 54q12 15 227 266.5t326 384.5q303 360 539 655l63 -53q-12 -15 -227 -266.5t-326 -384.5q-323 -387 -538 -656zM1202 -10q-101 0 -177.5 47t-76.5 121q0 31 20.5 54.5
t49.5 23.5t47 -19t18 -47q0 -30 -22 -45q13 -19 50.5 -32t92.5 -13q78 0 124 36t46 95q0 47 -49.5 85t-128.5 38h-41l23 96h41q93 0 149.5 36t56.5 91q0 49 -41 75.5t-104 26.5q-67 0 -96 -26q14 -11 14 -33q0 -29 -19 -47t-46 -18q-30 0 -50 20t-20 53q0 56 63 101t170 45
t174.5 -55.5t67.5 -131.5q0 -82 -59 -131.5t-156 -58.5q77 -20 118.5 -65t41.5 -107q0 -100 -83.5 -157.5t-197.5 -57.5z" />
    <glyph glyph-name="twothirds" unicode="&#x2154;" horiz-adv-x="1628" 
d="M147 573l-20 50q47 114 134.5 191.5t217.5 146.5q90 47 131 86t41 88q0 44 -36 71t-95 27q-97 0 -135 -47q21 -28 21 -51q0 -29 -19.5 -49.5t-48.5 -20.5q-31 0 -50.5 22t-19.5 56q0 71 75.5 128.5t184.5 57.5q103 0 168.5 -52t65.5 -140q0 -42 -17.5 -78t-55 -68
t-74 -55t-95.5 -55q-102 -55 -163 -104.5t-95 -112.5h313l27 116h92l-47 -207h-500zM1204 -10q-101 0 -177.5 47t-76.5 121q0 31 20.5 54.5t49.5 23.5t47 -19t18 -47q0 -30 -22 -45q13 -19 50.5 -32t92.5 -13q78 0 124 36t46 95q0 47 -49.5 85t-128.5 38h-41l23 96h41
q93 0 149.5 36t56.5 91q0 49 -41 75.5t-104 26.5q-67 0 -96 -26q14 -11 14 -33q0 -29 -19 -47t-46 -18q-30 0 -50 20t-20 53q0 56 63 101t170 45t174.5 -55.5t67.5 -131.5q0 -82 -59 -131.5t-156 -58.5q77 -20 118.5 -65t41.5 -107q0 -100 -83.5 -157.5t-197.5 -57.5z
M369 -27l-64 54q12 15 227 266.5t326 384.5q303 360 539 655l63 -53q-12 -15 -227 -266.5t-326 -384.5q-323 -387 -538 -656z" />
    <glyph glyph-name="onefifth" unicode="&#x2155;" horiz-adv-x="1628" 
d="M1161 -14q-94 0 -161.5 44t-67.5 99q0 33 19.5 54.5t49.5 21.5q29 0 48.5 -18.5t19.5 -47.5q0 -18 -12 -33q42 -28 112 -28q87 0 148 52.5t61 123.5q0 60 -37.5 93.5t-105.5 33.5q-77 0 -156 -33l-55 39l115 354h407l-22 -100h-322l-65 -199q67 27 137 27
q88 0 148.5 -56.5t60.5 -148.5q0 -114 -95 -196t-227 -82zM135 573l23 97h202l125 538l-200 -43l-4 97l280 63l51 -25l-145 -630h199l-21 -97h-510zM356 -27l-63 54q12 15 227 266.5t326 384.5q283 336 538 655l64 -53q-12 -15 -227 -266.5t-326 -384.5q-348 -417 -539 -656
z" />
    <glyph glyph-name="twofifths" unicode="&#x2156;" horiz-adv-x="1628" 
d="M180 573l-20 50q47 114 134.5 191.5t217.5 146.5q90 47 131 86t41 88q0 44 -36 71t-95 27q-97 0 -135 -47q20 -27 20 -51q0 -30 -19 -50t-48 -20q-31 0 -50.5 22t-19.5 56q0 71 75.5 128.5t184.5 57.5q103 0 168.5 -52t65.5 -140q0 -42 -17.5 -78t-55 -68t-74 -55
t-95.5 -55q-102 -55 -163 -104.5t-95 -112.5h313l27 116h92l-47 -207h-500zM1174 -14q-95 0 -162.5 44t-67.5 99q0 33 19.5 54.5t50.5 21.5q29 0 48 -18.5t19 -47.5q0 -18 -12 -33q42 -28 113 -28q87 0 148 52.5t61 123.5q0 60 -38 93.5t-106 33.5q-76 0 -155 -33l-56 39
l115 354h408l-23 -100h-322l-65 -199q67 27 137 27q88 0 148.5 -56.5t60.5 -148.5q0 -114 -94.5 -196t-226.5 -82zM389 -27l-63 54q12 15 227 266.5t326 384.5q283 336 538 655l64 -53q-12 -15 -227 -266.5t-326 -384.5q-348 -417 -539 -656z" />
    <glyph glyph-name="threefifths" unicode="&#x2157;" horiz-adv-x="1628" 
d="M1159 -14q-94 0 -161.5 44t-67.5 99q0 33 19.5 54.5t49.5 21.5q29 0 48.5 -18.5t19.5 -47.5q0 -18 -12 -33q42 -28 112 -28q87 0 148 52.5t61 123.5q0 60 -37.5 93.5t-105.5 33.5q-77 0 -156 -33l-55 39l115 354h407l-22 -100h-322l-65 -199q67 27 137 27
q88 0 148.5 -56.5t60.5 -148.5q0 -114 -95 -196t-227 -82zM348 -27l-63 54q12 15 227 266.5t326 384.5q283 336 538 655l64 -53q-12 -15 -227 -266.5t-326 -384.5q-348 -417 -539 -656zM428 563q-101 0 -177.5 47t-76.5 121q0 31 20.5 54.5t49.5 23.5t47 -19t18 -47
q0 -30 -22 -45q13 -19 50.5 -32t92.5 -13q78 0 124 36t46 95q0 47 -49.5 85t-128.5 38h-41l22 97h41q94 0 150.5 35.5t56.5 90.5q0 49 -41 76t-104 27q-66 0 -96 -27q14 -10 14 -32q0 -29 -19.5 -47.5t-46.5 -18.5q-30 0 -49.5 20.5t-19.5 53.5q0 56 63 100.5t170 44.5
t174.5 -55t67.5 -131q0 -82 -59 -132t-156 -59q77 -20 118.5 -65t41.5 -107q0 -100 -83.5 -157.5t-197.5 -57.5z" />
    <glyph glyph-name="fourfifths" unicode="&#x2158;" horiz-adv-x="1628" 
d="M1174 -14q-95 0 -162.5 44t-67.5 99q0 33 19.5 54.5t50.5 21.5q29 0 48 -18.5t19 -47.5q0 -18 -12 -33q42 -28 113 -28q87 0 148 52.5t61 123.5q0 60 -38 93.5t-106 33.5q-76 0 -155 -33l-56 39l115 354h408l-23 -100h-322l-65 -199q67 27 137 27q88 0 148.5 -56.5
t60.5 -148.5q0 -114 -94.5 -196t-226.5 -82zM475 657l33 134h-336l-14 49l487 499l66 -61l-404 -406h221l37 142l107 39l-41 -174h123l-23 -88h-121l-30 -134h96l-21 -84h-327l18 84h129zM367 -27l-64 54q12 15 227 266.5t326 384.5q303 360 539 655l63 -53
q-12 -15 -227 -266.5t-326 -384.5q-323 -387 -538 -656z" />
    <glyph glyph-name="onesixth" unicode="&#x2159;" horiz-adv-x="1628" 
d="M1014 53q-70 73 -70 205q0 113 44.5 221.5t121.5 179.5q104 97 227 97q81 0 137 -40t56 -95q0 -30 -21 -52t-49 -22q-27 0 -46 19t-19 46q0 21 14 35q-25 21 -70 21q-88 0 -165 -74q-42 -40 -75 -102t-46 -127q81 104 202 104q98 0 162 -59.5t64 -147.5q0 -114 -86 -195
t-205 -81q-109 0 -176 67zM123 573l22 97h203l125 538l-201 -43l-4 97l281 63l51 -25l-145 -630h198l-20 -97h-510zM346 -27l-63 54q12 15 227 266.5t326 384.5q283 336 538 655l64 -53q-12 -15 -227 -266.5t-326 -384.5q-348 -417 -539 -656zM1190 80q77 0 129.5 51.5
t52.5 122.5q0 55 -37.5 91t-99.5 36q-75 0 -129.5 -52.5t-54.5 -117.5q0 -56 36 -92q39 -39 103 -39z" />
    <glyph glyph-name="fivesixths" unicode="&#x215a;" horiz-adv-x="1628" 
d="M1008 53q-70 73 -70 205q0 113 44.5 221.5t121.5 179.5q104 97 227 97q81 0 137 -40t56 -95q0 -30 -21 -52t-49 -22q-27 0 -46 19t-19 46q0 21 14 35q-25 21 -70 21q-89 0 -166 -74q-42 -40 -74.5 -101.5t-45.5 -127.5q81 104 202 104q98 0 162 -59.5t64 -147.5
q0 -114 -86 -195t-205 -81q-109 0 -176 67zM387 559q-94 0 -161.5 44t-67.5 99q0 33 19.5 54.5t49.5 21.5t49 -18t19 -47q0 -18 -12 -33q43 -29 112 -29q87 0 148 52.5t61 123.5q0 60 -37.5 93.5t-105.5 33.5q-80 0 -156 -32l-55 39l115 354h407l-22 -101h-322l-66 -198
q65 26 138 26q89 0 149 -56t60 -148q0 -114 -95 -196.5t-227 -82.5zM334 -27l-64 54q12 15 227 266.5t326 384.5q303 360 539 655l63 -53q-12 -15 -227 -266.5t-326 -384.5q-323 -387 -538 -656zM1184 80q77 0 129.5 51.5t52.5 122.5q0 55 -37.5 91t-99.5 36
q-75 0 -130 -52.5t-55 -117.5q0 -55 37 -92q39 -39 103 -39z" />
    <glyph glyph-name="oneeighth" unicode="&#x215b;" horiz-adv-x="1628" 
d="M129 573l23 97h202l125 538l-200 -43l-5 97l281 63l51 -25l-145 -630h198l-20 -97h-510zM336 -27l-64 54q12 15 227 266.5t326 384.5q303 360 539 655l63 -53q-12 -15 -227 -266.5t-326 -384.5q-323 -387 -538 -656zM1198 -12q-116 0 -191 59t-75 143q0 81 54 136.5
t140 70.5q-53 25 -78.5 66t-25.5 88q0 79 73 140t191 61q106 0 176 -55.5t70 -141.5q0 -68 -46 -115.5t-124 -66.5q53 -24 84 -66t31 -96q0 -93 -76.5 -158t-202.5 -65zM1270 424q66 0 109.5 35.5t43.5 89.5q0 48 -39.5 80.5t-101.5 32.5q-65 0 -108.5 -34.5t-43.5 -86.5
q0 -51 40.5 -84t99.5 -33zM1198 80q72 0 121 38.5t49 96.5q0 53 -42 88t-112 35q-77 0 -124.5 -38t-47.5 -97q0 -52 43.5 -87.5t112.5 -35.5z" />
    <glyph glyph-name="threeeighths" unicode="&#x215c;" horiz-adv-x="1628" 
d="M1210 -12q-116 0 -191 59t-75 143q0 81 54.5 136.5t140.5 70.5q-105 50 -105 154q0 79 73 140t191 61q106 0 176 -55.5t70 -141.5q0 -68 -46 -115.5t-124 -66.5q53 -24 84 -66t31 -96q0 -93 -76.5 -158t-202.5 -65zM1282 424q66 0 110 35.5t44 89.5q0 48 -40 80.5
t-102 32.5q-65 0 -108 -34.5t-43 -86.5q0 -51 40 -84t99 -33zM1210 80q72 0 121 38.5t49 96.5q0 53 -41.5 88t-111.5 35q-77 0 -124.5 -38t-47.5 -97q0 -52 43 -87.5t112 -35.5zM340 -27l-64 54q12 15 227 266.5t326 384.5q303 360 539 655l64 -53q-12 -15 -227 -266.5
t-326 -384.5q-348 -417 -539 -656zM426 563q-101 0 -177.5 47t-76.5 121q0 31 20.5 54.5t49.5 23.5t47 -19t18 -47q0 -30 -22 -45q13 -19 50.5 -32t92.5 -13q78 0 124 36t46 95q0 47 -49.5 85t-128.5 38h-41l22 97h41q94 0 150.5 35.5t56.5 90.5q0 49 -41 76t-104 27
q-66 0 -96 -27q14 -10 14 -32q0 -29 -19.5 -47.5t-46.5 -18.5q-30 0 -49.5 20.5t-19.5 53.5q0 56 63 100.5t170 44.5t174.5 -55t67.5 -131q0 -82 -59 -132t-156 -59q77 -20 118.5 -65t41.5 -107q0 -100 -83.5 -157.5t-197.5 -57.5z" />
    <glyph glyph-name="fiveeighths" unicode="&#x215d;" horiz-adv-x="1628" 
d="M389 559q-94 0 -161.5 44t-67.5 99q0 33 19.5 54.5t49.5 21.5t49 -18t19 -47q0 -18 -12 -33q43 -29 112 -29q87 0 148 52.5t61 123.5q0 60 -37.5 93.5t-105.5 33.5q-80 0 -156 -32l-55 39l115 354h407l-22 -101h-322l-65 -198q65 26 137 26q89 0 149 -56t60 -148
q0 -114 -95 -196.5t-227 -82.5zM319 -27l-63 54q12 15 227 266.5t326 384.5q303 360 539 655l63 -53q-12 -15 -227 -266.5t-326 -384.5q-348 -417 -539 -656zM1186 -12q-116 0 -191 59t-75 143q0 81 54 136.5t140 70.5q-53 25 -78.5 66t-25.5 88q0 79 73 140t191 61
q106 0 176 -55.5t70 -141.5q0 -68 -46 -115.5t-124 -66.5q53 -24 83.5 -66t30.5 -96q0 -93 -76 -158t-202 -65zM1257 424q66 0 110 35.5t44 89.5q0 48 -39.5 80.5t-101.5 32.5q-65 0 -108.5 -34.5t-43.5 -86.5q0 -51 40 -84t99 -33zM1186 80q72 0 121 38.5t49 96.5
q0 53 -42 88t-112 35q-77 0 -124.5 -38t-47.5 -97q0 -52 43.5 -87.5t112.5 -35.5z" />
    <glyph glyph-name="seveneighths" unicode="&#x215e;" horiz-adv-x="1628" 
d="M279 573l446 652h-313l-31 -131h-98l53 221h498l26 -53l-461 -689h-120zM1180 -12q-116 0 -191.5 59t-75.5 143q0 81 54.5 136.5t140.5 70.5q-53 25 -78.5 66t-25.5 88q0 79 73 140t191 61q106 0 175.5 -55.5t69.5 -141.5q0 -68 -46 -115.5t-124 -66.5q53 -24 84 -66
t31 -96q0 -93 -76 -158t-202 -65zM1251 424q66 0 110 35.5t44 89.5q0 48 -39.5 80.5t-101.5 32.5q-65 0 -108.5 -34.5t-43.5 -86.5q0 -51 40 -84t99 -33zM1180 80q72 0 121 38.5t49 96.5q0 53 -42 88t-112 35q-77 0 -124.5 -38t-47.5 -97q0 -52 43.5 -87.5t112.5 -35.5z
M268 -27l-63 54q12 15 227 266.5t326 384.5q283 336 538 655l64 -53q-12 -15 -227 -266.5t-326 -384.5q-348 -417 -539 -656z" />
    <glyph glyph-name="minus" unicode="&#x2212;" horiz-adv-x="858" 
d="M104 492l31 124h680l-29 -124h-682z" />
    <glyph glyph-name="Q.alt" horiz-adv-x="1499" 
d="M715 -25q-176 0 -306.5 77t-197 207.5t-66.5 295.5q0 149 57.5 296t155 262.5t239 187t298.5 71.5q132 0 240 -44.5t179.5 -122t110.5 -183.5t39 -229q0 -209 -106 -404t-283 -307l99 -268l-127 -43l-91 249q-118 -45 -241 -45zM727 115q88 0 176 32l-94 267l127 43
l86 -244q129 94 207 251.5t78 326.5q0 92 -26.5 171t-77.5 140t-133 96t-187 35q-121 0 -230 -58.5t-185 -153.5t-120.5 -217t-44.5 -247q0 -92 26.5 -171t77.5 -140t133 -96t187 -35z" />
    <glyph glyph-name="zero.lin" horiz-adv-x="1292" 
d="M602 -25q-202 0 -330.5 140.5t-128.5 373.5q0 232 88 435.5t240.5 325.5t329.5 122q202 0 330.5 -140.5t128.5 -373.5q0 -232 -88 -435.5t-240.5 -325.5t-329.5 -122zM612 115q101 0 193.5 64.5t156 168.5t101 235.5t37.5 264.5q0 173 -80.5 279t-228.5 106
q-101 0 -193.5 -64.5t-156 -168.5t-101 -235.5t-37.5 -264.5q0 -173 80.5 -279t228.5 -106z" />
    <glyph glyph-name="one.lin" horiz-adv-x="884" 
d="M12 0l31 135h272l244 1061l-266 -66l-6 140l387 96l69 -35l-276 -1196h266l-31 -135h-690z" />
    <glyph glyph-name="two.lin" horiz-adv-x="1138" 
d="M39 0l-27 68q82 201 224.5 338t394.5 274q181 98 260.5 177t79.5 175q0 90 -71 146.5t-185 56.5q-111 0 -182.5 -34t-100.5 -77q47 -47 47 -92q0 -44 -31 -75t-77 -31q-48 0 -79.5 34.5t-31.5 90.5q0 42 20 86t60.5 86t95 75.5t130.5 53.5t161 20q178 0 290.5 -94
t112.5 -242q0 -61 -21.5 -116t-55.5 -98.5t-93.5 -89.5t-119.5 -82.5t-148 -84.5q-199 -109 -311 -209t-174 -225h600l47 209h139l-78 -340h-876z" />
    <glyph glyph-name="three.lin" horiz-adv-x="1081" 
d="M481 -18q-184 0 -312 84t-128 192q0 54 32 93.5t83 39.5q45 0 73.5 -28.5t28.5 -67.5q0 -26 -15.5 -50.5t-43.5 -35.5q31 -38 105.5 -66t184.5 -28q149 0 239.5 73.5t90.5 188.5q0 113 -100 183.5t-258 70.5h-51l30 135h54q191 0 302 74t111 186q0 99 -78.5 154
t-199.5 55q-145 0 -209 -68q43 -24 43 -71q0 -41 -32 -69t-73 -28q-45 0 -76.5 33t-31.5 84q0 100 113.5 177t295.5 77q176 0 292 -95t116 -237q0 -145 -105.5 -234t-265.5 -114q126 -34 203.5 -117t77.5 -202q0 -117 -70.5 -207t-182.5 -136t-243 -46z" />
    <glyph glyph-name="four.lin" horiz-adv-x="1138" 
d="M950 870l-80 -346h230l-29 -129h-231l-60 -264h185l-29 -131h-578l31 129h242l61 268h-618l-15 64l899 921l99 -90l-758 -770h422l65 283z" />
    <glyph glyph-name="five.lin" horiz-adv-x="1056" 
d="M428 -25q-150 0 -266.5 73t-116.5 167q0 51 31 86t78 35q42 0 71 -28t29 -70q0 -41 -29 -64q61 -65 217 -65q172 0 278.5 102.5t106.5 247.5q0 120 -74.5 187t-199.5 67q-129 0 -262 -54l-72 54l209 635h674l-33 -142h-549l-137 -405q94 41 209 41q170 0 278.5 -102
t108.5 -273q0 -97 -39.5 -186t-109.5 -157t-175 -108.5t-227 -40.5z" />
    <glyph glyph-name="six.lin" horiz-adv-x="1150" 
d="M262 94q-68 67 -98.5 158.5t-30.5 224.5q0 199 84 404t234 338q173 153 385 153q138 0 233.5 -67.5t95.5 -159.5q0 -52 -32 -85.5t-76 -33.5q-41 0 -72 27.5t-31 72.5q0 42 35 72q-54 47 -155 47q-161 0 -297 -127q-88 -79 -155.5 -209.5t-90.5 -269.5q59 85 158.5 147
t226.5 62q178 0 289.5 -107.5t111.5 -265.5q0 -95 -41 -186.5t-109.5 -160.5t-163.5 -111t-198 -42q-184 0 -303 119zM567 111q146 0 250.5 105t104.5 251q0 112 -72.5 181t-196.5 69q-146 0 -254 -106t-108 -238q0 -113 76 -189q76 -73 200 -73z" />
    <glyph glyph-name="seven.lin" horiz-adv-x="1017" 
d="M125 0l823 1217h-569l-51 -220h-142l82 351h850l37 -66l-854 -1282h-176z" />
    <glyph glyph-name="eight.lin" horiz-adv-x="1138" 
d="M565 -20q-197 0 -330 107.5t-133 262.5q0 148 98 245t249 128q-89 42 -141 120.5t-52 164.5q0 68 31.5 132t87.5 115t143.5 82t190.5 31q183 0 308.5 -100t125.5 -250q0 -130 -85 -214t-227 -122q93 -37 155.5 -120t62.5 -187q0 -166 -135.5 -280.5t-348.5 -114.5z
M682 760q130 0 217.5 72.5t87.5 179.5q0 95 -76.5 159t-199.5 64q-131 0 -217 -69t-86 -175q0 -97 80.5 -164t193.5 -67zM563 115q139 0 235.5 76.5t96.5 189.5q0 109 -85 181.5t-220 72.5q-149 0 -240.5 -78t-91.5 -197q0 -102 84.5 -173.5t220.5 -71.5z" />
    <glyph glyph-name="nine.lin" horiz-adv-x="1150" 
d="M182 872q0 95 41 186.5t109.5 160.5t163.5 111t198 42q184 0 303 -119q68 -67 98.5 -158.5t30.5 -224.5q0 -199 -83.5 -403.5t-233.5 -337.5q-175 -154 -385 -154q-138 0 -234 68t-96 160q0 52 32.5 85.5t76.5 33.5q41 0 71.5 -28t30.5 -73q0 -41 -35 -71q55 -48 156 -48
q161 0 297 127q88 78 155.5 209.5t90.5 270.5q-59 -84 -159 -146.5t-226 -62.5q-178 0 -290 107t-112 265zM969 975q0 113 -78 188q-74 74 -199 74q-146 0 -250 -105t-104 -251q0 -112 72 -181t196 -69q146 0 254.5 106t108.5 238z" />
    <glyph glyph-name="bullet.alt" horiz-adv-x="1292" 
d="M647 -98q-159 0 -282.5 74t-188.5 197t-65 273q0 148 65.5 271t189 197.5t281.5 74.5q160 0 284.5 -74t190.5 -197t66 -272t-66.5 -272.5t-191 -197.5t-283.5 -74z" />
    <glyph glyph-name="hyphen.lin" horiz-adv-x="552" 
d="M123 625l35 137h407l-28 -137h-414z" />
    <glyph glyph-name="endash.lin" horiz-adv-x="882" 
d="M98 629l33 131h791l-29 -131h-795z" />
    <glyph glyph-name="emdash.lin" horiz-adv-x="1347" 
d="M98 629l33 131h1255l-28 -131h-1260z" />
    <glyph glyph-name="parenleft.lin" horiz-adv-x="747" 
d="M582 -330q-191 154 -303.5 366.5t-112.5 467.5q0 253 99 481.5t268 398.5t391 277l57 -107q-310 -163 -487 -443t-177 -609q0 -216 91 -406.5t254 -333.5z" />
    <glyph glyph-name="parenright.lin" horiz-adv-x="747" 
d="M-57 -328l-60 105q311 162 487.5 442.5t176.5 609.5q0 217 -90.5 406.5t-251.5 333.5l78 94q191 -154 304 -367t113 -469q0 -190 -56.5 -368.5t-158 -325t-239.5 -264t-303 -197.5z" />
    <glyph glyph-name="bracketleft.lin" horiz-adv-x="698" 
d="M66 -287l444 1909h463l-29 -119h-326l-389 -1671h324l-27 -119h-460z" />
    <glyph glyph-name="bracketright.lin" horiz-adv-x="698" 
d="M-147 -287l26 119h326l391 1671h-326l29 119h461l-445 -1909h-462z" />
    <glyph glyph-name="braceleft.lin" horiz-adv-x="681" 
d="M471 -315q-176 22 -268 110.5t-92 214.5q0 87 48 157.5t126 135.5q63 53 96 92t33 78q0 49 -45.5 88t-139.5 39h-69l33 139h71q112 0 174 49.5t62 120.5q0 63 -60 170q-69 127 -69 221q0 148 135 247.5t393 105.5l-16 -105q-189 -11 -282 -81t-93 -160q0 -70 65 -193
q66 -128 66 -201q0 -101 -66.5 -165.5t-187.5 -81.5q85 -19 128.5 -72t43.5 -121q0 -62 -42.5 -118.5t-115.5 -116.5q-69 -59 -109 -112.5t-40 -109.5q0 -174 248 -231z" />
    <glyph glyph-name="braceright.lin" horiz-adv-x="681" 
d="M-94 -313l16 104q98 6 172.5 29.5t117.5 58t64 73.5t21 81q0 70 -66 194q-65 123 -65 201q0 100 67 164.5t187 81.5q-85 19 -128.5 71.5t-43.5 120.5q0 62 42 119t116 119q71 60 110 112t39 109q0 172 -248 229l27 101q176 -21 268 -110.5t92 -215.5q0 -87 -47.5 -156
t-126.5 -137q-129 -104 -129 -170q0 -49 45 -88t139 -39h70l-33 -139h-71q-112 0 -174 -49.5t-62 -120.5q0 -63 60 -170q69 -123 69 -221q0 -147 -135 -246.5t-393 -105.5z" />
    <glyph glyph-name="registered.alt" horiz-adv-x="1239" 
d="M618 -16q-148 0 -268.5 71.5t-188 194t-67.5 270.5q0 147 67.5 270t188 195t268.5 72q149 0 270 -72t189 -195t68 -270t-68.5 -270t-189.5 -194.5t-269 -71.5zM618 57q188 0 315.5 135t127.5 328q0 195 -127 330t-316 135q-124 0 -225 -62t-158 -168.5t-57 -234.5
q0 -194 126.5 -328.5t313.5 -134.5zM410 260v70h65v401h-65v68h204q95 0 151 -41.5t56 -116.5q0 -53 -29.5 -91t-80.5 -56l98 -164h63v-70h-114l-121 213h-86v-143h70v-70h-211zM551 539h59q59 0 95 26.5t36 71.5q0 46 -34.5 70t-94.5 24h-61v-192z" />
    <glyph glyph-name="copyright.lin" horiz-adv-x="1601" 
d="M819 -25q-189 0 -346.5 94t-247.5 254.5t-90 350.5q0 142 53 271t144 222.5t218 149t269 55.5t269 -55.5t218 -149t144 -222.5t53 -271q0 -190 -90 -350.5t-247.5 -254.5t-346.5 -94zM819 53q166 0 303 83.5t215 226t78 311.5t-78 311.5t-215 225.5t-303 83
q-124 0 -234.5 -49t-189.5 -132.5t-125.5 -198t-46.5 -240.5t46.5 -241t125.5 -198t189.5 -132.5t234.5 -49.5zM842 336q-151 0 -250.5 98.5t-99.5 249.5q0 150 103 250t247 100q110 0 185 -52t75 -114q0 -33 -21 -55t-51 -22q-28 0 -47.5 18t-19.5 47q0 27 16 35
q-15 19 -52.5 34t-86.5 15q-102 0 -172 -74t-70 -180q0 -105 69 -179.5t175 -74.5q115 0 200 88l66 -71q-104 -113 -266 -113z" />
    <glyph glyph-name="published.lin" horiz-adv-x="1601" 
d="M819 -25q-189 0 -346.5 94t-247.5 254.5t-90 350.5q0 142 53 271t144 222.5t218 149t269 55.5t269 -55.5t218 -149t144 -222.5t53 -271q0 -190 -90 -350.5t-247.5 -254.5t-346.5 -94zM819 53q166 0 303 83.5t215 226t78 311.5t-78 311.5t-215 225.5t-303 83
q-124 0 -234.5 -49t-189.5 -132.5t-125.5 -198t-46.5 -240.5t46.5 -241t125.5 -198t189.5 -132.5t234.5 -49.5zM586 336v92h80v492h-80v90h268q109 0 180.5 -59.5t71.5 -157.5q0 -110 -71 -168t-191 -58h-76v-139h86v-92h-268zM852 653q70 0 109.5 37.5t39.5 102.5
q0 58 -42.5 92.5t-108.5 34.5h-82v-265q2 0 29.5 -1t54.5 -1z" />
    <glyph glyph-name="registered.lin" horiz-adv-x="1601" 
d="M819 -25q-189 0 -346.5 94t-247.5 254.5t-90 350.5q0 142 53 271t144 222.5t218 149t269 55.5t269 -55.5t218 -149t144 -222.5t53 -271q0 -190 -90 -350.5t-247.5 -254.5t-346.5 -94zM819 53q166 0 303 83.5t215 226t78 311.5t-78 311.5t-215 225.5t-303 83
q-124 0 -234.5 -49t-189.5 -132.5t-125.5 -198t-46.5 -240.5t46.5 -241t125.5 -198t189.5 -132.5t234.5 -49.5zM559 350v90h82v494h-82v90h260q117 0 187.5 -51.5t70.5 -147.5q0 -68 -36 -115.5t-97 -68.5l117 -201h78v-90h-144l-143 262h-111v-172h86v-90h-268zM741 698h76
q69 0 112.5 32t43.5 89q0 56 -41 85.5t-113 29.5h-78v-236z" />
    <glyph glyph-name="dollar.lin" horiz-adv-x="1126" 
d="M305 -178l60 205q-133 38 -217.5 116t-84.5 160q0 63 35 102t88 39q44 0 74.5 -31t30.5 -69q0 -62 -58 -104q23 -29 70.5 -55t110.5 -40l153 492q-63 31 -107.5 60.5t-88.5 72t-67 98.5t-23 123q0 149 126 253t328 104q8 0 25.5 -1t25.5 -1l58 190l114 -35l-53 -178
q114 -34 187 -102t73 -142q0 -63 -33.5 -101t-84.5 -38q-44 0 -74.5 30.5t-30.5 73.5q0 55 55 93q-51 45 -141 65l-145 -471q58 -28 95 -49t82.5 -54.5t71.5 -68t44 -83.5t18 -107q0 -164 -129.5 -266.5t-341.5 -102.5q-43 0 -66 2l-63 -215zM868 358q0 78 -51.5 131
t-152.5 103l-142 -463h39q135 0 221 61.5t86 167.5zM432 999q0 -72 47 -123t135 -98l138 439q-10 2 -31 2q-126 0 -207.5 -61.5t-81.5 -158.5z" />
    <glyph glyph-name="sterling.lin" horiz-adv-x="1148" 
d="M868 514h-329q-13 -209 -174 -321q76 -6 157 -33q10 -3 33 -11.5t33 -12t31 -9t36.5 -8t39.5 -4.5t50 -2q104 0 213 84l72 -86q-64 -72 -145 -104t-160 -32q-34 0 -63.5 3.5t-59.5 11.5t-47.5 13.5t-51 18t-46.5 17.5q-97 37 -195 39q-33 -47 -86 -76t-94 -29
q-45 0 -72.5 23.5t-27.5 60.5q0 56 62 94t179 39q89 74 129 151.5t45 172.5h-231l29 119h200q-2 17 -14 105.5t-12 140.5q0 215 122.5 354t323.5 139q131 0 229.5 -71.5t98.5 -167.5q0 -60 -31.5 -94.5t-79.5 -34.5q-44 0 -74 29.5t-30 72.5q0 22 10.5 44.5t24.5 33.5
q-8 21 -51.5 38t-98.5 17q-142 0 -221.5 -103t-79.5 -257q0 -47 11.5 -129.5t13.5 -116.5h358z" />
    <glyph glyph-name="Euro.lin" horiz-adv-x="1490" 
d="M993 764h-520q-24 -94 -27 -201h502l-30 -121h-465q26 -148 122 -237.5t252 -89.5q119 0 216 45.5t192 140.5l94 -92q-221 -234 -514 -234q-205 0 -345.5 128t-170.5 335h-231l30 127h195q3 103 26 197h-176l29 127h190q89 215 265.5 348t394.5 133q106 0 193.5 -32
t140 -82t80.5 -106.5t28 -109.5q0 -66 -36 -106.5t-87 -40.5q-49 0 -78.5 28.5t-29.5 71.5q0 28 16.5 54.5t42.5 42.5q-21 57 -89.5 100t-188.5 43q-158 0 -290 -95.5t-206 -252.5h504z" />
    <glyph glyph-name="yen.lin" horiz-adv-x="1292" 
d="M229 551l27 119h279l-203 549h-144l31 129h455l-31 -129h-156l191 -543l434 543h-154l31 129h463l-31 -129h-133l-465 -549h264l-26 -119h-342l-33 -139h344l-26 -119h-345l-38 -170h194l-29 -123h-530l29 123h188l39 170h-340l27 119h340l32 139h-342z" />
    <glyph glyph-name="cent.lin" horiz-adv-x="972" 
d="M516 246q-43 0 -63 4l-88 -289l-103 27l86 286q-107 42 -170 133.5t-63 217.5q0 132 66.5 251t182 194t250.5 81l66 225l104 -28l-61 -205q104 -21 169.5 -85.5t65.5 -137.5q0 -50 -30.5 -85.5t-77.5 -35.5q-35 0 -61.5 24.5t-26.5 67.5q0 19 11.5 41t31.5 33
q-39 49 -125 61l-197 -657q16 -2 49 -2q84 0 166.5 30t145.5 86l-4 -137q-137 -100 -324 -100zM260 631q0 -80 34.5 -139.5t94.5 -92.5l189 625q-133 -24 -225.5 -134t-92.5 -259z" />
    <glyph glyph-name="numbersign.lin" horiz-adv-x="1208" 
d="M1104 1346l-107 -379h252l-37 -127h-251l-97 -351h256l-35 -129h-258l-100 -360h-137l102 360h-256l-98 -360h-137l100 360h-250l35 129h252l98 351h-256l35 127h256l107 379h137l-109 -379h254l107 379h137zM569 842l-100 -357h260l98 357h-258z" />
    <glyph glyph-name="paragraph.lin" horiz-adv-x="1404" 
d="M403 0l31 135h182l82 348h-61q-231 0 -353 103t-122 282q0 207 162.5 343.5t420.5 136.5h773l-31 -136h-174l-250 -1077h174l-31 -135h-803zM766 127h147l252 1094h-145z" />
    <glyph glyph-name="section.lin" horiz-adv-x="1042" 
d="M147 678q0 91 84.5 152.5t223.5 89.5q-117 75 -117 192q0 112 103.5 186t265.5 74q200 0 299 -106q51 -54 51 -117q0 -44 -28 -75.5t-71 -31.5q-41 0 -67.5 28t-26.5 65q0 35 27 69q-9 14 -37 25q-69 26 -152 26q-92 0 -153.5 -36t-61.5 -89q0 -58 54.5 -95t181.5 -89
q56 -22 91 -38t77.5 -41.5t66.5 -51t41 -63t17 -80.5q0 -91 -84 -153t-227 -91q120 -77 120 -192q0 -111 -103 -186t-265 -75q-104 0 -181 30.5t-122 80.5q-50 56 -50 113q0 43 28.5 74.5t70.5 31.5q43 0 69.5 -27.5t26.5 -64.5q0 -38 -27 -68q4 -9 31 -22q67 -29 158 -29
q92 0 152.5 35t60.5 88q0 59 -55.5 97t-178.5 87q-55 22 -90.5 38t-78 42t-66.5 52t-41 63.5t-17 81.5zM641 834q-30 9 -74 28q-127 -24 -198.5 -70t-71.5 -108q0 -23 12.5 -43.5t30 -35.5t51 -32.5t59.5 -29t72 -29.5q39 -17 68 -27q129 22 202.5 68t73.5 109
q0 54 -57 91.5t-168 78.5z" />
    <glyph glyph-name="ordfeminine.lin" horiz-adv-x="718" 
d="M346 965q-84 0 -137 58.5t-53 156.5q0 134 84.5 232.5t197.5 98.5q61 0 104.5 -32.5t59.5 -83.5l29 108h92l-92 -379q-6 -30 -6 -51q0 -33 28 -33q37 0 72 82l49 -22q-21 -67 -57.5 -100t-81.5 -33q-49 0 -76 27t-29 73q-73 -102 -184 -102zM377 1053q81 0 136.5 72.5
t55.5 160.5q0 62 -32.5 98.5t-92.5 36.5q-77 0 -131.5 -70.5t-54.5 -162.5q0 -61 31.5 -98t87.5 -37zM96 748l23 90h563l-23 -90h-563z" />
    <glyph glyph-name="ordmasculine.lin" horiz-adv-x="690" 
d="M428 969q-107 0 -168 65t-61 164q0 126 84.5 219.5t210.5 93.5q106 0 167.5 -65.5t61.5 -163.5q0 -127 -84.5 -220t-210.5 -93zM119 748l24 90h486l-23 -90h-487zM432 1055q82 0 137.5 65t55.5 158q0 65 -38.5 105t-99.5 40q-81 0 -135.5 -64.5t-54.5 -158.5
q0 -65 38 -105t97 -40z" />
    <glyph glyph-name="degree.lin" horiz-adv-x="663" 
d="M432 985q-102 0 -161.5 64t-59.5 159q0 118 82 210.5t203 92.5q102 0 161.5 -64t59.5 -159q0 -118 -83 -210.5t-202 -92.5zM436 1079q72 0 124 63t52 142q0 59 -35 96t-88 37q-70 0 -122 -63.5t-52 -141.5q0 -59 34.5 -96t86.5 -37z" />
    <glyph glyph-name="percent.lin" horiz-adv-x="1419" 
d="M457 766q-111 0 -178.5 72.5t-67.5 181.5q0 134 92.5 239t224.5 105q112 0 180 -72t68 -182q0 -134 -93 -239t-226 -105zM147 -14l-73 69q61 58 312 307.5t349 346.5q103 100 236.5 233.5t268.5 269.5t153 154l73 -70q-50 -47 -160 -155.5t-263.5 -261t-237.5 -234.5
q-102 -100 -238 -236t-265 -266.5t-155 -156.5zM997 -16q-111 0 -178 72.5t-67 181.5q0 134 92.5 239t224.5 105q112 0 180 -72t68 -182q0 -134 -93.5 -239t-226.5 -105zM465 870q82 0 139.5 71.5t57.5 160.5q0 69 -39.5 113.5t-100.5 44.5q-83 0 -140.5 -71t-57.5 -159
q0 -71 39 -115.5t102 -44.5zM1006 88q82 0 139 71t57 160q0 69 -39 113.5t-100 44.5q-83 0 -141 -70.5t-58 -158.5q0 -71 39.5 -115.5t102.5 -44.5z" />
    <glyph glyph-name="perthousand.lin" horiz-adv-x="2107" 
d="M147 -14l-73 69q61 58 312 307.5t349 346.5q103 100 236.5 233.5t268.5 269.5t153 154l73 -70q-50 -47 -160 -155.5t-263.5 -261t-237.5 -234.5q-102 -100 -238 -236t-265 -266.5t-155 -156.5zM465 870q82 0 139.5 70.5t57.5 157.5q0 69 -39 112t-101 43
q-83 0 -140.5 -70t-57.5 -157q0 -69 39 -112.5t102 -43.5zM457 766q-112 0 -179 72t-67 180q0 132 93 236t224 104q112 0 180 -72t68 -180q0 -133 -93 -236.5t-226 -103.5zM1006 88q83 0 140.5 70t57.5 157q0 69 -39.5 112.5t-101.5 43.5q-84 0 -141.5 -69.5t-57.5 -157.5
q0 -69 39.5 -112.5t102.5 -43.5zM997 -16q-111 0 -178 71.5t-67 180.5q0 133 93 237.5t226 104.5q111 0 178.5 -72.5t67.5 -179.5q0 -133 -93.5 -237.5t-226.5 -104.5zM1694 88q82 0 140 70.5t58 156.5q0 69 -40 112.5t-103 43.5q-82 0 -139.5 -69.5t-57.5 -157.5
q0 -69 39.5 -112.5t102.5 -43.5zM1686 -16q-112 0 -179 72t-67 180q0 133 92 237.5t225 104.5q111 0 178.5 -72.5t67.5 -179.5q0 -133 -92 -237.5t-225 -104.5z" />
    <glyph glyph-name="quotedbl.lin" horiz-adv-x="673" 
d="M537 997l43 398q6 56 35.5 85t68.5 29q42 0 70 -28t28 -68q0 -25 -14 -57l-174 -359h-57zM219 997l43 398q6 55 35.5 84.5t69.5 29.5q43 0 70.5 -27.5t27.5 -68.5q0 -25 -14 -57l-175 -359h-57z" />
    <glyph glyph-name="quotesingle.lin" horiz-adv-x="358" 
d="M219 997l43 398q6 55 35.5 84.5t69.5 29.5q43 0 70.5 -27.5t27.5 -68.5q0 -25 -14 -57l-175 -359h-57z" />
    <glyph glyph-name="plus.lin" horiz-adv-x="849" 
d="M631 1024l-64 -270h277l-29 -125h-276l-70 -299h-129l70 299h-277l31 125h274l64 270h129z" />
    <glyph glyph-name="minus.lin" horiz-adv-x="858" 
d="M133 629l31 125h680l-29 -125h-682z" />
    <glyph glyph-name="divide.lin" horiz-adv-x="858" 
d="M133 629l31 125h680l-29 -125h-682zM555 870q-41 0 -71.5 31t-30.5 72t31 71.5t71 30.5t70 -30.5t30 -71.5t-30 -72t-70 -31zM424 309q-41 0 -70.5 30t-29.5 71t30.5 71.5t71.5 30.5q40 0 69 -30.5t29 -71.5t-30 -71t-70 -30z" />
    <glyph glyph-name="equal.lin" horiz-adv-x="849" 
d="M193 778l28 127h613l-29 -127h-612zM115 451l28 127h613l-29 -127h-612z" />
    <glyph glyph-name="multiply.lin" horiz-adv-x="858" 
d="M309 1008l166 -222l256 211l80 -100l-258 -213l168 -223l-107 -86l-168 223l-256 -211l-79 100l258 213l-166 224z" />
    <glyph glyph-name="less.lin" horiz-adv-x="837" 
d="M573 299l-436 348l17 68l585 342l62 -99l-494 -288l346 -277z" />
    <glyph glyph-name="greater.lin" horiz-adv-x="837" 
d="M201 305l-64 96l494 289l-346 279l80 94l436 -348l-17 -68z" />
    <glyph glyph-name="plusminus.lin" horiz-adv-x="858" 
d="M655 1141l-63 -277h276l-28 -127h-279l-63 -276h-129l63 276h-274l28 127h277l63 277h129zM29 170l28 127h678l-28 -127h-678z" />
    <glyph glyph-name="zero.tab" horiz-adv-x="1085" 
d="M1077 885q0 -179 -47 -346.5t-126 -291.5t-189 -199t-230 -75q-171 0 -267.5 131.5t-96.5 358.5q0 179 47 346t126 290.5t188.5 198t228.5 74.5q172 0 269 -130.5t97 -356.5zM279 469q0 -161 57.5 -257.5t167.5 -96.5q112 0 209.5 115t152 290.5t54.5 356.5
q0 161 -58 257.5t-168 96.5q-84 0 -162.5 -68.5t-133 -177t-87 -245t-32.5 -271.5z" />
    <glyph glyph-name="one.tab" horiz-adv-x="1085" 
d="M51 0l33 135h332l250 1061l-328 -80l-6 137l446 113l70 -35l-281 -1196h328l-31 -135h-813z" />
    <glyph glyph-name="two.tab" horiz-adv-x="1085" 
d="M217 131h555l49 209h140l-80 -340h-832l-26 68q80 202 214.5 339.5t370.5 270.5q170 97 244 177.5t74 178.5q0 89 -66 146t-172 57q-100 0 -167 -35t-95 -80q47 -44 47 -92q0 -44 -31 -75t-77 -31q-48 0 -79.5 34.5t-31.5 90.5q0 52 31 108t85.5 104.5t141 79.5t186.5 31
q171 0 278 -93t107 -241q0 -77 -27 -141.5t-85.5 -122.5t-125 -104t-171.5 -107q-186 -108 -292.5 -208t-164.5 -224z" />
    <glyph glyph-name="three.tab" horiz-adv-x="1085" 
d="M694 690q127 -37 203 -119t76 -200q0 -117 -69.5 -207t-179.5 -136t-239 -46q-182 0 -306 85t-124 195q0 56 31.5 95.5t83.5 39.5q45 0 72.5 -28.5t27.5 -67.5q0 -27 -16 -51.5t-43 -34.5q34 -41 107 -70.5t176 -29.5q145 0 233 73.5t88 188.5t-94 184.5t-254 69.5h-55
l30 135h60q189 0 294 73.5t105 186.5q0 98 -77.5 153.5t-190.5 55.5q-70 0 -126 -21.5t-83 -52.5q43 -24 43 -71q0 -41 -31 -69t-71 -28q-47 0 -78 32.5t-31 84.5q0 102 112.5 181t290.5 79q172 0 287 -94.5t115 -235.5q0 -74 -29 -135.5t-81 -103.5t-116.5 -69.5
t-140.5 -41.5z" />
    <glyph glyph-name="four.tab" horiz-adv-x="1085" 
d="M911 870l-80 -346h220l-31 -129h-217l-62 -266h179l-29 -129h-567l30 127h240l61 270h-583l-15 64l850 921l101 -90l-719 -770h395l66 283z" />
    <glyph glyph-name="five.tab" horiz-adv-x="1085" 
d="M442 -25q-155 0 -271 74.5t-116 171.5q0 51 32 86t79 35q42 0 71 -28t29 -70t-30 -66q72 -72 221 -72q173 0 282 105t109 252q0 117 -75.5 183.5t-201.5 66.5q-133 0 -272 -54l-72 54l209 635h684l-30 -142h-562l-135 -405q94 41 211 41q174 0 284.5 -101t110.5 -268
q0 -99 -40 -189.5t-111 -159t-177 -109t-229 -40.5z" />
    <glyph glyph-name="six.tab" horiz-adv-x="1085" 
d="M938 1198q-17 18 -53.5 32.5t-89.5 14.5q-148 0 -275 -127q-79 -77 -140.5 -205.5t-84.5 -265.5q56 82 148 141.5t208 59.5q169 0 274 -107t105 -266q0 -127 -65.5 -242.5t-178 -186.5t-241.5 -71q-92 0 -165.5 33t-121.5 86q-64 67 -92.5 158t-28.5 225q0 199 79.5 404
t221.5 338q163 153 365 153q130 0 221.5 -67.5t91.5 -159.5q0 -52 -33 -85.5t-77 -33.5q-40 0 -71.5 27.5t-31.5 72.5q0 42 35 72zM547 111q132 0 227.5 105t95.5 251q0 111 -65 180.5t-174 69.5q-90 0 -169 -50t-124 -129.5t-45 -164.5q0 -111 72 -189q67 -73 182 -73z" />
    <glyph glyph-name="seven.tab" horiz-adv-x="1085" 
d="M164 0l829 1217h-598l-51 -220h-141l82 351h880l35 -66l-860 -1282h-176z" />
    <glyph glyph-name="eight.tab" horiz-adv-x="1085" 
d="M936 1012q0 95 -69.5 159t-184.5 64q-119 0 -197.5 -69t-78.5 -175q0 -98 73 -164.5t178 -66.5q119 0 199 72.5t80 179.5zM997 375q0 -166 -129 -280.5t-329 -114.5q-192 0 -315.5 104.5t-123.5 263.5q0 148 96.5 246t243.5 129q-85 42 -135.5 121t-50.5 166
q0 144 118.5 251t309.5 107q173 0 291.5 -99t118.5 -249q0 -130 -82 -215.5t-219 -122.5q88 -37 147 -120t59 -187zM844 381q0 109 -79 181.5t-202 72.5q-136 0 -221.5 -78t-85.5 -197q0 -103 78.5 -174t206.5 -71q127 0 215 76.5t88 189.5z" />
    <glyph glyph-name="nine.tab" horiz-adv-x="1085" 
d="M274 150q48 -48 146 -48q148 0 272 127q79 77 142 207t86 266q-56 -82 -149 -142t-210 -60q-167 0 -272 107t-105 265q0 127 65 242.5t177.5 186.5t241.5 71q180 0 286 -119q65 -67 94 -157.5t29 -225.5q0 -199 -79.5 -403.5t-221.5 -337.5q-168 -154 -366 -154
q-129 0 -220.5 68t-91.5 160q0 53 32.5 86t78.5 33q39 0 69.5 -28t30.5 -73q0 -41 -35 -71zM666 1237q-132 0 -228 -105t-96 -251q0 -112 66 -181t180 -69q88 0 165.5 50t122 129.5t44.5 164.5q0 112 -70 188q-68 74 -184 74z" />
    <glyph glyph-name="period.tab" horiz-adv-x="542" 
d="M227 -18q-55 0 -92 37.5t-37 93.5q0 57 37 95t92 38q56 0 93.5 -38t37.5 -95q0 -55 -38 -93t-93 -38z" />
    <glyph glyph-name="comma.tab" horiz-adv-x="542" 
d="M-27 -297l-30 59q115 57 178 126.5t69 113.5q-40 13 -65 47.5t-25 67.5q0 54 36 90.5t91 36.5q57 0 95 -40.5t38 -105.5q0 -109 -103 -220.5t-284 -174.5z" />
    <glyph glyph-name="colon.tab" horiz-adv-x="542" 
d="M227 -18q-54 0 -90.5 37.5t-36.5 93.5q0 54 36.5 92.5t90.5 38.5q55 0 92 -38t37 -93q0 -56 -37 -93.5t-92 -37.5zM350 518q-54 0 -90.5 38.5t-36.5 92.5q0 56 36.5 93.5t90.5 37.5q55 0 92 -37.5t37 -93.5q0 -55 -37 -93t-92 -38z" />
    <glyph glyph-name="semicolon.tab" horiz-adv-x="542" 
d="M-25 -295l-30 59q115 57 177 125.5t68 112.5q-40 11 -65 45.5t-25 69.5q0 52 36 87.5t89 35.5q57 0 95 -39.5t38 -104.5q0 -106 -102 -217t-281 -174zM350 518q-54 0 -90.5 38.5t-36.5 92.5q0 56 36.5 93.5t90.5 37.5q55 0 92 -37.5t37 -93.5q0 -55 -37 -93t-92 -38z" />
    <glyph glyph-name="twodotleader.tab" horiz-adv-x="1085" 
d="M227 -18q-55 0 -92 37.5t-37 93.5q0 57 37 95t92 38q56 0 93.5 -38t37.5 -95q0 -55 -38 -93t-93 -38zM770 -18q-55 0 -92 37.5t-37 93.5q0 57 37 95t92 38q56 0 93.5 -38t37.5 -95q0 -55 -37.5 -93t-93.5 -38z" />
    <glyph glyph-name="periodcentered.tab" horiz-adv-x="542" 
d="M301 422q-55 0 -92 37.5t-37 93.5q0 57 37 95t92 38t92 -38t37 -95q0 -56 -37 -93.5t-92 -37.5z" />
    <glyph glyph-name="slash.tab" horiz-adv-x="1085" 
d="M-51 -432l-111 74l1307 1882l110 -76z" />
    <glyph glyph-name="bar.tab" horiz-adv-x="542" 
d="M209 -410v1909h127v-1909h-127z" />
    <glyph glyph-name="underscore.tab" horiz-adv-x="1085" 
d="M-115 -303l35 137h1137l-31 -137h-1141z" />
    <glyph glyph-name="dollar.tab" horiz-adv-x="1085" 
d="M59 303q0 63 35 102t88 39q44 0 75.5 -31t31.5 -69q0 -60 -60 -104q46 -63 168 -97l152 494q-58 32 -100.5 62.5t-84 74t-63.5 100t-22 123.5q0 149 120.5 250t315.5 101q7 0 23 -1t24 -1l55 190l117 -33l-53 -182q109 -34 178 -101t69 -141q0 -63 -33.5 -101t-82.5 -38
q-45 0 -76 30.5t-31 73.5q0 54 56 93q-45 45 -127 65l-144 -473q69 -36 112 -64t89.5 -72.5t69 -101.5t22.5 -129q0 -162 -124 -262t-329 -100q-41 0 -59 2l-63 -215l-117 33l57 207q-127 38 -208 116t-81 160zM831 350q0 80 -48 134t-140 104l-137 -461h35
q129 0 209.5 59.5t80.5 163.5zM428 1006q0 -72 43.5 -125.5t124.5 -100.5l131 441h-27q-119 -2 -195.5 -60t-76.5 -155z" />
    <glyph glyph-name="sterling.tab" horiz-adv-x="1085" 
d="M496 899q0 -49 12.5 -142.5t15.5 -123.5h328l-27 -119h-299q-13 -210 -168 -321q62 -6 142 -33l28 -10.5t28.5 -10t26 -8t29 -8t28.5 -5.5t34 -4t37 -1q94 0 198 84l74 -86q-118 -136 -291 -136q-24 0 -49.5 3.5t-42.5 6.5t-45.5 12t-38.5 12t-42.5 15.5t-37.5 14.5
q-98 37 -178 39q-33 -47 -85.5 -76t-92.5 -29q-45 0 -72.5 23.5t-27.5 60.5q0 56 61.5 94t177.5 39q88 73 124.5 150t41.5 174h-225l28 119h195q-1 11 -16 112t-15 154q0 209 117 341t311 132q126 0 220 -71t94 -168q0 -60 -31.5 -94.5t-79.5 -34.5q-43 0 -73.5 29.5
t-30.5 72.5q0 23 10 45t24 33q-6 21 -46 38t-91 17q-132 0 -206 -96.5t-74 -243.5z" />
    <glyph glyph-name="Euro.tab" horiz-adv-x="1085" 
d="M698 758h-288q-25 -95 -31 -187h274l-28 -120h-250q5 -158 64.5 -248t162.5 -90q144 0 264 184l101 -90q-166 -234 -383 -234q-164 0 -262.5 124.5t-102.5 348.5h-153l28 127h129q5 74 27 183h-115l31 127h121q75 219 214.5 354t303.5 135q140 0 220.5 -88t80.5 -209
q0 -71 -35 -113t-86 -42q-48 0 -76 29t-28 73q0 31 18.5 60t48.5 42q-38 111 -157 111q-105 0 -196 -98.5t-149 -257.5h281z" />
    <glyph glyph-name="yen.tab" horiz-adv-x="1085" 
d="M166 551l27 119h251l-149 549h-129l31 129h440l-31 -129h-160l134 -535l381 535h-164l30 129h449l-31 -129h-117l-415 -549h239l-26 -119h-308l-30 -139h307l-27 -119h-307l-39 -170h195l-29 -123h-532l30 123h189l39 170h-305l26 119h305l33 139h-307z" />
    <glyph glyph-name="cent.tab" horiz-adv-x="1085" 
d="M928 483l-6 -137q-143 -100 -344 -100q-44 0 -64 2l-86 -287l-104 27l86 284q-117 41 -185.5 133t-68.5 220q0 132 69.5 251t190 193.5t260.5 81.5l67 225l103 -28l-62 -203q114 -20 185 -85t71 -140q0 -50 -30.5 -85.5t-77.5 -35.5q-35 0 -61.5 24.5t-26.5 67.5
q0 19 12 41t31 33q-44 51 -146 63l-196 -659q16 -2 47 -2q89 0 178 30t158 86zM301 631q0 -83 40.5 -144.5t109.5 -93.5l188 631q-139 -24 -238.5 -135t-99.5 -258z" />
    <glyph glyph-name="numbersign.tab" horiz-adv-x="1085" 
d="M1026 1346l-106 -379h215l-35 -127h-217l-97 -351h222l-35 -129h-223l-101 -360h-135l100 360h-225l-98 -360h-135l100 360h-213l35 129h215l98 351h-221l35 127h221l106 379h136l-107 -379h223l107 379h135zM522 842l-98 -357h229l99 357h-230z" />
    <glyph glyph-name="paragraph.tab" horiz-adv-x="1085" 
d="M453 135l82 350h-13q-172 0 -279.5 102t-107.5 273q0 218 158.5 353t406.5 135h531l-31 -136h-145l-250 -1077h145l-28 -135h-668l31 135h168zM575 127h99l254 1094h-99z" />
    <glyph glyph-name="section.tab" horiz-adv-x="1085" 
d="M150 678q0 90 87 151t230 89q-125 78 -125 194q0 111 108 185.5t277 74.5q211 0 317 -106q54 -57 54 -117q0 -44 -28 -75.5t-71 -31.5q-41 0 -68.5 28t-27.5 65q0 38 31 69q-30 20 -45 25q-72 26 -164 26q-100 0 -166.5 -36t-66.5 -89q0 -25 13 -47t31 -38t55 -34.5
t67 -31t85 -33.5q60 -23 96 -38t83 -41t72.5 -51.5t44 -63t18.5 -80.5q0 -91 -87 -152t-235 -92q64 -38 96.5 -84t32.5 -108q0 -111 -108 -186t-277 -75q-214 0 -319 109q-51 54 -51 115q0 44 27.5 75t70.5 31q41 0 68.5 -27.5t27.5 -64.5q0 -39 -29 -68q6 -8 37 -22
q71 -29 172 -29q100 0 166 35t66 88q0 59 -59.5 97.5t-192.5 86.5q-59 22 -96.5 38t-83 42t-71.5 52t-44 63.5t-18 81.5zM664 834q-17 5 -44 14.5t-34 11.5q-133 -22 -209 -68t-76 -108q0 -23 13.5 -43.5t32.5 -35.5t54.5 -32.5t64 -29t77.5 -29.5q44 -18 71 -27
q136 22 213.5 68t77.5 109q0 54 -61 91t-180 79z" />
    <glyph glyph-name="degree.tab" horiz-adv-x="1085" 
d="M618 786q-142 0 -225.5 89t-83.5 221q0 80 31.5 157.5t86 137.5t133 96.5t165.5 36.5q142 0 225.5 -89t83.5 -221q0 -107 -53.5 -205.5t-150.5 -160.5t-212 -62zM627 885q124 0 211.5 98t87.5 225q0 97 -58.5 157t-150.5 60q-124 0 -211.5 -98t-87.5 -225
q0 -98 58 -157.5t151 -59.5z" />
    <glyph glyph-name="percent.tab" horiz-adv-x="1085" 
d="M117 -16l-76 63l528 660l523 663l71 -63l-524 -658zM373 764q-85 0 -137 59t-52 158q0 101 36.5 189t100.5 141t140 53q82 0 133 -58.5t51 -156.5q0 -157 -79 -271t-193 -114zM383 868q42 0 77 45t53.5 107.5t18.5 122.5q0 55 -21.5 87t-64.5 32q-62 0 -106.5 -90.5
t-44.5 -184.5q0 -54 22.5 -86.5t65.5 -32.5zM750 -16q-84 0 -135.5 59t-51.5 158q0 156 80 269.5t195 113.5q82 0 133 -58.5t51 -156.5q0 -157 -79 -271t-193 -114zM760 88q62 0 106.5 89.5t44.5 184.5q0 55 -22 87t-66 32q-42 0 -77 -45t-53.5 -107.5t-18.5 -121.5
q0 -55 21.5 -87t64.5 -32z" />
    <glyph glyph-name="quotedbl.tab" horiz-adv-x="1085" 
d="M377 905l55 484q6 58 38.5 89t74.5 31q44 0 71 -27.5t27 -70.5q0 -28 -16 -65l-193 -441h-57zM776 905l55 484q6 58 38.5 89t74.5 31q44 0 71 -27.5t27 -70.5q0 -28 -16 -65l-192 -441h-58z" />
    <glyph glyph-name="quotesingle.tab" horiz-adv-x="542" 
d="M303 905l55 484q6 58 38.5 89t74.5 31q44 0 71 -27.5t27 -70.5q0 -28 -16 -65l-193 -441h-57z" />
    <glyph glyph-name="plus.tab" horiz-adv-x="1085" 
d="M762 1067l-74 -311h318l-31 -127h-316l-79 -340h-129l79 340h-317l31 127h315l74 311h129z" />
    <glyph glyph-name="minus.tab" horiz-adv-x="1085" 
d="M209 629l29 127h763l-30 -127h-762z" />
    <glyph glyph-name="divide.tab" horiz-adv-x="1085" 
d="M209 629l29 127h763l-30 -127h-762zM680 911q-41 0 -70.5 30.5t-29.5 72.5q0 41 30.5 71.5t71.5 30.5q40 0 69 -30.5t29 -71.5t-30 -72t-70 -31zM528 268q-40 0 -70 31t-30 72t30.5 70.5t71.5 29.5q40 0 69.5 -29.5t29.5 -70.5t-30.5 -72t-70.5 -31z" />
    <glyph glyph-name="equal.tab" horiz-adv-x="1085" 
d="M272 799l29 129h696l-28 -129h-697zM188 430l29 127h694l-28 -127h-695z" />
    <glyph glyph-name="multiply.tab" horiz-adv-x="1085" 
d="M383 1059l205 -273l299 250l80 -100l-301 -250l204 -268l-106 -86l-205 266l-301 -250l-78 101l303 251l-207 273z" />
    <glyph glyph-name="less.tab" horiz-adv-x="1085" 
d="M721 254l-508 399l10 49l682 398l62 -94l-568 -336l402 -324z" />
    <glyph glyph-name="greater.tab" horiz-adv-x="1085" 
d="M481 1110l508 -401l-10 -50l-684 -395l-59 92l567 336l-402 324z" />
    <glyph glyph-name="plusminus.tab" horiz-adv-x="1085" 
d="M782 1202l-73 -317h319l-31 -127h-317l-74 -318h-129l74 318h-315l28 127h316l73 317h129zM92 143l27 127h762l-29 -127h-760z" />
    <glyph glyph-name="zero.idx_P2D" horiz-adv-x="2252" 
d="M1126 1628q167 0 321.5 -51.5t278 -145.5t216 -219t142.5 -279t50 -319q0 -137 -35.5 -268t-100 -242.5t-157 -205t-203 -159t-242 -102t-270.5 -36.5q-208 0 -395 80.5t-321 216.5t-212.5 323t-78.5 393t78.5 393t212.5 323.5t321 217t395 80.5zM1126 1534
q-250 0 -457.5 -124t-325.5 -335t-118 -461q0 -187 69.5 -356.5t189 -293t287 -196.5t355.5 -73t355.5 73t287 196.5t189.5 293t70 356.5t-70 357t-189.5 293.5t-287 196.5t-355.5 73zM1124 131q-163 0 -276 140t-113 356q0 220 113.5 358.5t279.5 138.5q163 0 276.5 -139
t113.5 -356q0 -219 -114 -358.5t-280 -139.5zM1126 254q116 0 185 104t69 269q0 166 -69 270t-185 104t-186 -103t-70 -269t70 -270.5t186 -104.5z" />
    <glyph glyph-name="one.idx_P2D" horiz-adv-x="2252" 
d="M1126 1628q167 0 321.5 -51.5t278 -145.5t216 -219t142.5 -279t50 -319q0 -137 -35.5 -268t-100 -242.5t-157 -205t-203 -159t-242 -102t-270.5 -36.5q-208 0 -395 80.5t-321 216.5t-212.5 323t-78.5 393t78.5 393t212.5 323.5t321 217t395 80.5zM1126 1534
q-250 0 -457.5 -124t-325.5 -335t-118 -461q0 -187 69.5 -356.5t189 -293t287 -196.5t355.5 -73t355.5 73t287 196.5t189.5 293t70 356.5t-70 357t-189.5 293.5t-287 196.5t-355.5 73zM1413 150h-563v118h217v701l-205 -43l-26 116l299 68h65v-842h213v-118z" />
    <glyph glyph-name="two.idx_P2D" horiz-adv-x="2252" 
d="M1126 1628q167 0 321.5 -51.5t278 -145.5t216 -219t142.5 -279t50 -319q0 -137 -35.5 -268t-100 -242.5t-157 -205t-203 -159t-242 -102t-270.5 -36.5q-208 0 -395 80.5t-321 216.5t-212.5 323t-78.5 393t78.5 393t212.5 323.5t321 217t395 80.5zM1126 1534
q-250 0 -457.5 -124t-325.5 -335t-118 -461q0 -187 69.5 -356.5t189 -293t287 -196.5t355.5 -73t355.5 73t287 196.5t189.5 293t70 356.5t-70 357t-189.5 293.5t-287 196.5t-355.5 73zM807 887q0 52 31 100q38 61 115.5 99t179.5 38q131 0 223 -76.5t92 -195.5
q0 -45 -13.5 -84.5t-32 -68t-53.5 -60.5t-62.5 -51.5t-74.5 -50.5q-208 -137 -270 -275h410v154h114v-266h-649l-37 59q26 75 66 139.5t91.5 116t93.5 85.5t99 73q49 34 74.5 54t54 49.5t40.5 60t12 67.5q0 65 -55 108.5t-134 43.5q-54 0 -99.5 -15.5t-68.5 -38.5l-12 -14
q22 -12 34.5 -33.5t12.5 -44.5q0 -36 -25 -61t-61 -25q-46 0 -71 32t-25 81z" />
    <glyph glyph-name="three.idx_P2D" horiz-adv-x="2252" 
d="M1126 1628q167 0 321.5 -51.5t278 -145.5t216 -219t142.5 -279t50 -319q0 -137 -35.5 -268t-100 -242.5t-157 -205t-203 -159t-242 -102t-270.5 -36.5q-208 0 -395 80.5t-321 216.5t-212.5 323t-78.5 393t78.5 393t212.5 323.5t321 217t395 80.5zM1126 1534
q-250 0 -457.5 -124t-325.5 -335t-118 -461q0 -187 69.5 -356.5t189 -293t287 -196.5t355.5 -73t355.5 73t287 196.5t189.5 293t70 356.5t-70 357t-189.5 293.5t-287 196.5t-355.5 73zM788 350q0 42 27 72.5t66 30.5q35 0 59.5 -25.5t24.5 -60.5q0 -41 -29 -60
q22 -25 73.5 -41t112.5 -16q91 0 151 46.5t60 115.5q0 101 -104 147q-69 29 -170 29h-43v112h49q105 0 172 45q72 50 72 127q0 65 -52.5 99.5t-134.5 34.5q-105 0 -153 -45q28 -21 28 -60q0 -34 -25.5 -59t-60.5 -25t-62.5 29.5t-27.5 75.5q0 47 35 88q37 48 107 79t165 31
q134 0 225 -68.5t91 -177.5q0 -56 -28.5 -104.5t-76.5 -79.5q-52 -34 -98 -41q48 -12 94 -37q131 -73 131 -206q0 -120 -99 -195.5t-247 -75.5q-87 0 -163.5 30t-120.5 79q-48 51 -48 106z" />
    <glyph glyph-name="four.idx_P2D" horiz-adv-x="2252" 
d="M1126 1628q167 0 321.5 -51.5t278 -145.5t216 -219t142.5 -279t50 -319q0 -137 -35.5 -268t-100 -242.5t-157 -205t-203 -159t-242 -102t-270.5 -36.5q-208 0 -395 80.5t-321 216.5t-212.5 323t-78.5 393t78.5 393t212.5 323.5t321 217t395 80.5zM1126 1534
q-250 0 -457.5 -124t-325.5 -335t-118 -461q0 -187 69.5 -356.5t189 -293t287 -196.5t355.5 -73t355.5 73t287 196.5t189.5 293t70 356.5t-70 357t-189.5 293.5t-287 196.5t-355.5 73zM1006 150v108h170v172h-443l-31 57l510 648l99 -74l-422 -529h287v185l127 51v-233h157
v-109h-157v-166h122v-110h-419z" />
    <glyph glyph-name="five.idx_P2D" horiz-adv-x="2252" 
d="M1126 1628q167 0 321.5 -51.5t278 -145.5t216 -219t142.5 -279t50 -319q0 -137 -35.5 -268t-100 -242.5t-157 -205t-203 -159t-242 -102t-270.5 -36.5q-208 0 -395 80.5t-321 216.5t-212.5 323t-78.5 393t78.5 393t212.5 323.5t321 217t395 80.5zM1126 1534
q-250 0 -457.5 -124t-325.5 -335t-118 -461q0 -187 69.5 -356.5t189 -293t287 -196.5t355.5 -73t355.5 73t287 196.5t189.5 293t70 356.5t-70 357t-189.5 293.5t-287 196.5t-355.5 73zM1118 131q-136 0 -228.5 56.5t-92.5 125.5q0 40 24.5 66.5t65.5 26.5q37 0 61.5 -25.5
t24.5 -58.5q0 -28 -15 -43q15 -11 60.5 -21t93.5 -10q97 0 153 59t56 152q0 81 -53.5 133.5t-153.5 52.5q-52 0 -117 -13t-102 -32l-57 33l45 473h510v-125h-402l-24 -238q69 21 166 21q137 0 228 -83t91 -222q0 -148 -95 -238t-239 -90z" />
    <glyph glyph-name="six.idx_P2D" horiz-adv-x="2252" 
d="M1126 1628q167 0 321.5 -51.5t278 -145.5t216 -219t142.5 -279t50 -319q0 -137 -35.5 -268t-100 -242.5t-157 -205t-203 -159t-242 -102t-270.5 -36.5q-208 0 -395 80.5t-321 216.5t-212.5 323t-78.5 393t78.5 393t212.5 323.5t321 217t395 80.5zM1126 1534
q-250 0 -457.5 -124t-325.5 -335t-118 -461q0 -187 69.5 -356.5t189 -293t287 -196.5t355.5 -73t355.5 73t287 196.5t189.5 293t70 356.5t-70 357t-189.5 293.5t-287 196.5t-355.5 73zM1339 862q-39 0 -62.5 24.5t-23.5 57.5q0 24 11 43q-48 21 -97 21q-112 0 -189 -105.5
t-81 -273.5q38 51 104.5 83.5t139.5 32.5q144 0 238 -86.5t94 -216.5q0 -131 -97.5 -221t-242.5 -90q-152 0 -252 100q-113 110 -113 347q0 134 33 240.5t89.5 172t127.5 99.5t151 34q102 0 177 -45q79 -53 79 -127q0 -44 -24.5 -67t-61.5 -23zM911 444q0 -79 66 -139
q67 -57 158 -57q86 0 144 55t58 137q0 83 -59.5 136t-151.5 53q-91 0 -153 -53.5t-62 -131.5z" />
    <glyph glyph-name="seven.idx_P2D" horiz-adv-x="2252" 
d="M1126 1628q167 0 321.5 -51.5t278 -145.5t216 -219t142.5 -279t50 -319q0 -137 -35.5 -268t-100 -242.5t-157 -205t-203 -159t-242 -102t-270.5 -36.5q-208 0 -395 80.5t-321 216.5t-212.5 323t-78.5 393t78.5 393t212.5 323.5t321 217t395 80.5zM1126 1534
q-250 0 -457.5 -124t-325.5 -335t-118 -461q0 -187 69.5 -356.5t189 -293t287 -196.5t355.5 -73t355.5 73t287 196.5t189.5 293t70 356.5t-70 357t-189.5 293.5t-287 196.5t-355.5 73zM1077 150h-141l401 843h-391v-168h-121v281h639l29 -64z" />
    <glyph glyph-name="eight.idx_P2D" horiz-adv-x="2252" 
d="M1126 1628q167 0 321.5 -51.5t278 -145.5t216 -219t142.5 -279t50 -319q0 -137 -35.5 -268t-100 -242.5t-157 -205t-203 -159t-242 -102t-270.5 -36.5q-208 0 -395 80.5t-321 216.5t-212.5 323t-78.5 393t78.5 393t212.5 323.5t321 217t395 80.5zM1126 1534
q-250 0 -457.5 -124t-325.5 -335t-118 -461q0 -187 69.5 -356.5t189 -293t287 -196.5t355.5 -73t355.5 73t287 196.5t189.5 293t70 356.5t-70 357t-189.5 293.5t-287 196.5t-355.5 73zM1126 135q-157 0 -252.5 77.5t-95.5 195.5q0 83 57 149.5t140 87.5q-82 24 -129 82.5
t-47 128.5q0 118 92.5 191t234.5 73q139 0 232.5 -73t93.5 -191q0 -70 -47.5 -128.5t-128.5 -82.5q84 -21 140.5 -87t56.5 -150q0 -117 -96.5 -195t-250.5 -78zM1126 692q77 0 133 46t56 112q0 68 -54.5 113t-134.5 45q-83 0 -136.5 -44.5t-53.5 -113.5q0 -66 56 -112
t134 -46zM1126 250q93 0 152 48.5t59 119.5q0 70 -61.5 121t-149.5 51q-90 0 -151.5 -51t-61.5 -121q0 -72 59.5 -120t153.5 -48z" />
    <glyph glyph-name="nine.idx_P2D" horiz-adv-x="2252" 
d="M1126 1628q167 0 321.5 -51.5t278 -145.5t216 -219t142.5 -279t50 -319q0 -137 -35.5 -268t-100 -242.5t-157 -205t-203 -159t-242 -102t-270.5 -36.5q-208 0 -395 80.5t-321 216.5t-212.5 323t-78.5 393t78.5 393t212.5 323.5t321 217t395 80.5zM1126 1534
q-250 0 -457.5 -124t-325.5 -335t-118 -461q0 -187 69.5 -356.5t189 -293t287 -196.5t355.5 -73t355.5 73t287 196.5t189.5 293t70 356.5t-70 357t-189.5 293.5t-287 196.5t-355.5 73zM827 303q0 43 24.5 66.5t59.5 23.5q39 0 62.5 -24.5t23.5 -57.5q0 -26 -12 -41
q36 -22 105 -22q112 0 188.5 102.5t79.5 270.5q-38 -49 -105 -81t-139 -32q-145 0 -237.5 85.5t-92.5 217.5q0 133 96.5 223t243.5 90q150 0 248 -98q115 -112 115 -350q0 -134 -32 -240t-87.5 -171.5t-127 -99.5t-153.5 -34q-66 0 -125 21.5t-94 58.5q-41 41 -41 92z
M1343 807q0 83 -63 143q-66 60 -158 60q-87 0 -145.5 -56.5t-58.5 -138.5q0 -87 58.5 -139.5t153.5 -52.5q89 0 151 53t62 131z" />
    <glyph glyph-name="space.tab" horiz-adv-x="542" 
 />
    <glyph glyph-name="NUL" 
 />
    <glyph glyph-name="hcoslug" horiz-adv-x="1421" 
d="M559 37h-53q0 -25 20 -25q16 0 19 15h14q-7 -29 -37 -29q-20 0 -31.5 11t-11.5 30t12 31t29 12q42 0 39 -45zM520 72q-14 0 -14 -25h29q0 25 -15 25zM399 160q17 0 17 33q0 30 -17 30q-16 0 -16 -30q0 -33 16 -33zM430 8q16 0 16 33q0 31 -16 31t-16 -31q0 -33 16 -33z
M430 -2q-19 0 -31 11.5t-12 31.5q0 19 12 30t31 11t31 -11t12 -30t-12 -31t-31 -12zM1118 8q17 0 17 33q0 31 -17 31q-16 0 -16 -31q0 -33 16 -33zM1118 -2q-19 0 -31 11.5t-12 31.5q0 19 12 30t31 11t31 -11t12 -30t-12 -31t-31 -12zM256 152v14h14v84h-14v14h104v-41h-16
q-3 17 -7 22t-15 5h-25v-37h8q7 0 8.5 2.5t3.5 13.5h15v-47h-15q-7 16 -12 17h-8v-33h20v-14h-61zM399 150q-19 0 -31 11.5t-12 31.5q0 18 12 29t31 11t31 -11t12 -29q0 -19 -12 -31t-31 -12zM1319 -205v1639h-1217v-1639h1217zM1020 -2q-28 0 -43.5 15.5t-15.5 41.5
q0 27 16.5 44.5t38.5 17.5q18 0 33 -15l2 13h16v-45h-16q-6 19 -12.5 25.5t-18.5 6.5q-29 0 -29 -45t33 -45q25 0 29 33h16q-3 -47 -49 -47zM762 164q14 0 14 26q0 27 -14 27q-17 0 -17 -27q0 -26 17 -26zM565 0v14h13v52h-15v14h15v2q0 19 11 29t27 10q11 0 19 -4l20 4
v-107h13v-14h-47v14h10v52h-29v-52h10v-14h-47zM754 0v14h12v52h-12v14h37v-21q9 23 24 23q16 0 16 -16q0 -15 -14 -15q-12 0 -12 12v3q-6 0 -14 -19v-33h16v-14h-53zM721 150v106h-12v14h36v-55q6 18 27 18q14 0 22.5 -11t8.5 -29q0 -16 -8 -29.5t-25 -13.5q-19 0 -29 16
l-8 -16h-12zM819 154q10 0 12.5 -8t-2.5 -13q14 0 17 17l-33 67h-10v14h51v-14h-12l18 -41l17 41h-11v14h35v-14h-10l-27 -63q-13 -33 -37 -33q-22 0 -22 18q0 15 14 15zM506 877q0 26 15 42.5t40 16.5q26 0 43 -21.5t17 -56.5q0 -46 -37 -102q-30 29 -42.5 42.5t-24 35
t-11.5 43.5zM618 152v28h15q12 -18 24 -18q11 0 11 8q0 6 -25 13t-25 26q0 10 8 17t21 7q16 0 23 -10l4 10h12v-26h-14q-10 14 -21 14q-10 0 -10 -8q0 -6 24.5 -12t24.5 -25q0 -11 -7.5 -18.5t-20.5 -7.5q-12 0 -27 10l-2 -8h-15zM535 449q-46 0 -76.5 31.5t-30.5 78.5
q0 49 33 82q72 -68 151 -168q-31 -24 -77 -24zM561 250l25 4v-23h26v-14h-26v-41q0 -10 8 -10q7 0 10 14l10 -4q-6 -26 -28 -26q-25 0 -25 26v41h-14v14h14v19zM877 627q-53 -31 -95 -86q39 -45 68 -64.5t59 -19.5q54 0 88 59l15 -4q-3 -87 -49.5 -140t-114.5 -53
q-46 0 -84.5 20.5t-89.5 72.5q-84 -93 -213 -93q-93 0 -158 55t-65 136q0 129 168 186q-34 35 -49 67t-15 75q0 69 62 121.5t161 52.5q90 0 142.5 -46.5t52.5 -105.5q0 -37 -19 -69q43 2 70.5 -17t30.5 -59q53 78 123 78q43 0 72.5 -30t29.5 -77t-29.5 -79t-72.5 -32
q-58 0 -88 52zM449 152v14h12v51h-12v14h34v-20q9 22 29 22q25 0 25 -28v-39h12v-14h-45v14h8v37q0 14 -12 14q-15 0 -15 -20v-31h9v-14h-45zM913 68h37v-15h-10q-6 -12 -18 -28q7 -11 12 -11t8 11l10 -2q-7 -25 -26 -25q-15 0 -25 12q-12 -12 -31 -12q-36 0 -36 29
q0 23 26 30q-12 12 -12 25q0 11 10.5 20t24.5 9q13 0 20.5 -7.5t7.5 -17.5q0 -16 -22 -25q5 -5 12.5 -13.5t11.5 -12.5q11 11 13 18h-13v15zM879 12q7 0 16 6q-20 24 -29 33q-8 -8 -8 -18q0 -9 6 -15t15 -6zM602 86v-6h29v10q-13 0 -13 12l3 7q-3 2 -7 2q-12 0 -12 -25z
M870 88q0 -7 13 -20q10 7 10 18q0 12 -12 12q-11 0 -11 -10zM639 700q61 42 86 70q23 -23 29 -49t-2 -52.5t-29 -62.5q-68 78 -84 94zM750 37h-54q0 -25 21 -25q15 0 18 15h15q-7 -29 -37 -29q-20 0 -31.5 11t-11.5 30t12 31t29 12q42 0 39 -45zM711 72q-15 0 -15 -25h29
q0 25 -14 25zM254 0v14h16v84h-16v15h59v-15h-16v-32h45v32h-16v15h59v-15h-16v-84h16v-14h-59v14h16v37h-45v-37h16v-14h-59zM1180 27q14 0 14 -15q0 -14 -14 -14q-15 0 -15 14q0 6 4.5 10.5t10.5 4.5z" />
    <glyph glyph-name="i.dot" horiz-adv-x="604" 
d="M418 1040q-43 0 -74 31t-31 74t31 73.5t74 30.5q41 0 71.5 -30.5t30.5 -73.5t-30.5 -74t-71.5 -31zM305 -14q-79 0 -125.5 45t-46.5 119q0 28 17 94l137 504h-170l33 124h313l-172 -634q-15 -62 -15 -86q0 -30 16.5 -47t43.5 -17q34 0 62.5 31.5t56.5 105.5l71 -24
q-69 -215 -221 -215z" />
    <glyph glyph-name="zero.num" horiz-adv-x="722" 
d="M371 559q-111 0 -173.5 78t-62.5 213q0 126 43.5 235t122 175.5t174.5 66.5q110 0 173 -78.5t63 -212.5q0 -126 -43.5 -235t-122 -175.5t-174.5 -66.5zM377 655q63 0 115.5 57t81 144t28.5 180q0 91 -33.5 143t-99.5 52q-64 0 -116.5 -57t-80.5 -144t-28 -180
q0 -91 33 -143t100 -52z" />
    <glyph glyph-name="one.num" horiz-adv-x="722" 
d="M104 573l23 97h203l125 538l-201 -43l-4 97l280 63l52 -25l-146 -630h199l-21 -97h-510z" />
    <glyph glyph-name="two.num" horiz-adv-x="722" 
d="M102 573l-20 50q47 114 134.5 191.5t217.5 146.5q90 47 131 86t41 88q0 44 -36 71t-95 27q-97 0 -135 -47q20 -27 20 -51q0 -30 -19 -50t-48 -20q-31 0 -50.5 22t-19.5 56q0 71 75.5 128.5t184.5 57.5q103 0 168.5 -52t65.5 -140q0 -42 -17.5 -78t-55 -68t-74 -55
t-95.5 -55q-102 -55 -163 -104.5t-95 -112.5h313l27 116h92l-47 -207h-500z" />
    <glyph glyph-name="three.num" horiz-adv-x="722" 
d="M373 563q-101 0 -177.5 47t-76.5 121q0 31 20 54.5t49 23.5t47.5 -19t18.5 -47q0 -12 -7 -25.5t-16 -19.5q13 -19 51 -32t93 -13q78 0 124 36t46 95q0 47 -49.5 85t-128.5 38h-41l22 97h41q94 0 150.5 35.5t56.5 90.5q0 49 -41 76t-104 27q-67 0 -97 -27q15 -11 15 -32
q0 -29 -19.5 -47.5t-46.5 -18.5q-30 0 -50 20.5t-20 53.5q0 56 63.5 100.5t170.5 44.5t174.5 -55t67.5 -131q0 -82 -59 -132t-156 -59q77 -20 118 -65t41 -107q0 -100 -83 -157.5t-197 -57.5z" />
    <glyph glyph-name="four.num" horiz-adv-x="722" 
d="M418 657l33 134h-336l-15 49l488 499l65 -61l-403 -406h221l37 142l106 39l-41 -174h123l-22 -88h-121l-31 -134h96l-20 -84h-328l19 84h129z" />
    <glyph glyph-name="five.num" horiz-adv-x="722" 
d="M338 559q-94 0 -161.5 44t-67.5 99q0 33 19.5 54.5t49.5 21.5t49 -18t19 -47q0 -17 -13 -33q43 -29 113 -29q87 0 148 52.5t61 123.5q0 60 -37.5 93.5t-105.5 33.5q-80 0 -156 -32l-55 39l114 354h408l-23 -101h-321l-66 -198q65 26 138 26q88 0 148 -56t60 -148
q0 -114 -94.5 -196.5t-226.5 -82.5z" />
    <glyph glyph-name="six.num" horiz-adv-x="722" 
d="M213 627q-70 73 -70 204q0 114 44.5 222.5t121.5 179.5q103 96 228 96q81 0 136.5 -40t55.5 -95q0 -30 -21 -52t-49 -22q-27 0 -46 19t-19 47q0 21 14 35q-24 20 -69 20q-89 0 -166 -74q-42 -40 -75 -102t-46 -127q81 104 203 104q98 0 161.5 -59t63.5 -147
q0 -114 -86 -195.5t-205 -81.5q-108 0 -176 68zM389 653q77 0 129.5 51.5t52.5 122.5q0 55 -37.5 91t-99.5 36q-75 0 -129.5 -52.5t-54.5 -117.5q0 -55 37 -92q39 -39 102 -39z" />
    <glyph glyph-name="seven.num" horiz-adv-x="722" 
d="M203 573l446 652h-313l-31 -131h-98l53 221h498l26 -53l-460 -689h-121z" />
    </font>
</defs>
</svg>
