<?xml version="1.0" standalone="no"?>
<!DOCTYPE svg PUBLIC "-//W3C//DTD SVG 1.1//EN" "http://www.w3.org/Graphics/SVG/1.1/DTD/svg11.dtd" >
<svg xmlns="http://www.w3.org/2000/svg" xmlns:xlink="http://www.w3.org/1999/xlink" version="1.1">
<metadata>
Created by FontForge 20170731 at Mon Jul 26 23:56:49 2021
 By Aleksey,,,
Copyright (c) 2014 Monotype GmbH. All rights reserved.
</metadata>
<defs>
<font id="AvenirLTPro-Black" horiz-adv-x="532" >
  <font-face 
    font-family="Avenir LT Pro 65 Medium"
    font-weight="750"
    font-stretch="normal"
    units-per-em="2048"
    panose-1="2 11 8 3 2 2 3 2 2 4"
    ascent="1548"
    descent="-500"
    x-height="995"
    cap-height="1450"
    bbox="-330 -532 2324 1952"
    underline-thickness="102"
    underline-position="-307"
    unicode-range="U+000D-FB02"
  />
<missing-glyph horiz-adv-x="1048" 
d="M0 1470h1049v-1470h-1049v1470zM102 102h844v1264h-844v-1264zM530 1247q113 0 183.5 -74t70.5 -194q0 -77 -29 -129.5t-104 -118.5q-73 -66 -84 -102q-12 -30 -12 -150h-94l-4 39q0 107 26.5 163.5t104.5 129.5q46 43 69 79.5t23 80.5q0 72 -47.5 123t-108.5 51
q-69 0 -112.5 -50t-55.5 -145l-102 17q12 137 83.5 208.5t192.5 71.5zM455 240v137h114v-137h-114z" />
    <glyph glyph-name="IJ" unicode="IJ" horiz-adv-x="1619" 
d="M143 1450h320v-1450h-320v1450zM1174 1450h319v-977q0 -264 -115 -387t-348 -123q-181 0 -295 86t-149 252l293 72q7 -55 49 -91t94 -36q79 0 115.5 61t36.5 203v940z" />
    <glyph glyph-name="ij" unicode="ij" horiz-adv-x="1048" 
d="M266 1487q74 0 126 -52.5t52 -125.5t-52 -126t-126 -53q-73 0 -125.5 53.5t-52.5 125.5q0 75 52.5 126.5t125.5 51.5zM113 995h307v-995h-307v995zM782 1487q74 0 126.5 -52.5t52.5 -125.5t-52.5 -126t-126.5 -53q-73 0 -125.5 53.5t-52.5 125.5q0 73 52 125.5t126 52.5z
M629 995h307v-1079q0 -206 -90.5 -307t-278.5 -101q-88 0 -143 17l16 272q40 -18 80 -18q56 0 82.5 45.5t26.5 146.5v1024z" />
    <glyph glyph-name="napostrophe" unicode="&#x22;n" horiz-adv-x="1175" 
d="M-70 1450h275l-164 -408h-201zM698 1020q193 0 281 -107t88 -352v-561h-307v508q0 133 -39 187.5t-121 54.5q-93 0 -138.5 -59t-45.5 -185v-506h-307v995h294v-135h5q41 75 118 117.5t172 42.5z" />
    <glyph glyph-name="fi" unicode="fi" horiz-adv-x="1290" 
d="M784 1554l-14 -260q-61 21 -100 21q-84 0 -116 -36.5t-32 -127.5v-156h228v-245h-228v-750h-307v750h-203v245h203v187q0 96 19.5 165.5t63.5 121.5t120.5 78t185.5 26q103 0 180 -19zM1024 1487q74 0 126 -52.5t52 -125.5t-52 -126t-126 -53q-73 0 -125.5 53.5
t-52.5 125.5q0 75 52.5 126.5t125.5 51.5zM870 995h308v-995h-308v995z" />
    <glyph glyph-name="fl" unicode="fl" horiz-adv-x="1290" 
d="M784 1554l-14 -260q-61 21 -100 21q-84 0 -116 -36.5t-32 -127.5v-156h228v-245h-228v-750h-307v750h-203v245h203v187q0 96 19.5 165.5t63.5 121.5t120.5 78t185.5 26q103 0 180 -19zM870 1548h308v-1548h-308v1548z" />
    <glyph glyph-name=".notdef" horiz-adv-x="1048" 
d="M0 1470h1049v-1470h-1049v1470zM102 102h844v1264h-844v-1264zM530 1247q113 0 183.5 -74t70.5 -194q0 -77 -29 -129.5t-104 -118.5q-73 -66 -84 -102q-12 -30 -12 -150h-94l-4 39q0 107 26.5 163.5t104.5 129.5q46 43 69 79.5t23 80.5q0 72 -47.5 123t-108.5 51
q-69 0 -112.5 -50t-55.5 -145l-102 17q12 137 83.5 208.5t192.5 71.5zM455 240v137h114v-137h-114z" />
    <glyph glyph-name=".null" horiz-adv-x="0" 
 />
    <glyph glyph-name=".null" horiz-adv-x="0" 
 />
    <glyph glyph-name="nonmarkingreturn" horiz-adv-x="682" 
 />
    <glyph glyph-name="CR" unicode="&#xd;" horiz-adv-x="606" 
 />
    <glyph glyph-name="space" unicode=" " horiz-adv-x="606" 
 />
    <glyph glyph-name="exclam" unicode="!" horiz-adv-x="909" 
d="M301 1450h307v-971h-307v971zM643 176q0 -77 -54 -132.5t-134 -55.5q-79 0 -134 55.5t-55 132.5q0 79 56 134t133 55t132.5 -55t55.5 -134z" />
    <glyph glyph-name="quotedbl" unicode="&#x22;" horiz-adv-x="1064" 
d="M166 1450h258v-578h-258v578zM641 1450h258v-578h-258v578z" />
    <glyph glyph-name="numbersign" unicode="#" horiz-adv-x="1212" 
d="M406 1450h198l-57 -412h203l57 412h199l-58 -412h172v-184h-196l-35 -258h172v-184h-197l-57 -412h-199l58 412h-203l-57 -412h-199l57 412h-172v184h197l35 258h-172v184h196zM725 854h-203l-35 -258h203z" />
    <glyph glyph-name="dollar" unicode="$" horiz-adv-x="1212" 
d="M537 1618h135v-143q132 0 247 -34t191 -95l-197 -240q-92 79 -241 86v-326l192 -55q145 -43 223 -139.5t78 -233.5q0 -190 -131.5 -315t-361.5 -148v-143h-135v143q-325 0 -506 166l217 244q92 -113 289 -127v346l-142 43q-167 51 -246 143.5t-79 241.5q0 171 127.5 294
t339.5 149v143zM389 1047q0 -29 9 -52.5t21 -37.5t31.5 -25.5t32 -16t32 -10t22.5 -6.5v287q-148 -30 -148 -139zM672 569v-307q85 17 129.5 56t44.5 96q0 56 -35 88t-139 67z" />
    <glyph glyph-name="percent" unicode="%" horiz-adv-x="1857" 
d="M430 23l830 1493l172 -97l-846 -1485zM817 1069q0 -169 -117 -287t-286 -118t-286.5 119t-117.5 286q0 169 117.5 287.5t286.5 118.5q166 0 284.5 -118.5t118.5 -287.5zM414 872q80 0 137 56.5t57 140.5t-57 140.5t-137 56.5q-81 0 -138 -58.5t-57 -138.5t57 -138.5
t138 -58.5zM1847 383q0 -168 -117.5 -288t-285.5 -120t-286 119.5t-118 288.5q0 167 118.5 286t285.5 119t285 -119t118 -286zM1444 184q82 0 138 57t56 142q0 84 -57 140.5t-137 56.5q-81 0 -138 -58.5t-57 -138.5q0 -82 57 -140.5t138 -58.5z" />
    <glyph glyph-name="ampersand" unicode="&#x26;" horiz-adv-x="1554" 
d="M686 1487q86 0 161 -22t134 -65t93 -112.5t34 -157.5q0 -113 -68.5 -210.5t-199.5 -165.5l186 -199l141 193h357l-305 -406l323 -342h-395l-121 137q-89 -92 -192.5 -133t-233.5 -41q-146 0 -262 52.5t-184 152t-68 229.5q0 128 82.5 237t224.5 159q-93 97 -126.5 168
t-33.5 157q0 79 27 143t71 105.5t103.5 69t122 39.5t129.5 12zM541 1106q0 -39 28.5 -81.5t92.5 -100.5q163 92 163 186q0 57 -39.5 94t-103.5 37q-62 0 -101.5 -37.5t-39.5 -97.5zM418 412q0 -76 58 -127.5t136 -51.5q61 0 109.5 23t118.5 84l-256 278q-84 -52 -111 -79
q-55 -53 -55 -127z" />
    <glyph glyph-name="quotesingle" unicode="'" horiz-adv-x="606" 
d="M174 1450h258v-578h-258v578z" />
    <glyph glyph-name="parenleft" unicode="(" horiz-adv-x="643" 
d="M389 1499l211 -123q-150 -231 -207 -407t-57 -379q0 -205 57.5 -381.5t206.5 -405.5l-211 -122l-4 8q-152 227 -223.5 445.5t-71.5 455.5q0 150 27 289.5t76 255t92 193.5t100 163z" />
    <glyph glyph-name="parenright" unicode=")" horiz-adv-x="643" 
d="M43 1376l211 123l4 -8q295 -427 295 -901q0 -249 -74 -465t-221 -436l-4 -8l-211 122q138 217 201 391t63 396q0 220 -64.5 398.5t-199.5 387.5z" />
    <glyph glyph-name="asterisk" unicode="*" horiz-adv-x="987" 
d="M391 1450h209v-283l268 88l62 -194l-268 -86l169 -234l-169 -125l-173 236l-165 -225l-166 125l172 223l-273 94l66 195l268 -97v283z" />
    <glyph glyph-name="plus" unicode="+" horiz-adv-x="1363" 
d="M553 1182h258v-432h432v-258h-432v-433h-258v433h-432v258h432v432z" />
    <glyph glyph-name="comma" unicode="," horiz-adv-x="606" 
d="M186 332h295l-184 -578h-262z" />
    <glyph glyph-name="hyphen" unicode="-" horiz-adv-x="606" 
d="M51 633h504v-246h-504v246z" />
    <glyph glyph-name="period" unicode="." horiz-adv-x="606" 
d="M303 365q77 0 133 -55t56 -134t-55.5 -133.5t-133.5 -54.5q-79 0 -133.5 55.5t-54.5 132.5q0 78 55 133.5t133 55.5z" />
    <glyph glyph-name="slash" unicode="/" horiz-adv-x="833" 
d="M606 1559l234 -72l-615 -1596l-231 72z" />
    <glyph glyph-name="zero" unicode="0" horiz-adv-x="1212" 
d="M606 1475q261 0 400 -197t139 -553q0 -357 -138.5 -553.5t-400.5 -196.5q-261 0 -399.5 197.5t-138.5 552.5q0 356 139 553t399 197zM375 725q0 -241 58 -354t173 -113q116 0 174 113t58 354q0 242 -58.5 354.5t-175.5 112.5q-229 0 -229 -467z" />
    <glyph glyph-name="one" unicode="1" horiz-adv-x="1212" 
d="M598 1450h287v-1450h-295v1106l-291 -256l-174 201z" />
    <glyph glyph-name="two" unicode="2" horiz-adv-x="1212" 
d="M631 1475q212 0 340.5 -117t128.5 -320q0 -91 -24 -160.5t-69 -126.5t-128 -128l-410 -353h643v-270h-1012v326l564 505q75 68 102 111.5t27 91.5q0 69 -53 113.5t-126 44.5q-78 0 -129.5 -50t-58.5 -134l-307 22q13 213 149 329t363 116z" />
    <glyph glyph-name="three" unicode="3" horiz-adv-x="1212" 
d="M594 1475q220 0 354.5 -107t134.5 -297q0 -125 -65 -208.5t-182 -108.5v-6q126 -17 199 -112t73 -226q0 -201 -144 -318t-378 -117q-211 0 -345.5 97.5t-174.5 277.5l323 76q32 -168 215 -168q94 0 145.5 49t51.5 137q0 35 -10.5 62t-24.5 44.5t-40 30t-46 18.5t-54 9
t-52.5 3.5t-51.5 0.5h-80v267h95q122 0 180.5 38t58.5 123q0 67 -52.5 109.5t-127.5 42.5q-66 0 -114.5 -35t-65.5 -100l-338 69q44 170 176.5 259.5t339.5 89.5z" />
    <glyph glyph-name="four" unicode="4" horiz-adv-x="1212" 
d="M641 1450h336v-901h186v-258h-186v-291h-295v291h-633v258zM682 1049h-4l-322 -500h326v500z" />
    <glyph glyph-name="five" unicode="5" horiz-adv-x="1212" 
d="M182 1450h877v-270h-576l-6 -224q50 17 127 17q232 0 368 -132t136 -347q0 -236 -152 -377.5t-401 -141.5q-190 0 -316 94.5t-173 276.5l321 74q12 -79 65 -126.5t134 -47.5q93 0 154 59.5t61 157.5q0 117 -86 178t-248 61q-150 0 -301 -53z" />
    <glyph glyph-name="six" unicode="6" horiz-adv-x="1212" 
d="M553 1450h375l-340 -518q58 14 100 14q199 0 327 -135t128 -338q0 -149 -74.5 -264t-197 -174.5t-269.5 -59.5q-107 0 -204 34t-172.5 96t-120 157.5t-44.5 210.5q0 73 11.5 135t39.5 124t53 106t73 118zM369 485q0 -104 69 -165.5t164 -61.5q100 0 167 62.5t67 164.5
t-67.5 165t-168.5 63q-99 0 -165 -65t-66 -163z" />
    <glyph glyph-name="seven" unicode="7" horiz-adv-x="1212" 
d="M76 1450h1061v-270l-580 -1180h-358l594 1167h-717v283z" />
    <glyph glyph-name="eight" unicode="8" horiz-adv-x="1212" 
d="M606 1475q222 0 354 -108t132 -292q0 -118 -64 -203t-182 -118v-4q132 -37 201 -127t69 -226q0 -191 -142.5 -306.5t-367.5 -115.5q-148 0 -263 50t-181 146.5t-66 225.5q0 136 70 227t201 126v4q-117 34 -181.5 118t-64.5 203q0 181 131 290.5t354 109.5zM428 1032
q0 -68 50.5 -115t127.5 -47q78 0 128 46.5t50 115.5t-50.5 114.5t-129.5 45.5q-80 0 -128 -47t-48 -113zM403 440q0 -79 58 -130.5t145 -51.5t145 50t58 132q0 79 -58.5 132t-146.5 53q-86 0 -143.5 -52t-57.5 -133z" />
    <glyph glyph-name="nine" unicode="9" horiz-adv-x="1212" 
d="M610 1475q147 0 269.5 -59.5t197 -174.5t74.5 -264q0 -73 -12 -136t-40.5 -127t-53 -106t-72.5 -119l-314 -489h-374l340 518q-58 -14 -103 -14q-199 0 -325.5 135t-126.5 338q0 147 73.5 262t196 175.5t270.5 60.5zM377 965q0 -100 65 -164t168 -64q101 0 167.5 64
t66.5 164t-67.5 163.5t-168.5 63.5q-99 0 -165 -64t-66 -163z" />
    <glyph glyph-name="colon" unicode=":" horiz-adv-x="606" 
d="M303 1020q78 0 133.5 -54t55.5 -135q0 -77 -55.5 -132.5t-133.5 -55.5q-77 0 -132.5 55t-55.5 133t55.5 133.5t132.5 55.5zM303 365q78 0 133.5 -54t55.5 -135q0 -77 -55.5 -132.5t-133.5 -55.5t-133 53.5t-55 134.5q0 78 55.5 133.5t132.5 55.5z" />
    <glyph glyph-name="semicolon" unicode=";" horiz-adv-x="606" 
d="M303 1020q79 0 134 -56t55 -133t-55.5 -132.5t-133.5 -55.5q-77 0 -132.5 55t-55.5 133t55 133.5t133 55.5zM186 332h295l-184 -578h-262z" />
    <glyph glyph-name="less" unicode="&#x3c;" horiz-adv-x="1363" 
d="M551 623v-5l649 -253v-279l-1036 406v258l1036 405v-278z" />
    <glyph glyph-name="equal" unicode="=" horiz-adv-x="1363" 
d="M121 946h1122v-258h-1122v258zM121 553h1122v-258h-1122v258z" />
    <glyph glyph-name="greater" unicode="&#x3e;" horiz-adv-x="1363" 
d="M813 618v5l-649 254v278l1036 -405v-258l-1036 -406v279z" />
    <glyph glyph-name="question" unicode="?" horiz-adv-x="1138" 
d="M623 1487q130 0 233.5 -47t165 -139.5t61.5 -217.5q0 -86 -28.5 -153t-75.5 -117t-137 -123q-51 -41 -71.5 -74t-20.5 -86v-51h-308v76q0 69 15.5 114.5t58.5 86.5l174 159q86 80 86 148q0 63 -40.5 102t-106.5 39q-86 0 -140 -47.5t-63 -134.5l-315 20
q22 212 157.5 328.5t354.5 116.5zM596 365q76 0 132 -55t56 -134t-55.5 -133.5t-132.5 -54.5q-78 0 -133 53.5t-55 134.5q0 78 55.5 133.5t132.5 55.5z" />
    <glyph glyph-name="at" unicode="@" horiz-adv-x="1638" 
d="M848 1487q146 0 278 -48.5t231 -135t157.5 -214t58.5 -276.5q0 -250 -135 -375q-133 -125 -320 -125q-81 0 -120.5 34t-41.5 77h-4q-105 -111 -262 -111q-93 0 -161.5 48t-101 125t-32.5 171q0 123 49 227.5t144 169t217 64.5q164 0 221 -117h4l17 93h192l-74 -394
q-2 -11 -6.5 -35t-7 -38t-4.5 -34.5t-2 -37.5q0 -57 55 -57q79 0 127.5 84.5t48.5 220.5q0 161 -69 275t-188 169.5t-277 55.5q-170 0 -300.5 -77t-199 -208.5t-68.5 -294.5q0 -175 79 -307t215.5 -200.5t308.5 -68.5q228 0 387 125h225q-109 -150 -273 -229.5t-356 -79.5
q-217 0 -398 96t-288.5 271t-107.5 393q0 160 62 302.5t167.5 243.5t249.5 159.5t303 58.5zM616 680q0 -182 144 -182q108 0 160.5 67t52.5 180q0 81 -38 135t-116 54q-94 0 -148.5 -76.5t-54.5 -177.5z" />
    <glyph glyph-name="A" unicode="A" horiz-adv-x="1517" 
d="M625 1450h264l631 -1450h-361l-125 307h-563l-121 -307h-352zM748 1028l-177 -450h355z" />
    <glyph glyph-name="B" unicode="B" horiz-adv-x="1327" 
d="M147 1450h553q519 0 519 -369q0 -118 -67 -200.5t-183 -118.5v-4q134 -16 225.5 -111t91.5 -244q0 -88 -32 -158t-85 -115t-124.5 -75t-146.5 -42.5t-155 -12.5h-596v1450zM467 870h238q81 0 137.5 40t56.5 118q0 80 -61.5 116t-147.5 36h-223v-310zM467 270h293
q85 0 146 44t61 126q0 47 -23.5 80.5t-63.5 50t-79.5 23t-83.5 6.5h-250v-330z" />
    <glyph glyph-name="C" unicode="C" horiz-adv-x="1402" 
d="M852 1487q146 0 277.5 -55.5t211.5 -157.5l-245 -201q-99 119 -275 119t-298 -129.5t-122 -337.5q0 -91 29 -175t80.5 -149t130 -104t170.5 -39q194 0 299 156l266 -199q-83 -122 -225.5 -187t-298.5 -65q-226 0 -403.5 93t-278 267t-100.5 402q0 226 100 400t277.5 268
t404.5 94z" />
    <glyph glyph-name="D" unicode="D" horiz-adv-x="1554" 
d="M147 1450h492q141 0 264.5 -25t231.5 -81.5t185 -139.5t121 -206t44 -275q0 -168 -65 -306.5t-176 -228.5t-256.5 -139t-309.5 -49h-531v1450zM467 295h176q111 0 200.5 24t160.5 74t110 137t39 205q0 105 -39.5 187t-108 132t-155 75.5t-186.5 25.5h-197v-860z" />
    <glyph glyph-name="E" unicode="E" horiz-adv-x="1290" 
d="M160 1450h985v-295h-666v-270h629v-295h-629v-295h703v-295h-1022v1450z" />
    <glyph glyph-name="F" unicode="F" horiz-adv-x="1214" 
d="M160 1450h973v-295h-654v-295h604v-295h-604v-565h-319v1450z" />
    <glyph glyph-name="G" unicode="G" horiz-adv-x="1593" 
d="M854 1487q369 0 576 -187l-226 -245q-129 137 -350 137q-203 0 -328 -130.5t-125 -336.5q0 -207 125 -337t328 -130q164 0 299 72v235h-260v295h567v-758q-261 -139 -606 -139q-170 0 -315 54t-248.5 151.5t-162 241t-58.5 315.5t58.5 315t162 241t248.5 152t315 54z" />
    <glyph glyph-name="H" unicode="H" horiz-adv-x="1554" 
d="M147 1450h320v-541h620v541h320v-1450h-320v627h-620v-627h-320v1450z" />
    <glyph glyph-name="I" unicode="I" horiz-adv-x="606" 
d="M143 1450h320v-1450h-320v1450z" />
    <glyph glyph-name="J" unicode="J" horiz-adv-x="1024" 
d="M578 1450h319v-977q0 -264 -115 -387t-348 -123q-181 0 -295 86t-149 252l293 72q7 -55 49 -91t94 -36q79 0 115.5 61t36.5 203v940z" />
    <glyph glyph-name="K" unicode="K" horiz-adv-x="1478" 
d="M160 1450h319v-602l563 602h418l-645 -674l701 -776h-447l-590 688v-688h-319v1450z" />
    <glyph glyph-name="L" unicode="L" horiz-adv-x="1099" 
d="M160 1450h319v-1155h592v-295h-911v1450z" />
    <glyph glyph-name="M" unicode="M" horiz-adv-x="1933" 
d="M147 1450h484l334 -946h4l336 946h481v-1450h-320v1112h-4l-381 -1112h-243l-367 1112h-4v-1112h-320v1450z" />
    <glyph glyph-name="N" unicode="N" horiz-adv-x="1669" 
d="M147 1450h435l616 -1008h4v1008h320v-1450h-418l-633 1032h-4v-1032h-320v1450z" />
    <glyph glyph-name="O" unicode="O" horiz-adv-x="1703" 
d="M852 1487q229 0 406.5 -93.5t276.5 -267.5t99 -401t-100.5 -401t-278 -267.5t-403.5 -93.5q-227 0 -404.5 93t-277.5 267t-100 402t100 402t277.5 267t404.5 93zM401 725q0 -206 124.5 -336.5t326.5 -130.5q201 0 326 131t125 336q0 206 -125 336.5t-328 130.5
q-200 0 -324.5 -130.5t-124.5 -336.5z" />
    <glyph glyph-name="P" unicode="P" horiz-adv-x="1290" 
d="M147 1450h549q265 0 403 -109.5t138 -330.5q0 -226 -135 -335.5t-391 -109.5h-244v-565h-320v1450zM467 836h219q100 0 159.5 44t59.5 130q0 170 -266 170h-172v-344z" />
    <glyph glyph-name="Q" unicode="Q" horiz-adv-x="1744" 
d="M844 1487q159 0 300.5 -54.5t246.5 -151t166 -236.5t61 -302t-74.5 -298t-214.5 -195v-4h406v-246h-889q-164 0 -306 51.5t-246.5 145t-164 234.5t-59.5 312q0 161 61 300.5t165.5 236.5t246.5 152t301 55zM401 743q0 -185 129 -316.5t314 -131.5t313.5 131.5
t128.5 316.5q0 188 -129.5 318.5t-314.5 130.5q-184 0 -312.5 -133t-128.5 -316z" />
    <glyph glyph-name="R" unicode="R" horiz-adv-x="1327" 
d="M147 1450h572q84 0 157 -11.5t144.5 -42.5t122 -79t81.5 -126.5t31 -180.5q0 -160 -82.5 -265t-230.5 -133l369 -612h-383l-303 580h-158v-580h-320v1450zM467 850h199q60 0 103 6.5t80 23t56 49.5t19 83q0 168 -240 168h-217v-330z" />
    <glyph glyph-name="S" unicode="S" horiz-adv-x="1175" 
d="M639 1487q270 0 444 -152l-219 -239q-36 46 -101.5 71t-129.5 25q-49 0 -95.5 -14t-83 -49.5t-36.5 -86.5q0 -23 7.5 -43t18 -35t32 -29t38.5 -23t48.5 -20t51.5 -17t58.5 -17.5t58.5 -17.5q60 -18 104.5 -36.5t94.5 -51.5t81.5 -73.5t52.5 -101.5t21 -137
q0 -120 -45.5 -213t-124 -149.5t-177.5 -85.5t-212 -29q-294 0 -487 182l227 250q51 -65 124.5 -101t154.5 -36q49 0 96.5 13.5t86 49.5t38.5 89q0 21 -5 39t-17 33.5t-23 27.5t-33.5 24t-38 20t-45.5 18.5t-47.5 16.5t-53 17t-52.5 17q-63 20 -107.5 38.5t-97 51.5
t-84.5 71.5t-54 98.5t-22 133q0 112 46.5 203.5t124.5 148.5t176 88t206 31z" />
    <glyph glyph-name="T" unicode="T" horiz-adv-x="1175" 
d="M14 1450h1147v-283h-413v-1167h-320v1167h-414v283z" />
    <glyph glyph-name="U" unicode="U" horiz-adv-x="1517" 
d="M147 1450h320v-883q0 -130 83.5 -219.5t209.5 -89.5q118 0 204.5 86t86.5 223v883h319v-897q0 -121 -37.5 -225.5t-110 -187t-191.5 -130t-271 -47.5t-271.5 47.5t-192.5 130t-111 187t-38 225.5v897z" />
    <glyph glyph-name="V" unicode="V" horiz-adv-x="1441" 
d="M4 1450h365l358 -950h4l365 950h342l-598 -1450h-256z" />
    <glyph glyph-name="W" unicode="W" horiz-adv-x="2048" 
d="M-4 1450h348l231 -930h5l303 930h297l301 -954h4l244 954h323l-424 -1450h-285l-319 1004h-4l-320 -1004h-274z" />
    <glyph glyph-name="X" unicode="X" horiz-adv-x="1478" 
d="M29 1450h401l309 -508l297 508h387l-469 -686l525 -764h-402l-354 584l-344 -584h-379l508 758z" />
    <glyph glyph-name="Y" unicode="Y" horiz-adv-x="1327" 
d="M-41 1450h397l308 -543l325 543h379l-545 -832v-618h-319v618z" />
    <glyph glyph-name="Z" unicode="Z" horiz-adv-x="1290" 
d="M98 1450h1096v-283l-721 -872h746v-295h-1147v295l735 872h-709v283z" />
    <glyph glyph-name="bracketleft" unicode="[" horiz-adv-x="606" 
d="M135 1499h430v-184h-184v-1450h184v-184h-430v1818z" />
    <glyph glyph-name="backslash" unicode="\" horiz-adv-x="833" 
d="M-6 1487l233 72l613 -1596l-232 -72z" />
    <glyph glyph-name="bracketright" unicode="]" horiz-adv-x="606" 
d="M41 1499h430v-1818h-430v184h184v1450h-184v184z" />
    <glyph glyph-name="asciicircum" unicode="^" horiz-adv-x="1363" 
d="M532 1450h299l369 -748h-291l-227 488l-229 -488h-289z" />
    <glyph glyph-name="underscore" unicode="_" horiz-adv-x="1024" 
d="M0 -154h1024v-102h-1024v102z" />
    <glyph glyph-name="grave" unicode="`" 
d="M-150 1450h418l207 -295h-270z" />
    <glyph glyph-name="a" unicode="a" horiz-adv-x="1099" 
d="M561 1020q128 0 216 -31t140.5 -96t75.5 -155t23 -218v-520h-283v125h-4q-49 -76 -133 -113t-182 -37q-94 0 -173.5 34t-130.5 105.5t-51 168.5q0 72 26 129t63.5 93t100.5 61.5t114.5 38.5t131 19.5t123 7.5t115.5 1q0 81 -57.5 129.5t-138.5 48.5q-144 0 -250 -119
l-164 168q83 80 199 120t239 40zM354 293q0 -54 45.5 -81.5t102.5 -27.5q95 0 163 49.5t68 139.5v63h-92q-44 0 -85 -4.5t-91 -18t-80.5 -44.5t-30.5 -76z" />
    <glyph glyph-name="b" unicode="b" horiz-adv-x="1290" 
d="M137 1548h307v-659h5q94 131 315 131q105 0 193 -45.5t144 -120.5t87 -169.5t31 -195.5q0 -226 -134.5 -370t-355.5 -144q-88 0 -171 42t-134 114h-4v-131h-283v1548zM420 498q0 -114 66.5 -183t179.5 -69q112 0 178.5 68t66.5 184q0 117 -66.5 184.5t-180.5 67.5
q-107 0 -175.5 -66t-68.5 -186z" />
    <glyph glyph-name="c" unicode="c" horiz-adv-x="987" 
d="M631 1020q100 0 195.5 -33.5t158.5 -99.5l-203 -213q-26 35 -67 55.5t-84 20.5q-113 0 -179.5 -69t-66.5 -183q0 -116 68 -184t178 -68q88 0 151 76l203 -213q-65 -66 -159.5 -100t-194.5 -34q-154 0 -279 64t-199.5 184t-74.5 275t74.5 275t199.5 183.5t279 63.5z" />
    <glyph glyph-name="d" unicode="d" horiz-adv-x="1290" 
d="M846 1548h307v-1548h-283v131h-4q-51 -71 -135 -113.5t-172 -42.5q-221 0 -354 144t-133 370q0 101 30.5 195.5t86.5 169.5t144 120.5t193 45.5q219 0 316 -131h4v659zM379 498q0 -114 66.5 -183t179.5 -69q112 0 178.5 68t66.5 184q0 119 -68 185.5t-179 66.5
q-112 0 -178 -68t-66 -184z" />
    <glyph glyph-name="e" unicode="e" horiz-adv-x="1175" 
d="M78 498q0 154 73.5 274t201 184t286.5 64q62 0 122 -15t122.5 -54t109 -97t76 -153t29.5 -214v-86h-713q19 -87 79.5 -139.5t151.5 -52.5q129 0 220 121l215 -158q-71 -92 -185.5 -144.5t-234.5 -52.5q-112 0 -212 36.5t-176 102.5t-120.5 165.5t-44.5 218.5zM385 610
h406q0 83 -55 136t-136 53q-87 0 -147.5 -52t-67.5 -137z" />
    <glyph glyph-name="f" unicode="f" horiz-adv-x="757" 
d="M784 1554l-14 -260q-61 21 -100 21q-84 0 -116 -36.5t-32 -127.5v-156h228v-245h-228v-750h-307v750h-203v245h203v187q0 96 19.5 165.5t63.5 121.5t120.5 78t185.5 26q103 0 180 -19z" />
    <glyph glyph-name="g" unicode="g" horiz-adv-x="1290" 
d="M526 1020q102 0 193.5 -38.5t146.5 -117.5h4v131h283v-921q0 -278 -147.5 -422t-427.5 -144q-316 0 -500 146l170 254q155 -129 323 -129q122 0 198.5 60.5t76.5 178.5v101h-4q-46 -62 -123 -96.5t-160 -34.5q-220 0 -353.5 145.5t-133.5 368.5q0 99 32 191.5t89 165.5
t144 117t189 44zM379 504q0 -102 73 -174t173 -72q99 0 172 72.5t73 173.5q0 100 -72.5 173t-174.5 73q-99 0 -171.5 -73.5t-72.5 -172.5z" />
    <glyph glyph-name="h" unicode="h" horiz-adv-x="1175" 
d="M109 1548h307v-688h4q28 72 105 116t173 44q197 0 283 -111t86 -350v-559h-307v506q0 134 -39 189t-121 55q-93 0 -138.5 -59t-45.5 -185v-506h-307v1548z" />
    <glyph glyph-name="i" unicode="i" 
d="M266 1487q74 0 126 -52.5t52 -125.5t-52 -126t-126 -53q-73 0 -125.5 53.5t-52.5 125.5q0 75 52.5 126.5t125.5 51.5zM113 995h307v-995h-307v995z" />
    <glyph glyph-name="j" unicode="j" 
d="M266 1487q74 0 126 -52.5t52 -125.5t-52 -126t-126 -53q-73 0 -125.5 53.5t-52.5 125.5q0 73 52 125.5t126 52.5zM113 995h307v-1079q0 -206 -90.5 -307t-278.5 -101q-88 0 -143 17l16 272q41 -18 80 -18q56 0 82.5 45.5t26.5 146.5v1024z" />
    <glyph glyph-name="k" unicode="k" horiz-adv-x="1138" 
d="M109 1548h307v-946l340 393h377l-396 -448l406 -547h-387l-336 504h-4v-504h-307v1548z" />
    <glyph glyph-name="l" unicode="l" 
d="M113 1548h307v-1548h-307v1548z" />
    <glyph glyph-name="m" unicode="m" horiz-adv-x="1781" 
d="M698 1020q108 0 188 -44.5t120 -133.5q53 94 128.5 136t186.5 42q176 0 264 -108.5t88 -313.5v-598h-307v584q0 78 -34.5 122t-100.5 44q-93 0 -140 -57.5t-47 -160.5v-532h-307v545q0 110 -34 157.5t-103 47.5q-94 0 -139 -58t-45 -186v-506h-307v995h294v-135h5
q41 75 118.5 117.5t171.5 42.5z" />
    <glyph glyph-name="n" unicode="n" horiz-adv-x="1175" 
d="M698 1020q192 0 280.5 -107t88.5 -350v-563h-307v512q0 129 -39 183.5t-121 54.5q-93 0 -138.5 -59t-45.5 -185v-506h-307v995h294v-135h5q41 75 118 117.5t172 42.5z" />
    <glyph glyph-name="o" unicode="o" horiz-adv-x="1249" 
d="M625 1020q154 0 279 -63.5t199.5 -183.5t74.5 -275q0 -116 -43.5 -214.5t-118.5 -165.5t-176 -105t-215 -38q-154 0 -279 63.5t-199.5 183.5t-74.5 276q0 155 74.5 275t199.5 183.5t279 63.5zM379 498q0 -114 66.5 -183t179.5 -69q112 0 178.5 68t66.5 184
q0 117 -66.5 184.5t-180.5 67.5q-111 0 -177.5 -70t-66.5 -182z" />
    <glyph glyph-name="p" unicode="p" horiz-adv-x="1290" 
d="M729 1020q221 0 355.5 -144t134.5 -370q0 -98 -30 -191.5t-85 -170t-143.5 -123t-196.5 -46.5q-219 0 -315 131h-5v-573h-307v1462h283v-131h4q51 71 134 113.5t171 42.5zM420 498q0 -114 66.5 -183t179.5 -69q112 0 178.5 68t66.5 184q0 117 -66.5 184.5t-180.5 67.5
q-111 0 -177.5 -70t-66.5 -182z" />
    <glyph glyph-name="q" unicode="q" horiz-adv-x="1290" 
d="M559 1020q90 0 175 -43t132 -113h4v131h283v-1462h-307v573h-4q-97 -131 -316 -131q-106 0 -194 46t-143.5 121.5t-86 169.5t-30.5 194q0 226 133.5 370t353.5 144zM379 498q0 -114 66.5 -183t179.5 -69q112 0 178.5 68t66.5 184q0 117 -66.5 184.5t-180.5 67.5
q-116 0 -180 -72.5t-64 -179.5z" />
    <glyph glyph-name="r" unicode="r" horiz-adv-x="833" 
d="M709 1020q64 0 100 -10v-281q-79 21 -131 21q-81 0 -133.5 -20.5t-80 -64.5t-38 -99t-10.5 -138v-428h-307v995h307v-159h4q51 93 120 138.5t169 45.5z" />
    <glyph glyph-name="s" unicode="s" horiz-adv-x="948" 
d="M492 1020q243 0 368 -131l-188 -187q-69 84 -176 84q-51 0 -83 -22t-32 -59q0 -36 40 -56t144 -41q180 -34 257 -107t77 -198q0 -161 -126 -244.5t-333 -83.5q-258 0 -391 136l187 206q91 -108 217 -108q67 0 103 19t36 53q0 38 -39.5 59.5t-118.5 36.5
q-47 10 -74.5 16.5t-70.5 19.5t-69 27.5t-57 37.5t-48 51t-29 67.5t-12 87.5q0 155 117 245.5t301 90.5z" />
    <glyph glyph-name="t" unicode="t" horiz-adv-x="833" 
d="M209 1290h307v-295h270v-245h-270v-351q0 -91 34 -128.5t112 -37.5q95 0 124 29v-256q-89 -31 -215 -31q-176 0 -269 78t-93 215v482h-197v245h197v295z" />
    <glyph glyph-name="u" unicode="u" horiz-adv-x="1175" 
d="M109 995h307v-493q0 -30 0.5 -46t3.5 -47.5t8.5 -50t17 -42.5t28 -37.5t42.5 -23t59 -9.5q96 0 140.5 60t44.5 186v503h307v-995h-295v135h-4q-41 -75 -118.5 -117.5t-174.5 -42.5q-194 0 -280 109.5t-86 349.5v561z" />
    <glyph glyph-name="v" unicode="v" horiz-adv-x="1138" 
d="M4 995h332l252 -676h4l233 676h310l-394 -995h-325z" />
    <glyph glyph-name="w" unicode="w" horiz-adv-x="1705" 
d="M-10 995h327l203 -624h4l170 624h336l184 -624h5l186 624h311l-354 -995h-303l-207 662h-4l-184 -662h-310z" />
    <glyph glyph-name="x" unicode="x" horiz-adv-x="1138" 
d="M45 995h363l176 -270l170 270h342l-324 -463l383 -532h-362l-218 332l-233 -332h-358l393 532z" />
    <glyph glyph-name="y" unicode="y" horiz-adv-x="1138" 
d="M6 995h332l256 -657h4l219 657h316l-447 -1147q-57 -147 -90 -198q-60 -94 -167 -123q-68 -19 -169 -19q-119 0 -229 37l41 252q70 -30 143 -30q30 0 55 5t42.5 11t33 21t25 25.5t21 34t16.5 37t16.5 44.5t17.5 47z" />
    <glyph glyph-name="z" unicode="z" horiz-adv-x="1024" 
d="M82 995h860v-295l-541 -454h553v-246h-884v307l516 443h-504v245z" />
    <glyph glyph-name="braceleft" unicode="{" horiz-adv-x="757" 
d="M508 1499h221v-233h-80q-27 0 -43 -1t-39.5 -7.5t-37 -19t-23.5 -37.5t-10 -60v-324q0 -115 -46.5 -166.5t-158.5 -58.5v-4q35 -2 61 -7t54.5 -19t47 -36t30.5 -59.5t12 -87.5v-330q0 -80 34.5 -107.5t110.5 -27.5h88v-233h-221q-118 0 -188 77t-70 226v348
q0 65 -60.5 103t-160.5 38v234q99 0 160 38.5t61 98.5v364q0 80 22.5 139t61 91t82 46.5t92.5 14.5z" />
    <glyph glyph-name="bar" unicode="|" horiz-adv-x="454" 
d="M98 1536h258v-2048h-258v2048z" />
    <glyph glyph-name="braceright" unicode="}" horiz-adv-x="757" 
d="M29 1499h221q122 0 190 -80t68 -209v-368q0 -60 61 -97.5t160 -37.5v-234q-99 0 -160 -37t-61 -100v-352v-21t-2 -32t-6 -43.5t-12.5 -45.5t-21 -48t-32.5 -42.5t-45.5 -37.5t-62.5 -23.5t-80 -9.5h-217v233h82q28 0 46 1.5t40 8.5t34.5 20.5t21.5 39t9 61.5v330
q0 62 16.5 104.5t47.5 64.5t64 31.5t77 12.5v4q-115 7 -160 57.5t-45 167.5v324q0 42 -12 68.5t-36 38t-46 15t-57 3.5h-82v233z" />
    <glyph glyph-name="asciitilde" unicode="~" horiz-adv-x="1363" 
d="M465 819q81 0 227 -65q101 -45 140.5 -59.5t68.5 -14.5q43 0 82 27.5t98 111.5l74 -221q-49 -91 -111 -133.5t-145 -42.5q-84 0 -227 65q-101 46 -141 60t-68 14q-42 0 -81.5 -28t-98.5 -111l-74 221q49 91 111 133.5t145 42.5z" />
    <glyph glyph-name="uni00A0" unicode="&#xa0;" horiz-adv-x="606" 
 />
    <glyph glyph-name="exclamdown" unicode="&#xa1;" horiz-adv-x="909" 
d="M455 1008q76 0 132 -54.5t56 -134.5q0 -76 -55 -132t-133 -56t-133.5 55.5t-55.5 132.5q0 78 56 133.5t133 55.5zM301 516h307v-971h-307v971z" />
    <glyph glyph-name="cent" unicode="&#xa2;" horiz-adv-x="1212" 
d="M635 1020v135h123v-135q106 0 190 -30.5t162 -96.5l-197 -209q-78 78 -155 78v-529q81 0 170 89l186 -220q-56 -56 -151.5 -91t-204.5 -36v-141h-123v141q-213 10 -346 159.5t-133 363.5q0 215 128.5 354.5t350.5 167.5zM451 500q0 -100 47.5 -169.5t136.5 -97.5v529
q-86 -15 -135 -86t-49 -176z" />
    <glyph glyph-name="sterling" unicode="&#xa3;" horiz-adv-x="1212" 
d="M803 1475q134 0 246.5 -37t181.5 -103l-205 -219q-41 41 -91.5 64.5t-94.5 23.5q-59 0 -104 -18t-69.5 -44.5t-40 -64.5t-20 -71t-4.5 -70v-88h320v-209h-320v-406h518v-233h-1022v233h197v406h-197v209h197v135q0 215 141 353.5t367 138.5z" />
    <glyph glyph-name="currency" unicode="&#xa4;" horiz-adv-x="1212" 
d="M74 1137l123 120l100 -98q138 98 309 98q172 0 309 -98l101 98l123 -120l-101 -101q101 -140 101 -311q0 -174 -101 -311l101 -101l-123 -120l-101 98q-137 -98 -309 -98t-309 98l-100 -98l-123 120l100 101q-100 140 -100 311t100 311zM344 725q0 -115 76.5 -194.5
t185.5 -79.5q111 0 186.5 80t75.5 194q0 115 -76 194.5t-188 79.5q-106 0 -183 -78.5t-77 -195.5z" />
    <glyph glyph-name="yen" unicode="&#xa5;" horiz-adv-x="1212" 
d="M-74 1450h373l307 -541l307 541h373l-379 -594h205v-197h-321l-25 -41v-98h346v-196h-346v-324h-320v324h-346v196h346v98l-24 41h-322v197h205z" />
    <glyph glyph-name="brokenbar" unicode="&#xa6;" horiz-adv-x="454" 
d="M98 1382h258v-716h-258v716zM98 358h258v-716h-258v716z" />
    <glyph glyph-name="section" unicode="&#xa7;" horiz-adv-x="1212" 
d="M600 1487q95 0 179 -19t162 -71t118 -133l-258 -148q-21 57 -73.5 91t-115.5 34q-54 0 -93.5 -28t-39.5 -80q0 -35 27.5 -66t72.5 -53t102.5 -47t117 -48t117 -56.5t102.5 -71.5t72.5 -94t27.5 -122q0 -82 -48.5 -156t-123.5 -110q54 -44 83.5 -108t29.5 -135
q0 -76 -31 -140t-81.5 -106.5t-117 -72t-135.5 -43t-139 -13.5q-361 0 -477 258l262 129q16 -67 82 -104t141 -37q28 0 54.5 5t52.5 16t41.5 33t15.5 52q0 39 -34 70.5t-88.5 55.5t-120 49t-131 58t-120 74t-88.5 105.5t-34 144.5q0 193 178 303q-62 40 -95.5 101.5
t-33.5 134.5q0 85 39 153.5t103 109.5t140.5 63t157.5 22zM393 657q0 -90 115 -145l258 -119h2q68 46 68 125q0 84 -111 137l-260 123q-72 -41 -72 -121z" />
    <glyph glyph-name="dieresis" unicode="&#xa8;" 
d="M47 1487q69 0 123.5 -47t54.5 -121q0 -73 -49.5 -124.5t-124.5 -51.5q-72 0 -121 52.5t-49 123.5q0 67 49.5 117.5t116.5 50.5zM473 1487q72 0 125 -48t53 -120q0 -73 -49.5 -124.5t-124.5 -51.5q-70 0 -120 52t-50 124q0 67 50 117.5t116 50.5z" />
    <glyph glyph-name="copyright" unicode="&#xa9;" horiz-adv-x="1638" 
d="M819 1487q155 0 296 -60.5t243 -162.5t162.5 -243t60.5 -296q0 -156 -60.5 -297.5t-163 -243t-243.5 -161.5t-295 -60q-155 0 -296.5 60.5t-243.5 162.5t-162 243t-60 296q0 154 60.5 295t162.5 243.5t243 163t296 60.5zM266 725q0 -114 43 -220.5t116.5 -185
t176.5 -125.5t217 -47q154 0 282.5 81t199.5 213t71 284q0 153 -72 285.5t-200.5 212.5t-282.5 80q-114 0 -217.5 -48t-176 -127t-115 -185t-42.5 -218zM836 1161q147 0 247 -79.5t121 -223.5h-192q-12 59 -55 89t-105 30q-102 0 -150.5 -67.5t-48.5 -174.5q0 -66 19 -122
t64.5 -96t111.5 -40q72 0 116.5 34t47.5 103h192q-20 -146 -118.5 -233.5t-245.5 -87.5q-187 0 -297.5 124t-110.5 314q0 194 106.5 312t297.5 118z" />
    <glyph glyph-name="ordfeminine" unicode="&#xaa;" horiz-adv-x="714" 
d="M375 1487q154 0 223.5 -69t69.5 -222v-313h-197v75h-4q-20 -42 -70.5 -65t-120.5 -23q-98 0 -163.5 50t-65.5 133q0 108 99.5 161.5t308.5 53.5h16q0 41 -33.5 68.5t-81.5 27.5q-87 0 -161 -74l-107 101q116 96 287 96zM256 1061q0 -55 88 -55q53 0 96 29.5t43 72.5v37
h-30q-197 0 -197 -84z" />
    <glyph glyph-name="guillemotleft" unicode="&#xab;" horiz-adv-x="1101" 
d="M362 989l187 -125l-238 -354l238 -354l-187 -125l-325 479zM858 989l186 -125l-237 -354l237 -354l-186 -125l-326 479z" />
    <glyph glyph-name="logicalnot" unicode="&#xac;" horiz-adv-x="1363" 
d="M121 946h1122v-655h-258v397h-864v258z" />
    <glyph glyph-name="uni00AD" unicode="&#xad;" horiz-adv-x="606" 
d="M51 633h504v-246h-504v246z" />
    <glyph glyph-name="registered" unicode="&#xae;" horiz-adv-x="1638" 
d="M526 1133h293q330 0 330 -259q0 -197 -186 -223l204 -317h-215l-182 307h-35v-307h-209v799zM733 973v-172h88q60 0 89.5 19t29.5 67q0 42 -27.5 64t-91.5 22h-88zM819 1487q155 0 296 -60.5t243 -162.5t162.5 -243t60.5 -296q0 -156 -60.5 -297.5t-163 -243
t-243.5 -161.5t-295 -60q-155 0 -296.5 60.5t-243.5 162.5t-162 243t-60 296q0 154 60.5 295t162.5 243.5t243 163t296 60.5zM266 725q0 -114 43 -220.5t116.5 -185t176.5 -125.5t217 -47q154 0 282.5 81t199.5 213t71 284q0 153 -72 285.5t-200.5 212.5t-282.5 80
q-114 0 -217.5 -48t-176 -127t-115 -185t-42.5 -218z" />
    <glyph glyph-name="macron" unicode="&#xaf;" 
d="M-82 1407h696v-197h-696v197z" />
    <glyph glyph-name="degree" unicode="&#xb0;" horiz-adv-x="819" 
d="M410 1475q147 0 249.5 -103.5t102.5 -249.5q0 -145 -102.5 -248.5t-249.5 -103.5q-144 0 -248.5 102t-104.5 250q0 147 104 250t249 103zM229 1122q0 -75 53 -127.5t128 -52.5q74 0 127 52.5t53 127.5q0 74 -52.5 127.5t-127.5 53.5q-74 0 -127.5 -53t-53.5 -128z" />
    <glyph glyph-name="plusminus" unicode="&#xb1;" horiz-adv-x="1363" 
d="M553 1182h258v-262h432v-258h-432v-263h-258v263h-432v258h432v262zM121 317h1122v-258h-1122v258z" />
    <glyph glyph-name="twosuperior" unicode="&#xb2;" horiz-adv-x="788" 
d="M408 1475q148 0 239.5 -65t91.5 -181q0 -90 -24.5 -136.5t-93.5 -99.5l-293 -225v-4h411v-172h-690v182l400 338q69 59 69 98q0 38 -33 59t-88 21q-58 0 -95 -31.5t-40 -78.5l-209 12q10 137 103 210t252 73z" />
    <glyph glyph-name="threesuperior" unicode="&#xb3;" horiz-adv-x="788" 
d="M399 1475q147 0 241.5 -62.5t94.5 -171.5q0 -74 -43.5 -124.5t-126.5 -65.5v-4q85 -9 137 -68t52 -137q0 -121 -99.5 -191.5t-261.5 -70.5q-303 0 -358 241l223 45q23 -102 135 -102q64 0 101.5 24t37.5 74q0 49 -36 72.5t-131 23.5h-72v172h67q90 0 122 25.5t32 67.5
q0 32 -31 49.5t-84 17.5q-50 0 -85.5 -24t-45.5 -66l-225 41q62 234 356 234z" />
    <glyph glyph-name="acute" unicode="&#xb4;" 
d="M268 1450h418l-354 -295h-271z" />
    <glyph glyph-name="mu" unicode="&#xb5;" horiz-adv-x="1175" 
d="M109 995h307v-510q0 -126 37 -182.5t122 -56.5q96 0 140.5 60t44.5 186v503h307v-995h-295v135h-4q-41 -75 -119 -117.5t-172 -42.5q-29 0 -61 7v-449h-307v1462z" />
    <glyph glyph-name="paragraph" unicode="&#xb6;" horiz-adv-x="1269" 
d="M522 1450h627v-1722h-221v1525h-223v-1525h-222v1007q-220 0 -338 91t-118 259q0 188 120 276.5t375 88.5z" />
    <glyph glyph-name="periodcentered" unicode="&#xb7;" horiz-adv-x="606" 
d="M303 768q79 0 134 -55.5t55 -132.5q0 -79 -56 -134t-133 -55q-78 0 -133 55.5t-55 133.5q0 77 54.5 132.5t133.5 55.5z" />
    <glyph glyph-name="cedilla" unicode="&#xb8;" 
d="M207 0h137l-84 -123h12q126 0 186 -42t60 -128q0 -92 -85.5 -145.5t-201.5 -53.5q-124 0 -254 62l52 96q89 -35 157 -35q136 0 136 66q0 32 -31 51t-72 19q-31 0 -74 -17l-65 60z" />
    <glyph glyph-name="onesuperior" unicode="&#xb9;" horiz-adv-x="788" 
d="M399 1462h197v-870h-221v649l-182 -154l-119 136z" />
    <glyph glyph-name="ordmasculine" unicode="&#xba;" horiz-adv-x="813" 
d="M406 1487q156 0 258 -87t102 -222q0 -139 -100.5 -223.5t-259.5 -84.5q-160 0 -259.5 85t-99.5 223q0 135 101.5 222t257.5 87zM256 1180q0 -58 42 -98t108 -40q65 0 108 39t43 97q0 61 -44 99t-107 38t-106.5 -37.5t-43.5 -97.5z" />
    <glyph glyph-name="guillemotright" unicode="&#xbb;" horiz-adv-x="1101" 
d="M57 864l187 125l325 -479l-325 -479l-187 125l238 354zM553 864l186 125l326 -479l-326 -479l-186 125l238 354z" />
    <glyph glyph-name="onequarter" unicode="&#xbc;" horiz-adv-x="1820" 
d="M387 23l830 1493l172 -97l-846 -1485zM342 1462h197v-870h-222v649l-182 -154l-119 136zM1446 870h242v-524h116v-172h-116v-174h-222v174h-428v160zM1462 625l-202 -279h206v279h-4z" />
    <glyph glyph-name="onehalf" unicode="&#xbd;" horiz-adv-x="1820" 
d="M342 1462h197v-870h-222v649l-182 -154l-119 136zM387 23l830 1493l172 -97l-846 -1485zM1473 883q148 0 239.5 -65t91.5 -181q0 -90 -24.5 -136.5t-93.5 -99.5l-293 -225v-4h411v-172h-690v182l399 338q70 60 70 98t-33 59t-88 21q-58 0 -95 -31.5t-40 -78.5l-209 12
q10 137 103 210t252 73z" />
    <glyph glyph-name="threequarters" unicode="&#xbe;" horiz-adv-x="1820" 
d="M436 23l830 1493l172 -97l-846 -1485zM1454 870h242v-524h116v-172h-116v-174h-221v174h-428v160zM1470 625l-202 -279h207v279h-5zM373 1475q147 0 241.5 -62.5t94.5 -171.5q0 -74 -43.5 -124.5t-126.5 -65.5v-4q85 -9 136.5 -68t51.5 -137q0 -121 -99 -191.5
t-261 -70.5q-152 0 -242 62t-117 179l223 45q23 -102 136 -102q64 0 101.5 24t37.5 74q0 49 -36.5 72.5t-131.5 23.5h-72v172h68q90 0 121.5 25.5t31.5 67.5q0 32 -30.5 49.5t-83.5 17.5q-50 0 -85.5 -24t-45.5 -66l-226 41q62 234 357 234z" />
    <glyph glyph-name="questiondown" unicode="&#xbf;" horiz-adv-x="1138" 
d="M543 1008q78 0 133 -56.5t55 -132.5q0 -78 -55.5 -133t-132.5 -55q-78 0 -133.5 55.5t-55.5 132.5t56 133t133 56zM389 516h307v-74q0 -87 -20.5 -131.5t-93.5 -109.5l-136 -123q-84 -75 -84 -144q0 -64 40.5 -103.5t107.5 -39.5q86 0 141 48.5t62 133.5l315 -20
q-21 -214 -158 -329.5t-354 -115.5q-204 0 -332.5 109.5t-128.5 294.5q0 121 57 208t187 187q53 41 71.5 75t18.5 89v45z" />
    <glyph glyph-name="Agrave" unicode="&#xc0;" horiz-adv-x="1517" 
d="M625 1450h264l631 -1450h-361l-125 307h-563l-121 -307h-352zM748 1028l-177 -450h355zM344 1851h418l207 -295h-271z" />
    <glyph glyph-name="Aacute" unicode="&#xc1;" horiz-adv-x="1517" 
d="M625 1450h264l631 -1450h-361l-125 307h-563l-121 -307h-352zM748 1028l-177 -450h355zM762 1851h418l-355 -295h-270z" />
    <glyph glyph-name="Acircumflex" unicode="&#xc2;" horiz-adv-x="1517" 
d="M625 1450h264l631 -1450h-361l-125 307h-563l-121 -307h-352zM748 1028l-177 -450h355zM596 1851h334l237 -295h-282l-129 160l-127 -160h-277z" />
    <glyph glyph-name="Atilde" unicode="&#xc3;" horiz-adv-x="1517" 
d="M625 1450h264l631 -1450h-361l-125 307h-563l-121 -307h-352zM748 1028l-177 -450h355zM618 1851q76 0 179 -43q68 -30 114 -30q58 0 90 73h160q-48 -282 -266 -282q-65 0 -160 43q-3 1 -29.5 13.5t-36 16t-29 8.5t-34.5 5q-29 0 -52 -24.5t-34 -61.5h-162q21 126 91 204
t169 78z" />
    <glyph glyph-name="Adieresis" unicode="&#xc4;" horiz-adv-x="1517" 
d="M625 1450h264l631 -1450h-361l-125 307h-563l-121 -307h-352zM748 1028l-177 -450h355zM541 1888q73 0 125.5 -48t52.5 -120q0 -73 -49.5 -124.5t-124.5 -51.5q-70 0 -120 52.5t-50 123.5q0 67 49.5 117.5t116.5 50.5zM967 1888q73 0 125.5 -48t52.5 -120
q0 -73 -49.5 -124.5t-124.5 -51.5q-70 0 -120 52.5t-50 123.5q0 67 50 117.5t116 50.5z" />
    <glyph glyph-name="Aring" unicode="&#xc5;" horiz-adv-x="1517" 
d="M625 1450h264l631 -1450h-361l-125 307h-563l-121 -307h-352zM748 1028l-177 -450h355zM760 1952q95 0 161 -68.5t66 -159.5q0 -93 -68 -160t-159 -67q-92 0 -160 67.5t-68 159.5q0 91 67.5 159.5t160.5 68.5zM655 1724q0 -43 31 -73.5t74 -30.5q44 0 74 31t30 73
q0 43 -31 74t-75 31q-39 0 -71 -31t-32 -74z" />
    <glyph glyph-name="AE" unicode="&#xc6;" horiz-adv-x="2123" 
d="M889 1450h1102v-295h-578v-270h529v-295h-529v-295h602v-295h-921v307h-539l-195 -307h-391zM1059 1155l-367 -577h402v577h-35z" />
    <glyph glyph-name="Ccedilla" unicode="&#xc7;" horiz-adv-x="1402" 
d="M852 1487q146 0 277.5 -55.5t211.5 -157.5l-245 -201q-99 119 -275 119t-298 -129.5t-122 -337.5q0 -91 29 -175t80.5 -149t130 -104t170.5 -39q194 0 299 156l266 -199q-83 -122 -225 -187t-299 -65q-25 0 -39 2l-59 -88h12q127 0 186.5 -42t59.5 -128q0 -62 -43 -109
t-106.5 -68.5t-135.5 -21.5q-129 0 -256 62l51 96q93 -35 158 -35q64 0 99.5 17t35.5 49q0 31 -30.5 50.5t-71.5 19.5q-31 0 -74 -17l-66 60l111 167q-278 50 -446 250t-168 498q0 226 100 400t277.5 268t404.5 94z" />
    <glyph glyph-name="Egrave" unicode="&#xc8;" horiz-adv-x="1290" 
d="M160 1450h985v-295h-666v-270h629v-295h-629v-295h703v-295h-1022v1450zM229 1851h418l207 -295h-270z" />
    <glyph glyph-name="Eacute" unicode="&#xc9;" horiz-adv-x="1290" 
d="M160 1450h985v-295h-666v-270h629v-295h-629v-295h703v-295h-1022v1450zM647 1851h418l-354 -295h-271z" />
    <glyph glyph-name="Ecircumflex" unicode="&#xca;" horiz-adv-x="1290" 
d="M160 1450h985v-295h-666v-270h629v-295h-629v-295h703v-295h-1022v1450zM481 1851h334l238 -295h-283l-129 160l-127 -160h-276z" />
    <glyph glyph-name="Edieresis" unicode="&#xcb;" horiz-adv-x="1290" 
d="M160 1450h985v-295h-666v-270h629v-295h-629v-295h703v-295h-1022v1450zM426 1888q73 0 125.5 -48t52.5 -120q0 -73 -49.5 -124.5t-124.5 -51.5q-70 0 -120 52.5t-50 123.5q0 67 49.5 117.5t116.5 50.5zM852 1888q73 0 125.5 -48t52.5 -120q0 -73 -49.5 -124.5
t-124.5 -51.5q-70 0 -120 52.5t-50 123.5q0 67 50 117.5t116 50.5z" />
    <glyph glyph-name="Igrave" unicode="&#xcc;" horiz-adv-x="606" 
d="M143 1450h320v-1450h-320v1450zM-113 1851h418l207 -295h-270z" />
    <glyph glyph-name="Iacute" unicode="&#xcd;" horiz-adv-x="606" 
d="M143 1450h320v-1450h-320v1450zM305 1851h418l-354 -295h-271z" />
    <glyph glyph-name="Icircumflex" unicode="&#xce;" horiz-adv-x="606" 
d="M143 1450h320v-1450h-320v1450zM139 1851h334l238 -295h-283l-129 160l-127 -160h-276z" />
    <glyph glyph-name="Idieresis" unicode="&#xcf;" horiz-adv-x="606" 
d="M143 1450h320v-1450h-320v1450zM84 1888q73 0 125.5 -48t52.5 -120q0 -73 -49.5 -124.5t-124.5 -51.5q-70 0 -120 52.5t-50 123.5q0 67 49.5 117.5t116.5 50.5zM510 1888q73 0 125.5 -48t52.5 -120q0 -73 -49.5 -124.5t-124.5 -51.5q-70 0 -120 52.5t-50 123.5
q0 67 50 117.5t116 50.5z" />
    <glyph glyph-name="Eth" unicode="&#xd0;" horiz-adv-x="1554" 
d="M147 1450h492q141 0 264.5 -25t231.5 -81.5t185 -139.5t121 -206t44 -275q0 -168 -65 -306.5t-176 -228.5t-256.5 -139t-309.5 -49h-531v651h-122v209h122v590zM467 295h176q111 0 200.5 24t160.5 74t110 137t39 205q0 105 -39.5 187t-108 132t-155 75.5t-186.5 25.5
h-197v-295h405v-209h-405v-356z" />
    <glyph glyph-name="Ntilde" unicode="&#xd1;" horiz-adv-x="1669" 
d="M147 1450h435l616 -1008h4v1008h320v-1450h-418l-633 1032h-4v-1032h-320v1450zM694 1851q75 0 178 -43q68 -30 115 -30q58 0 90 73h160q-48 -282 -266 -282q-65 0 -160 43q-3 1 -29.5 13.5t-36 16t-29 8.5t-34.5 5q-29 0 -52 -24.5t-34 -61.5h-162q21 126 91 204t169 78
z" />
    <glyph glyph-name="Ograve" unicode="&#xd2;" horiz-adv-x="1703" 
d="M852 1487q229 0 406.5 -93.5t276.5 -267.5t99 -401t-100.5 -401t-278 -267.5t-403.5 -93.5q-227 0 -404.5 93t-277.5 267t-100 402t100 402t277.5 267t404.5 93zM401 725q0 -206 124.5 -336.5t326.5 -130.5q201 0 326 131t125 336q0 206 -125 336.5t-328 130.5
q-200 0 -324.5 -130.5t-124.5 -336.5zM436 1851h418l207 -295h-270z" />
    <glyph glyph-name="Oacute" unicode="&#xd3;" horiz-adv-x="1703" 
d="M852 1487q229 0 406.5 -93.5t276.5 -267.5t99 -401t-100.5 -401t-278 -267.5t-403.5 -93.5q-227 0 -404.5 93t-277.5 267t-100 402t100 402t277.5 267t404.5 93zM401 725q0 -206 124.5 -336.5t326.5 -130.5q201 0 326 131t125 336q0 206 -125 336.5t-328 130.5
q-200 0 -324.5 -130.5t-124.5 -336.5zM854 1851h418l-354 -295h-271z" />
    <glyph glyph-name="Ocircumflex" unicode="&#xd4;" horiz-adv-x="1703" 
d="M852 1487q229 0 406.5 -93.5t276.5 -267.5t99 -401t-100.5 -401t-278 -267.5t-403.5 -93.5q-227 0 -404.5 93t-277.5 267t-100 402t100 402t277.5 267t404.5 93zM401 725q0 -206 124.5 -336.5t326.5 -130.5q201 0 326 131t125 336q0 206 -125 336.5t-328 130.5
q-200 0 -324.5 -130.5t-124.5 -336.5zM688 1851h334l238 -295h-283l-129 160l-127 -160h-277z" />
    <glyph glyph-name="Otilde" unicode="&#xd5;" horiz-adv-x="1703" 
d="M852 1487q229 0 406.5 -93.5t276.5 -267.5t99 -401t-100.5 -401t-278 -267.5t-403.5 -93.5q-227 0 -404.5 93t-277.5 267t-100 402t100 402t277.5 267t404.5 93zM401 725q0 -206 124.5 -336.5t326.5 -130.5q201 0 326 131t125 336q0 206 -125 336.5t-328 130.5
q-200 0 -324.5 -130.5t-124.5 -336.5zM711 1851q75 0 178 -43q68 -30 115 -30q58 0 90 73h159q-48 -282 -266 -282q-65 0 -160 43q-3 1 -29.5 13.5t-36 16t-29 8.5t-34.5 5q-29 0 -52 -24.5t-34 -61.5h-161q21 126 91 204t169 78z" />
    <glyph glyph-name="Odieresis" unicode="&#xd6;" horiz-adv-x="1703" 
d="M852 1487q229 0 406.5 -93.5t276.5 -267.5t99 -401t-100.5 -401t-278 -267.5t-403.5 -93.5q-227 0 -404.5 93t-277.5 267t-100 402t100 402t277.5 267t404.5 93zM401 725q0 -206 124.5 -336.5t326.5 -130.5q201 0 326 131t125 336q0 206 -125 336.5t-328 130.5
q-200 0 -324.5 -130.5t-124.5 -336.5zM633 1888q73 0 125.5 -48t52.5 -120q0 -73 -49.5 -124.5t-124.5 -51.5q-70 0 -120 52.5t-50 123.5q0 67 49.5 117.5t116.5 50.5zM1059 1888q73 0 125.5 -48t52.5 -120q0 -73 -49.5 -124.5t-124.5 -51.5q-70 0 -120 52.5t-50 123.5
q0 67 50 117.5t116 50.5z" />
    <glyph glyph-name="multiply" unicode="&#xd7;" horiz-adv-x="1363" 
d="M322 1167l362 -358l352 356l183 -176l-355 -368l369 -355l-189 -190l-360 360l-362 -362l-183 176l357 371l-365 352z" />
    <glyph glyph-name="Oslash" unicode="&#xd8;" horiz-adv-x="1703" 
d="M1505 1561l113 -101l-184 -200q200 -206 200 -535q0 -228 -100.5 -402t-278 -267t-403.5 -93q-283 0 -477 139l-191 -206l-114 98l190 209q-190 207 -190 522q0 228 100 402t277.5 267t404.5 93q267 0 465 -131zM401 725q0 -159 80 -281l623 678q-111 70 -254 70
q-200 0 -324.5 -133t-124.5 -334zM1212 1018l-624 -682q111 -78 264 -78q201 0 326 131t125 336q0 172 -91 293z" />
    <glyph glyph-name="Ugrave" unicode="&#xd9;" horiz-adv-x="1517" 
d="M147 1450h320v-883q0 -130 83.5 -219.5t209.5 -89.5q118 0 204.5 86t86.5 223v883h319v-897q0 -121 -37.5 -225.5t-110 -187t-191.5 -130t-271 -47.5t-271.5 47.5t-192.5 130t-111 187t-38 225.5v897zM344 1851h418l207 -295h-271z" />
    <glyph glyph-name="Uacute" unicode="&#xda;" horiz-adv-x="1517" 
d="M147 1450h320v-883q0 -130 83.5 -219.5t209.5 -89.5q118 0 204.5 86t86.5 223v883h319v-897q0 -121 -37.5 -225.5t-110 -187t-191.5 -130t-271 -47.5t-271.5 47.5t-192.5 130t-111 187t-38 225.5v897zM762 1851h418l-355 -295h-270z" />
    <glyph glyph-name="Ucircumflex" unicode="&#xdb;" horiz-adv-x="1517" 
d="M147 1450h320v-883q0 -130 83.5 -219.5t209.5 -89.5q118 0 204.5 86t86.5 223v883h319v-897q0 -121 -37.5 -225.5t-110 -187t-191.5 -130t-271 -47.5t-271.5 47.5t-192.5 130t-111 187t-38 225.5v897zM596 1851h334l237 -295h-282l-129 160l-127 -160h-277z" />
    <glyph glyph-name="Udieresis" unicode="&#xdc;" horiz-adv-x="1517" 
d="M147 1450h320v-883q0 -130 83.5 -219.5t209.5 -89.5q118 0 204.5 86t86.5 223v883h319v-897q0 -121 -37.5 -225.5t-110 -187t-191.5 -130t-271 -47.5t-271.5 47.5t-192.5 130t-111 187t-38 225.5v897zM541 1888q73 0 125.5 -48t52.5 -120q0 -73 -49.5 -124.5
t-124.5 -51.5q-70 0 -120 52.5t-50 123.5q0 67 49.5 117.5t116.5 50.5zM967 1888q73 0 125.5 -48t52.5 -120q0 -73 -49.5 -124.5t-124.5 -51.5q-70 0 -120 52.5t-50 123.5q0 67 50 117.5t116 50.5z" />
    <glyph glyph-name="Yacute" unicode="&#xdd;" horiz-adv-x="1327" 
d="M-41 1450h397l308 -543l325 543h379l-545 -832v-618h-319v618zM666 1905h417l-354 -295h-270z" />
    <glyph glyph-name="Thorn" unicode="&#xde;" horiz-adv-x="1290" 
d="M147 1450h320v-258h229q267 0 404 -110t137 -330q0 -222 -133 -333.5t-393 -111.5h-244v-307h-320v1450zM467 578h217q105 0 163 45t58 129q0 170 -266 170h-172v-344z" />
    <glyph glyph-name="germandbls" unicode="&#xdf;" horiz-adv-x="1290" 
d="M633 1573q204 0 338.5 -101.5t134.5 -273.5q0 -243 -209 -328v-4q152 -31 236 -142t84 -280q0 -214 -135 -341.5t-353 -127.5q-84 0 -190 25v250q56 -17 100 -17q129 0 206 65t77 175q0 119 -72.5 184.5t-214.5 65.5h-35v258h21q87 0 138.5 43.5t51.5 118.5
q0 72 -54.5 116t-131.5 44q-95 0 -152 -55.5t-57 -139.5v-1108h-307v1059q0 251 130.5 382.5t393.5 131.5z" />
    <glyph glyph-name="agrave" unicode="&#xe0;" horiz-adv-x="1099" 
d="M561 1020q128 0 216 -31t140.5 -96t75.5 -155t23 -218v-520h-283v125h-4q-49 -76 -133 -113t-182 -37q-94 0 -173.5 34t-130.5 105.5t-51 168.5q0 72 26 129t63.5 93t100.5 61.5t114.5 38.5t131 19.5t123 7.5t115.5 1q0 81 -57.5 129.5t-138.5 48.5q-144 0 -250 -119
l-164 168q83 80 199 120t239 40zM354 293q0 -54 45.5 -81.5t102.5 -27.5q95 0 163 49.5t68 139.5v63h-92q-44 0 -85 -4.5t-91 -18t-80.5 -44.5t-30.5 -76zM135 1450h418l207 -295h-271z" />
    <glyph glyph-name="aacute" unicode="&#xe1;" horiz-adv-x="1099" 
d="M561 1020q128 0 216 -31t140.5 -96t75.5 -155t23 -218v-520h-283v125h-4q-49 -76 -133 -113t-182 -37q-94 0 -173.5 34t-130.5 105.5t-51 168.5q0 72 26 129t63.5 93t100.5 61.5t114.5 38.5t131 19.5t123 7.5t115.5 1q0 81 -57.5 129.5t-138.5 48.5q-144 0 -250 -119
l-164 168q83 80 199 120t239 40zM354 293q0 -54 45.5 -81.5t102.5 -27.5q95 0 163 49.5t68 139.5v63h-92q-44 0 -85 -4.5t-91 -18t-80.5 -44.5t-30.5 -76zM553 1450h418l-355 -295h-270z" />
    <glyph glyph-name="acircumflex" unicode="&#xe2;" horiz-adv-x="1099" 
d="M561 1020q128 0 216 -31t140.5 -96t75.5 -155t23 -218v-520h-283v125h-4q-49 -76 -133 -113t-182 -37q-94 0 -173.5 34t-130.5 105.5t-51 168.5q0 72 26 129t63.5 93t100.5 61.5t114.5 38.5t131 19.5t123 7.5t115.5 1q0 81 -57.5 129.5t-138.5 48.5q-144 0 -250 -119
l-164 168q83 80 199 120t239 40zM354 293q0 -54 45.5 -81.5t102.5 -27.5q95 0 163 49.5t68 139.5v63h-92q-44 0 -85 -4.5t-91 -18t-80.5 -44.5t-30.5 -76zM387 1450h334l237 -295h-282l-129 160l-127 -160h-277z" />
    <glyph glyph-name="atilde" unicode="&#xe3;" horiz-adv-x="1099" 
d="M561 1020q128 0 216 -31t140.5 -96t75.5 -155t23 -218v-520h-283v125h-4q-49 -76 -133 -113t-182 -37q-94 0 -173.5 34t-130.5 105.5t-51 168.5q0 72 26 129t63.5 93t100.5 61.5t114.5 38.5t131 19.5t123 7.5t115.5 1q0 81 -57.5 129.5t-138.5 48.5q-144 0 -250 -119
l-164 168q83 80 199 120t239 40zM354 293q0 -54 45.5 -81.5t102.5 -27.5q95 0 163 49.5t68 139.5v63h-92q-44 0 -85 -4.5t-91 -18t-80.5 -44.5t-30.5 -76zM410 1450q75 0 178 -43q71 -31 114 -31q59 0 91 74h159q-48 -283 -266 -283q-65 0 -160 43q-3 1 -29.5 13.5t-36 16
t-29 8.5t-34.5 5q-29 0 -52 -24.5t-34 -61.5h-161q21 126 91 204.5t169 78.5z" />
    <glyph glyph-name="adieresis" unicode="&#xe4;" horiz-adv-x="1099" 
d="M561 1020q128 0 216 -31t140.5 -96t75.5 -155t23 -218v-520h-283v125h-4q-49 -76 -133 -113t-182 -37q-94 0 -173.5 34t-130.5 105.5t-51 168.5q0 72 26 129t63.5 93t100.5 61.5t114.5 38.5t131 19.5t123 7.5t115.5 1q0 81 -57.5 129.5t-138.5 48.5q-144 0 -250 -119
l-164 168q83 80 199 120t239 40zM354 293q0 -54 45.5 -81.5t102.5 -27.5q95 0 163 49.5t68 139.5v63h-92q-44 0 -85 -4.5t-91 -18t-80.5 -44.5t-30.5 -76zM332 1487q69 0 123.5 -47t54.5 -121q0 -73 -49.5 -124.5t-124.5 -51.5q-72 0 -121 52.5t-49 123.5q0 67 49.5 117.5
t116.5 50.5zM758 1487q72 0 125 -48t53 -120q0 -73 -49.5 -124.5t-124.5 -51.5q-70 0 -120 52t-50 124q0 67 50 117.5t116 50.5z" />
    <glyph glyph-name="aring" unicode="&#xe5;" horiz-adv-x="1099" 
d="M561 1020q128 0 216 -31t140.5 -96t75.5 -155t23 -218v-520h-283v125h-4q-49 -76 -133 -113t-182 -37q-94 0 -173.5 34t-130.5 105.5t-51 168.5q0 72 26 129t63.5 93t100.5 61.5t114.5 38.5t131 19.5t123 7.5t115.5 1q0 81 -57.5 129.5t-138.5 48.5q-144 0 -250 -119
l-164 168q83 80 199 120t239 40zM354 293q0 -54 45.5 -81.5t102.5 -27.5q95 0 163 49.5t68 139.5v63h-92q-44 0 -85 -4.5t-91 -18t-80.5 -44.5t-30.5 -76zM551 1571q94 0 160.5 -68.5t66.5 -159.5q0 -90 -66 -158.5t-161 -68.5q-91 0 -159 67.5t-68 159.5t67 160t160 68z
M446 1343q0 -43 31 -73.5t74 -30.5q44 0 74 31t30 73q0 43 -30.5 74t-75.5 31q-39 0 -71 -31t-32 -74z" />
    <glyph glyph-name="ae" unicode="&#xe6;" horiz-adv-x="1744" 
d="M559 1020q202 0 326 -121q124 121 334 121q98 0 182 -33t148 -96.5t100.5 -165t36.5 -229.5v-95h-713q19 -87 81 -139.5t150 -52.5q131 0 219 121l215 -158q-74 -93 -186 -145t-233 -52q-287 0 -398 162q-115 -162 -405 -162q-68 0 -131 19.5t-114 56.5t-81.5 97
t-30.5 135q0 65 23 117t57.5 85.5t90 58t105 37t119 19.5t116 8.5t110.5 1.5h35q0 87 -46.5 144t-131.5 57q-144 0 -250 -119l-164 168q82 79 198.5 119.5t237.5 40.5zM973 610h405q0 82 -55 135.5t-135 53.5q-87 0 -146.5 -51.5t-68.5 -137.5zM354 285q0 -32 14 -53.5
t39 -31t49 -13t56 -3.5q102 0 152.5 55.5t50.5 157.5v4h-39q-178 0 -251 -30q-71 -30 -71 -86z" />
    <glyph glyph-name="ccedilla" unicode="&#xe7;" horiz-adv-x="987" 
d="M631 1020q100 0 195.5 -33.5t158.5 -99.5l-203 -213q-26 35 -67 55.5t-84 20.5q-113 0 -179.5 -69t-66.5 -183q0 -116 68 -184t178 -68q88 0 151 76l203 -213q-65 -66 -159.5 -100t-194.5 -34h-21l-65 -98h12q127 0 186.5 -42t59.5 -128q0 -55 -31 -96.5t-78 -62
t-92 -30.5t-84 -10q-129 0 -256 62l51 96q93 -35 158 -35q135 0 135 66q0 31 -30.5 50.5t-71.5 19.5q-32 0 -74 -17l-65 60l120 182q-182 41 -294.5 176t-112.5 330q0 155 74.5 275t199.5 183.5t279 63.5z" />
    <glyph glyph-name="egrave" unicode="&#xe8;" horiz-adv-x="1175" 
d="M78 498q0 154 73.5 274t201 184t286.5 64q62 0 122 -15t122.5 -54t109 -97t76 -153t29.5 -214v-86h-713q19 -87 79.5 -139.5t151.5 -52.5q129 0 220 121l215 -158q-71 -92 -185.5 -144.5t-234.5 -52.5q-112 0 -212 36.5t-176 102.5t-120.5 165.5t-44.5 218.5zM385 610
h406q0 83 -55 136t-136 53q-87 0 -147.5 -52t-67.5 -137zM172 1450h418l207 -295h-271z" />
    <glyph glyph-name="eacute" unicode="&#xe9;" horiz-adv-x="1175" 
d="M78 498q0 154 73.5 274t201 184t286.5 64q62 0 122 -15t122.5 -54t109 -97t76 -153t29.5 -214v-86h-713q19 -87 79.5 -139.5t151.5 -52.5q129 0 220 121l215 -158q-71 -92 -185.5 -144.5t-234.5 -52.5q-112 0 -212 36.5t-176 102.5t-120.5 165.5t-44.5 218.5zM385 610
h406q0 83 -55 136t-136 53q-87 0 -147.5 -52t-67.5 -137zM590 1450h418l-355 -295h-270z" />
    <glyph glyph-name="ecircumflex" unicode="&#xea;" horiz-adv-x="1175" 
d="M78 498q0 154 73.5 274t201 184t286.5 64q62 0 122 -15t122.5 -54t109 -97t76 -153t29.5 -214v-86h-713q19 -87 79.5 -139.5t151.5 -52.5q129 0 220 121l215 -158q-71 -92 -185.5 -144.5t-234.5 -52.5q-112 0 -212 36.5t-176 102.5t-120.5 165.5t-44.5 218.5zM385 610
h406q0 83 -55 136t-136 53q-87 0 -147.5 -52t-67.5 -137zM424 1450h334l237 -295h-282l-129 160l-127 -160h-277z" />
    <glyph glyph-name="edieresis" unicode="&#xeb;" horiz-adv-x="1175" 
d="M78 498q0 154 73.5 274t201 184t286.5 64q62 0 122 -15t122.5 -54t109 -97t76 -153t29.5 -214v-86h-713q19 -87 79.5 -139.5t151.5 -52.5q129 0 220 121l215 -158q-71 -92 -185.5 -144.5t-234.5 -52.5q-112 0 -212 36.5t-176 102.5t-120.5 165.5t-44.5 218.5zM385 610
h406q0 83 -55 136t-136 53q-87 0 -147.5 -52t-67.5 -137zM369 1487q69 0 123.5 -47t54.5 -121q0 -73 -49.5 -124.5t-124.5 -51.5q-72 0 -121 52.5t-49 123.5q0 67 49.5 117.5t116.5 50.5zM795 1487q72 0 125 -48t53 -120q0 -73 -49.5 -124.5t-124.5 -51.5q-70 0 -120 52
t-50 124q0 67 50 117.5t116 50.5z" />
    <glyph glyph-name="igrave" unicode="&#xec;" 
d="M113 995h307v-995h-307v995zM-150 1450h418l207 -295h-270z" />
    <glyph glyph-name="iacute" unicode="&#xed;" 
d="M113 995h307v-995h-307v995zM268 1450h418l-354 -295h-271z" />
    <glyph glyph-name="icircumflex" unicode="&#xee;" 
d="M113 995h307v-995h-307v995zM102 1450h334l238 -295h-283l-129 160l-127 -160h-276z" />
    <glyph glyph-name="idieresis" unicode="&#xef;" 
d="M113 995h307v-995h-307v995zM47 1487q69 0 123.5 -47t54.5 -121q0 -73 -49.5 -124.5t-124.5 -51.5q-72 0 -121 52.5t-49 123.5q0 67 49.5 117.5t116.5 50.5zM473 1487q72 0 125 -48t53 -120q0 -73 -49.5 -124.5t-124.5 -51.5q-70 0 -120 52t-50 124q0 67 50 117.5
t116 50.5z" />
    <glyph glyph-name="eth" unicode="&#xf0;" horiz-adv-x="1249" 
d="M272 1497l250 143q72 -55 164 -147l234 98l157 -137l-252 -104q173 -177 263 -361.5t90 -406.5q0 -132 -33.5 -241t-99 -191.5t-171.5 -128.5t-243 -46q-115 0 -217 36.5t-178 102.5t-120 165.5t-44 218.5q0 94 29 177.5t79 145.5t115 107.5t138 68.5t147 23
q133 0 200 -53l4 4q-108 151 -227 264l-217 -92l-147 139l221 94q-68 71 -142 121zM379 498q0 -114 66.5 -183t179.5 -69q115 0 180 69.5t65 182.5q0 114 -66.5 183t-180.5 69q-112 0 -178 -70t-66 -182z" />
    <glyph glyph-name="ntilde" unicode="&#xf1;" horiz-adv-x="1175" 
d="M698 1020q192 0 280.5 -107t88.5 -350v-563h-307v512q0 129 -39 183.5t-121 54.5q-93 0 -138.5 -59t-45.5 -185v-506h-307v995h294v-135h5q41 75 118 117.5t172 42.5zM446 1450q76 0 179 -43q71 -31 114 -31q58 0 90 74h160q-48 -283 -266 -283q-65 0 -160 43
q-3 1 -29.5 13.5t-36 16t-29 8.5t-34.5 5q-29 0 -52 -24.5t-34 -61.5h-162q21 126 91 204.5t169 78.5z" />
    <glyph glyph-name="ograve" unicode="&#xf2;" horiz-adv-x="1249" 
d="M625 1020q154 0 279 -63.5t199.5 -183.5t74.5 -275q0 -116 -43.5 -214.5t-118.5 -165.5t-176 -105t-215 -38q-154 0 -279 63.5t-199.5 183.5t-74.5 276q0 155 74.5 275t199.5 183.5t279 63.5zM379 498q0 -114 66.5 -183t179.5 -69q112 0 178.5 68t66.5 184
q0 117 -66.5 184.5t-180.5 67.5q-111 0 -177.5 -70t-66.5 -182zM209 1450h418l207 -295h-271z" />
    <glyph glyph-name="oacute" unicode="&#xf3;" horiz-adv-x="1249" 
d="M625 1020q154 0 279 -63.5t199.5 -183.5t74.5 -275q0 -116 -43.5 -214.5t-118.5 -165.5t-176 -105t-215 -38q-154 0 -279 63.5t-199.5 183.5t-74.5 276q0 155 74.5 275t199.5 183.5t279 63.5zM379 498q0 -114 66.5 -183t179.5 -69q112 0 178.5 68t66.5 184
q0 117 -66.5 184.5t-180.5 67.5q-111 0 -177.5 -70t-66.5 -182zM627 1450h417l-354 -295h-270z" />
    <glyph glyph-name="ocircumflex" unicode="&#xf4;" horiz-adv-x="1249" 
d="M625 1020q154 0 279 -63.5t199.5 -183.5t74.5 -275q0 -116 -43.5 -214.5t-118.5 -165.5t-176 -105t-215 -38q-154 0 -279 63.5t-199.5 183.5t-74.5 276q0 155 74.5 275t199.5 183.5t279 63.5zM379 498q0 -114 66.5 -183t179.5 -69q112 0 178.5 68t66.5 184
q0 117 -66.5 184.5t-180.5 67.5q-111 0 -177.5 -70t-66.5 -182zM461 1450h334l237 -295h-282l-129 160l-127 -160h-277z" />
    <glyph glyph-name="otilde" unicode="&#xf5;" horiz-adv-x="1249" 
d="M625 1020q154 0 279 -63.5t199.5 -183.5t74.5 -275q0 -116 -43.5 -214.5t-118.5 -165.5t-176 -105t-215 -38q-154 0 -279 63.5t-199.5 183.5t-74.5 276q0 155 74.5 275t199.5 183.5t279 63.5zM379 498q0 -114 66.5 -183t179.5 -69q112 0 178.5 68t66.5 184
q0 117 -66.5 184.5t-180.5 67.5q-111 0 -177.5 -70t-66.5 -182zM483 1450q76 0 179 -43q71 -31 114 -31q58 0 90 74h160q-48 -283 -266 -283q-65 0 -160 43q-3 1 -29.5 13.5t-36 16t-29 8.5t-34.5 5q-29 0 -52 -24.5t-34 -61.5h-162q21 126 91 204.5t169 78.5z" />
    <glyph glyph-name="odieresis" unicode="&#xf6;" horiz-adv-x="1249" 
d="M625 1020q154 0 279 -63.5t199.5 -183.5t74.5 -275q0 -116 -43.5 -214.5t-118.5 -165.5t-176 -105t-215 -38q-154 0 -279 63.5t-199.5 183.5t-74.5 276q0 155 74.5 275t199.5 183.5t279 63.5zM379 498q0 -114 66.5 -183t179.5 -69q112 0 178.5 68t66.5 184
q0 117 -66.5 184.5t-180.5 67.5q-111 0 -177.5 -70t-66.5 -182zM406 1487q69 0 123.5 -47t54.5 -121q0 -73 -49.5 -124.5t-124.5 -51.5q-72 0 -121 52.5t-49 123.5q0 67 49.5 117.5t116.5 50.5zM831 1487q72 0 125.5 -48t53.5 -120q0 -73 -49.5 -124.5t-124.5 -51.5
q-70 0 -120 52t-50 124q0 67 49.5 117.5t115.5 50.5z" />
    <glyph glyph-name="divide" unicode="&#xf7;" horiz-adv-x="1363" 
d="M682 1184q73 0 124.5 -52.5t51.5 -123.5q0 -72 -51 -124.5t-125 -52.5q-72 0 -124 52.5t-52 124.5q0 71 51.5 123.5t124.5 52.5zM121 750h1122v-258h-1122v258zM682 410q73 0 124.5 -53t51.5 -124q0 -72 -51 -124t-125 -52q-71 0 -123.5 52t-52.5 124q0 71 52 124t124 53
z" />
    <glyph glyph-name="oslash" unicode="&#xf8;" horiz-adv-x="1249" 
d="M963 920l137 137l96 -92l-135 -136q117 -137 117 -331q0 -154 -74 -274.5t-199.5 -184.5t-279.5 -64q-184 0 -326 95l-149 -150l-97 92l144 144q-125 140 -125 342q0 155 74.5 275t199.5 183.5t279 63.5q194 0 338 -100zM379 498q0 -76 31 -129l348 348q-54 33 -135 33
q-111 0 -177.5 -70t-66.5 -182zM846 614l-342 -340q58 -28 121 -28q112 0 178.5 69t66.5 183q0 60 -24 116z" />
    <glyph glyph-name="ugrave" unicode="&#xf9;" horiz-adv-x="1175" 
d="M109 995h307v-493q0 -30 0.5 -46t3.5 -47.5t8.5 -50t17 -42.5t28 -37.5t42.5 -23t59 -9.5q96 0 140.5 60t44.5 186v503h307v-995h-295v135h-4q-41 -75 -118.5 -117.5t-174.5 -42.5q-194 0 -280 109.5t-86 349.5v561zM172 1450h418l207 -295h-271z" />
    <glyph glyph-name="uacute" unicode="&#xfa;" horiz-adv-x="1175" 
d="M109 995h307v-493q0 -30 0.5 -46t3.5 -47.5t8.5 -50t17 -42.5t28 -37.5t42.5 -23t59 -9.5q96 0 140.5 60t44.5 186v503h307v-995h-295v135h-4q-41 -75 -118.5 -117.5t-174.5 -42.5q-194 0 -280 109.5t-86 349.5v561zM590 1450h418l-355 -295h-270z" />
    <glyph glyph-name="ucircumflex" unicode="&#xfb;" horiz-adv-x="1175" 
d="M109 995h307v-493q0 -30 0.5 -46t3.5 -47.5t8.5 -50t17 -42.5t28 -37.5t42.5 -23t59 -9.5q96 0 140.5 60t44.5 186v503h307v-995h-295v135h-4q-41 -75 -118.5 -117.5t-174.5 -42.5q-194 0 -280 109.5t-86 349.5v561zM424 1450h334l237 -295h-282l-129 160l-127 -160h-277
z" />
    <glyph glyph-name="udieresis" unicode="&#xfc;" horiz-adv-x="1175" 
d="M109 995h307v-493q0 -30 0.5 -46t3.5 -47.5t8.5 -50t17 -42.5t28 -37.5t42.5 -23t59 -9.5q96 0 140.5 60t44.5 186v503h307v-995h-295v135h-4q-41 -75 -118.5 -117.5t-174.5 -42.5q-194 0 -280 109.5t-86 349.5v561zM369 1487q69 0 123.5 -47t54.5 -121
q0 -73 -49.5 -124.5t-124.5 -51.5q-72 0 -121 52.5t-49 123.5q0 67 49.5 117.5t116.5 50.5zM795 1487q72 0 125 -48t53 -120q0 -73 -49.5 -124.5t-124.5 -51.5q-70 0 -120 52t-50 124q0 67 50 117.5t116 50.5z" />
    <glyph glyph-name="yacute" unicode="&#xfd;" horiz-adv-x="1138" 
d="M6 995h332l256 -657h4l219 657h316l-447 -1147q-57 -147 -90 -198q-60 -94 -167 -123q-68 -19 -169 -19q-119 0 -229 37l41 252q70 -30 143 -30q30 0 55 5t42.5 11t33 21t25 25.5t21 34t16.5 37t16.5 44.5t17.5 47zM571 1450h418l-354 -295h-270z" />
    <glyph glyph-name="thorn" unicode="&#xfe;" horiz-adv-x="1290" 
d="M137 1548h307v-659h5q39 62 119 96.5t161 34.5q221 0 355.5 -144t134.5 -370q0 -100 -30.5 -194t-86.5 -169.5t-144 -121.5t-194 -46q-218 0 -313 129h-7v-571h-307v2015zM420 498q0 -114 66.5 -183t179.5 -69q112 0 178.5 68t66.5 184q0 117 -66.5 184.5t-180.5 67.5
q-111 0 -177.5 -70t-66.5 -182z" />
    <glyph glyph-name="ydieresis" unicode="&#xff;" horiz-adv-x="1138" 
d="M6 995h332l256 -657h4l219 657h316l-447 -1147q-57 -147 -90 -198q-60 -94 -167 -123q-68 -19 -169 -19q-119 0 -229 37l41 252q70 -30 143 -30q30 0 55 5t42.5 11t33 21t25 25.5t21 34t16.5 37t16.5 44.5t17.5 47zM350 1487q69 0 123.5 -47t54.5 -121
q0 -73 -49.5 -124.5t-124.5 -51.5q-72 0 -121 52.5t-49 123.5q0 67 49.5 117.5t116.5 50.5zM776 1487q72 0 125 -48t53 -120q0 -73 -49.5 -124.5t-124.5 -51.5q-70 0 -120 52t-50 124q0 67 50 117.5t116 50.5z" />
    <glyph glyph-name="Amacron" unicode="&#x100;" horiz-adv-x="1517" 
d="M625 1450h264l631 -1450h-361l-125 307h-563l-121 -307h-352zM748 1028l-177 -450h355zM399 1808h697v-196h-697v196z" />
    <glyph glyph-name="amacron" unicode="&#x101;" horiz-adv-x="1099" 
d="M561 1020q128 0 216 -31t140.5 -96t75.5 -155t23 -218v-520h-283v125h-4q-49 -76 -133 -113t-182 -37q-94 0 -173.5 34t-130.5 105.5t-51 168.5q0 72 26 129t63.5 93t100.5 61.5t114.5 38.5t131 19.5t123 7.5t115.5 1q0 81 -57.5 129.5t-138.5 48.5q-144 0 -250 -119
l-164 168q83 80 199 120t239 40zM354 293q0 -54 45.5 -81.5t102.5 -27.5q95 0 163 49.5t68 139.5v63h-92q-44 0 -85 -4.5t-91 -18t-80.5 -44.5t-30.5 -76zM236 1407h696v-197h-696v197z" />
    <glyph glyph-name="Abreve" unicode="&#x102;" horiz-adv-x="1517" 
d="M625 1450h264l631 -1450h-361l-125 307h-563l-121 -307h-352zM748 1028l-177 -450h355zM371 1851h164q18 -98 215 -98h37t36 2t36.5 5.5t32 10.5t30 17.5t23 26.5t18.5 36h161q-16 -149 -118 -222t-258 -73q-161 0 -264.5 72t-112.5 223z" />
    <glyph glyph-name="abreve" unicode="&#x103;" horiz-adv-x="1099" 
d="M561 1020q128 0 216 -31t140.5 -96t75.5 -155t23 -218v-520h-283v125h-4q-49 -76 -133 -113t-182 -37q-94 0 -173.5 34t-130.5 105.5t-51 168.5q0 72 26 129t63.5 93t100.5 61.5t114.5 38.5t131 19.5t123 7.5t115.5 1q0 81 -57.5 129.5t-138.5 48.5q-144 0 -250 -119
l-164 168q83 80 199 120t239 40zM354 293q0 -54 45.5 -81.5t102.5 -27.5q95 0 163 49.5t68 139.5v63h-92q-44 0 -85 -4.5t-91 -18t-80.5 -44.5t-30.5 -76zM207 1450h164q18 -98 215 -98h37t36 2t36.5 5.5t32 10.5t30 17.5t23 26.5t18.5 36h162q-16 -149 -118.5 -222
t-258.5 -73q-161 0 -264.5 72t-112.5 223z" />
    <glyph glyph-name="Aogonek" unicode="&#x104;" horiz-adv-x="1517" 
d="M625 1450h264l631 -1450h-220q-143 -146 -143 -250q0 -37 25.5 -65.5t60.5 -28.5q53 0 111 47l57 -109q-57 -43 -109 -64.5t-114 -21.5q-93 0 -154 53t-61 138q0 65 52 149.5t134 151.5l-125 307h-563l-121 -307h-352zM748 1028l-177 -450h355z" />
    <glyph glyph-name="aogonek" unicode="&#x105;" horiz-adv-x="1099" 
d="M561 1020q128 0 216 -31t140.5 -96t75.5 -155t23 -218v-520h-139q-67 -68 -105.5 -134.5t-38.5 -115.5q0 -37 25.5 -65.5t60.5 -28.5q50 0 111 47l57 -109q-57 -43 -109 -64.5t-114 -21.5q-93 0 -154 53t-61 138q0 67 53.5 149t130.5 152v125h-4q-49 -76 -133 -113
t-182 -37q-94 0 -173.5 34t-130.5 105.5t-51 168.5q0 72 26 129t63.5 93t100.5 61.5t114.5 38.5t131 19.5t123 7.5t115.5 1q0 81 -57.5 129.5t-138.5 48.5q-144 0 -250 -119l-164 168q83 80 199 120t239 40zM354 293q0 -54 45.5 -81.5t102.5 -27.5q95 0 163 49.5t68 139.5
v63h-92q-44 0 -85 -4.5t-91 -18t-80.5 -44.5t-30.5 -76z" />
    <glyph glyph-name="Cacute" unicode="&#x106;" horiz-adv-x="1402" 
d="M852 1487q146 0 277.5 -55.5t211.5 -157.5l-245 -201q-99 119 -275 119t-298 -129.5t-122 -337.5q0 -91 29 -175t80.5 -149t130 -104t170.5 -39q194 0 299 156l266 -199q-83 -122 -225.5 -187t-298.5 -65q-226 0 -403.5 93t-278 267t-100.5 402q0 226 100 400t277.5 268
t404.5 94zM805 1851h418l-355 -295h-270z" />
    <glyph glyph-name="cacute" unicode="&#x107;" horiz-adv-x="987" 
d="M631 1020q100 0 195.5 -33.5t158.5 -99.5l-203 -213q-26 35 -67 55.5t-84 20.5q-113 0 -179.5 -69t-66.5 -183q0 -116 68 -184t178 -68q88 0 151 76l203 -213q-65 -66 -159.5 -100t-194.5 -34q-154 0 -279 64t-199.5 184t-74.5 275t74.5 275t199.5 183.5t279 63.5z
M606 1450h418l-354 -295h-271z" />
    <glyph glyph-name="Ccircumflex" unicode="&#x108;" horiz-adv-x="1402" 
d="M852 1487q146 0 277.5 -55.5t211.5 -157.5l-245 -201q-99 119 -275 119t-298 -129.5t-122 -337.5q0 -91 29 -175t80.5 -149t130 -104t170.5 -39q194 0 299 156l266 -199q-83 -122 -225.5 -187t-298.5 -65q-226 0 -403.5 93t-278 267t-100.5 402q0 226 100 400t277.5 268
t404.5 94zM655 1851h334l238 -295h-283l-129 160l-127 -160h-276z" />
    <glyph glyph-name="ccircumflex" unicode="&#x109;" horiz-adv-x="987" 
d="M631 1020q100 0 195.5 -33.5t158.5 -99.5l-203 -213q-26 35 -67 55.5t-84 20.5q-113 0 -179.5 -69t-66.5 -183q0 -116 68 -184t178 -68q88 0 151 76l203 -213q-65 -66 -159.5 -100t-194.5 -34q-154 0 -279 64t-199.5 184t-74.5 275t74.5 275t199.5 183.5t279 63.5z
M432 1450h334l238 -295h-283l-129 160l-127 -160h-277z" />
    <glyph glyph-name="Cdotaccent" unicode="&#x10a;" horiz-adv-x="1402" 
d="M852 1487q146 0 277.5 -55.5t211.5 -157.5l-245 -201q-99 119 -275 119t-298 -129.5t-122 -337.5q0 -91 29 -175t80.5 -149t130 -104t170.5 -39q194 0 299 156l266 -199q-83 -122 -225.5 -187t-298.5 -65q-226 0 -403.5 93t-278 267t-100.5 402q0 226 100 400t277.5 268
t404.5 94zM813 1888q73 0 125.5 -48t52.5 -120q0 -73 -49.5 -124.5t-124.5 -51.5q-70 0 -120 52.5t-50 123.5q0 67 50 117.5t116 50.5z" />
    <glyph glyph-name="cdotaccent" unicode="&#x10b;" horiz-adv-x="987" 
d="M631 1020q100 0 195.5 -33.5t158.5 -99.5l-203 -213q-26 35 -67 55.5t-84 20.5q-113 0 -179.5 -69t-66.5 -183q0 -116 68 -184t178 -68q88 0 151 76l203 -213q-65 -66 -159.5 -100t-194.5 -34q-154 0 -279 64t-199.5 184t-74.5 275t74.5 275t199.5 183.5t279 63.5z
M590 1487q73 0 125.5 -48t52.5 -120q0 -73 -49.5 -124.5t-124.5 -51.5q-71 0 -120.5 53t-49.5 123q0 67 50 117.5t116 50.5z" />
    <glyph glyph-name="Ccaron" unicode="&#x10c;" horiz-adv-x="1402" 
d="M852 1487q146 0 277.5 -55.5t211.5 -157.5l-245 -201q-99 119 -275 119t-298 -129.5t-122 -337.5q0 -91 29 -175t80.5 -149t130 -104t170.5 -39q194 0 299 156l266 -199q-83 -122 -225.5 -187t-298.5 -65q-226 0 -403.5 93t-278 267t-100.5 402q0 226 100 400t277.5 268
t404.5 94zM403 1907h283l129 -160l127 160h277l-244 -295h-334z" />
    <glyph glyph-name="ccaron" unicode="&#x10d;" horiz-adv-x="987" 
d="M631 1020q100 0 195.5 -33.5t158.5 -99.5l-203 -213q-26 35 -67 55.5t-84 20.5q-113 0 -179.5 -69t-66.5 -183q0 -116 68 -184t178 -68q88 0 151 76l203 -213q-65 -66 -159.5 -100t-194.5 -34q-154 0 -279 64t-199.5 184t-74.5 275t74.5 275t199.5 183.5t279 63.5z
M180 1450h283l129 -160l127 160h276l-243 -295h-334z" />
    <glyph glyph-name="Dcaron" unicode="&#x10e;" horiz-adv-x="1554" 
d="M147 1450h492q141 0 264.5 -25t231.5 -81.5t185 -139.5t121 -206t44 -275q0 -168 -65 -306.5t-176 -228.5t-256.5 -139t-309.5 -49h-531v1450zM467 295h176q111 0 200.5 24t160.5 74t110 137t39 205q0 105 -39.5 187t-108 132t-155 75.5t-186.5 25.5h-197v-860zM285 1907
h282l129 -160l127 160h277l-244 -295h-334z" />
    <glyph glyph-name="dcaron" unicode="&#x10f;" horiz-adv-x="1290" 
d="M846 1548h307v-1548h-283v131h-4q-51 -71 -135 -113.5t-172 -42.5q-221 0 -354 144t-133 370q0 101 30.5 195.5t86.5 169.5t144 120.5t193 45.5q219 0 316 -131h4v659zM379 498q0 -114 66.5 -183t179.5 -69q112 0 178.5 68t66.5 184q0 119 -68 185.5t-179 66.5
q-112 0 -178 -68t-66 -184zM1346 1450h274l-164 -408h-201z" />
    <glyph glyph-name="Dcroat" unicode="&#x110;" horiz-adv-x="1554" 
d="M147 1450h492q141 0 264.5 -25t231.5 -81.5t185 -139.5t121 -206t44 -275q0 -168 -65 -306.5t-176 -228.5t-256.5 -139t-309.5 -49h-531v651h-122v209h122v590zM467 295h176q111 0 200.5 24t160.5 74t110 137t39 205q0 105 -39.5 187t-108 132t-155 75.5t-186.5 25.5
h-197v-295h405v-209h-405v-356z" />
    <glyph glyph-name="dcroat" unicode="&#x111;" horiz-adv-x="1290" 
d="M846 1548h307v-202h115v-197h-115v-1149h-283v131h-4q-53 -71 -136.5 -113.5t-170.5 -42.5q-221 0 -354 144t-133 370q0 101 30.5 195.5t86.5 169.5t144 120.5t193 45.5q216 0 316 -131h4v260h-275v197h275v202zM379 498q0 -117 66 -184.5t180 -67.5t179.5 67.5
t65.5 184.5q0 116 -66 184t-181 68q-114 0 -179 -69t-65 -183z" />
    <glyph glyph-name="Emacron" unicode="&#x112;" horiz-adv-x="1290" 
d="M160 1450h985v-295h-666v-270h629v-295h-629v-295h703v-295h-1022v1450zM315 1808h697v-196h-697v196z" />
    <glyph glyph-name="emacron" unicode="&#x113;" horiz-adv-x="1175" 
d="M78 498q0 154 73.5 274t201 184t286.5 64q62 0 122 -15t122.5 -54t109 -97t76 -153t29.5 -214v-86h-713q19 -87 79.5 -139.5t151.5 -52.5q129 0 220 121l215 -158q-71 -92 -185.5 -144.5t-234.5 -52.5q-112 0 -212 36.5t-176 102.5t-120.5 165.5t-44.5 218.5zM385 610
h406q0 83 -55 136t-136 53q-87 0 -147.5 -52t-67.5 -137zM258 1407h696v-197h-696v197z" />
    <glyph glyph-name="Ebreve" unicode="&#x114;" horiz-adv-x="1290" 
d="M160 1450h985v-295h-666v-270h629v-295h-629v-295h703v-295h-1022v1450zM287 1851h164q18 -98 215 -98h37t36 2t36.5 5.5t32 10.5t30 17.5t23 26.5t18.5 36h161q-16 -149 -118 -222t-258 -73q-161 0 -264.5 72t-112.5 223z" />
    <glyph glyph-name="ebreve" unicode="&#x115;" horiz-adv-x="1175" 
d="M78 498q0 154 73.5 274t201 184t286.5 64q62 0 122 -15t122.5 -54t109 -97t76 -153t29.5 -214v-86h-713q19 -87 79.5 -139.5t151.5 -52.5q129 0 220 121l215 -158q-71 -92 -185.5 -144.5t-234.5 -52.5q-112 0 -212 36.5t-176 102.5t-120.5 165.5t-44.5 218.5zM385 610
h406q0 83 -55 136t-136 53q-87 0 -147.5 -52t-67.5 -137zM229 1450h164q18 -98 215 -98h37t36 2t36.5 5.5t32 10.5t30 17.5t23 26.5t18.5 36h162q-16 -149 -118.5 -222t-258.5 -73q-161 0 -264.5 72t-112.5 223z" />
    <glyph glyph-name="Edotaccent" unicode="&#x116;" horiz-adv-x="1290" 
d="M160 1450h985v-295h-666v-270h629v-295h-629v-295h703v-295h-1022v1450zM674 1888q73 0 125.5 -48t52.5 -120q0 -73 -49.5 -124.5t-124.5 -51.5q-70 0 -120 52.5t-50 123.5q0 67 50 117.5t116 50.5z" />
    <glyph glyph-name="edotaccent" unicode="&#x117;" horiz-adv-x="1175" 
d="M78 498q0 154 73.5 274t201 184t286.5 64q62 0 122 -15t122.5 -54t109 -97t76 -153t29.5 -214v-86h-713q19 -87 79.5 -139.5t151.5 -52.5q129 0 220 121l215 -158q-71 -92 -185.5 -144.5t-234.5 -52.5q-112 0 -212 36.5t-176 102.5t-120.5 165.5t-44.5 218.5zM385 610
h406q0 83 -55 136t-136 53q-87 0 -147.5 -52t-67.5 -137zM612 1487q73 0 126 -48t53 -120q0 -73 -50 -124.5t-125 -51.5q-71 0 -120.5 53t-49.5 123q0 67 50 117.5t116 50.5z" />
    <glyph glyph-name="Eogonek" unicode="&#x118;" horiz-adv-x="1290" 
d="M160 1450h985v-295h-666v-270h629v-295h-629v-295h703v-295h-131q-144 -147 -144 -250q0 -37 25.5 -65.5t60.5 -28.5q53 0 111 47l57 -109q-57 -43 -109 -64.5t-114 -21.5q-93 0 -154 53t-61 138q0 129 184 301h-747v1450z" />
    <glyph glyph-name="eogonek" unicode="&#x119;" horiz-adv-x="1175" 
d="M78 498q0 154 73.5 274t201 184t286.5 64q62 0 122 -15t122.5 -54t109 -97t76 -153t29.5 -214v-86h-713q19 -87 79.5 -139.5t151.5 -52.5q129 0 220 121l215 -158q-56 -71 -138.5 -119t-175.5 -67q-58 -56 -93.5 -122t-35.5 -114q0 -37 25.5 -65.5t60.5 -28.5
q53 0 111 47l57 -109q-57 -43 -109 -64.5t-114 -21.5q-93 0 -154 53t-61 138q0 120 158 278q-140 10 -253 74.5t-182 181t-69 265.5zM385 610h406q0 83 -55 136t-136 53q-87 0 -147.5 -52t-67.5 -137z" />
    <glyph glyph-name="Ecaron" unicode="&#x11a;" horiz-adv-x="1290" 
d="M160 1450h985v-295h-666v-270h629v-295h-629v-295h703v-295h-1022v1450zM248 1907h282l129 -160l127 160h277l-244 -295h-334z" />
    <glyph glyph-name="ecaron" unicode="&#x11b;" horiz-adv-x="1175" 
d="M78 498q0 154 73.5 274t201 184t286.5 64q62 0 122 -15t122.5 -54t109 -97t76 -153t29.5 -214v-86h-713q19 -87 79.5 -139.5t151.5 -52.5q129 0 220 121l215 -158q-71 -92 -185.5 -144.5t-234.5 -52.5q-112 0 -212 36.5t-176 102.5t-120.5 165.5t-44.5 218.5zM385 610
h406q0 83 -55 136t-136 53q-87 0 -147.5 -52t-67.5 -137zM190 1450h283l129 -160l127 160h277l-244 -295h-334z" />
    <glyph glyph-name="Gcircumflex" unicode="&#x11c;" horiz-adv-x="1593" 
d="M854 1487q369 0 576 -187l-226 -245q-129 137 -350 137q-203 0 -328 -130.5t-125 -336.5q0 -207 125 -337t328 -130q164 0 299 72v235h-260v295h567v-758q-261 -139 -606 -139q-170 0 -315 54t-248.5 151.5t-162 241t-58.5 315.5t58.5 315t162 241t248.5 152t315 54z
M680 1851h334l237 -295h-282l-129 160l-127 -160h-277z" />
    <glyph glyph-name="gcircumflex" unicode="&#x11d;" horiz-adv-x="1290" 
d="M526 1020q102 0 193.5 -38.5t146.5 -117.5h4v131h283v-921q0 -278 -147.5 -422t-427.5 -144q-316 0 -500 146l170 254q155 -129 323 -129q122 0 198.5 60.5t76.5 178.5v101h-4q-46 -62 -123 -96.5t-160 -34.5q-220 0 -353.5 145.5t-133.5 368.5q0 99 32 191.5t89 165.5
t144 117t189 44zM379 504q0 -102 73 -174t173 -72q99 0 172 72.5t73 173.5q0 100 -72.5 173t-174.5 73q-99 0 -171.5 -73.5t-72.5 -172.5zM473 1450h334l237 -295h-282l-129 160l-127 -160h-277z" />
    <glyph glyph-name="Gbreve" unicode="&#x11e;" horiz-adv-x="1593" 
d="M854 1487q369 0 576 -187l-226 -245q-129 137 -350 137q-203 0 -328 -130.5t-125 -336.5q0 -207 125 -337t328 -130q164 0 299 72v235h-260v295h567v-758q-261 -139 -606 -139q-170 0 -315 54t-248.5 151.5t-162 241t-58.5 315.5t58.5 315t162 241t248.5 152t315 54z
M467 1851h164q18 -98 215 -98h37t36 2t36.5 5.5t32 10.5t30 17.5t23 26.5t18.5 36h162q-16 -149 -118.5 -222t-258.5 -73q-161 0 -264.5 72t-112.5 223z" />
    <glyph glyph-name="gbreve" unicode="&#x11f;" horiz-adv-x="1290" 
d="M526 1020q102 0 193.5 -38.5t146.5 -117.5h4v131h283v-921q0 -278 -147.5 -422t-427.5 -144q-316 0 -500 146l170 254q155 -129 323 -129q122 0 198.5 60.5t76.5 178.5v101h-4q-46 -62 -123 -96.5t-160 -34.5q-220 0 -353.5 145.5t-133.5 368.5q0 99 32 191.5t89 165.5
t144 117t189 44zM379 504q0 -102 73 -174t173 -72q99 0 172 72.5t73 173.5q0 100 -72.5 173t-174.5 73q-99 0 -171.5 -73.5t-72.5 -172.5zM281 1450h163q18 -98 215 -98h37t36 2t36.5 5.5t32 10.5t30 17.5t23 26.5t18.5 36h162q-16 -149 -118.5 -222t-258.5 -73
q-161 0 -264 72t-112 223z" />
    <glyph glyph-name="Gdotaccent" unicode="&#x120;" horiz-adv-x="1593" 
d="M854 1487q369 0 576 -187l-226 -245q-129 137 -350 137q-203 0 -328 -130.5t-125 -336.5q0 -207 125 -337t328 -130q164 0 299 72v235h-260v295h567v-758q-261 -139 -606 -139q-170 0 -315 54t-248.5 151.5t-162 241t-58.5 315.5t58.5 315t162 241t248.5 152t315 54z
M838 1888q73 0 125.5 -48t52.5 -120q0 -73 -49.5 -124.5t-124.5 -51.5q-70 0 -120 52.5t-50 123.5q0 67 50 117.5t116 50.5z" />
    <glyph glyph-name="gdotaccent" unicode="&#x121;" horiz-adv-x="1290" 
d="M526 1020q102 0 193.5 -38.5t146.5 -117.5h4v131h283v-921q0 -278 -147.5 -422t-427.5 -144q-316 0 -500 146l170 254q155 -129 323 -129q122 0 198.5 60.5t76.5 178.5v101h-4q-46 -62 -123 -96.5t-160 -34.5q-220 0 -353.5 145.5t-133.5 368.5q0 99 32 191.5t89 165.5
t144 117t189 44zM379 504q0 -102 73 -174t173 -72q99 0 172 72.5t73 173.5q0 100 -72.5 173t-174.5 73q-99 0 -171.5 -73.5t-72.5 -172.5zM651 1487q73 0 125.5 -48t52.5 -120q0 -73 -49.5 -124.5t-124.5 -51.5q-71 0 -120.5 53t-49.5 123q0 67 50 117.5t116 50.5z" />
    <glyph glyph-name="Gcommaaccent" unicode="&#x122;" horiz-adv-x="1593" 
d="M854 1487q369 0 576 -187l-226 -245q-129 137 -350 137q-203 0 -328 -130.5t-125 -336.5q0 -207 125 -337t328 -130q164 0 299 72v235h-260v295h567v-758q-261 -139 -606 -139q-170 0 -315 54t-248.5 151.5t-162 241t-58.5 315.5t58.5 315t162 241t248.5 152t315 54z
M748 -125h294l-184 -407h-242z" />
    <glyph glyph-name="gcommaaccent" unicode="&#x123;" horiz-adv-x="1290" 
d="M526 1020q102 0 193.5 -38.5t146.5 -117.5h4v131h283v-921q0 -278 -147.5 -422t-427.5 -144q-316 0 -500 146l170 254q155 -129 323 -129q122 0 198.5 60.5t76.5 178.5v101h-4q-46 -62 -123 -96.5t-160 -34.5q-220 0 -353.5 145.5t-133.5 368.5q0 99 32 191.5t89 165.5
t144 117t189 44zM379 504q0 -102 73 -174t173 -72q99 0 172 72.5t73 173.5q0 100 -72.5 173t-174.5 73q-99 0 -171.5 -73.5t-72.5 -172.5zM651 1604h242l-131 -408h-295z" />
    <glyph glyph-name="Hcircumflex" unicode="&#x124;" horiz-adv-x="1554" 
d="M147 1450h320v-541h620v541h320v-1450h-320v627h-620v-627h-320v1450zM612 1851h334l238 -295h-283l-129 160l-127 -160h-276z" />
    <glyph glyph-name="hcircumflex" unicode="&#x125;" horiz-adv-x="1175" 
d="M109 1548h307v-688h4q28 72 105 116t173 44q197 0 283 -111t86 -350v-559h-307v506q0 134 -39 189t-121 55q-93 0 -138.5 -59t-45.5 -185v-506h-307v1548zM393 1933h334l238 -295h-283l-129 160l-127 -160h-276z" />
    <glyph glyph-name="Hbar" unicode="&#x126;" horiz-adv-x="1554" 
d="M147 1450h320v-180h620v180h320v-1450h-320v627h-620v-627h-320v1450zM467 909h620v164h-620v-164z" />
    <glyph glyph-name="hbar" unicode="&#x127;" horiz-adv-x="1175" 
d="M109 1548h307v-202h274v-197h-274v-289h4q29 73 107 116.5t171 43.5q190 0 279.5 -106.5t89.5 -352.5v-561h-307v510q0 132 -40 186t-120 54q-93 0 -138.5 -59t-45.5 -185v-506h-307v1149h-115v197h115v202z" />
    <glyph glyph-name="Itilde" unicode="&#x128;" horiz-adv-x="606" 
d="M143 1450h320v-1450h-320v1450zM164 1851q75 0 178 -43q68 -30 115 -30q58 0 90 73h160q-48 -282 -267 -282q-64 0 -159 43q-3 1 -29.5 13t-36 16t-29 9t-34.5 5q-29 0 -52 -24.5t-34 -61.5h-162q21 126 91 204t169 78z" />
    <glyph glyph-name="itilde" unicode="&#x129;" 
d="M113 995h307v-995h-307v995zM129 1450q75 0 178 -43q71 -31 115 -31q58 0 90 74h160q-48 -283 -266 -283q-65 0 -160 43q-3 1 -29.5 13.5t-36 16t-29 8.5t-34.5 5q-29 0 -52 -24.5t-34 -61.5h-162q21 126 91 204.5t169 78.5z" />
    <glyph glyph-name="Imacron" unicode="&#x12a;" horiz-adv-x="606" 
d="M143 1450h320v-1450h-320v1450zM-47 1808h696v-196h-696v196z" />
    <glyph glyph-name="imacron" unicode="&#x12b;" 
d="M113 995h307v-995h-307v995zM-78 1407h696v-197h-696v197z" />
    <glyph glyph-name="Iogonek" unicode="&#x12e;" horiz-adv-x="606" 
d="M143 1450h320v-1450h-176q-144 -147 -144 -250q0 -37 25.5 -65.5t60.5 -28.5q53 0 111 47l57 -109q-57 -43 -109 -64.5t-114 -21.5q-93 0 -154 53t-61 138q0 126 184 301v1450z" />
    <glyph glyph-name="iogonek" unicode="&#x12f;" 
d="M266 1487q72 0 125 -53t53 -125q0 -73 -53 -126t-125 -53q-73 0 -125.5 53.5t-52.5 125.5t53 125t125 53zM113 995h307v-995h-105q-143 -146 -143 -250q0 -37 25.5 -65.5t60.5 -28.5q53 0 111 47l57 -109q-57 -43 -109 -64.5t-114 -21.5q-93 0 -154 53t-61 138
q0 129 184 301h-59v995z" />
    <glyph glyph-name="Idotaccent" unicode="&#x130;" horiz-adv-x="606" 
d="M143 1450h320v-1450h-320v1450zM309 1888q73 0 125.5 -48t52.5 -120q0 -73 -49.5 -124.5t-124.5 -51.5q-70 0 -120 52.5t-50 123.5q0 67 50 117.5t116 50.5z" />
    <glyph glyph-name="dotlessi" unicode="&#x131;" 
d="M113 995h307v-995h-307v995z" />
    <glyph glyph-name="Jcircumflex" unicode="&#x134;" horiz-adv-x="1024" 
d="M578 1450h319v-977q0 -264 -115 -387t-348 -123q-181 0 -295 86t-149 252l293 72q7 -55 49 -91t94 -36q79 0 115.5 61t36.5 203v940zM575 1851h334l238 -295h-283l-129 160l-127 -160h-276z" />
    <glyph glyph-name="jcircumflex" unicode="&#x135;" 
d="M113 995h307v-1077q0 -206 -90 -308t-279 -102q-88 0 -143 17l16 272q41 -18 80 -18q56 0 82.5 45t26.5 141v1030zM102 1450h334l238 -295h-283l-129 160l-127 -160h-276z" />
    <glyph glyph-name="Kcommaaccent" unicode="&#x136;" horiz-adv-x="1478" 
d="M160 1450h319v-602l563 602h418l-645 -674l701 -776h-447l-590 688v-688h-319v1450zM606 -125h295l-184 -407h-242z" />
    <glyph glyph-name="kcommaaccent" unicode="&#x137;" horiz-adv-x="1138" 
d="M109 1548h307v-946l340 393h377l-396 -448l406 -547h-387l-336 504h-4v-504h-307v1548zM422 -125h295l-185 -407h-241z" />
    <glyph glyph-name="Lacute" unicode="&#x139;" horiz-adv-x="1099" 
d="M160 1450h319v-1155h592v-295h-911v1450zM322 1851h417l-354 -295h-270z" />
    <glyph glyph-name="lacute" unicode="&#x13a;" 
d="M113 1548h307v-1548h-307v1548zM299 1933h418l-355 -295h-270z" />
    <glyph glyph-name="Lcommaaccent" unicode="&#x13b;" horiz-adv-x="1099" 
d="M160 1450h319v-1155h592v-295h-911v1450zM475 -125h295l-184 -407h-242z" />
    <glyph glyph-name="lcommaaccent" unicode="&#x13c;" 
d="M113 1548h307v-1548h-307v1548zM158 -125h295l-185 -407h-241z" />
    <glyph glyph-name="Lcaron" unicode="&#x13d;" horiz-adv-x="1099" 
d="M160 1450h319v-1155h592v-295h-911v1450zM729 1450h275l-164 -408h-201z" />
    <glyph glyph-name="lcaron" unicode="&#x13e;" 
d="M113 1548h307v-1548h-307v1548zM616 1450h275l-164 -408h-201z" />
    <glyph glyph-name="Ldot" unicode="&#x13f;" horiz-adv-x="1099" 
d="M160 1450h319v-1155h592v-295h-911v1450zM831 993q73 0 126 -48t53 -120q0 -73 -49.5 -124.5t-124.5 -51.5q-71 0 -120.5 53t-49.5 123q0 67 49.5 117.5t115.5 50.5z" />
    <glyph glyph-name="ldot" unicode="&#x140;" horiz-adv-x="819" 
d="M113 1548h307v-1548h-307v1548zM664 1006q73 0 125.5 -48t52.5 -120q0 -73 -49.5 -124.5t-124.5 -51.5q-71 0 -120.5 53t-49.5 123q0 67 50 117.5t116 50.5z" />
    <glyph glyph-name="Lslash" unicode="&#x141;" horiz-adv-x="1099" 
d="M160 1450h319v-576l430 379v-266l-430 -377v-315h592v-295h-911v328l-123 -107v271l123 106v852z" />
    <glyph glyph-name="lslash" unicode="&#x142;" 
d="M113 1548h307v-469l123 125v-264l-123 -125v-815h-307v508l-123 -125v264l123 125v776z" />
    <glyph glyph-name="Nacute" unicode="&#x143;" horiz-adv-x="1669" 
d="M147 1450h435l616 -1008h4v1008h320v-1450h-418l-633 1032h-4v-1032h-320v1450zM868 1851h418l-354 -295h-270z" />
    <glyph glyph-name="nacute" unicode="&#x144;" horiz-adv-x="1175" 
d="M698 1020q192 0 280.5 -107t88.5 -350v-563h-307v512q0 129 -39 183.5t-121 54.5q-93 0 -138.5 -59t-45.5 -185v-506h-307v995h294v-135h5q41 75 118 117.5t172 42.5zM537 1450h417l-354 -295h-270z" />
    <glyph glyph-name="Ncommaaccent" unicode="&#x145;" horiz-adv-x="1669" 
d="M147 1450h435l616 -1008h4v1008h320v-1450h-418l-633 1032h-4v-1032h-320v1450zM690 -125h295l-184 -407h-242z" />
    <glyph glyph-name="ncommaaccent" unicode="&#x146;" horiz-adv-x="1175" 
d="M698 1020q192 0 280.5 -107t88.5 -350v-563h-307v512q0 129 -39 183.5t-121 54.5q-93 0 -138.5 -59t-45.5 -185v-506h-307v995h294v-135h5q41 75 118 117.5t172 42.5zM467 -125h295l-184 -407h-242z" />
    <glyph glyph-name="Ncaron" unicode="&#x147;" horiz-adv-x="1669" 
d="M147 1450h435l616 -1008h4v1008h320v-1450h-418l-633 1032h-4v-1032h-320v1450zM494 1907h282l129 -160l127 160h277l-244 -295h-334z" />
    <glyph glyph-name="ncaron" unicode="&#x148;" horiz-adv-x="1175" 
d="M698 1020q192 0 280.5 -107t88.5 -350v-563h-307v512q0 129 -39 183.5t-121 54.5q-93 0 -138.5 -59t-45.5 -185v-506h-307v995h294v-135h5q41 75 118 117.5t172 42.5zM172 1450h283l129 -160l127 160h276l-244 -295h-333z" />
    <glyph glyph-name="Omacron" unicode="&#x14c;" horiz-adv-x="1703" 
d="M852 1487q229 0 406.5 -93.5t276.5 -267.5t99 -401t-100.5 -401t-278 -267.5t-403.5 -93.5q-227 0 -404.5 93t-277.5 267t-100 402t100 402t277.5 267t404.5 93zM401 725q0 -206 124.5 -336.5t326.5 -130.5q201 0 326 131t125 336q0 206 -125 336.5t-328 130.5
q-200 0 -324.5 -130.5t-124.5 -336.5zM502 1808h696v-196h-696v196z" />
    <glyph glyph-name="omacron" unicode="&#x14d;" horiz-adv-x="1249" 
d="M625 1020q154 0 279 -63.5t199.5 -183.5t74.5 -275q0 -116 -43.5 -214.5t-118.5 -165.5t-176 -105t-215 -38q-154 0 -279 63.5t-199.5 183.5t-74.5 276q0 155 74.5 275t199.5 183.5t279 63.5zM379 498q0 -114 66.5 -183t179.5 -69q112 0 178.5 68t66.5 184
q0 117 -66.5 184.5t-180.5 67.5q-111 0 -177.5 -70t-66.5 -182zM276 1407h697v-197h-697v197z" />
    <glyph glyph-name="Obreve" unicode="&#x14e;" horiz-adv-x="1703" 
d="M852 1487q229 0 406.5 -93.5t276.5 -267.5t99 -401t-100.5 -401t-278 -267.5t-403.5 -93.5q-227 0 -404.5 93t-277.5 267t-100 402t100 402t277.5 267t404.5 93zM401 725q0 -206 124.5 -336.5t326.5 -130.5q201 0 326 131t125 336q0 206 -125 336.5t-328 130.5
q-200 0 -324.5 -130.5t-124.5 -336.5zM473 1851h164q18 -98 215 -98h37t36 2t36.5 5.5t32 10.5t30 17.5t23 26.5t18.5 36h162q-16 -149 -118.5 -222t-258.5 -73q-161 0 -264.5 72t-112.5 223z" />
    <glyph glyph-name="obreve" unicode="&#x14f;" horiz-adv-x="1249" 
d="M625 1020q154 0 279 -63.5t199.5 -183.5t74.5 -275q0 -116 -43.5 -214.5t-118.5 -165.5t-176 -105t-215 -38q-154 0 -279 63.5t-199.5 183.5t-74.5 276q0 155 74.5 275t199.5 183.5t279 63.5zM379 498q0 -114 66.5 -183t179.5 -69q112 0 178.5 68t66.5 184
q0 117 -66.5 184.5t-180.5 67.5q-111 0 -177.5 -70t-66.5 -182zM248 1450h164q18 -98 215 -98h37t36 2t36.5 5.5t32 10.5t30 17.5t23 26.5t18.5 36h161q-16 -149 -118 -222t-258 -73q-161 0 -264.5 72t-112.5 223z" />
    <glyph glyph-name="Ohungarumlaut" unicode="&#x150;" horiz-adv-x="1703" 
d="M852 1487q229 0 406.5 -93.5t276.5 -267.5t99 -401t-100.5 -401t-278 -267.5t-403.5 -93.5q-227 0 -404.5 93t-277.5 267t-100 402t100 402t277.5 267t404.5 93zM401 725q0 -206 124.5 -336.5t326.5 -130.5q201 0 326 131t125 336q0 206 -125 336.5t-328 130.5
q-200 0 -324.5 -130.5t-124.5 -336.5zM647 1851h418l-354 -295h-271zM1188 1851h418l-355 -295h-270z" />
    <glyph glyph-name="ohungarumlaut" unicode="&#x151;" horiz-adv-x="1249" 
d="M625 1020q154 0 279 -63.5t199.5 -183.5t74.5 -275q0 -116 -43.5 -214.5t-118.5 -165.5t-176 -105t-215 -38q-154 0 -279 63.5t-199.5 183.5t-74.5 276q0 155 74.5 275t199.5 183.5t279 63.5zM379 498q0 -114 66.5 -183t179.5 -69q112 0 178.5 68t66.5 184
q0 117 -66.5 184.5t-180.5 67.5q-111 0 -177.5 -70t-66.5 -182zM391 1450h418l-354 -295h-271zM932 1450h418l-355 -295h-270z" />
    <glyph glyph-name="OE" unicode="&#x152;" horiz-adv-x="2084" 
d="M1952 1155h-590v-270h541v-295h-541v-295h614v-295h-1097q-74 0 -150.5 11.5t-156.5 38.5t-152.5 66t-137 98.5t-111 132t-74 169.5t-27.5 209q0 170 61.5 308t168.5 228.5t250.5 139.5t309.5 49h1092v-295zM401 725q0 -108 41.5 -192t114.5 -135t166.5 -77t202.5 -26
h116v860h-104q-78 0 -150 -12t-144 -43t-124.5 -78t-85.5 -123.5t-33 -173.5z" />
    <glyph glyph-name="oe" unicode="&#x153;" horiz-adv-x="1933" 
d="M627 1020q222 0 372 -150q141 150 390 150q221 0 343.5 -146t122.5 -380v-93h-712q19 -87 81 -139.5t150 -52.5q129 0 219 121l215 -158q-74 -93 -186 -145t-233 -52q-124 0 -220.5 31.5t-169.5 110.5q-139 -142 -372 -142q-155 0 -280.5 63.5t-200 183.5t-74.5 276
t74.5 276t200 183t280.5 63zM1143 610h405q0 83 -54.5 136t-135.5 53q-87 0 -147.5 -52t-67.5 -137zM379 498q0 -115 66.5 -183.5t181.5 -68.5q112 0 178.5 68t66.5 184q0 117 -66.5 184.5t-180.5 67.5q-113 0 -179.5 -69t-66.5 -183z" />
    <glyph glyph-name="Racute" unicode="&#x154;" horiz-adv-x="1327" 
d="M147 1450h572q84 0 157 -11.5t144.5 -42.5t122 -79t81.5 -126.5t31 -180.5q0 -160 -82.5 -265t-230.5 -133l369 -612h-383l-303 580h-158v-580h-320v1450zM467 850h199q60 0 103 6.5t80 23t56 49.5t19 83q0 168 -240 168h-217v-330zM596 1851h418l-355 -295h-270z" />
    <glyph glyph-name="racute" unicode="&#x155;" horiz-adv-x="833" 
d="M709 1020q64 0 100 -10v-281q-79 21 -131 21q-81 0 -133.5 -20.5t-80 -64.5t-38 -99t-10.5 -138v-428h-307v995h307v-159h4q51 93 120 138.5t169 45.5zM442 1450h418l-354 -295h-270z" />
    <glyph glyph-name="Rcommaaccent" unicode="&#x156;" horiz-adv-x="1327" 
d="M147 1450h572q84 0 157 -11.5t144.5 -42.5t122 -79t81.5 -126.5t31 -180.5q0 -160 -82.5 -265t-230.5 -133l369 -612h-383l-303 580h-158v-580h-320v1450zM467 850h199q60 0 103 6.5t80 23t56 49.5t19 83q0 168 -240 168h-217v-330zM518 -125h295l-184 -407h-242z" />
    <glyph glyph-name="rcommaaccent" unicode="&#x157;" horiz-adv-x="833" 
d="M709 1020q64 0 100 -10v-281q-79 21 -131 21q-81 0 -133.5 -20.5t-80 -64.5t-38 -99t-10.5 -138v-428h-307v995h307v-159h4q51 93 120 138.5t169 45.5zM250 -125h295l-185 -407h-241z" />
    <glyph glyph-name="Rcaron" unicode="&#x158;" horiz-adv-x="1327" 
d="M147 1450h572q84 0 157 -11.5t144.5 -42.5t122 -79t81.5 -126.5t31 -180.5q0 -160 -82.5 -265t-230.5 -133l369 -612h-383l-303 580h-158v-580h-320v1450zM467 850h199q60 0 103 6.5t80 23t56 49.5t19 83q0 168 -240 168h-217v-330zM233 1907h283l129 -160l127 160h277
l-244 -295h-334z" />
    <glyph glyph-name="rcaron" unicode="&#x159;" horiz-adv-x="833" 
d="M709 1020q64 0 100 -10v-281q-79 21 -131 21q-81 0 -133.5 -20.5t-80 -64.5t-38 -99t-10.5 -138v-428h-307v995h307v-159h4q51 93 120 138.5t169 45.5zM18 1450h283l129 -160l127 160h277l-244 -295h-334z" />
    <glyph glyph-name="Sacute" unicode="&#x15a;" horiz-adv-x="1175" 
d="M639 1487q270 0 444 -152l-219 -239q-36 46 -101.5 71t-129.5 25q-49 0 -95.5 -14t-83 -49.5t-36.5 -86.5q0 -23 7.5 -43t18 -35t32 -29t38.5 -23t48.5 -20t51.5 -17t58.5 -17.5t58.5 -17.5q60 -18 104.5 -36.5t94.5 -51.5t81.5 -73.5t52.5 -101.5t21 -137
q0 -120 -45.5 -213t-124 -149.5t-177.5 -85.5t-212 -29q-294 0 -487 182l227 250q51 -65 124.5 -101t154.5 -36q49 0 96.5 13.5t86 49.5t38.5 89q0 21 -5 39t-17 33.5t-23 27.5t-33.5 24t-38 20t-45.5 18.5t-47.5 16.5t-53 17t-52.5 17q-63 20 -107.5 38.5t-97 51.5
t-84.5 71.5t-54 98.5t-22 133q0 112 46.5 203.5t124.5 148.5t176 88t206 31zM606 1851h418l-354 -295h-271z" />
    <glyph glyph-name="sacute" unicode="&#x15b;" horiz-adv-x="948" 
d="M492 1020q243 0 368 -131l-188 -187q-69 84 -176 84q-51 0 -83 -22t-32 -59q0 -36 40 -56t144 -41q180 -34 257 -107t77 -198q0 -161 -126 -244.5t-333 -83.5q-258 0 -391 136l187 206q91 -108 217 -108q67 0 103 19t36 53q0 38 -39.5 59.5t-118.5 36.5
q-47 10 -74.5 16.5t-70.5 19.5t-69 27.5t-57 37.5t-48 51t-29 67.5t-12 87.5q0 155 117 245.5t301 90.5zM496 1450h417l-354 -295h-270z" />
    <glyph glyph-name="Scircumflex" unicode="&#x15c;" horiz-adv-x="1175" 
d="M639 1487q270 0 444 -152l-219 -239q-36 46 -101.5 71t-129.5 25q-49 0 -95.5 -14t-83 -49.5t-36.5 -86.5q0 -23 7.5 -43t18 -35t32 -29t38.5 -23t48.5 -20t51.5 -17t58.5 -17.5t58.5 -17.5q60 -18 104.5 -36.5t94.5 -51.5t81.5 -73.5t52.5 -101.5t21 -137
q0 -120 -45.5 -213t-124 -149.5t-177.5 -85.5t-212 -29q-294 0 -487 182l227 250q51 -65 124.5 -101t154.5 -36q49 0 96.5 13.5t86 49.5t38.5 89q0 21 -5 39t-17 33.5t-23 27.5t-33.5 24t-38 20t-45.5 18.5t-47.5 16.5t-53 17t-52.5 17q-63 20 -107.5 38.5t-97 51.5
t-84.5 71.5t-54 98.5t-22 133q0 112 46.5 203.5t124.5 148.5t176 88t206 31zM444 1851h334l238 -295h-283l-129 160l-127 -160h-276z" />
    <glyph glyph-name="scircumflex" unicode="&#x15d;" horiz-adv-x="948" 
d="M492 1020q243 0 368 -131l-188 -187q-69 84 -176 84q-51 0 -83 -22t-32 -59q0 -36 40 -56t144 -41q180 -34 257 -107t77 -198q0 -161 -126 -244.5t-333 -83.5q-258 0 -391 136l187 206q91 -108 217 -108q67 0 103 19t36 53q0 38 -39.5 59.5t-118.5 36.5
q-47 10 -74.5 16.5t-70.5 19.5t-69 27.5t-57 37.5t-48 51t-29 67.5t-12 87.5q0 155 117 245.5t301 90.5zM326 1450h333l238 -295h-283l-129 160l-127 -160h-276z" />
    <glyph glyph-name="Scedilla" unicode="&#x15e;" horiz-adv-x="1175" 
d="M639 1487q270 0 444 -152l-219 -239q-36 46 -101.5 71t-129.5 25q-49 0 -95.5 -14t-83 -49.5t-36.5 -86.5q0 -23 7.5 -43t18 -35t32 -29t38.5 -23t48.5 -20t51.5 -17t58.5 -17.5t58.5 -17.5q60 -18 104.5 -36.5t94.5 -51.5t81.5 -73.5t52.5 -101.5t21 -137
q0 -106 -35.5 -191.5t-98.5 -142t-144 -91t-178 -46.5l-62 -92h13q128 0 186.5 -41.5t58.5 -128.5q0 -51 -27.5 -91t-71 -62.5t-91 -34t-94.5 -11.5q-123 0 -256 62l51 96q88 -35 158 -35q64 0 99.5 17t35.5 49q0 30 -30.5 50t-72.5 20q-24 0 -73 -17l-66 60l100 153
q-270 13 -448 182l227 250q51 -65 124.5 -101t154.5 -36q49 0 96.5 13.5t86 49.5t38.5 89q0 21 -5 39t-17 33.5t-23 27.5t-33.5 24t-38 20t-45.5 18.5t-47.5 16.5t-53 17t-52.5 17q-63 20 -107.5 38.5t-97 51.5t-84.5 71.5t-54 98.5t-22 133q0 112 46.5 203.5t124.5 148.5
t176 88t206 31z" />
    <glyph glyph-name="scedilla" unicode="&#x15f;" horiz-adv-x="948" 
d="M492 1020q243 0 368 -131l-188 -187q-69 84 -176 84q-51 0 -83 -22t-32 -59q0 -36 40 -56t144 -41q180 -34 257 -107t77 -198q0 -136 -91.5 -217t-248.5 -102l-72 -107h13q128 0 186.5 -41.5t58.5 -128.5q0 -62 -43 -109t-107 -68.5t-136 -21.5q-124 0 -254 62l51 96
q88 -35 158 -35q135 0 135 66q0 31 -31.5 50.5t-71.5 19.5q-24 0 -73 -17l-66 60l111 165q-242 6 -369 136l187 206q91 -108 217 -108q67 0 103 19t36 53q0 38 -39.5 59.5t-118.5 36.5q-47 10 -74.5 16.5t-70.5 19.5t-69 27.5t-57 37.5t-48 51t-29 67.5t-12 87.5
q0 155 117 245.5t301 90.5z" />
    <glyph glyph-name="Scaron" unicode="&#x160;" horiz-adv-x="1175" 
d="M639 1487q270 0 444 -152l-219 -239q-36 46 -101.5 71t-129.5 25q-49 0 -95.5 -14t-83 -49.5t-36.5 -86.5q0 -23 7.5 -43t18 -35t32 -29t38.5 -23t48.5 -20t51.5 -17t58.5 -17.5t58.5 -17.5q60 -18 104.5 -36.5t94.5 -51.5t81.5 -73.5t52.5 -101.5t21 -137
q0 -120 -45.5 -213t-124 -149.5t-177.5 -85.5t-212 -29q-294 0 -487 182l227 250q51 -65 124.5 -101t154.5 -36q49 0 96.5 13.5t86 49.5t38.5 89q0 21 -5 39t-17 33.5t-23 27.5t-33.5 24t-38 20t-45.5 18.5t-47.5 16.5t-53 17t-52.5 17q-63 20 -107.5 38.5t-97 51.5
t-84.5 71.5t-54 98.5t-22 133q0 112 46.5 203.5t124.5 148.5t176 88t206 31zM172 1905h283l129 -160l127 160h276l-244 -295h-333z" />
    <glyph glyph-name="scaron" unicode="&#x161;" horiz-adv-x="948" 
d="M492 1020q243 0 368 -131l-188 -187q-69 84 -176 84q-51 0 -83 -22t-32 -59q0 -36 40 -56t144 -41q180 -34 257 -107t77 -198q0 -161 -126 -244.5t-333 -83.5q-258 0 -391 136l187 206q91 -108 217 -108q67 0 103 19t36 53q0 38 -39.5 59.5t-118.5 36.5
q-47 10 -74.5 16.5t-70.5 19.5t-69 27.5t-57 37.5t-48 51t-29 67.5t-12 87.5q0 155 117 245.5t301 90.5zM59 1450h283l129 -160l127 160h276l-243 -295h-334z" />
    <glyph glyph-name="Tcommaaccent" unicode="&#x162;" horiz-adv-x="1175" 
d="M14 1450h1147v-283h-413v-1167h-320v1167h-414v283zM492 -125h294l-184 -407h-242z" />
    <glyph glyph-name="tcommaaccent" unicode="&#x163;" horiz-adv-x="833" 
d="M209 1290h307v-295h270v-245h-270v-351q0 -91 34 -128.5t112 -37.5q95 0 124 29v-256q-89 -31 -215 -31q-176 0 -269 78t-93 215v482h-197v245h197v295zM342 -125h295l-184 -407h-242z" />
    <glyph glyph-name="Tcaron" unicode="&#x164;" horiz-adv-x="1175" 
d="M14 1450h1147v-283h-413v-1167h-320v1167h-414v283zM180 1907h283l129 -160l127 160h276l-243 -295h-334z" />
    <glyph glyph-name="tcaron" unicode="&#x165;" horiz-adv-x="833" 
d="M209 1290h307v-295h270v-245h-270v-351q0 -91 34 -128.5t112 -37.5q95 0 124 29v-256q-89 -31 -215 -31q-176 0 -269 78t-93 215v482h-197v245h197v295zM717 1552h274l-164 -407h-200z" />
    <glyph glyph-name="Tbar" unicode="&#x166;" horiz-adv-x="1175" 
d="M14 1450h1147v-283h-413v-221h256v-196h-256v-750h-320v750h-244v196h244v221h-414v283z" />
    <glyph glyph-name="tbar" unicode="&#x167;" horiz-adv-x="833" 
d="M209 1290h307v-295h270v-245h-270v-109h236v-197h-236v-34q0 -98 32 -137.5t114 -39.5q95 0 124 29v-256q-87 -31 -215 -31q-178 0 -270 78.5t-92 216.5v174h-154v197h154v109h-197v245h197v295z" />
    <glyph glyph-name="Utilde" unicode="&#x168;" horiz-adv-x="1517" 
d="M147 1450h320v-883q0 -130 83.5 -219.5t209.5 -89.5q118 0 204.5 86t86.5 223v883h319v-897q0 -121 -37.5 -225.5t-110 -187t-191.5 -130t-271 -47.5t-271.5 47.5t-192.5 130t-111 187t-38 225.5v897zM631 1851q75 0 178 -43q68 -30 115 -30q58 0 90 73h160
q-48 -282 -267 -282q-64 0 -159 43q-6 3 -24 11t-27.5 12t-25 9.5t-28.5 8t-25 2.5q-29 0 -52 -24.5t-34 -61.5h-161q21 126 91 204t169 78z" />
    <glyph glyph-name="utilde" unicode="&#x169;" horiz-adv-x="1175" 
d="M109 995h307v-493q0 -30 0.5 -46t3.5 -47.5t8.5 -50t17 -42.5t28 -37.5t42.5 -23t59 -9.5q96 0 140.5 60t44.5 186v503h307v-995h-295v135h-4q-41 -75 -118.5 -117.5t-174.5 -42.5q-194 0 -280 109.5t-86 349.5v561zM453 1450q75 0 178 -43q71 -31 114 -31q59 0 91 74
h159q-48 -283 -266 -283q-65 0 -160 43q-3 1 -29.5 13.5t-36 16t-29 8.5t-34.5 5q-29 0 -52 -24.5t-34 -61.5h-161q21 126 91 204.5t169 78.5z" />
    <glyph glyph-name="Umacron" unicode="&#x16a;" horiz-adv-x="1517" 
d="M147 1450h320v-883q0 -130 83.5 -219.5t209.5 -89.5q118 0 204.5 86t86.5 223v883h319v-897q0 -121 -37.5 -225.5t-110 -187t-191.5 -130t-271 -47.5t-271.5 47.5t-192.5 130t-111 187t-38 225.5v897zM424 1808h696v-196h-696v196z" />
    <glyph glyph-name="umacron" unicode="&#x16b;" horiz-adv-x="1175" 
d="M109 995h307v-493q0 -30 0.5 -46t3.5 -47.5t8.5 -50t17 -42.5t28 -37.5t42.5 -23t59 -9.5q96 0 140.5 60t44.5 186v503h307v-995h-295v135h-4q-41 -75 -118.5 -117.5t-174.5 -42.5q-194 0 -280 109.5t-86 349.5v561zM238 1407h696v-197h-696v197z" />
    <glyph glyph-name="Ubreve" unicode="&#x16c;" horiz-adv-x="1517" 
d="M147 1450h320v-883q0 -130 83.5 -219.5t209.5 -89.5q118 0 204.5 86t86.5 223v883h319v-897q0 -121 -37.5 -225.5t-110 -187t-191.5 -130t-271 -47.5t-271.5 47.5t-192.5 130t-111 187t-38 225.5v897zM395 1851h164q18 -98 215 -98h37t36 2t36.5 5.5t32 10.5t30 17.5
t23 26.5t18.5 36h162q-16 -149 -118.5 -222t-258.5 -73q-161 0 -264.5 72t-112.5 223z" />
    <glyph glyph-name="ubreve" unicode="&#x16d;" horiz-adv-x="1175" 
d="M109 995h307v-493q0 -30 0.5 -46t3.5 -47.5t8.5 -50t17 -42.5t28 -37.5t42.5 -23t59 -9.5q96 0 140.5 60t44.5 186v503h307v-995h-295v135h-4q-41 -75 -118.5 -117.5t-174.5 -42.5q-194 0 -280 109.5t-86 349.5v561zM215 1450h164q18 -98 215 -98h37t36 2t36.5 5.5
t32 10.5t30 17.5t23 26.5t18.5 36h162q-16 -149 -118.5 -222t-258.5 -73q-161 0 -264.5 72t-112.5 223z" />
    <glyph glyph-name="Uring" unicode="&#x16e;" horiz-adv-x="1517" 
d="M147 1450h320v-883q0 -130 83.5 -219.5t209.5 -89.5q118 0 204.5 86t86.5 223v883h319v-897q0 -121 -37.5 -225.5t-110 -187t-191.5 -130t-271 -47.5t-271.5 47.5t-192.5 130t-111 187t-38 225.5v897zM772 1952q95 0 161 -68.5t66 -159.5q0 -93 -68 -160t-159 -67
q-92 0 -159.5 67.5t-67.5 159.5t67 160t160 68zM668 1724q0 -43 30.5 -73.5t73.5 -30.5q44 0 74.5 31t30.5 73q0 43 -31.5 74t-75.5 31q-39 0 -70.5 -31t-31.5 -74z" />
    <glyph glyph-name="uring" unicode="&#x16f;" horiz-adv-x="1175" 
d="M109 995h307v-493q0 -30 0.5 -46t3.5 -47.5t8.5 -50t17 -42.5t28 -37.5t42.5 -23t59 -9.5q96 0 140.5 60t44.5 186v503h307v-995h-295v135h-4q-41 -75 -118.5 -117.5t-174.5 -42.5q-194 0 -280 109.5t-86 349.5v561zM582 1571q94 0 160.5 -68.5t66.5 -159.5
q0 -90 -66 -158.5t-161 -68.5q-91 0 -159.5 67.5t-68.5 159.5q0 91 67.5 159.5t160.5 68.5zM477 1343q0 -43 31 -73.5t74 -30.5q44 0 74 31t30 73q0 43 -30.5 74t-75.5 31q-39 0 -71 -31t-32 -74z" />
    <glyph glyph-name="Uhungarumlaut" unicode="&#x170;" horiz-adv-x="1517" 
d="M147 1450h320v-883q0 -130 83.5 -219.5t209.5 -89.5q118 0 204.5 86t86.5 223v883h319v-897q0 -121 -37.5 -225.5t-110 -187t-191.5 -130t-271 -47.5t-271.5 47.5t-192.5 130t-111 187t-38 225.5v897zM537 1851h417l-354 -295h-270zM1077 1851h418l-354 -295h-271z" />
    <glyph glyph-name="uhungarumlaut" unicode="&#x171;" horiz-adv-x="1175" 
d="M109 995h307v-493q0 -30 0.5 -46t3.5 -47.5t8.5 -50t17 -42.5t28 -37.5t42.5 -23t59 -9.5q96 0 140.5 60t44.5 186v503h307v-995h-295v135h-4q-41 -75 -118.5 -117.5t-174.5 -42.5q-194 0 -280 109.5t-86 349.5v561zM330 1450h418l-355 -295h-270zM870 1450h418
l-354 -295h-270z" />
    <glyph glyph-name="Uogonek" unicode="&#x172;" horiz-adv-x="1517" 
d="M147 1450h320v-885q0 -128 83 -217.5t210 -89.5q129 0 210 89.5t81 217.5v885h319v-899q0 -238 -135.5 -397t-370.5 -185q-112 -126 -112 -219q0 -36 25 -65t61 -29q52 0 110 47l58 -109q-110 -86 -224 -86q-91 0 -153 51t-62 140q0 64 44 136t102 130
q-259 11 -412.5 169.5t-153.5 420.5v895z" />
    <glyph glyph-name="uogonek" unicode="&#x173;" horiz-adv-x="1175" 
d="M109 995h307v-510q0 -131 39 -185t120 -54q96 0 140.5 60t44.5 186v503h307v-995h-152q-143 -146 -143 -250q0 -37 25.5 -65.5t60.5 -28.5q53 0 111 47l57 -109q-57 -43 -109 -64.5t-114 -21.5q-93 0 -154 53t-61 138q0 126 184 301v135h-4q-42 -74 -119 -117t-172 -43
q-127 0 -206.5 43t-120.5 145t-41 271v561z" />
    <glyph glyph-name="Wcircumflex" unicode="&#x174;" horiz-adv-x="2048" 
d="M-4 1450h348l231 -930h5l303 930h297l301 -954h4l244 954h323l-424 -1450h-285l-319 1004h-4l-320 -1004h-274zM858 1851h334l238 -295h-283l-129 160l-127 -160h-277z" />
    <glyph glyph-name="wcircumflex" unicode="&#x175;" horiz-adv-x="1705" 
d="M-10 995h327l203 -624h4l170 624h336l184 -624h5l186 624h311l-354 -995h-303l-207 662h-4l-184 -662h-310zM686 1450h334l237 -295h-282l-129 160l-127 -160h-277z" />
    <glyph glyph-name="Ycircumflex" unicode="&#x176;" horiz-adv-x="1327" 
d="M-41 1450h397l308 -543l325 543h379l-545 -832v-618h-319v618zM500 1851h334l237 -295h-283l-129 160l-127 -160h-276z" />
    <glyph glyph-name="ycircumflex" unicode="&#x177;" horiz-adv-x="1138" 
d="M6 995h332l256 -657h4l219 657h316l-447 -1147q-57 -147 -90 -198q-60 -94 -167 -123q-68 -19 -169 -19q-119 0 -229 37l41 252q70 -30 143 -30q30 0 55 5t42.5 11t33 21t25 25.5t21 34t16.5 37t16.5 44.5t17.5 47zM434 1450h334l238 -295h-283l-129 160l-127 -160h-277z
" />
    <glyph glyph-name="Ydieresis" unicode="&#x178;" horiz-adv-x="1327" 
d="M-41 1450h397l308 -543l325 543h379l-545 -832v-618h-319v618zM444 1942q73 0 126 -48t53 -120q0 -73 -49.5 -125t-124.5 -52q-70 0 -120 53t-50 124q0 67 49 117.5t116 50.5zM870 1942q73 0 126 -48t53 -120q0 -73 -50 -125t-125 -52q-70 0 -119.5 53t-49.5 124
q0 67 49.5 117.5t115.5 50.5z" />
    <glyph glyph-name="Zacute" unicode="&#x179;" horiz-adv-x="1290" 
d="M98 1450h1096v-283l-721 -872h746v-295h-1147v295l735 872h-709v283zM657 1851h418l-354 -295h-270z" />
    <glyph glyph-name="zacute" unicode="&#x17a;" horiz-adv-x="1024" 
d="M82 995h860v-295l-541 -454h553v-246h-884v307l516 443h-504v245zM512 1450h418l-355 -295h-270z" />
    <glyph glyph-name="Zdotaccent" unicode="&#x17b;" horiz-adv-x="1290" 
d="M98 1450h1096v-283l-721 -872h746v-295h-1147v295l735 872h-709v283zM684 1888q73 0 125.5 -48t52.5 -120q0 -73 -49.5 -124.5t-124.5 -51.5q-70 0 -120 52.5t-50 123.5q0 67 50 117.5t116 50.5z" />
    <glyph glyph-name="zdotaccent" unicode="&#x17c;" horiz-adv-x="1024" 
d="M82 995h860v-295l-541 -454h553v-246h-884v307l516 443h-504v245zM539 1487q73 0 125.5 -48t52.5 -120q0 -73 -49.5 -124.5t-124.5 -51.5q-71 0 -120.5 53t-49.5 123q0 67 50 117.5t116 50.5z" />
    <glyph glyph-name="Zcaron" unicode="&#x17d;" horiz-adv-x="1290" 
d="M98 1450h1096v-283l-721 -872h746v-295h-1147v295l735 872h-709v283zM229 1907h283l129 -160l127 160h276l-243 -295h-334z" />
    <glyph glyph-name="zcaron" unicode="&#x17e;" horiz-adv-x="1024" 
d="M82 995h860v-295l-541 -454h553v-246h-884v307l516 443h-504v245zM96 1450h283l129 -160l127 160h276l-243 -295h-334z" />
    <glyph glyph-name="florin" unicode="&#x192;" horiz-adv-x="1212" 
d="M897 1475q135 0 268 -62l-108 -231q-55 22 -107 22q-68 0 -105 -38t-54 -122l-33 -155h258v-209h-299l-119 -602q-37 -183 -138 -273t-274 -90q-109 0 -227 49l107 244q40 -22 94 -22q32 0 57.5 14t39.5 28t27.5 51t17.5 53t14 64q1 4 1.5 7t1.5 6l97 471h-234v209h275
l41 207q41 212 128.5 295.5t270.5 83.5z" />
    <glyph glyph-name="Scommaaccent" unicode="&#x218;" horiz-adv-x="1175" 
d="M639 1487q270 0 444 -152l-219 -239q-36 46 -101.5 71t-129.5 25q-49 0 -95.5 -14t-83 -49.5t-36.5 -86.5q0 -23 7.5 -43t18 -35t32 -29t38.5 -23t48.5 -20t51.5 -17t58.5 -17.5t58.5 -17.5q60 -18 104.5 -36.5t94.5 -51.5t81.5 -73.5t52.5 -101.5t21 -137
q0 -120 -45.5 -213t-124 -149.5t-177.5 -85.5t-212 -29q-294 0 -487 182l227 250q51 -65 124.5 -101t154.5 -36q49 0 96.5 13.5t86 49.5t38.5 89q0 21 -5 39t-17 33.5t-23 27.5t-33.5 24t-38 20t-45.5 18.5t-47.5 16.5t-53 17t-52.5 17q-63 20 -107.5 38.5t-97 51.5
t-84.5 71.5t-54 98.5t-22 133q0 112 46.5 203.5t124.5 148.5t176 88t206 31zM444 -125h295l-184 -407h-242z" />
    <glyph glyph-name="scommaaccent" unicode="&#x219;" horiz-adv-x="948" 
d="M492 1020q243 0 368 -131l-188 -187q-69 84 -176 84q-51 0 -83 -22t-32 -59q0 -36 40 -56t144 -41q180 -34 257 -107t77 -198q0 -161 -126 -244.5t-333 -83.5q-258 0 -391 136l187 206q91 -108 217 -108q67 0 103 19t36 53q0 38 -39.5 59.5t-118.5 36.5
q-47 10 -74.5 16.5t-70.5 19.5t-69 27.5t-57 37.5t-48 51t-29 67.5t-12 87.5q0 155 117 245.5t301 90.5zM352 -125h295l-184 -407h-242z" />
    <glyph glyph-name="uni021A" unicode="&#x21a;" horiz-adv-x="1175" 
d="M14 1450h1147v-283h-413v-1167h-320v1167h-414v283zM492 -125h294l-184 -407h-242z" />
    <glyph glyph-name="uni021B" unicode="&#x21b;" horiz-adv-x="833" 
d="M209 1290h307v-295h270v-245h-270v-351q0 -91 34 -128.5t112 -37.5q95 0 124 29v-256q-89 -31 -215 -31q-176 0 -269 78t-93 215v482h-197v245h197v295zM342 -125h295l-184 -407h-242z" />
    <glyph glyph-name="dotlessj" unicode="&#x237;" 
d="M113 995h307v-1077q0 -206 -90 -308t-279 -102q-88 0 -143 17l16 272q41 -18 80 -18q56 0 82.5 45t26.5 141v1030z" />
    <glyph glyph-name="circumflex" unicode="&#x2c6;" 
d="M102 1450h334l238 -295h-283l-129 160l-127 -160h-276z" />
    <glyph glyph-name="caron" unicode="&#x2c7;" 
d="M-150 1450h283l129 -160l127 160h277l-244 -295h-334z" />
    <glyph glyph-name="uni02C9" unicode="&#x2c9;" 
d="M-82 1407h696v-197h-696v197z" />
    <glyph glyph-name="breve" unicode="&#x2d8;" 
d="M-111 1450h164q18 -98 215 -98h37t36 2t36.5 5.5t32 10.5t30 17.5t23 26.5t18.5 36h162q-16 -149 -118.5 -222t-258.5 -73q-161 0 -264.5 72t-112.5 223z" />
    <glyph glyph-name="dotaccent" unicode="&#x2d9;" 
d="M260 1487q73 0 125.5 -48t52.5 -120q0 -73 -49.5 -124.5t-124.5 -51.5q-71 0 -120.5 53t-49.5 123q0 67 50 117.5t116 50.5z" />
    <glyph glyph-name="ring" unicode="&#x2da;" 
d="M266 1571q94 0 161 -68.5t67 -159.5q0 -90 -66.5 -158.5t-161.5 -68.5q-91 0 -159 67.5t-68 159.5t67 160t160 68zM162 1343q0 -43 30.5 -73.5t73.5 -30.5q44 0 74.5 31t30.5 73q0 43 -31 74t-76 31q-39 0 -70.5 -31t-31.5 -74z" />
    <glyph glyph-name="ogonek" unicode="&#x2db;" 
d="M197 25h139q-78 -72 -124 -146.5t-46 -128.5q0 -37 25.5 -65.5t60.5 -28.5q53 0 110 47l58 -109q-114 -86 -223 -86q-96 0 -155.5 53.5t-59.5 137.5q0 73 60 162.5t155 163.5z" />
    <glyph glyph-name="tilde" unicode="&#x2dc;" 
d="M125 1450q75 0 178 -43q71 -31 115 -31q58 0 90 74h160q-48 -283 -267 -283q-64 0 -159 43q-3 1 -29.5 13.5t-36 16t-29 8.5t-34.5 5q-29 0 -52 -24.5t-34 -61.5h-162q21 126 91 204.5t169 78.5z" />
    <glyph glyph-name="hungarumlaut" unicode="&#x2dd;" 
d="M-2 1450h418l-355 -295h-270zM539 1450h417l-354 -295h-270z" />
    <glyph glyph-name="uni0394" unicode="&#x394;" horiz-adv-x="1419" 
d="M547 1477h338l477 -1315v-162h-1307v160zM707 1188h-7q-16 -63 -56 -178.5t-52 -155.5l-244 -631h707l-230 600l-55 165t-63 200z" />
    <glyph glyph-name="uni03A9" unicode="&#x3a9;" horiz-adv-x="1538" 
d="M774 1466q191 0 342 -92.5t230 -240.5t79 -320q0 -166 -71 -321.5t-197 -262.5v-6h297v-223h-580v166q141 91 203 245.5t62 344.5q0 87 -22 170t-65 154.5t-115.5 115t-164.5 43.5q-75 0 -138 -28.5t-106 -76.5t-73 -112t-44 -134t-14 -143q0 -113 25 -219t86.5 -205
t153.5 -155v-166h-582v223h293v6q-127 113 -194.5 260t-67.5 314q0 140 50.5 263t138.5 211t211 138.5t263 50.5z" />
    <glyph glyph-name="uni03BC" unicode="&#x3bc;" horiz-adv-x="1175" 
d="M109 995h307v-510q0 -126 37 -182.5t122 -56.5q96 0 140.5 60t44.5 186v503h307v-995h-295v135h-4q-41 -75 -119 -117.5t-172 -42.5q-29 0 -61 7v-449h-307v1462z" />
    <glyph glyph-name="pi" unicode="&#x3c0;" horiz-adv-x="1304" 
d="M350 1085h924l-21 -233h-151v-555q0 -179 28 -297h-274q-37 55 -37 285v567h-291q-11 -193 -44 -435t-91 -417h-274q44 147 84 390.5t47 461.5q-140 0 -211 -21l-31 183q40 32 129.5 51.5t212.5 19.5z" />
    <glyph glyph-name="uni1E9E" unicode="&#x1e9e;" horiz-adv-x="1576" 
d="M1323 1460v-278q-60 1 -113 -5t-106 -22t-84 -49.5t-31 -81.5q0 -26 13 -48.5t42 -45.5t55.5 -40t76 -46.5t81.5 -50.5q65 -43 106.5 -78.5t76.5 -83t51 -106.5t16 -136q0 -204 -134 -315t-357 -111q-292 0 -477 170l227 232q67 -61 129 -90t131 -29q62 0 108 38t46 97
q0 34 -10 60t-35 48t-45 35.5t-63 38.5t-66 39q-64 40 -107 73t-86.5 77t-65.5 94.5t-22 107.5q0 159 180 258h-67q-43 0 -82 -4t-90 -19.5t-87.5 -41.5t-62 -75.5t-25.5 -115.5v-956h-319v954q0 113 35 203.5t97 151.5t149.5 101.5t189.5 58.5t221 18q253 0 504 -27z" />
    <glyph glyph-name="endash" unicode="&#x2013;" horiz-adv-x="1024" 
d="M0 633h1024v-246h-1024v246z" />
    <glyph glyph-name="emdash" unicode="&#x2014;" horiz-adv-x="2048" 
d="M0 633h2048v-246h-2048v246z" />
    <glyph glyph-name="quoteleft" unicode="&#x2018;" horiz-adv-x="606" 
d="M264 1450h262l-151 -578h-295z" />
    <glyph glyph-name="quoteright" unicode="&#x2019;" horiz-adv-x="606" 
d="M231 1450h295l-184 -578h-262z" />
    <glyph glyph-name="quotesinglbase" unicode="&#x201a;" horiz-adv-x="606" 
d="M231 319h295l-184 -577h-262z" />
    <glyph glyph-name="quotedblleft" unicode="&#x201c;" horiz-adv-x="1064" 
d="M274 1450h263l-152 -578h-295zM713 1450h262l-152 -578h-295z" />
    <glyph glyph-name="quotedblright" unicode="&#x201d;" horiz-adv-x="1064" 
d="M242 1450h295l-185 -578h-262zM680 1450h295l-184 -578h-263z" />
    <glyph glyph-name="quotedblbase" unicode="&#x201e;" horiz-adv-x="1064" 
d="M242 319h295l-185 -577h-262zM680 319h295l-184 -577h-263z" />
    <glyph glyph-name="dagger" unicode="&#x2020;" horiz-adv-x="1212" 
d="M459 1450h282v-430h402v-258h-402v-1034h-282v1034h-389v258h389v430z" />
    <glyph glyph-name="daggerdbl" unicode="&#x2021;" horiz-adv-x="1212" 
d="M465 1450h283v-369h395v-245h-395v-494h395v-246h-395v-368h-283v368h-395v246h395v494h-395v245h395v369z" />
    <glyph glyph-name="bullet" unicode="&#x2022;" horiz-adv-x="1024" 
d="M512 1087q152 0 257 -106.5t105 -255.5q0 -152 -106.5 -257.5t-255.5 -105.5q-147 0 -254.5 104.5t-107.5 258.5q0 149 105.5 255.5t256.5 106.5z" />
    <glyph glyph-name="ellipsis" unicode="&#x2026;" horiz-adv-x="2048" 
d="M342 365q78 0 133 -56t55 -133q0 -76 -55 -132t-133 -56t-133 55.5t-55 132.5q0 78 55.5 133.5t132.5 55.5zM1024 365q78 0 133 -56.5t55 -132.5q0 -77 -54.5 -132.5t-133.5 -55.5q-78 0 -133 55.5t-55 132.5q0 78 55.5 133.5t132.5 55.5zM1706 365q80 0 134 -56t54 -133
q0 -78 -55.5 -133t-132.5 -55q-79 0 -133.5 55.5t-54.5 132.5q0 78 55 133.5t133 55.5z" />
    <glyph glyph-name="perthousand" unicode="&#x2030;" horiz-adv-x="2390" 
d="M1130 1516l173 -97l-846 -1485l-156 89zM426 1475q150 0 256 -106.5t106 -254.5t-106.5 -255t-255.5 -107q-150 0 -255 106.5t-105 255.5t105.5 255t254.5 106zM262 1114q0 -68 49 -117t115 -49q68 0 117 49.5t49 116.5q0 69 -50 116.5t-116 47.5t-115 -48.5t-49 -115.5z
M1169 698q150 0 255.5 -106.5t105.5 -253.5q0 -149 -106.5 -256t-254.5 -107q-150 0 -255 107t-105 256q0 148 105 254t255 106zM1962 698q148 0 255 -106t107 -254q0 -150 -107 -256.5t-255 -106.5q-150 0 -255 107t-105 256t105.5 254.5t254.5 105.5zM1006 338
q0 -66 48.5 -116t114.5 -50q70 0 117 50t47 116q0 68 -49 116t-117 48q-66 0 -113.5 -49t-47.5 -115zM1798 338q0 -70 48.5 -118t115.5 -48q66 0 116 48t50 118q0 68 -49.5 116t-116.5 48t-115.5 -48t-48.5 -116z" />
    <glyph glyph-name="guilsinglleft" unicode="&#x2039;" horiz-adv-x="606" 
d="M362 989l187 -125l-238 -354l238 -354l-187 -125l-325 479z" />
    <glyph glyph-name="guilsinglright" unicode="&#x203a;" horiz-adv-x="606" 
d="M57 864l187 125l325 -479l-325 -479l-187 125l238 354z" />
    <glyph glyph-name="fraction" unicode="&#x2044;" horiz-adv-x="342" 
d="M-330 23l830 1493l172 -97l-846 -1485z" />
    <glyph glyph-name="Euro" unicode="&#x20ac;" horiz-adv-x="1212" 
d="M823 1475q77 0 182.5 -19.5t137.5 -40.5l-94 -266q-34 22 -94.5 36.5t-129.5 14.5q-222 0 -305 -196h481l-61 -189h-463q-4 -50 -4 -88q0 -17 1 -47t1 -41h418l-59 -184h-328q67 -213 264 -213q149 0 246 118l168 -206q-72 -83 -190.5 -131t-252.5 -48q-226 0 -367 121.5
t-188 358.5h-166l58 184h86q-2 14 -2 76q0 34 4 100h-139l63 189h107q63 234 221 352.5t405 118.5z" />
    <glyph glyph-name="uni20B9" unicode="&#x20b9;" horiz-adv-x="1212" 
d="M1149 1450v-197h-322q50 -64 64 -145h258v-197h-260q-15 -148 -117 -231t-262 -92l426 -588h-379l-403 596v170h170q92 0 159 35t92 110h-421l2 197h428q-26 81 -90 113t-164 32h-178v197h997z" />
    <glyph glyph-name="uni20BA" unicode="&#x20ba;" horiz-adv-x="1212" 
d="M514 1450v-201l315 131v-209l-315 -131v-155l315 131v-209l-315 -131v-412h6q92 1 161 38.5t110 102t61 145.5t20 177v21h304v-25q0 -343 -178 -542t-517 -199q-123 0 -262 16v543l-164 -70v207l164 72v155l-164 -69v208l164 70v336h295z" />
    <glyph glyph-name="uni20BC" unicode="&#x20bc;" horiz-adv-x="1212" 
d="M743 944v-760h-274v760q-28 -8 -48 -18.5t-37 -31t-28 -43.5t-19.5 -65t-13 -87.5t-7.5 -119.5t-4 -151t-1 -192v-236h-274v254q0 105 1.5 181.5t5.5 157t11.5 138t20 116.5t29.5 100t41.5 81.5t55 68.5t71 54t88.5 44t108 32v223h274v-223q60 -14 108.5 -32t88.5 -44
t71 -54t55 -68.5t41.5 -81.5t30 -100t20 -116.5t11.5 -138t5.5 -157t1.5 -181.5v-254h-275v236q0 115 -1 192t-4 151t-7.5 119.5t-13 87.5t-19.5 65t-28 43.5t-37 31t-48 18.5z" />
    <glyph glyph-name="uni20BD" unicode="&#x20bd;" horiz-adv-x="1212" 
d="M506 852h123q225 0 225 172q0 168 -233 168h-115v-340zM51 606v246h156v598h422q532 0 532 -420q0 -218 -133.5 -321t-398.5 -103h-123v-123h334v-245h-334v-238h-299v238h-156v245h156v123h-156z" />
    <glyph glyph-name="afii61289" unicode="&#x2113;" horiz-adv-x="1118" 
d="M616 1589q145 0 227.5 -100t82.5 -270q0 -167 -102 -338.5t-326 -380.5l2 -80q2 -90 50 -151.5t130 -61.5q76 0 149 48t134 142l114 -118q-75 -146 -191 -221.5t-265 -75.5q-97 0 -171.5 29.5t-119.5 81.5t-70 113t-31 132q-93 -73 -108 -82l-72 145q16 14 81 64.5
t97 79.5v520q0 239 102 381.5t287 142.5zM498 1081v-329q245 273 245 475q0 168 -114 168q-59 0 -95 -85t-36 -229z" />
    <glyph glyph-name="trademark" unicode="&#x2122;" horiz-adv-x="2048" 
d="M82 1450h709v-197h-244v-647h-221v647h-244v197zM971 1450h297l200 -549l201 549h297v-844h-221v549h-4l-201 -549h-143l-201 549h-4v-549h-221v844z" />
    <glyph glyph-name="Omega" unicode="&#x2126;" horiz-adv-x="1538" 
d="M774 1466q191 0 342 -92.5t230 -240.5t79 -320q0 -166 -71 -321.5t-197 -262.5v-6h297v-223h-580v166q141 91 203 245.5t62 344.5q0 87 -22 170t-65 154.5t-115.5 115t-164.5 43.5q-75 0 -138 -28.5t-106 -76.5t-73 -112t-44 -134t-14 -143q0 -113 25 -219t86.5 -205
t153.5 -155v-166h-582v223h293v6q-127 113 -194.5 260t-67.5 314q0 140 50.5 263t138.5 211t211 138.5t263 50.5z" />
    <glyph glyph-name="estimated" unicode="&#x212e;" horiz-adv-x="1998" 
d="M1843 698h-1366q-12 0 -12 -12v-389q0 -42 16 -61q84 -107 216 -164.5t298 -57.5q168 0 298 63t253 179h148q-86 -104 -177 -166.5t-217.5 -95.5t-298.5 -33q-197 0 -359 60t-267.5 162t-163 235.5t-57.5 283.5t59 290t165 249t267.5 174.5t351.5 65.5q135 0 251 -24.5
t201 -67.5t153 -103t112.5 -128.5t74 -147t42 -155.5t12.5 -157zM1534 754v397q0 28 -25 57q-50 63 -118 108t-140 68t-136 33t-126 10q-133 0 -266 -53t-238 -162q-20 -23 -20 -59v-399q0 -13 12 -13h1045q12 0 12 13z" />
    <glyph glyph-name="partialdiff" unicode="&#x2202;" horiz-adv-x="1241" 
d="M541 1632q177 0 313.5 -98.5t211.5 -278.5t75 -415q0 -393 -166 -623q-167 -233 -445 -233q-102 0 -188 41t-143 109.5t-89 157.5t-32 185q0 243 133.5 392t331.5 149q96 0 182 -46t137 -124h2q2 14 2 67q0 66 -13 133.5t-42 132t-70.5 114t-102.5 80t-134 30.5
q-150 0 -285 -98l-80 202q167 123 402 123zM356 469q0 -99 53.5 -177.5t147.5 -78.5q63 0 117 44t86.5 111t52 132.5t25.5 122.5q-22 72 -91 124t-145 52q-59 0 -107.5 -31t-77.5 -80t-45 -106t-16 -113z" />
    <glyph glyph-name="Delta" unicode="&#x2206;" horiz-adv-x="1419" 
d="M547 1477h338l477 -1315v-162h-1307v160zM707 1188h-7q-16 -63 -56 -178.5t-52 -155.5l-244 -631h707l-230 600l-55 165t-63 200z" />
    <glyph glyph-name="product" unicode="&#x220f;" horiz-adv-x="1554" 
d="M49 1444h1454v-250h-221v-1393h-276v1393h-459v-1393h-277v1393h-221v250z" />
    <glyph glyph-name="summation" unicode="&#x2211;" horiz-adv-x="1204" 
d="M68 1444h1062v-236h-684v-8l433 -534l-478 -605v-6h764v-254h-1118v174l516 648l-495 628v193z" />
    <glyph glyph-name="minus" unicode="&#x2212;" horiz-adv-x="1363" 
d="M121 750h1122v-258h-1122v258z" />
    <glyph glyph-name="uni2215" unicode="&#x2215;" horiz-adv-x="342" 
d="M-330 23l830 1493l172 -97l-846 -1485z" />
    <glyph glyph-name="uni2219" unicode="&#x2219;" horiz-adv-x="606" 
d="M303 768q79 0 134 -55.5t55 -132.5q0 -79 -56 -134t-133 -55q-78 0 -133 55.5t-55 133.5q0 77 54.5 132.5t133.5 55.5z" />
    <glyph glyph-name="radical" unicode="&#x221a;" horiz-adv-x="1277" 
d="M1104 1733h196l-485 -2024h-223l-322 901l-157 -63l-47 151l370 152l223 -660q27 -122 43 -178l3 -2q30 178 36 201z" />
    <glyph glyph-name="infinity" unicode="&#x221e;" horiz-adv-x="1644" 
d="M453 948q80 0 152 -34t122 -81.5t104 -117.5q48 55 82 88.5t83 71t103 55.5t115 18q148 0 238 -100.5t90 -251.5q0 -155 -95.5 -262t-244.5 -107q-114 0 -205 65t-174 175q-44 -56 -81 -94.5t-84.5 -74.5t-103.5 -53.5t-120 -17.5q-144 0 -239 105.5t-95 253.5
q0 156 99.5 259t253.5 103zM254 584q0 -89 57 -147t144 -58q26 0 50.5 6t48.5 20t41.5 25.5t42 35.5t35.5 35.5t36 40.5t32 36q-5 7 -25 33.5t-27.5 36t-26 32.5t-30 33t-30.5 27.5t-35 25.5t-36.5 17.5t-42 13.5t-44.5 4q-90 0 -140 -61.5t-50 -155.5zM909 592
q7 -8 28.5 -35t31 -38t31 -34.5t35 -34.5t36 -27.5t41.5 -24t44 -13.5t50 -6q80 0 131.5 63.5t51.5 143.5q0 93 -51 154t-142 61q-26 0 -51 -6.5t-49.5 -21.5t-42.5 -27t-42 -37.5t-35 -37.5t-35.5 -41.5t-31.5 -37.5z" />
    <glyph glyph-name="integral" unicode="&#x222b;" horiz-adv-x="839" 
d="M668 1788q64 0 131 -25l-29 -188q-38 18 -78 18q-34 0 -61 -15t-44 -35.5t-29 -58t-18 -64.5t-9 -74.5t-3 -69v-64.5v-5v-5v-5.5v-4.5q0 -117 16.5 -480t16.5 -499q0 -292 -86 -432.5t-268 -140.5q-98 0 -168 34l35 195q8 -2 25 -8.5t34 -10.5t33 -4q85 0 119 81.5
t34 285.5q0 127 -16 511.5t-16 516.5q0 547 381 547z" />
    <glyph glyph-name="approxequal" unicode="&#x2248;" horiz-adv-x="1363" 
d="M1051 1028l159 -156q-125 -256 -321 -256q-46 0 -102 22.5t-100 49.5t-100 49.5t-102 22.5q-56 0 -170 -172l-161 153q61 120 154 188t190 68q45 0 101.5 -22t101.5 -48.5t97.5 -48.5t90.5 -22q68 0 162 172zM1051 621l159 -154q-66 -129 -149.5 -198.5t-173.5 -69.5
q-51 0 -105.5 22.5t-94.5 50t-95 50t-107 22.5q-66 0 -170 -174l-161 160q59 120 154.5 191t189.5 71q56 0 111 -22t92 -48.5t87.5 -48.5t98.5 -22q36 0 73.5 40.5t90.5 129.5z" />
    <glyph glyph-name="notequal" unicode="&#x2260;" horiz-adv-x="1363" 
d="M692 946l103 238l217 -88l-66 -150h297v-258h-409l-60 -135h469v-258h-581l-107 -244l-209 78l70 166h-295v258h405l58 135h-463v258h571z" />
    <glyph glyph-name="lessequal" unicode="&#x2264;" horiz-adv-x="1363" 
d="M1128 1268v-287l-667 -221l667 -223v-283l-987 387v231zM133 221h1004v-252h-1004v252z" />
    <glyph glyph-name="greaterequal" unicode="&#x2265;" horiz-adv-x="1363" 
d="M141 981v287l987 -396v-231l-987 -387v283l668 223zM133 221h1004v-252h-1004v252z" />
    <glyph glyph-name="lozenge" unicode="&#x25ca;" horiz-adv-x="1275" 
d="M530 1546h224l417 -825l-428 -825h-221l-418 825zM641 1325h-6q-10 -46 -41 -119l-244 -479l242 -491q20 -41 41 -121h8q5 23 18.5 61t18.5 47l248 492l-234 471q-34 70 -51 139z" />
    <glyph glyph-name="uniF8FF" unicode="&#xf8ff;" horiz-adv-x="1048" 
d="M0 1470h1049v-1470h-1049v1470zM102 102h844v1264h-844v-1264zM530 1247q113 0 183.5 -74t70.5 -194q0 -77 -29 -129.5t-104 -118.5q-73 -66 -84 -102q-12 -30 -12 -150h-94l-4 39q0 107 26.5 163.5t104.5 129.5q46 43 69 79.5t23 80.5q0 72 -47.5 123t-108.5 51
q-69 0 -112.5 -50t-55.5 -145l-102 17q12 137 83.5 208.5t192.5 71.5zM455 240v137h114v-137h-114z" />
    <glyph glyph-name="grave.cap" 
d="M-150 1851h418l207 -295h-270z" />
    <glyph glyph-name="acute.cap" 
d="M268 1851h418l-354 -295h-271z" />
    <glyph glyph-name="circumflex.cap" 
d="M102 1851h334l238 -295h-283l-129 160l-127 -160h-276z" />
    <glyph glyph-name="caron.cap" 
d="M-150 1907h283l129 -160l127 160h277l-244 -295h-334z" />
    <glyph glyph-name="caron.alt" 
d="M166 1450h274l-164 -408h-200z" />
    <glyph glyph-name="tilde.cap" 
d="M125 1851q75 0 178 -43q68 -30 115 -30q58 0 90 73h160q-48 -282 -267 -282q-64 0 -159 43q-3 1 -29.5 13t-36 16t-29 9t-34.5 5q-29 0 -52 -24.5t-34 -61.5h-162q21 126 91 204t169 78z" />
    <glyph glyph-name="dieresis.cap" 
d="M47 1888q73 0 125.5 -48t52.5 -120q0 -73 -49.5 -124.5t-124.5 -51.5q-70 0 -120 52.5t-50 123.5q0 67 49.5 117.5t116.5 50.5zM473 1888q73 0 125.5 -48t52.5 -120q0 -73 -49.5 -124.5t-124.5 -51.5q-70 0 -120 52.5t-50 123.5q0 67 50 117.5t116 50.5z" />
    <glyph glyph-name="macron.cap" 
d="M-82 1808h696v-196h-696v196z" />
    <glyph glyph-name="breve.cap" 
d="M-111 1851h164q18 -98 215 -98h37t36 2t36.5 5.5t32 10.5t30 17.5t23 26.5t18.5 36h162q-16 -149 -118.5 -222t-258.5 -73q-161 0 -264.5 72t-112.5 223z" />
    <glyph glyph-name="ring.cap" 
d="M266 1952q95 0 161.5 -68.5t66.5 -159.5q0 -93 -68 -160t-160 -67t-159.5 67.5t-67.5 159.5t67 160t160 68zM162 1724q0 -43 30.5 -73.5t73.5 -30.5q44 0 74.5 31t30.5 73q0 43 -31.5 74t-75.5 31q-39 0 -70.5 -31t-31.5 -74z" />
    <glyph glyph-name="hungarumlaut.cap" 
d="M-2 1851h418l-355 -295h-270zM539 1851h417l-354 -295h-270z" />
    <glyph glyph-name="dotaccent.cap" 
d="M260 1888q73 0 125.5 -48t52.5 -120q0 -73 -49.5 -124.5t-124.5 -51.5q-70 0 -120 52.5t-50 123.5q0 67 50 117.5t116 50.5z" />
    <glyph glyph-name="commaaccent" 
d="M186 -125h295l-184 -407h-242z" />
    <glyph glyph-name="commaaccent.alt" 
d="M219 1604h242l-131 -408h-295z" />
    </font>
</defs>
</svg>
