<?xml version="1.0" encoding="utf-8"?>
<!-- Generator: Adobe Illustrator 24.0.2, SVG Export Plug-In . SVG Version: 6.00 Build 0)  -->
<svg version="1.1" id="Layer_1" xmlns="http://www.w3.org/2000/svg" xmlns:xlink="http://www.w3.org/1999/xlink" x="0px" y="0px"
	 viewBox="0 0 116.5 156" style="enable-background:new 0 0 116.5 156;" xml:space="preserve">
<style type="text/css">
	.st0{fill:#6E7DA1;}
	.st1{fill-rule:evenodd;clip-rule:evenodd;fill:#FFFFFF;}
	.st2{fill:#FFFFFF;}
</style>
<g>
	<path class="st0" d="M67.14,30.06L83.57,1.22l2.82,1.55L62.93,43.95l2.38-33.93l3.22,0.22L67.14,30.06z"/>
	<path class="st0" d="M23.06,28.66l28.65,19L27.24,7.07l-2.78,1.62L41.6,37.12l-16.74-11.1L23.06,28.66z"/>
	<path class="st0" d="M68.47,65.4l24.47,40.59l2.78-1.62L78.58,75.94l16.74,11.1l1.8-2.64L68.47,65.4z"/>
	<path class="st0" d="M1.23,60.1l33.57-0.12l-18.2,8.57l1.39,2.87L48.7,56.95L1.22,56.92L1.23,60.1z"/>
	<path class="st0" d="M115.28,53.38H69.21L98.8,38.56l1.6,3.22l-17.42,8.39l32.27,0.11L115.28,53.38z"/>
	<path class="st0" d="M31.9,107.79l2.82,1.56l16.43-28.83l-1.39,19.82l3.22,0.22l2.38-33.93L31.9,107.79z"/>
	<path class="st0" d="M58.32,50.96L43.63,20.4l2.9-1.4l8.86,17.85l-0.31-33.1h3.25V50.96z"/>
	<path class="st0" d="M60.54,106.81h3.23V73.68l9.14,17.87l2.9-1.4L60.54,59.97V106.81z"/>
	<path class="st0" d="M54.23,52.74H20.71l0.03-2.82l20.7,0.01L12.01,33.23l1.54-2.7L54.23,52.74z"/>
	<path class="st0" d="M64.24,57.94l41.8,22.64l1.58-2.77L76.3,60.5h22.22l-0.02-2.56H64.24z"/>
	<path class="st0" d="M37.2,85.7l-2.68-1.78L45.8,67.44L16.93,84.32l-1.65-2.73l41.21-24.1L37.2,85.7z"/>
	<path class="st0" d="M82.22,23.69L62.93,51.9l41.21-24.1l-1.65-2.73L73.63,41.94L84.9,25.46L82.22,23.69z"/>
	<path class="st1" d="M38.74,129.51c0.9,0.37,1.9,0.55,2.98,0.55c1.08,0,2.08-0.19,2.98-0.55c0.9-0.37,1.69-0.88,2.35-1.53
		c0.66-0.65,1.18-1.43,1.55-2.33c0.37-0.9,0.55-1.88,0.55-2.94s-0.19-2.03-0.55-2.94c-0.37-0.9-0.88-1.68-1.55-2.33
		c-0.66-0.65-1.45-1.16-2.35-1.53c-0.9-0.37-1.9-0.55-2.98-0.55c-1.08,0-2.08,0.18-2.98,0.55c-0.9,0.37-1.69,0.88-2.35,1.53
		c-0.66,0.65-1.18,1.43-1.55,2.33c-0.37,0.9-0.55,1.88-0.55,2.94s0.18,2.03,0.55,2.94c0.37,0.9,0.88,1.68,1.55,2.33
		C37.05,128.63,37.83,129.14,38.74,129.51z M44,128.06c-0.69,0.3-1.45,0.46-2.28,0.46c-0.83,0-1.59-0.15-2.28-0.46
		c-0.69-0.3-1.28-0.72-1.78-1.25c-0.5-0.53-0.88-1.14-1.16-1.85c-0.27-0.71-0.41-1.46-0.41-2.26c0-0.8,0.14-1.56,0.41-2.26
		c0.27-0.71,0.66-1.32,1.16-1.85c0.49-0.53,1.09-0.94,1.78-1.25c0.69-0.3,1.45-0.46,2.28-0.46c0.83,0,1.59,0.15,2.28,0.46
		c0.69,0.3,1.28,0.72,1.78,1.25c0.5,0.53,0.88,1.14,1.16,1.85c0.27,0.71,0.41,1.46,0.41,2.26c0,0.81-0.14,1.56-0.41,2.26
		c-0.28,0.71-0.66,1.32-1.16,1.85C45.28,127.35,44.69,127.76,44,128.06z"/>
	<path class="st1" d="M52.6,120.45h-1.57v13.77h1.57v-6.15h0.04c0.29,0.53,0.76,0.97,1.4,1.33c0.64,0.36,1.38,0.55,2.22,0.55
		c0.66,0,1.27-0.12,1.85-0.37c0.58-0.24,1.08-0.58,1.5-1.02c0.42-0.43,0.75-0.95,1-1.54c0.24-0.59,0.36-1.24,0.36-1.94
		c0-0.7-0.12-1.35-0.36-1.94c-0.24-0.59-0.58-1.11-1.01-1.54c-0.43-0.44-0.95-0.78-1.56-1.02c-0.61-0.24-1.28-0.37-2.02-0.37
		c-0.68,0-1.31,0.14-1.88,0.41s-1.07,0.67-1.5,1.17H52.6V120.45z M52.83,126.43c-0.15-0.42-0.23-0.87-0.23-1.35
		c0-0.49,0.08-0.94,0.23-1.36c0.15-0.42,0.38-0.78,0.67-1.09c0.29-0.31,0.65-0.56,1.06-0.73c0.41-0.18,0.87-0.27,1.38-0.27
		c0.51,0,0.97,0.09,1.38,0.27c0.41,0.18,0.76,0.42,1.06,0.73c0.29,0.31,0.52,0.67,0.67,1.09c0.15,0.42,0.23,0.87,0.23,1.36
		c0,0.49-0.08,0.94-0.23,1.35c-0.15,0.42-0.38,0.78-0.67,1.09c-0.3,0.31-0.65,0.55-1.06,0.73c-0.41,0.18-0.87,0.27-1.38,0.27
		c-0.51,0-0.97-0.09-1.38-0.27c-0.41-0.18-0.76-0.42-1.06-0.73C53.21,127.21,52.98,126.85,52.83,126.43z"/>
	<path class="st1" d="M71.31,128.02c-0.56,0.71-1.18,1.21-1.85,1.49c-0.67,0.28-1.45,0.43-2.33,0.43c-0.74,0-1.4-0.13-1.99-0.39
		c-0.59-0.26-1.09-0.6-1.5-1.04c-0.41-0.44-0.72-0.95-0.94-1.54c-0.22-0.59-0.33-1.22-0.33-1.9c0-0.71,0.12-1.37,0.36-1.97
		c0.24-0.6,0.58-1.11,1-1.54s0.94-0.76,1.53-1c0.59-0.24,1.23-0.36,1.93-0.36c0.66,0,1.26,0.11,1.81,0.33
		c0.55,0.22,1.02,0.53,1.42,0.95c0.39,0.42,0.7,0.92,0.91,1.52c0.21,0.6,0.32,1.28,0.32,2.05v0.5h-7.59
		c0.03,0.4,0.12,0.78,0.29,1.14s0.39,0.68,0.65,0.95c0.27,0.27,0.58,0.48,0.94,0.64c0.36,0.16,0.76,0.24,1.19,0.24
		c0.68,0,1.26-0.12,1.73-0.36c0.47-0.24,0.89-0.59,1.26-1.05L71.31,128.02z M69.97,124.25c-0.03-0.79-0.29-1.42-0.78-1.9
		c-0.49-0.47-1.18-0.71-2.05-0.71c-0.87,0-1.57,0.24-2.11,0.71c-0.54,0.48-0.86,1.11-0.96,1.9H69.97z"/>
	<path class="st2" d="M73.34,121.46c0.03,0.37,0.04,0.76,0.04,1.19v7.06h1.57v-4.51c0-0.53,0.06-1.01,0.17-1.44
		c0.11-0.43,0.29-0.81,0.52-1.13c0.23-0.32,0.53-0.56,0.9-0.73c0.37-0.17,0.81-0.26,1.32-0.26c0.74,0,1.28,0.22,1.63,0.67
		c0.35,0.45,0.52,1.06,0.52,1.84v5.56h1.57v-5.72c0-0.55-0.07-1.06-0.21-1.53c-0.14-0.47-0.36-0.87-0.65-1.2
		c-0.3-0.33-0.67-0.59-1.12-0.77c-0.45-0.18-0.98-0.28-1.6-0.28c-0.39,0-0.75,0.05-1.08,0.15c-0.34,0.1-0.64,0.23-0.9,0.39
		c-0.27,0.17-0.5,0.35-0.69,0.56c-0.19,0.21-0.35,0.43-0.45,0.65h-0.04c0-0.26-0.01-0.52-0.02-0.77c-0.01-0.25-0.02-0.5-0.02-0.75
		H73.3C73.3,120.75,73.31,121.09,73.34,121.46z"/>
	<path class="st1" d="M4.22,136.24h4.22c0.66,0,1.28,0.06,1.88,0.19c0.6,0.12,1.12,0.34,1.59,0.63s0.83,0.69,1.1,1.19
		c0.27,0.49,0.41,1.1,0.41,1.83c0,0.77-0.15,1.4-0.44,1.9c-0.3,0.5-0.67,0.9-1.14,1.19c-0.46,0.29-0.97,0.5-1.52,0.61
		c-0.55,0.12-1.07,0.18-1.57,0.18H5.91v6.29H4.22V136.24z M5.91,142.41h2.85c0.84,0,1.53-0.19,2.06-0.57
		c0.53-0.38,0.79-0.96,0.79-1.75c0-0.79-0.26-1.38-0.79-1.75c-0.53-0.38-1.21-0.56-2.06-0.56H5.91V142.41z"/>
	<path class="st2" d="M16.71,135.29h-1.57v14.95h1.57v-4.51c0-0.53,0.06-1.01,0.17-1.44c0.11-0.43,0.29-0.81,0.52-1.13
		c0.23-0.32,0.53-0.56,0.9-0.73c0.37-0.17,0.81-0.26,1.32-0.26c0.74,0,1.28,0.22,1.63,0.67c0.35,0.45,0.52,1.06,0.52,1.84v5.56h1.57
		v-5.72c0-0.55-0.07-1.07-0.21-1.53c-0.14-0.47-0.36-0.87-0.65-1.2c-0.3-0.33-0.67-0.59-1.11-0.77c-0.45-0.18-0.98-0.28-1.6-0.28
		c-0.36,0-0.7,0.05-1.03,0.14c-0.32,0.09-0.61,0.21-0.87,0.35c-0.26,0.15-0.49,0.31-0.67,0.48c-0.19,0.18-0.33,0.36-0.44,0.54h-0.04
		V135.29z"/>
	<path class="st2" d="M25.63,137.37c0-0.3,0.11-0.57,0.33-0.79c0.22-0.22,0.49-0.34,0.81-0.34c0.32,0,0.59,0.11,0.81,0.34
		c0.22,0.22,0.33,0.49,0.33,0.79c0,0.33-0.11,0.6-0.32,0.81c-0.21,0.21-0.49,0.32-0.82,0.32c-0.34,0-0.61-0.11-0.82-0.32
		C25.73,137.97,25.63,137.7,25.63,137.37z"/>
	<path class="st2" d="M27.55,150.24v-9.26h-1.57v9.26H27.55z"/>
	<path class="st2" d="M32.37,150.24h-1.57v-14.95h1.57V150.24z"/>
	<path class="st1" d="M35.13,142.17c0.48-0.49,1.05-0.85,1.72-1.08c0.66-0.23,1.33-0.35,2.02-0.35c1.39,0,2.4,0.32,3.01,0.97
		c0.62,0.64,0.92,1.63,0.92,2.95v3.98c0,0.26,0.01,0.54,0.04,0.82c0.03,0.28,0.06,0.54,0.1,0.78h-1.51
		c-0.05-0.21-0.08-0.44-0.09-0.7c-0.01-0.26-0.01-0.48-0.01-0.68H41.3c-0.31,0.47-0.72,0.86-1.23,1.17
		c-0.52,0.3-1.14,0.46-1.86,0.46c-0.48,0-0.93-0.06-1.36-0.18c-0.42-0.12-0.79-0.29-1.11-0.52c-0.31-0.23-0.57-0.52-0.75-0.86
		c-0.19-0.34-0.28-0.74-0.28-1.19c0-0.76,0.2-1.37,0.6-1.8c0.4-0.43,0.9-0.76,1.5-0.97c0.6-0.21,1.24-0.34,1.93-0.39
		c0.69-0.05,1.32-0.08,1.9-0.08h0.6v-0.28c0-0.67-0.2-1.18-0.61-1.52c-0.41-0.34-0.98-0.51-1.72-0.51c-0.51,0-1.01,0.08-1.5,0.25
		c-0.49,0.17-0.92,0.42-1.29,0.76L35.13,142.17z M39.67,145.79c-1.01,0-1.8,0.14-2.39,0.42c-0.59,0.28-0.88,0.73-0.88,1.36
		c0,0.58,0.2,0.99,0.59,1.24c0.39,0.24,0.89,0.37,1.48,0.37c0.46,0,0.85-0.08,1.19-0.23c0.34-0.15,0.62-0.35,0.85-0.6
		c0.23-0.25,0.4-0.54,0.52-0.88c0.12-0.34,0.19-0.7,0.2-1.08v-0.59H39.67z"/>
	<path class="st2" d="M45.4,141.99c0.03,0.37,0.04,0.77,0.04,1.19v7.06h1.57v-4.51c0-0.53,0.06-1.01,0.17-1.44
		c0.11-0.43,0.29-0.81,0.52-1.13c0.23-0.32,0.53-0.56,0.9-0.73c0.37-0.17,0.81-0.26,1.32-0.26c0.74,0,1.28,0.22,1.63,0.67
		c0.35,0.45,0.52,1.06,0.52,1.84v5.56h1.57v-5.72c0-0.55-0.07-1.07-0.21-1.53c-0.14-0.47-0.36-0.87-0.65-1.2
		c-0.3-0.33-0.67-0.59-1.12-0.77c-0.45-0.18-0.98-0.28-1.6-0.28c-0.39,0-0.75,0.05-1.08,0.15s-0.64,0.23-0.9,0.4
		c-0.27,0.17-0.5,0.35-0.69,0.56c-0.19,0.21-0.34,0.43-0.45,0.65h-0.04c0-0.26-0.01-0.52-0.02-0.77s-0.02-0.5-0.02-0.75h-1.49
		C45.36,141.29,45.37,141.62,45.4,141.99z"/>
	<path class="st2" d="M61.28,142.29h-2.77v4.63c0,0.3,0.01,0.58,0.02,0.84c0.01,0.26,0.07,0.48,0.16,0.67
		c0.09,0.19,0.23,0.34,0.42,0.45c0.19,0.11,0.46,0.17,0.8,0.17c0.23,0,0.46-0.03,0.7-0.08c0.24-0.05,0.47-0.13,0.68-0.24l0.06,1.4
		c-0.27,0.12-0.57,0.2-0.89,0.26c-0.33,0.05-0.64,0.08-0.93,0.08c-0.56,0-1.01-0.07-1.35-0.22c-0.33-0.15-0.6-0.35-0.78-0.61
		c-0.19-0.26-0.31-0.59-0.37-0.98c-0.06-0.39-0.09-0.82-0.09-1.3v-5.08h-2.05v-1.31h2.05v-2.63h1.57v2.63h2.77V142.29z"/>
	<path class="st2" d="M64.78,135.29h-1.57v14.95h1.57v-4.51c0-0.53,0.06-1.01,0.17-1.44c0.11-0.43,0.29-0.81,0.52-1.13
		c0.24-0.32,0.54-0.56,0.9-0.73c0.37-0.17,0.81-0.26,1.32-0.26c0.74,0,1.28,0.22,1.63,0.67c0.35,0.45,0.52,1.06,0.52,1.84v5.56h1.57
		v-5.72c0-0.55-0.07-1.06-0.21-1.53c-0.14-0.47-0.36-0.87-0.65-1.2c-0.3-0.33-0.67-0.59-1.12-0.77c-0.45-0.18-0.98-0.28-1.6-0.28
		c-0.36,0-0.7,0.05-1.03,0.14c-0.32,0.09-0.61,0.21-0.87,0.35c-0.26,0.15-0.49,0.31-0.67,0.48c-0.19,0.18-0.33,0.36-0.44,0.54h-0.04
		V135.29z"/>
	<path class="st2" d="M73.97,143.18c0-0.42-0.01-0.82-0.04-1.19c-0.03-0.37-0.04-0.7-0.04-1.01h1.49c0,0.25,0.01,0.5,0.02,0.75
		s0.02,0.51,0.02,0.77h0.04c0.11-0.22,0.26-0.44,0.45-0.65c0.2-0.21,0.43-0.4,0.69-0.56c0.27-0.16,0.57-0.3,0.9-0.4
		s0.7-0.15,1.09-0.15c0.11,0,0.21,0.01,0.32,0.02c0.11,0.01,0.21,0.04,0.32,0.08l-0.1,1.56c-0.27-0.08-0.55-0.12-0.84-0.12
		c-0.96,0-1.66,0.31-2.1,0.92c-0.43,0.61-0.65,1.45-0.65,2.52v4.51h-1.57V143.18z"/>
	<path class="st1" d="M80.37,143.64c-0.26,0.59-0.38,1.25-0.38,1.98c0,0.73,0.13,1.39,0.38,1.98c0.25,0.59,0.6,1.1,1.04,1.53
		c0.44,0.43,0.97,0.76,1.59,1c0.62,0.24,1.29,0.36,2.01,0.36c0.72,0,1.39-0.12,2.01-0.36c0.62-0.24,1.14-0.57,1.59-1
		c0.44-0.43,0.79-0.94,1.04-1.53c0.25-0.59,0.38-1.25,0.38-1.98c0-0.73-0.13-1.39-0.38-1.98c-0.26-0.59-0.6-1.1-1.04-1.53
		c-0.44-0.43-0.97-0.76-1.59-1c-0.62-0.24-1.29-0.36-2.01-0.36c-0.72,0-1.39,0.12-2.01,0.36c-0.62,0.24-1.14,0.57-1.59,1
		C80.98,142.53,80.63,143.04,80.37,143.64z M81.91,146.97c-0.15-0.42-0.23-0.87-0.23-1.35c0-0.49,0.08-0.94,0.23-1.35
		c0.15-0.42,0.38-0.78,0.67-1.09c0.3-0.31,0.65-0.55,1.06-0.73s0.87-0.27,1.38-0.27c0.51,0,0.97,0.09,1.38,0.27
		c0.41,0.18,0.76,0.42,1.05,0.73c0.29,0.31,0.52,0.67,0.67,1.09c0.15,0.41,0.23,0.87,0.23,1.35c0,0.49-0.08,0.94-0.23,1.35
		c-0.15,0.42-0.38,0.78-0.67,1.09c-0.29,0.31-0.65,0.55-1.05,0.73c-0.41,0.18-0.87,0.27-1.38,0.27c-0.51,0-0.97-0.09-1.38-0.27
		c-0.41-0.18-0.76-0.42-1.06-0.73C82.29,147.75,82.06,147.39,81.91,146.97z"/>
	<path class="st1" d="M91.73,140.99h1.57v1.35h0.04c0.43-0.5,0.93-0.89,1.5-1.17c0.57-0.28,1.19-0.42,1.88-0.42
		c0.74,0,1.41,0.12,2.02,0.37c0.61,0.24,1.13,0.58,1.55,1.02c0.43,0.43,0.76,0.95,1,1.54c0.24,0.59,0.36,1.24,0.36,1.94
		c0,0.7-0.12,1.35-0.36,1.94c-0.24,0.59-0.57,1.11-0.99,1.54c-0.42,0.44-0.92,0.78-1.5,1.02c-0.57,0.24-1.19,0.37-1.85,0.37
		c-0.84,0-1.58-0.18-2.22-0.55c-0.64-0.36-1.1-0.81-1.4-1.33H93.3v6.15h-1.57V140.99z M93.3,145.61c0,0.49,0.08,0.94,0.23,1.35
		c0.15,0.42,0.38,0.78,0.67,1.09c0.29,0.31,0.65,0.55,1.05,0.73c0.41,0.18,0.87,0.27,1.38,0.27s0.97-0.09,1.38-0.27
		c0.41-0.18,0.76-0.42,1.05-0.73c0.29-0.31,0.52-0.67,0.67-1.09c0.15-0.41,0.23-0.87,0.23-1.35c0-0.49-0.08-0.94-0.23-1.36
		c-0.15-0.42-0.38-0.78-0.67-1.09c-0.29-0.31-0.65-0.55-1.05-0.73c-0.41-0.18-0.87-0.27-1.38-0.27s-0.97,0.09-1.38,0.27
		c-0.41,0.18-0.76,0.42-1.05,0.73c-0.3,0.31-0.52,0.67-0.67,1.09C93.38,144.67,93.3,145.13,93.3,145.61z"/>
	<path class="st2" d="M107.92,150.59c0.02-0.04,0.03-0.08,0.06-0.14l3.66-9.47h-1.71l-2.79,7.26h-0.04l-2.91-7.26h-1.83l3.9,9.32
		l-1.52,4.48h1.6C107.74,151.08,107.83,150.84,107.92,150.59z"/>
</g>
</svg>
