<?xml version="1.0" encoding="utf-8"?>
<!-- Generator: Adobe Illustrator 24.0.2, SVG Export Plug-In . SVG Version: 6.00 Build 0)  -->
<svg version="1.1" id="Layer_1" xmlns="http://www.w3.org/2000/svg" xmlns:xlink="http://www.w3.org/1999/xlink" x="0px" y="0px"
	 viewBox="0 0 193.25 60.5" style="enable-background:new 0 0 193.25 60.5;" xml:space="preserve">
<style type="text/css">
	.st0{fill:#FFFFFF;}
	.st1{fill-rule:evenodd;clip-rule:evenodd;fill:#FFFFFF;}
</style>
<g>
	<path class="st0" d="M35.83,16.71l8.68-15.47L46,2.08L33.61,24.17l1.26-18.21l1.7,0.12L35.83,16.71z"/>
	<path class="st0" d="M12.54,15.96l15.14,10.19L14.75,4.38l-1.47,0.87l9.06,15.25l-8.84-5.95L12.54,15.96z"/>
	<path class="st0" d="M36.53,35.68l12.93,21.77l1.47-0.87l-9.06-15.25l8.84,5.95l0.95-1.42L36.53,35.68z"/>
	<path class="st0" d="M1.01,32.83l17.74-0.06l-9.62,4.6l0.74,1.54l16.23-7.76L1,31.13L1.01,32.83z"/>
	<path class="st0" d="M61.27,29.23H36.93l15.63-7.95L53.4,23l-9.21,4.5l17.05,0.06L61.27,29.23z"/>
	<path class="st0" d="M17.21,58.42l1.49,0.83l8.68-15.47l-0.73,10.63l1.7,0.12l1.26-18.21L17.21,58.42z"/>
	<path class="st0" d="M31.17,27.93l-7.76-16.39l1.53-0.75l4.68,9.58L29.45,2.61h1.72V27.93z"/>
	<path class="st0" d="M32.34,57.89h1.71V40.12l4.83,9.59l1.53-0.75l-8.07-16.19V57.89z"/>
	<path class="st0" d="M29.01,28.89H11.3l0.01-1.51l10.94,0L6.7,18.42l0.81-1.45L29.01,28.89z"/>
	<path class="st0" d="M34.3,31.68l22.09,12.14l0.83-1.49l-16.55-9.29h11.74l-0.01-1.37H34.3z"/>
	<path class="st0" d="M20.01,46.57l-1.41-0.95l5.95-8.84L9.3,45.83l-0.87-1.47l21.77-12.93L20.01,46.57z"/>
	<path class="st0" d="M43.8,13.3L33.61,28.43L55.38,15.5l-0.87-1.47l-15.25,9.06l5.96-8.84L43.8,13.3z"/>
	<path class="st1" d="M75.83,23.08c-1.26,0-2.42-0.22-3.47-0.65c-1.05-0.44-1.96-1.04-2.74-1.81c-0.77-0.77-1.37-1.69-1.8-2.76
		c-0.43-1.07-0.64-2.22-0.64-3.47c0-1.25,0.21-2.4,0.64-3.47c0.43-1.07,1.03-1.99,1.8-2.76c0.77-0.77,1.68-1.38,2.74-1.81
		c1.05-0.44,2.21-0.66,3.47-0.66c1.26,0,2.42,0.22,3.47,0.66c1.05,0.44,1.97,1.04,2.74,1.81c0.77,0.77,1.37,1.69,1.8,2.76
		c0.43,1.07,0.64,2.23,0.64,3.47c0,1.25-0.21,2.41-0.64,3.47c-0.43,1.07-1.03,1.99-1.8,2.76c-0.77,0.77-1.68,1.37-2.74,1.81
		C78.25,22.86,77.09,23.08,75.83,23.08z M75.83,21.25c0.97,0,1.85-0.18,2.65-0.54c0.8-0.36,1.49-0.85,2.07-1.47
		c0.58-0.62,1.03-1.35,1.34-2.19c0.32-0.83,0.48-1.73,0.48-2.68c0-0.95-0.16-1.84-0.48-2.68c-0.32-0.83-0.77-1.56-1.34-2.19
		c-0.58-0.62-1.27-1.11-2.07-1.47c-0.8-0.36-1.69-0.54-2.65-0.54c-0.97,0-1.85,0.18-2.65,0.54c-0.8,0.36-1.49,0.85-2.07,1.47
		c-0.58,0.62-1.02,1.35-1.34,2.19c-0.32,0.83-0.48,1.73-0.48,2.68c0,0.95,0.16,1.84,0.48,2.68c0.32,0.83,0.77,1.56,1.34,2.19
		c0.58,0.62,1.27,1.12,2.07,1.47C73.98,21.07,74.86,21.25,75.83,21.25z"/>
	<path class="st1" d="M86.67,11.71h1.82v1.59h0.05c0.5-0.59,1.08-1.05,1.74-1.38c0.66-0.33,1.39-0.49,2.19-0.49
		c0.86,0,1.64,0.14,2.35,0.43c0.71,0.29,1.31,0.69,1.81,1.2c0.5,0.51,0.89,1.12,1.17,1.82c0.28,0.7,0.42,1.47,0.42,2.29
		c0,0.83-0.14,1.59-0.42,2.29c-0.28,0.7-0.67,1.31-1.16,1.82c-0.49,0.51-1.07,0.92-1.74,1.2c-0.67,0.29-1.39,0.43-2.15,0.43
		c-0.98,0-1.84-0.21-2.58-0.64c-0.74-0.43-1.28-0.95-1.63-1.58H88.5v7.27h-1.82V11.71z M88.5,17.18c0,0.58,0.09,1.11,0.27,1.6
		c0.18,0.49,0.44,0.92,0.78,1.29c0.34,0.37,0.75,0.66,1.23,0.87c0.48,0.21,1.01,0.31,1.6,0.31s1.13-0.1,1.6-0.31
		c0.48-0.21,0.89-0.5,1.23-0.87c0.34-0.37,0.6-0.79,0.78-1.29c0.18-0.49,0.27-1.02,0.27-1.6c0-0.58-0.09-1.11-0.27-1.6
		c-0.18-0.49-0.44-0.92-0.78-1.29c-0.34-0.37-0.75-0.65-1.23-0.87c-0.47-0.21-1.01-0.32-1.6-0.32s-1.13,0.11-1.6,0.32
		c-0.48,0.21-0.89,0.5-1.23,0.87c-0.34,0.37-0.6,0.8-0.78,1.29C88.59,16.07,88.5,16.61,88.5,17.18z"/>
	<path class="st1" d="M110.28,20.67c-0.65,0.84-1.37,1.43-2.15,1.77c-0.78,0.34-1.68,0.5-2.71,0.5c-0.86,0-1.63-0.15-2.31-0.46
		c-0.69-0.3-1.27-0.71-1.74-1.23c-0.48-0.52-0.84-1.12-1.1-1.82c-0.26-0.7-0.39-1.45-0.39-2.24c0-0.84,0.14-1.62,0.42-2.33
		c0.28-0.71,0.67-1.32,1.17-1.82c0.5-0.51,1.09-0.9,1.78-1.18c0.68-0.28,1.43-0.42,2.24-0.42c0.76,0,1.47,0.13,2.1,0.39
		c0.64,0.26,1.19,0.63,1.65,1.12c0.46,0.49,0.81,1.09,1.06,1.8c0.25,0.71,0.38,1.52,0.38,2.42v0.58h-8.84
		c0.03,0.47,0.14,0.92,0.34,1.34c0.19,0.43,0.45,0.8,0.76,1.12c0.31,0.32,0.68,0.57,1.1,0.76c0.42,0.19,0.88,0.28,1.38,0.28
		c0.8,0,1.46-0.14,2.01-0.42c0.54-0.28,1.04-0.69,1.47-1.24L110.28,20.67z M108.72,16.2c-0.03-0.94-0.34-1.69-0.91-2.24
		c-0.58-0.56-1.37-0.84-2.38-0.84c-1.01,0-1.83,0.28-2.46,0.84c-0.62,0.56-1,1.31-1.12,2.24H108.72z"/>
	<path class="st1" d="M112.69,14.31c0-0.5-0.02-0.97-0.05-1.4c-0.03-0.44-0.05-0.83-0.05-1.19h1.73c0,0.29,0.01,0.59,0.02,0.89
		c0.02,0.3,0.02,0.6,0.02,0.91h0.05c0.13-0.26,0.3-0.52,0.53-0.77c0.23-0.25,0.49-0.47,0.81-0.67c0.31-0.19,0.66-0.35,1.05-0.47
		c0.39-0.12,0.81-0.18,1.26-0.18c0.72,0,1.34,0.11,1.86,0.33c0.52,0.22,0.96,0.52,1.3,0.91c0.34,0.39,0.6,0.86,0.76,1.41
		c0.16,0.55,0.25,1.16,0.25,1.81v6.76h-1.82v-6.57c0-0.92-0.2-1.64-0.61-2.17c-0.41-0.53-1.04-0.79-1.89-0.79
		c-0.59,0-1.1,0.1-1.53,0.3c-0.43,0.2-0.78,0.49-1.05,0.87c-0.27,0.37-0.47,0.82-0.61,1.33c-0.13,0.51-0.2,1.08-0.2,1.71v5.33h-1.82
		V14.31z"/>
	<path class="st1" d="M67.18,32.9h4.91c0.76,0,1.49,0.07,2.19,0.22c0.69,0.15,1.31,0.4,1.85,0.75c0.54,0.35,0.97,0.82,1.29,1.4
		c0.32,0.58,0.48,1.31,0.48,2.16c0,0.9-0.17,1.65-0.51,2.24c-0.34,0.59-0.78,1.06-1.32,1.4c-0.54,0.34-1.13,0.59-1.76,0.72
		c-0.64,0.14-1.25,0.21-1.82,0.21h-3.32v7.44h-1.96V32.9z M69.14,40.2h3.32c0.98,0,1.78-0.22,2.4-0.67
		c0.62-0.44,0.92-1.13,0.92-2.07c0-0.94-0.31-1.63-0.92-2.07c-0.62-0.44-1.41-0.67-2.4-0.67h-3.32V40.2z"/>
	<path class="st1" d="M79.9,31.78h1.82v8.25h0.05c0.13-0.22,0.3-0.43,0.52-0.64c0.22-0.21,0.48-0.4,0.78-0.57
		c0.3-0.17,0.64-0.31,1.02-0.42c0.37-0.11,0.77-0.16,1.19-0.16c0.72,0,1.34,0.11,1.86,0.33c0.52,0.22,0.95,0.52,1.3,0.91
		c0.34,0.39,0.6,0.86,0.76,1.41c0.16,0.55,0.25,1.16,0.25,1.81v6.76h-1.82v-6.57c0-0.92-0.2-1.64-0.61-2.17
		c-0.41-0.53-1.04-0.8-1.89-0.8c-0.59,0-1.1,0.1-1.53,0.3c-0.43,0.2-0.78,0.49-1.05,0.87c-0.27,0.37-0.47,0.82-0.61,1.33
		c-0.13,0.51-0.2,1.08-0.2,1.71v5.33H79.9V31.78z"/>
	<path class="st1" d="M92.1,34.24c0-0.36,0.13-0.67,0.39-0.93c0.26-0.26,0.57-0.4,0.95-0.4c0.37,0,0.69,0.13,0.95,0.4
		c0.26,0.26,0.38,0.58,0.38,0.93c0,0.39-0.12,0.71-0.37,0.96c-0.25,0.25-0.57,0.37-0.96,0.37c-0.39,0-0.71-0.12-0.96-0.37
		C92.22,34.95,92.1,34.63,92.1,34.24z M92.52,49.46h1.82V38.52h-1.82V49.46z"/>
	<path class="st1" d="M98.13,49.46h1.82V31.78h-1.82V49.46z"/>
	<path class="st1" d="M103.17,39.92c0.56-0.58,1.23-1,2-1.27c0.77-0.27,1.56-0.41,2.35-0.41c1.62,0,2.79,0.38,3.51,1.14
		c0.72,0.76,1.08,1.93,1.08,3.48v4.7c0,0.31,0.01,0.63,0.05,0.97c0.03,0.34,0.07,0.64,0.12,0.92h-1.75
		c-0.06-0.25-0.1-0.53-0.11-0.83c-0.01-0.3-0.01-0.57-0.01-0.81h-0.05c-0.36,0.56-0.84,1.02-1.44,1.38
		c-0.6,0.36-1.32,0.54-2.16,0.54c-0.56,0-1.09-0.07-1.58-0.21c-0.49-0.14-0.92-0.35-1.29-0.62c-0.37-0.27-0.66-0.61-0.87-1.02
		c-0.22-0.41-0.33-0.87-0.33-1.4c0-0.91,0.23-1.61,0.7-2.13c0.47-0.51,1.05-0.9,1.74-1.14c0.69-0.25,1.44-0.41,2.25-0.47
		c0.8-0.06,1.54-0.09,2.21-0.09h0.7v-0.33c0-0.79-0.24-1.39-0.71-1.8c-0.47-0.41-1.14-0.61-2-0.61c-0.59,0-1.17,0.1-1.74,0.29
		c-0.57,0.2-1.07,0.5-1.51,0.9L103.17,39.92z M108.45,44.2c-1.17,0-2.1,0.16-2.78,0.49c-0.69,0.33-1.03,0.87-1.03,1.61
		c0,0.69,0.23,1.17,0.69,1.46c0.46,0.29,1.03,0.43,1.72,0.43c0.53,0,0.99-0.09,1.39-0.27c0.4-0.18,0.73-0.42,0.99-0.71
		c0.27-0.3,0.47-0.64,0.61-1.04c0.14-0.4,0.22-0.82,0.23-1.28v-0.7H108.45z"/>
	<path class="st1" d="M115.17,41.11c0-0.5-0.02-0.97-0.05-1.4c-0.03-0.44-0.05-0.83-0.05-1.19h1.73c0,0.3,0.01,0.59,0.02,0.89
		c0.02,0.3,0.02,0.6,0.02,0.91h0.05c0.12-0.26,0.3-0.52,0.53-0.77c0.23-0.25,0.49-0.47,0.81-0.67c0.31-0.19,0.66-0.35,1.05-0.47
		c0.39-0.12,0.81-0.18,1.26-0.18c0.72,0,1.34,0.11,1.86,0.33c0.52,0.22,0.96,0.52,1.3,0.91c0.34,0.39,0.6,0.86,0.76,1.41
		c0.16,0.55,0.24,1.16,0.24,1.81v6.76h-1.82v-6.57c0-0.92-0.2-1.64-0.61-2.17c-0.41-0.53-1.04-0.8-1.89-0.8
		c-0.59,0-1.1,0.1-1.53,0.3c-0.43,0.2-0.78,0.49-1.05,0.87c-0.27,0.37-0.48,0.82-0.61,1.33c-0.13,0.51-0.2,1.08-0.2,1.71v5.33h-1.82
		V41.11z"/>
	<path class="st1" d="M133.61,40.06h-3.23v5.47c0,0.36,0.01,0.69,0.02,0.99c0.02,0.3,0.08,0.57,0.19,0.79
		c0.11,0.23,0.27,0.41,0.49,0.54c0.22,0.13,0.53,0.2,0.93,0.2c0.26,0,0.54-0.03,0.82-0.09c0.28-0.06,0.54-0.16,0.79-0.28l0.07,1.66
		c-0.31,0.14-0.66,0.24-1.04,0.3c-0.38,0.06-0.74,0.09-1.09,0.09c-0.65,0-1.18-0.09-1.57-0.26c-0.39-0.17-0.69-0.41-0.91-0.73
		c-0.22-0.31-0.36-0.7-0.43-1.16c-0.07-0.46-0.1-0.97-0.1-1.53v-6.01h-2.39v-1.54h2.39V35.4h1.82v3.11h3.23V40.06z"/>
	<path class="st1" d="M135.86,31.78h1.82v8.25h0.05c0.12-0.22,0.3-0.43,0.51-0.64c0.22-0.21,0.48-0.4,0.78-0.57
		c0.3-0.17,0.64-0.31,1.02-0.42c0.37-0.11,0.77-0.16,1.19-0.16c0.72,0,1.34,0.11,1.86,0.33c0.52,0.22,0.96,0.52,1.3,0.91
		c0.34,0.39,0.6,0.86,0.76,1.41c0.16,0.55,0.25,1.16,0.25,1.81v6.76h-1.82v-6.57c0-0.92-0.2-1.64-0.61-2.17
		c-0.41-0.53-1.04-0.8-1.89-0.8c-0.59,0-1.1,0.1-1.53,0.3c-0.43,0.2-0.78,0.49-1.05,0.87c-0.27,0.37-0.48,0.82-0.61,1.33
		c-0.13,0.51-0.2,1.08-0.2,1.71v5.33h-1.82V31.78z"/>
	<path class="st1" d="M148.39,41.11c0-0.5-0.02-0.97-0.05-1.4c-0.03-0.44-0.05-0.83-0.05-1.19h1.73c0,0.3,0.01,0.59,0.02,0.89
		c0.02,0.3,0.02,0.6,0.02,0.91h0.05c0.12-0.26,0.3-0.52,0.53-0.77c0.23-0.25,0.49-0.47,0.81-0.67c0.31-0.19,0.66-0.35,1.05-0.47
		c0.39-0.12,0.81-0.18,1.26-0.18c0.12,0,0.25,0.01,0.37,0.02c0.12,0.02,0.25,0.05,0.37,0.09l-0.12,1.85
		c-0.31-0.09-0.64-0.14-0.98-0.14c-1.12,0-1.94,0.36-2.44,1.09c-0.51,0.72-0.76,1.72-0.76,2.98v5.33h-1.82V41.11z"/>
	<path class="st1" d="M155.4,43.99c0-0.86,0.15-1.64,0.44-2.34c0.3-0.7,0.7-1.3,1.22-1.81c0.52-0.51,1.13-0.9,1.85-1.18
		c0.72-0.28,1.5-0.42,2.34-0.42c0.84,0,1.62,0.14,2.34,0.42c0.72,0.28,1.33,0.67,1.85,1.18c0.52,0.51,0.92,1.11,1.22,1.81
		c0.3,0.7,0.45,1.48,0.45,2.34c0,0.86-0.15,1.64-0.45,2.34c-0.3,0.7-0.7,1.31-1.22,1.81c-0.51,0.51-1.13,0.9-1.85,1.18
		c-0.72,0.28-1.5,0.42-2.34,0.42c-0.84,0-1.62-0.14-2.34-0.42c-0.72-0.28-1.33-0.67-1.85-1.18c-0.52-0.51-0.92-1.11-1.22-1.81
		C155.54,45.62,155.4,44.84,155.4,43.99z M157.36,43.99c0,0.58,0.09,1.11,0.27,1.6c0.18,0.49,0.44,0.92,0.78,1.29
		c0.34,0.37,0.75,0.66,1.23,0.87c0.48,0.21,1.01,0.31,1.6,0.31c0.59,0,1.13-0.11,1.6-0.31c0.48-0.21,0.88-0.5,1.23-0.87
		c0.34-0.37,0.6-0.79,0.78-1.29c0.18-0.49,0.27-1.02,0.27-1.6c0-0.58-0.09-1.11-0.27-1.6c-0.18-0.49-0.44-0.92-0.78-1.29
		c-0.34-0.37-0.75-0.66-1.23-0.87c-0.48-0.21-1.01-0.32-1.6-0.32c-0.59,0-1.13,0.11-1.6,0.32c-0.48,0.21-0.88,0.5-1.23,0.87
		c-0.34,0.37-0.6,0.79-0.78,1.29C157.45,42.88,157.36,43.41,157.36,43.99z"/>
	<path class="st1" d="M169.07,38.52h1.82v1.59h0.05c0.5-0.59,1.08-1.05,1.74-1.38c0.66-0.33,1.39-0.49,2.19-0.49
		c0.86,0,1.64,0.14,2.35,0.43c0.71,0.29,1.31,0.69,1.81,1.2c0.5,0.51,0.89,1.12,1.17,1.82c0.28,0.7,0.42,1.47,0.42,2.29
		s-0.14,1.59-0.42,2.29c-0.28,0.7-0.67,1.31-1.16,1.82c-0.49,0.51-1.07,0.92-1.74,1.2c-0.67,0.29-1.39,0.43-2.15,0.43
		c-0.98,0-1.84-0.21-2.58-0.64c-0.74-0.43-1.28-0.95-1.63-1.58h-0.05v7.27h-1.82V38.52z M170.89,43.99c0,0.58,0.09,1.11,0.27,1.6
		c0.18,0.49,0.44,0.92,0.78,1.29c0.34,0.37,0.75,0.65,1.23,0.87c0.48,0.21,1.01,0.32,1.6,0.32c0.59,0,1.13-0.1,1.6-0.32
		c0.48-0.21,0.89-0.5,1.23-0.87c0.34-0.37,0.6-0.79,0.78-1.29c0.18-0.49,0.27-1.02,0.27-1.6c0-0.58-0.09-1.11-0.27-1.6
		c-0.18-0.49-0.44-0.92-0.78-1.29c-0.34-0.37-0.75-0.66-1.23-0.87c-0.48-0.21-1.01-0.32-1.6-0.32c-0.59,0-1.12,0.11-1.6,0.32
		c-0.48,0.21-0.89,0.5-1.23,0.87c-0.35,0.37-0.6,0.8-0.78,1.29C170.98,42.88,170.89,43.41,170.89,43.99z"/>
	<path class="st1" d="M187.99,49.71c-0.19,0.47,0,0-1.91,5.11h-1.87l1.77-5.29l-4.54-11.01h2.13l3.39,8.58h0.05l3.25-8.58h1.99
		L187.99,49.71z"/>
</g>
</svg>
